<svg width="68" height="68" viewBox="0 0 68 68" fill="none" xmlns="http://www.w3.org/2000/svg">
<circle cx="34" cy="34" r="25" fill="#51829B"/>
<path d="M13.658 31.28C13.658 30.328 14.05 29.5533 14.834 28.956C15.6273 28.3587 16.6633 28.06 17.942 28.06C19.23 28.06 20.28 28.3727 21.092 28.998C21.9133 29.6233 22.324 30.2767 22.324 30.958C22.324 31.042 22.2913 31.1167 22.226 31.182C22.17 31.238 22.1047 31.266 22.03 31.266H19.23C19.0153 31.266 18.8193 31.1867 18.642 31.028C18.4647 30.8693 18.2267 30.79 17.928 30.79C17.48 30.79 17.256 30.9207 17.256 31.182C17.256 31.322 17.3633 31.4387 17.578 31.532C17.802 31.6253 18.2127 31.7093 18.81 31.784C20.2007 31.9613 21.19 32.288 21.778 32.764C22.3753 33.2307 22.674 33.9447 22.674 34.906C22.674 35.858 22.2353 36.6373 21.358 37.244C20.49 37.8413 19.3513 38.14 17.942 38.14C16.5327 38.14 15.4267 37.8507 14.624 37.272C13.8213 36.6933 13.42 35.9887 13.42 35.158C13.42 35.074 13.448 35.004 13.504 34.948C13.5693 34.8827 13.644 34.85 13.728 34.85H16.388C16.584 34.85 16.7987 34.9433 17.032 35.13C17.2747 35.3167 17.606 35.41 18.026 35.41C18.726 35.41 19.076 35.2793 19.076 35.018C19.076 34.85 18.95 34.724 18.698 34.64C18.446 34.5467 17.97 34.4533 17.27 34.36C14.862 34.0427 13.658 33.016 13.658 31.28ZM27.9898 33.17V34.71C27.9898 35.1767 28.1905 35.41 28.5918 35.41H29.8658C29.9685 35.41 30.0572 35.4473 30.1318 35.522C30.2065 35.5967 30.2438 35.6853 30.2438 35.788V37.622C30.2438 37.7247 30.2065 37.8133 30.1318 37.888C30.0572 37.9627 29.9685 38 29.8658 38H28.2838C25.9505 38 24.7838 36.9967 24.7838 34.99V33.17H23.6778C23.5752 33.17 23.4865 33.1327 23.4118 33.058C23.3372 32.9833 23.2998 32.8947 23.2998 32.792V31.098C23.2998 30.9953 23.3372 30.9067 23.4118 30.832C23.4865 30.7573 23.5752 30.72 23.6778 30.72H24.7838V28.438C24.7838 28.3353 24.8212 28.2467 24.8958 28.172C24.9705 28.0973 25.0592 28.06 25.1618 28.06H27.6118C27.7145 28.06 27.8032 28.0973 27.8778 28.172C27.9525 28.2467 27.9898 28.3353 27.9898 28.438V30.72H29.7538C29.8565 30.72 29.9452 30.7573 30.0198 30.832C30.0945 30.9067 30.1318 30.9953 30.1318 31.098V32.792C30.1318 32.8947 30.0945 32.9833 30.0198 33.058C29.9452 33.1327 29.8565 33.17 29.7538 33.17H27.9898ZM31.0173 35.914C31.0173 34.654 32.0393 33.8467 34.0833 33.492L35.5673 33.254C35.5673 32.974 35.544 32.7873 35.4973 32.694C35.4507 32.5913 35.3387 32.54 35.1613 32.54C34.9933 32.54 34.8253 32.6147 34.6573 32.764C34.4893 32.9133 34.3307 32.988 34.1813 32.988H31.8013C31.596 32.988 31.4933 32.89 31.4933 32.694C31.4933 32.4887 31.5633 32.274 31.7033 32.05C31.8527 31.8167 32.0627 31.588 32.3333 31.364C32.6133 31.14 33.0007 30.9533 33.4953 30.804C33.9993 30.6547 34.5593 30.58 35.1753 30.58C36.426 30.58 37.364 30.8413 37.9893 31.364C38.6147 31.8867 38.9273 32.6333 38.9273 33.604V37.622C38.9273 37.7247 38.89 37.8133 38.8153 37.888C38.7407 37.9627 38.652 38 38.5493 38H36.0993C35.9967 38 35.908 37.9627 35.8333 37.888C35.7587 37.8133 35.7213 37.7247 35.7213 37.622V37.23C35.2827 37.8367 34.6433 38.14 33.8033 38.14C32.9633 38.14 32.2867 37.93 31.7733 37.51C31.2693 37.0807 31.0173 36.5487 31.0173 35.914ZM34.6993 36.068C35.306 36.068 35.6093 35.704 35.6093 34.976L34.7833 35.158C34.3727 35.2513 34.1673 35.424 34.1673 35.676C34.1673 35.788 34.214 35.8813 34.3073 35.956C34.4007 36.0307 34.5313 36.068 34.6993 36.068ZM43.3168 31.098V31.588C43.9701 31.0093 44.6981 30.72 45.5008 30.72H46.1728C46.2754 30.72 46.3641 30.7573 46.4388 30.832C46.5134 30.9067 46.5508 30.9953 46.5508 31.098V33.282C46.5508 33.3847 46.5134 33.4733 46.4388 33.548C46.3641 33.6227 46.2754 33.66 46.1728 33.66H44.3668C44.1148 33.66 43.9141 33.7207 43.7648 33.842C43.6248 33.954 43.5454 34.108 43.5268 34.304V37.622C43.5268 37.7247 43.4894 37.8133 43.4148 37.888C43.3401 37.9627 43.2514 38 43.1488 38H40.4888C40.3861 38 40.2974 37.9627 40.2228 37.888C40.1481 37.8133 40.1108 37.7247 40.1108 37.622V31.098C40.1108 30.9953 40.1481 30.9067 40.2228 30.832C40.2974 30.7573 40.3861 30.72 40.4888 30.72H42.9388C43.0414 30.72 43.1301 30.7573 43.2048 30.832C43.2794 30.9067 43.3168 30.9953 43.3168 31.098ZM51.8746 33.17V34.71C51.8746 35.1767 52.0753 35.41 52.4766 35.41H53.7506C53.8533 35.41 53.9419 35.4473 54.0166 35.522C54.0913 35.5967 54.1286 35.6853 54.1286 35.788V37.622C54.1286 37.7247 54.0913 37.8133 54.0166 37.888C53.9419 37.9627 53.8533 38 53.7506 38H52.1686C49.8353 38 48.6686 36.9967 48.6686 34.99V33.17H47.5626C47.4599 33.17 47.3713 33.1327 47.2966 33.058C47.2219 32.9833 47.1846 32.8947 47.1846 32.792V31.098C47.1846 30.9953 47.2219 30.9067 47.2966 30.832C47.3713 30.7573 47.4599 30.72 47.5626 30.72H48.6686V28.438C48.6686 28.3353 48.7059 28.2467 48.7806 28.172C48.8553 28.0973 48.9439 28.06 49.0466 28.06H51.4966C51.5993 28.06 51.6879 28.0973 51.7626 28.172C51.8373 28.2467 51.8746 28.3353 51.8746 28.438V30.72H53.6386C53.7413 30.72 53.8299 30.7573 53.9046 30.832C53.9793 30.9067 54.0166 30.9953 54.0166 31.098V32.792C54.0166 32.8947 53.9793 32.9833 53.9046 33.058C53.8299 33.1327 53.7413 33.17 53.6386 33.17H51.8746Z" fill="#EADFB4"/>
<path d="M34 -1.48619e-06C52.7777 -2.30699e-06 68 15.2223 68 34C68 52.7777 52.7777 68 34 68C15.2223 68 -6.65389e-07 52.7777 -1.48619e-06 34C-2.30699e-06 15.2223 15.2223 -6.65389e-07 34 -1.48619e-06ZM34 63.9175C50.523 63.9174 63.9174 50.523 63.9174 34C63.9174 17.477 50.523 4.08255 34 4.08255C17.477 4.08255 4.08255 17.477 4.08255 34C4.08255 50.523 17.477 63.9175 34 63.9175Z" fill="#F6995C"/>
</svg>
