<svg width="298" height="693" viewBox="0 0 298 693" fill="none" xmlns="http://www.w3.org/2000/svg">
<g opacity="0.8">
<g style="mix-blend-mode:overlay" opacity="0.3" clip-path="url(#clip0_33_1095)">
<path d="M65.0008 280.54H15.0009V270.483C15.0009 270.007 15.3869 269.621 15.863 269.621H64.1388C64.6149 269.621 65.0009 270.007 65.0009 270.483L65.0008 280.54Z" fill="#464655"/>
<path d="M64.1387 302.379H15.863C15.3869 302.379 15.0009 301.993 15.0009 301.517V291.46H65.0008V301.517C65.0008 301.993 64.6148 302.379 64.1387 302.379Z" fill="#FFE15A"/>
<path d="M65.0008 280.54H15.0009V291.459H65.0008V280.54Z" fill="#FF4B55"/>
</g>
<g style="mix-blend-mode:overlay" opacity="0.3" clip-path="url(#clip1_33_1095)">
<path d="M220.001 406.54H170.001V396.483C170.001 396.007 170.387 395.621 170.863 395.621H219.139C219.615 395.621 220.001 396.007 220.001 396.483L220.001 406.54Z" fill="#73AF00"/>
<path d="M219.139 428.379H170.863C170.387 428.379 170.001 427.993 170.001 427.517V417.46H220.001V427.517C220.001 427.993 219.615 428.379 219.139 428.379Z" fill="#FF4B55"/>
<path d="M220.001 406.54H170.002V417.459H220.001V406.54Z" fill="#F5F5F5"/>
<path d="M170.136 405.963H170.144C170.219 405.963 170.28 405.902 170.28 405.827V405.533C170.28 405.458 170.34 405.398 170.415 405.398H170.984C171.059 405.398 171.12 405.458 171.12 405.533V405.827C171.12 405.902 171.181 405.963 171.256 405.963H172.379C172.454 405.963 172.514 405.902 172.514 405.827V405.247C172.514 405.172 172.454 405.111 172.379 405.111H171.813C171.738 405.111 171.678 405.172 171.678 405.247V405.262C171.678 405.337 171.738 405.398 171.813 405.398H172.1C172.175 405.398 172.236 405.458 172.236 405.533V405.548C172.236 405.623 172.175 405.684 172.1 405.684H171.534C171.459 405.684 171.399 405.623 171.399 405.548V405.247C171.399 405.172 171.338 405.111 171.263 405.111H170.136C170.062 405.111 170.001 405.172 170.001 405.247V405.827C170.001 405.902 170.061 405.963 170.136 405.963ZM170.698 405.963H170.705C170.78 405.963 170.841 405.902 170.841 405.827V405.819C170.841 405.744 170.78 405.684 170.705 405.684H170.698C170.623 405.684 170.562 405.744 170.562 405.819V405.827C170.562 405.902 170.623 405.963 170.698 405.963ZM170.136 404.825H173.498C173.573 404.825 173.634 404.765 173.634 404.69V404.675C173.634 404.6 173.573 404.539 173.498 404.539H170.136C170.062 404.539 170.001 404.6 170.001 404.675V404.69C170.001 404.765 170.061 404.825 170.136 404.825ZM173.498 405.963H172.933C172.858 405.963 172.797 405.902 172.797 405.827V405.247C172.797 405.172 172.858 405.111 172.933 405.111H173.777C173.852 405.111 173.913 405.051 173.913 404.976V404.675C173.913 404.6 173.973 404.539 174.048 404.539H174.056C174.131 404.539 174.192 404.6 174.192 404.675V405.548C174.192 405.623 174.252 405.684 174.327 405.684H174.335C174.41 405.684 174.471 405.623 174.471 405.548V404.675C174.471 404.6 174.531 404.539 174.606 404.539H174.614C174.689 404.539 174.749 404.6 174.749 404.675V405.548C174.749 405.623 174.81 405.684 174.885 405.684H174.896C174.971 405.684 175.032 405.623 175.032 405.548V404.675C175.032 404.6 175.092 404.539 175.167 404.539H175.172C175.246 404.539 175.307 404.6 175.307 404.675V405.827C175.307 405.902 175.247 405.963 175.172 405.963H174.048C173.973 405.963 173.913 405.902 173.913 405.827V405.533C173.913 405.458 173.852 405.398 173.777 405.398H173.212C173.137 405.398 173.076 405.458 173.076 405.533V405.548C173.076 405.623 173.137 405.684 173.212 405.684H173.498C173.573 405.684 173.634 405.744 173.634 405.819V405.827C173.634 405.902 173.573 405.963 173.498 405.963Z" fill="#F5F5F5"/>
<path d="M175.726 405.962H175.737C175.812 405.962 175.873 405.902 175.873 405.827V405.533C175.873 405.458 175.933 405.397 176.008 405.397H176.57C176.645 405.397 176.706 405.458 176.706 405.533V405.827C176.706 405.902 176.767 405.962 176.842 405.962H177.965C178.04 405.962 178.101 405.902 178.101 405.827V405.247C178.101 405.172 178.04 405.111 177.965 405.111H177.4C177.325 405.111 177.264 405.172 177.264 405.247V405.262C177.264 405.337 177.325 405.397 177.4 405.397H177.686C177.761 405.397 177.822 405.458 177.822 405.533V405.548C177.822 405.623 177.761 405.683 177.686 405.683H177.121C177.046 405.683 176.985 405.623 176.985 405.548V405.247C176.985 405.172 176.924 405.111 176.849 405.111H175.726C175.651 405.111 175.59 405.172 175.59 405.247V405.827C175.59 405.902 175.651 405.962 175.726 405.962ZM176.284 405.962H176.291C176.366 405.962 176.427 405.902 176.427 405.827V405.819C176.427 405.744 176.366 405.683 176.291 405.683H176.284C176.209 405.683 176.148 405.744 176.148 405.819V405.827C176.148 405.902 176.209 405.962 176.284 405.962ZM175.726 404.825H179.084C179.159 404.825 179.22 404.765 179.22 404.69V404.675C179.22 404.6 179.159 404.539 179.084 404.539H175.726C175.651 404.539 175.59 404.6 175.59 404.675V404.69C175.59 404.765 175.651 404.825 175.726 404.825ZM179.084 405.962H178.515C178.44 405.962 178.379 405.902 178.379 405.827V405.247C178.379 405.172 178.44 405.111 178.515 405.111H179.36C179.435 405.111 179.495 405.051 179.495 404.976V404.675C179.495 404.6 179.556 404.539 179.631 404.539H179.642C179.717 404.539 179.778 404.6 179.778 404.675V405.548C179.778 405.623 179.838 405.683 179.913 405.683H179.925C180 405.683 180.06 405.623 180.06 405.548V404.675C180.06 404.6 180.121 404.539 180.196 404.539H180.2C180.275 404.539 180.336 404.6 180.336 404.675V405.548C180.336 405.623 180.396 405.683 180.471 405.683H180.483C180.558 405.683 180.618 405.623 180.618 405.548V404.675C180.618 404.6 180.679 404.539 180.754 404.539H180.761C180.836 404.539 180.897 404.6 180.897 404.675V405.827C180.897 405.902 180.836 405.962 180.761 405.962H179.631C179.556 405.962 179.496 405.902 179.496 405.827V405.533C179.496 405.458 179.435 405.397 179.36 405.397H178.798C178.723 405.397 178.662 405.458 178.662 405.533V405.548C178.662 405.623 178.723 405.683 178.798 405.683H179.085C179.159 405.683 179.22 405.744 179.22 405.819V405.827C179.22 405.902 179.159 405.962 179.084 405.962Z" fill="#F5F5F5"/>
<path d="M181.312 405.962H181.319C181.394 405.962 181.455 405.902 181.455 405.827V405.533C181.455 405.458 181.515 405.397 181.59 405.397H182.156C182.231 405.397 182.292 405.458 182.292 405.533V405.827C182.292 405.902 182.352 405.962 182.427 405.962H183.554C183.629 405.962 183.69 405.902 183.69 405.827V405.247C183.69 405.172 183.629 405.111 183.554 405.111H182.989C182.914 405.111 182.853 405.172 182.853 405.247V405.262C182.853 405.337 182.914 405.397 182.989 405.397H183.275C183.35 405.397 183.411 405.458 183.411 405.533V405.548C183.411 405.623 183.35 405.683 183.275 405.683H182.706C182.631 405.683 182.571 405.623 182.571 405.548V405.247C182.571 405.172 182.51 405.111 182.435 405.111H181.312C181.237 405.111 181.176 405.172 181.176 405.247V405.827C181.176 405.902 181.237 405.962 181.312 405.962ZM181.869 405.962H181.877C181.952 405.962 182.013 405.902 182.013 405.827V405.819C182.013 405.744 181.952 405.683 181.877 405.683H181.869C181.795 405.683 181.734 405.744 181.734 405.819V405.827C181.734 405.902 181.795 405.962 181.869 405.962ZM181.312 404.825H184.673C184.748 404.825 184.809 404.765 184.809 404.69V404.675C184.809 404.6 184.748 404.539 184.673 404.539H181.312C181.237 404.539 181.176 404.6 181.176 404.675V404.69C181.176 404.765 181.237 404.825 181.312 404.825ZM184.673 405.962H184.104C184.029 405.962 183.969 405.902 183.969 405.827V405.247C183.969 405.172 184.029 405.111 184.104 405.111H184.949C185.024 405.111 185.084 405.051 185.084 404.976V404.675C185.084 404.6 185.145 404.539 185.22 404.539H185.228C185.303 404.539 185.363 404.6 185.363 404.675V405.548C185.363 405.623 185.424 405.683 185.499 405.683H185.51C185.585 405.683 185.646 405.623 185.646 405.548V404.675C185.646 404.6 185.706 404.539 185.781 404.539H185.793C185.868 404.539 185.928 404.6 185.928 404.675V405.548C185.928 405.623 185.989 405.683 186.064 405.683H186.068C186.143 405.683 186.204 405.623 186.204 405.548V404.675C186.204 404.6 186.264 404.539 186.339 404.539H186.347C186.422 404.539 186.482 404.6 186.482 404.675V405.827C186.482 405.902 186.422 405.962 186.347 405.962H185.22C185.145 405.962 185.084 405.902 185.084 405.827V405.533C185.084 405.458 185.024 405.397 184.949 405.397H184.383C184.308 405.397 184.248 405.458 184.248 405.533V405.548C184.248 405.623 184.308 405.683 184.383 405.683H184.674C184.748 405.683 184.809 405.744 184.809 405.819V405.827C184.809 405.902 184.748 405.962 184.673 405.962Z" fill="#F5F5F5"/>
<path d="M186.897 405.962H186.904C186.979 405.962 187.04 405.902 187.04 405.827V405.533C187.04 405.458 187.101 405.397 187.176 405.397H187.741C187.816 405.397 187.877 405.458 187.877 405.533V405.827C187.877 405.902 187.937 405.962 188.012 405.962H189.139C189.214 405.962 189.275 405.902 189.275 405.827V405.247C189.275 405.172 189.214 405.111 189.139 405.111H188.57C188.495 405.111 188.435 405.172 188.435 405.247V405.262C188.435 405.337 188.495 405.397 188.57 405.397H188.857C188.932 405.397 188.993 405.458 188.993 405.533V405.548C188.993 405.623 188.932 405.683 188.857 405.683H188.292C188.217 405.683 188.156 405.623 188.156 405.548V405.247C188.156 405.172 188.095 405.111 188.02 405.111H186.897C186.822 405.111 186.761 405.172 186.761 405.247V405.827C186.761 405.902 186.822 405.962 186.897 405.962ZM187.455 405.962H187.462C187.537 405.962 187.598 405.902 187.598 405.827V405.819C187.598 405.744 187.537 405.683 187.462 405.683H187.455C187.38 405.683 187.319 405.744 187.319 405.819V405.827C187.319 405.902 187.38 405.962 187.455 405.962ZM186.897 404.825H190.255C190.33 404.825 190.391 404.765 190.391 404.69V404.675C190.391 404.6 190.33 404.539 190.255 404.539H186.897C186.822 404.539 186.761 404.6 186.761 404.675V404.69C186.761 404.765 186.822 404.825 186.897 404.825ZM190.255 405.962H189.686C189.611 405.962 189.55 405.902 189.55 405.827V405.247C189.55 405.172 189.611 405.111 189.686 405.111H190.538C190.613 405.111 190.673 405.051 190.673 404.976V404.675C190.673 404.6 190.734 404.539 190.809 404.539H190.816C190.891 404.539 190.952 404.6 190.952 404.675V405.548C190.952 405.623 191.013 405.683 191.088 405.683H191.092C191.167 405.683 191.228 405.623 191.228 405.548V404.675C191.228 404.6 191.288 404.539 191.363 404.539H191.374C191.449 404.539 191.51 404.6 191.51 404.675V405.548C191.51 405.623 191.571 405.683 191.646 405.683H191.653C191.728 405.683 191.789 405.623 191.789 405.548V404.675C191.789 404.6 191.85 404.539 191.925 404.539H191.932C192.007 404.539 192.068 404.6 192.068 404.675V405.827C192.068 405.902 192.007 405.962 191.932 405.962H190.808C190.734 405.962 190.673 405.902 190.673 405.827V405.533C190.673 405.458 190.612 405.397 190.537 405.397H189.968C189.893 405.397 189.833 405.458 189.833 405.533V405.548C189.833 405.623 189.893 405.683 189.968 405.683H190.255C190.33 405.683 190.39 405.744 190.39 405.819V405.827C190.391 405.902 190.33 405.962 190.255 405.962Z" fill="#F5F5F5"/>
<path d="M192.482 405.962H192.49C192.565 405.962 192.626 405.902 192.626 405.827V405.533C192.626 405.458 192.686 405.397 192.761 405.397H193.327C193.402 405.397 193.462 405.458 193.462 405.533V405.827C193.462 405.902 193.523 405.962 193.598 405.962H194.725C194.8 405.962 194.86 405.902 194.86 405.827V405.247C194.86 405.172 194.8 405.111 194.725 405.111H194.156C194.081 405.111 194.02 405.172 194.02 405.247V405.262C194.02 405.337 194.081 405.397 194.156 405.397H194.446C194.521 405.397 194.581 405.458 194.581 405.533V405.548C194.581 405.623 194.521 405.683 194.446 405.683H193.88C193.806 405.683 193.745 405.623 193.745 405.548V405.247C193.745 405.172 193.684 405.111 193.609 405.111H192.482C192.407 405.111 192.347 405.172 192.347 405.247V405.827C192.347 405.902 192.407 405.962 192.482 405.962ZM193.044 405.962H193.048C193.123 405.962 193.183 405.902 193.183 405.827V405.819C193.183 405.744 193.123 405.683 193.048 405.683H193.044C192.969 405.683 192.908 405.744 192.908 405.819V405.827C192.908 405.902 192.969 405.962 193.044 405.962ZM192.482 404.825H195.844C195.919 404.825 195.98 404.765 195.98 404.69V404.675C195.98 404.6 195.919 404.539 195.844 404.539H192.482C192.407 404.539 192.347 404.6 192.347 404.675V404.69C192.347 404.765 192.407 404.825 192.482 404.825ZM195.844 405.962H195.275C195.2 405.962 195.139 405.902 195.139 405.827V405.247C195.139 405.172 195.2 405.111 195.275 405.111H196.123C196.198 405.111 196.259 405.051 196.259 404.976V404.675C196.259 404.6 196.319 404.539 196.394 404.539H196.402C196.477 404.539 196.538 404.6 196.538 404.675V405.548C196.538 405.623 196.598 405.683 196.673 405.683H196.681C196.756 405.683 196.817 405.623 196.817 405.548V404.675C196.817 404.6 196.877 404.539 196.952 404.539H196.96C197.035 404.539 197.095 404.6 197.095 404.675V405.548C197.095 405.623 197.156 405.683 197.231 405.683H197.239C197.313 405.683 197.374 405.623 197.374 405.548V404.675C197.374 404.6 197.435 404.539 197.51 404.539H197.518C197.592 404.539 197.653 404.6 197.653 404.675V405.827C197.653 405.902 197.593 405.962 197.518 405.962H196.394C196.319 405.962 196.259 405.902 196.259 405.827V405.533C196.259 405.458 196.198 405.397 196.123 405.397H195.554C195.479 405.397 195.418 405.458 195.418 405.533V405.548C195.418 405.623 195.479 405.683 195.554 405.683H195.844C195.919 405.683 195.98 405.744 195.98 405.819V405.827C195.98 405.902 195.919 405.962 195.844 405.962Z" fill="#F5F5F5"/>
<path d="M198.067 405.962H198.075C198.15 405.962 198.211 405.902 198.211 405.827V405.533C198.211 405.458 198.271 405.397 198.346 405.397H198.912C198.987 405.397 199.047 405.458 199.047 405.533V405.827C199.047 405.902 199.108 405.962 199.183 405.962H200.31C200.385 405.962 200.446 405.902 200.446 405.827V405.247C200.446 405.172 200.385 405.111 200.31 405.111H199.744C199.669 405.111 199.609 405.172 199.609 405.247V405.262C199.609 405.337 199.669 405.397 199.744 405.397H200.027C200.102 405.397 200.163 405.458 200.163 405.533V405.548C200.163 405.623 200.102 405.683 200.027 405.683H199.466C199.391 405.683 199.33 405.623 199.33 405.548V405.247C199.33 405.172 199.269 405.111 199.194 405.111H198.067C197.992 405.111 197.932 405.172 197.932 405.247V405.827C197.932 405.902 197.992 405.962 198.067 405.962ZM198.629 405.962H198.633C198.708 405.962 198.768 405.902 198.768 405.827V405.819C198.768 405.744 198.708 405.683 198.633 405.683H198.629C198.554 405.683 198.493 405.744 198.493 405.819V405.827C198.493 405.902 198.554 405.962 198.629 405.962ZM198.067 404.825H201.429C201.504 404.825 201.565 404.765 201.565 404.69V404.675C201.565 404.6 201.504 404.539 201.429 404.539H198.067C197.992 404.539 197.932 404.6 197.932 404.675V404.69C197.932 404.765 197.992 404.825 198.067 404.825ZM201.429 405.962H200.864C200.789 405.962 200.728 405.902 200.728 405.827V405.247C200.728 405.172 200.789 405.111 200.864 405.111H201.708C201.783 405.111 201.844 405.051 201.844 404.976V404.675C201.844 404.6 201.904 404.539 201.979 404.539H201.987C202.062 404.539 202.123 404.6 202.123 404.675V405.548C202.123 405.623 202.183 405.683 202.258 405.683H202.266C202.341 405.683 202.401 405.623 202.401 405.548V404.675C202.401 404.6 202.462 404.539 202.537 404.539H202.545C202.62 404.539 202.68 404.6 202.68 404.675V405.548C202.68 405.623 202.741 405.683 202.816 405.683H202.824C202.899 405.683 202.959 405.623 202.959 405.548V404.675C202.959 404.6 203.02 404.539 203.095 404.539H203.103C203.178 404.539 203.238 404.6 203.238 404.675V405.827C203.238 405.902 203.178 405.962 203.103 405.962H201.979C201.904 405.962 201.843 405.902 201.843 405.827V405.533C201.843 405.458 201.783 405.397 201.708 405.397H201.139C201.064 405.397 201.003 405.458 201.003 405.533V405.548C201.003 405.623 201.064 405.683 201.139 405.683H201.429C201.504 405.683 201.565 405.744 201.565 405.819V405.827C201.565 405.902 201.504 405.962 201.429 405.962Z" fill="#F5F5F5"/>
<path d="M203.653 405.962H203.66C203.735 405.962 203.796 405.902 203.796 405.827V405.533C203.796 405.458 203.857 405.397 203.932 405.397H204.5C204.575 405.397 204.636 405.458 204.636 405.533V405.827C204.636 405.902 204.697 405.962 204.772 405.962H205.895C205.97 405.962 206.031 405.902 206.031 405.827V405.247C206.031 405.172 205.97 405.111 205.895 405.111H205.33C205.255 405.111 205.194 405.172 205.194 405.247V405.262C205.194 405.337 205.255 405.397 205.33 405.397H205.62C205.695 405.397 205.756 405.458 205.756 405.533V405.548C205.756 405.623 205.695 405.683 205.62 405.683H205.047C204.972 405.683 204.912 405.623 204.912 405.548V405.247C204.912 405.172 204.851 405.111 204.776 405.111H203.653C203.578 405.111 203.517 405.172 203.517 405.247V405.827C203.517 405.902 203.578 405.962 203.653 405.962ZM204.21 405.962H204.222C204.297 405.962 204.357 405.902 204.357 405.827V405.819C204.357 405.744 204.297 405.683 204.222 405.683H204.21C204.136 405.683 204.075 405.744 204.075 405.819V405.827C204.075 405.902 204.136 405.962 204.21 405.962ZM203.653 404.825H207.014C207.089 404.825 207.15 404.765 207.15 404.69V404.675C207.15 404.6 207.089 404.539 207.014 404.539H203.653C203.578 404.539 203.517 404.6 203.517 404.675V404.69C203.517 404.765 203.578 404.825 203.653 404.825ZM207.014 405.962H206.449C206.374 405.962 206.313 405.902 206.313 405.827V405.247C206.313 405.172 206.374 405.111 206.449 405.111H207.293C207.368 405.111 207.429 405.051 207.429 404.976V404.675C207.429 404.6 207.49 404.539 207.565 404.539H207.572C207.647 404.539 207.708 404.6 207.708 404.675V405.548C207.708 405.623 207.769 405.683 207.844 405.683H207.851C207.926 405.683 207.987 405.623 207.987 405.548V404.675C207.987 404.6 208.047 404.539 208.122 404.539H208.13C208.205 404.539 208.266 404.6 208.266 404.675V405.548C208.266 405.623 208.326 405.683 208.401 405.683H208.413C208.488 405.683 208.548 405.623 208.548 405.548V404.675C208.548 404.6 208.609 404.539 208.684 404.539H208.688C208.763 404.539 208.824 404.6 208.824 404.675V405.827C208.824 405.902 208.763 405.962 208.688 405.962H207.565C207.49 405.962 207.429 405.902 207.429 405.827V405.533C207.429 405.458 207.368 405.397 207.293 405.397H206.731C206.657 405.397 206.596 405.458 206.596 405.533V405.548C206.596 405.623 206.656 405.683 206.731 405.683H207.015C207.089 405.683 207.15 405.744 207.15 405.819V405.827C207.15 405.902 207.089 405.962 207.014 405.962Z" fill="#F5F5F5"/>
<path d="M209.242 405.962H209.246C209.321 405.962 209.382 405.902 209.382 405.827V405.533C209.382 405.458 209.442 405.397 209.517 405.397H210.083C210.158 405.397 210.219 405.458 210.219 405.533V405.827C210.219 405.902 210.279 405.962 210.354 405.962H211.481C211.556 405.962 211.617 405.902 211.617 405.827V405.247C211.617 405.172 211.556 405.111 211.481 405.111H210.919C210.844 405.111 210.784 405.172 210.784 405.247V405.262C210.784 405.337 210.844 405.397 210.919 405.397H211.206C211.281 405.397 211.341 405.458 211.341 405.533V405.548C211.341 405.623 211.281 405.683 211.206 405.683H210.637C210.562 405.683 210.501 405.623 210.501 405.548V405.247C210.501 405.172 210.44 405.111 210.365 405.111H209.242C209.167 405.111 209.106 405.172 209.106 405.247V405.827C209.106 405.902 209.167 405.962 209.242 405.962ZM209.8 405.962H209.807C209.882 405.962 209.943 405.902 209.943 405.827V405.819C209.943 405.744 209.882 405.683 209.807 405.683H209.8C209.725 405.683 209.664 405.744 209.664 405.819V405.827C209.664 405.902 209.725 405.962 209.8 405.962ZM209.242 404.825H212.607C212.682 404.825 212.743 404.765 212.743 404.69V404.675C212.743 404.6 212.682 404.539 212.607 404.539H209.242C209.167 404.539 209.106 404.6 209.106 404.675V404.69C209.106 404.765 209.167 404.825 209.242 404.825ZM212.607 405.962H212.034C211.96 405.962 211.899 405.902 211.899 405.827V405.247C211.899 405.172 211.959 405.111 212.034 405.111H212.879C212.954 405.111 213.015 405.051 213.015 404.976V404.675C213.015 404.6 213.075 404.539 213.15 404.539H213.161C213.236 404.539 213.297 404.6 213.297 404.675V405.548C213.297 405.623 213.358 405.683 213.433 405.683H213.44C213.515 405.683 213.576 405.623 213.576 405.548V404.675C213.576 404.6 213.637 404.539 213.712 404.539H213.716C213.791 404.539 213.851 404.6 213.851 404.675V405.548C213.851 405.623 213.912 405.683 213.987 405.683H213.998C214.073 405.683 214.134 405.623 214.134 405.548V404.675C214.134 404.6 214.194 404.539 214.269 404.539H214.277C214.352 404.539 214.413 404.6 214.413 404.675V405.827C214.413 405.902 214.352 405.962 214.277 405.962H213.15C213.075 405.962 213.015 405.902 213.015 405.827V405.533C213.015 405.458 212.954 405.397 212.879 405.397H212.314C212.239 405.397 212.178 405.458 212.178 405.533V405.548C212.178 405.623 212.239 405.683 212.314 405.683H212.607C212.682 405.683 212.743 405.744 212.743 405.819V405.827C212.743 405.902 212.682 405.962 212.607 405.962Z" fill="#F5F5F5"/>
<path d="M214.827 405.962H214.835C214.91 405.962 214.971 405.902 214.971 405.827V405.533C214.971 405.458 215.031 405.397 215.106 405.397H215.672C215.746 405.397 215.807 405.458 215.807 405.533V405.827C215.807 405.902 215.868 405.962 215.943 405.962H217.07C217.145 405.962 217.205 405.902 217.205 405.827V405.247C217.205 405.172 217.145 405.111 217.07 405.111H216.508C216.433 405.111 216.372 405.172 216.372 405.247V405.262C216.372 405.337 216.433 405.397 216.508 405.397H216.795C216.869 405.397 216.93 405.458 216.93 405.533V405.548C216.93 405.623 216.87 405.683 216.795 405.683H216.222C216.147 405.683 216.086 405.623 216.086 405.548V405.247C216.086 405.172 216.025 405.111 215.95 405.111H214.827C214.752 405.111 214.692 405.172 214.692 405.247V405.827C214.692 405.902 214.752 405.962 214.827 405.962ZM215.385 405.962H215.393C215.468 405.962 215.528 405.902 215.528 405.827V405.819C215.528 405.744 215.468 405.683 215.393 405.683H215.385C215.31 405.683 215.249 405.744 215.249 405.819V405.827C215.25 405.902 215.31 405.962 215.385 405.962ZM214.827 404.825H218.185C218.26 404.825 218.321 404.765 218.321 404.69V404.675C218.321 404.6 218.26 404.539 218.185 404.539H214.827C214.752 404.539 214.691 404.6 214.691 404.675V404.69C214.692 404.765 214.752 404.825 214.827 404.825ZM218.185 405.962H217.62C217.545 405.962 217.484 405.902 217.484 405.827V405.247C217.484 405.172 217.545 405.111 217.62 405.111H218.472C218.546 405.111 218.607 405.051 218.607 404.976V404.675C218.607 404.6 218.668 404.539 218.743 404.539H218.743C218.818 404.539 218.879 404.6 218.879 404.675V405.548C218.879 405.623 218.94 405.683 219.015 405.683H219.029C219.104 405.683 219.165 405.623 219.165 405.548V404.675C219.165 404.6 219.226 404.539 219.301 404.539H219.301C219.376 404.539 219.437 404.6 219.437 404.675V405.548C219.437 405.623 219.497 405.683 219.572 405.683H219.58C219.655 405.683 219.716 405.623 219.716 405.548V404.675C219.716 404.6 219.776 404.539 219.851 404.539H219.866C219.941 404.539 220.002 404.6 220.002 404.675V405.827C220.002 405.902 219.941 405.962 219.866 405.962H218.743C218.668 405.962 218.607 405.902 218.607 405.827V405.533C218.607 405.458 218.547 405.397 218.472 405.397H217.899C217.824 405.397 217.763 405.458 217.763 405.533V405.548C217.763 405.623 217.824 405.683 217.899 405.683H218.185C218.26 405.683 218.321 405.744 218.321 405.819V405.827C218.321 405.902 218.26 405.962 218.185 405.962Z" fill="#F5F5F5"/>
<path d="M170.137 406.828H172.38C172.455 406.828 172.515 406.767 172.515 406.692V406.391C172.515 406.316 172.455 406.255 172.38 406.255H170.137C170.062 406.255 170.002 406.316 170.002 406.391V406.692C170.002 406.767 170.062 406.828 170.137 406.828ZM172.933 406.828H175.172C175.247 406.828 175.308 406.767 175.308 406.692V406.391C175.308 406.316 175.247 406.255 175.172 406.255H172.933C172.858 406.255 172.798 406.316 172.798 406.391V406.692C172.798 406.767 172.858 406.828 172.933 406.828Z" fill="#F5F5F5"/>
<path d="M175.726 406.828H177.965C178.04 406.828 178.101 406.767 178.101 406.692V406.391C178.101 406.316 178.04 406.255 177.965 406.255H175.726C175.651 406.255 175.59 406.316 175.59 406.391V406.692C175.59 406.767 175.651 406.828 175.726 406.828ZM178.515 406.828H180.761C180.836 406.828 180.897 406.767 180.897 406.692V406.391C180.897 406.316 180.836 406.255 180.761 406.255H178.515C178.44 406.255 178.379 406.316 178.379 406.391V406.692C178.379 406.767 178.44 406.828 178.515 406.828Z" fill="#F5F5F5"/>
<path d="M181.312 406.828H183.554C183.629 406.828 183.69 406.767 183.69 406.692V406.391C183.69 406.316 183.629 406.255 183.554 406.255H181.312C181.237 406.255 181.176 406.316 181.176 406.391V406.692C181.176 406.767 181.237 406.828 181.312 406.828ZM184.104 406.828H186.347C186.422 406.828 186.482 406.767 186.482 406.692V406.391C186.482 406.316 186.422 406.255 186.347 406.255H184.104C184.029 406.255 183.969 406.316 183.969 406.391V406.692C183.969 406.767 184.029 406.828 184.104 406.828Z" fill="#F5F5F5"/>
<path d="M186.897 406.828H189.139C189.214 406.828 189.275 406.767 189.275 406.692V406.391C189.275 406.316 189.214 406.255 189.139 406.255H186.897C186.822 406.255 186.761 406.316 186.761 406.391V406.692C186.761 406.767 186.822 406.828 186.897 406.828ZM189.686 406.828H191.932C192.007 406.828 192.068 406.767 192.068 406.692V406.391C192.068 406.316 192.007 406.255 191.932 406.255H189.686C189.611 406.255 189.55 406.316 189.55 406.391V406.692C189.55 406.767 189.611 406.828 189.686 406.828Z" fill="#F5F5F5"/>
<path d="M192.482 406.828H194.725C194.8 406.828 194.86 406.767 194.86 406.692V406.391C194.86 406.316 194.8 406.255 194.725 406.255H192.482C192.407 406.255 192.347 406.316 192.347 406.391V406.692C192.347 406.767 192.407 406.828 192.482 406.828ZM195.275 406.828H197.518C197.592 406.828 197.653 406.767 197.653 406.692V406.391C197.653 406.316 197.593 406.255 197.518 406.255H195.275C195.2 406.255 195.139 406.316 195.139 406.391V406.692C195.139 406.767 195.2 406.828 195.275 406.828Z" fill="#F5F5F5"/>
<path d="M198.067 406.828H200.31C200.385 406.828 200.446 406.767 200.446 406.692V406.391C200.446 406.316 200.385 406.255 200.31 406.255H198.067C197.992 406.255 197.932 406.316 197.932 406.391V406.692C197.932 406.767 197.992 406.828 198.067 406.828ZM200.864 406.828H203.103C203.178 406.828 203.238 406.767 203.238 406.692V406.391C203.238 406.316 203.178 406.255 203.103 406.255H200.864C200.789 406.255 200.728 406.316 200.728 406.391V406.692C200.728 406.767 200.789 406.828 200.864 406.828Z" fill="#F5F5F5"/>
<path d="M203.653 406.828H205.895C205.97 406.828 206.031 406.767 206.031 406.692V406.391C206.031 406.316 205.97 406.255 205.895 406.255H203.653C203.578 406.255 203.517 406.316 203.517 406.391V406.692C203.517 406.767 203.578 406.828 203.653 406.828ZM206.449 406.828H208.688C208.763 406.828 208.823 406.767 208.823 406.692V406.391C208.823 406.316 208.763 406.255 208.688 406.255H206.449C206.374 406.255 206.313 406.316 206.313 406.391V406.692C206.313 406.767 206.374 406.828 206.449 406.828Z" fill="#F5F5F5"/>
<path d="M209.242 406.828H211.481C211.556 406.828 211.616 406.767 211.616 406.692V406.391C211.616 406.316 211.556 406.255 211.481 406.255H209.242C209.167 406.255 209.106 406.316 209.106 406.391V406.692C209.106 406.767 209.167 406.828 209.242 406.828ZM212.035 406.828H214.277C214.352 406.828 214.413 406.767 214.413 406.692V406.391C214.413 406.316 214.352 406.255 214.277 406.255H212.035C211.96 406.255 211.899 406.316 211.899 406.391V406.692C211.899 406.767 211.96 406.828 212.035 406.828Z" fill="#F5F5F5"/>
<path d="M214.827 406.828H217.07C217.145 406.828 217.205 406.767 217.205 406.692V406.391C217.205 406.316 217.145 406.255 217.07 406.255H214.827C214.752 406.255 214.691 406.316 214.691 406.391V406.692C214.692 406.767 214.752 406.828 214.827 406.828ZM217.62 406.828H219.866C219.941 406.828 220.002 406.767 220.002 406.692V406.391C220.002 406.316 219.941 406.255 219.866 406.255H217.62C217.545 406.255 217.484 406.316 217.484 406.391V406.692C217.484 406.767 217.545 406.828 217.62 406.828Z" fill="#F5F5F5"/>
<path d="M219.866 418.038H219.858C219.783 418.038 219.723 418.098 219.723 418.173V418.467C219.723 418.542 219.662 418.603 219.587 418.603H219.018C218.943 418.603 218.882 418.542 218.882 418.467V418.173C218.882 418.098 218.822 418.038 218.747 418.038H217.623C217.549 418.038 217.488 418.098 217.488 418.173V418.753C217.488 418.828 217.548 418.889 217.623 418.889H218.189C218.264 418.889 218.324 418.828 218.324 418.753V418.738C218.324 418.663 218.264 418.603 218.189 418.603H217.902C217.827 418.603 217.767 418.542 217.767 418.467V418.452C217.767 418.377 217.827 418.317 217.902 418.317H218.468C218.543 418.317 218.603 418.377 218.603 418.452V418.753C218.603 418.828 218.664 418.889 218.739 418.889H219.866C219.941 418.889 220.002 418.828 220.002 418.753V418.173C220.001 418.098 219.941 418.038 219.866 418.038ZM219.304 418.038H219.297C219.222 418.038 219.161 418.098 219.161 418.173V418.181C219.161 418.256 219.222 418.317 219.297 418.317H219.304C219.379 418.317 219.44 418.256 219.44 418.181V418.173C219.44 418.098 219.379 418.038 219.304 418.038ZM219.866 419.175H216.504C216.429 419.175 216.369 419.235 216.369 419.31V419.325C216.369 419.4 216.429 419.461 216.504 419.461H219.866C219.941 419.461 220.001 419.4 220.001 419.325V419.31C220.001 419.235 219.941 419.175 219.866 419.175ZM216.504 418.038H217.07C217.145 418.038 217.205 418.098 217.205 418.173V418.753C217.205 418.828 217.145 418.889 217.07 418.889H216.225C216.15 418.889 216.09 418.95 216.09 419.025V419.325C216.09 419.4 216.029 419.461 215.954 419.461H215.946C215.871 419.461 215.811 419.4 215.811 419.325V418.452C215.811 418.377 215.75 418.317 215.675 418.317H215.667C215.592 418.317 215.532 418.377 215.532 418.452V419.325C215.532 419.4 215.471 419.461 215.396 419.461H215.389C215.314 419.461 215.253 419.4 215.253 419.325V418.452C215.253 418.377 215.192 418.317 215.117 418.317H215.106C215.031 418.317 214.97 418.377 214.97 418.452V419.325C214.97 419.4 214.91 419.461 214.835 419.461H214.831C214.756 419.461 214.695 419.4 214.695 419.325V418.173C214.695 418.098 214.756 418.038 214.831 418.038H215.954C216.029 418.038 216.09 418.098 216.09 418.173V418.467C216.09 418.542 216.15 418.603 216.225 418.603H216.791C216.866 418.603 216.926 418.542 216.926 418.467V418.452C216.926 418.377 216.866 418.317 216.791 418.317H216.504C216.429 418.317 216.369 418.256 216.369 418.181V418.173C216.369 418.098 216.429 418.038 216.504 418.038Z" fill="#F5F5F5"/>
<path d="M214.277 418.038H214.266C214.191 418.038 214.13 418.098 214.13 418.173V418.467C214.13 418.542 214.07 418.603 213.995 418.603H213.433C213.358 418.603 213.297 418.542 213.297 418.467V418.173C213.297 418.098 213.237 418.038 213.162 418.038H212.038C211.963 418.038 211.903 418.098 211.903 418.173V418.753C211.903 418.828 211.963 418.889 212.038 418.889H212.604C212.679 418.889 212.739 418.828 212.739 418.753V418.738C212.739 418.663 212.679 418.603 212.604 418.603H212.317C212.242 418.603 212.181 418.542 212.181 418.467V418.452C212.181 418.377 212.242 418.317 212.317 418.317H212.883C212.958 418.317 213.018 418.377 213.018 418.452V418.753C213.018 418.828 213.079 418.889 213.154 418.889H214.277C214.352 418.889 214.413 418.828 214.413 418.753V418.173C214.413 418.098 214.352 418.038 214.277 418.038ZM213.719 418.038H213.712C213.637 418.038 213.576 418.098 213.576 418.173V418.181C213.576 418.256 213.637 418.317 213.712 418.317H213.719C213.794 418.317 213.855 418.256 213.855 418.181V418.173C213.855 418.098 213.794 418.038 213.719 418.038ZM214.277 419.175H210.919C210.844 419.175 210.783 419.235 210.783 419.31V419.325C210.783 419.4 210.844 419.461 210.919 419.461H214.277C214.352 419.461 214.413 419.4 214.413 419.325V419.31C214.413 419.235 214.352 419.175 214.277 419.175ZM210.919 418.038H211.488C211.563 418.038 211.624 418.098 211.624 418.173V418.753C211.624 418.828 211.563 418.889 211.488 418.889H210.644C210.569 418.889 210.508 418.95 210.508 419.025V419.325C210.508 419.4 210.447 419.461 210.372 419.461H210.361C210.286 419.461 210.225 419.4 210.225 419.325V418.452C210.225 418.377 210.165 418.317 210.09 418.317H210.079C210.004 418.317 209.943 418.377 209.943 418.452V419.325C209.943 419.4 209.882 419.461 209.807 419.461H209.803C209.728 419.461 209.668 419.4 209.668 419.325V418.452C209.668 418.377 209.607 418.317 209.532 418.317H209.521C209.446 418.317 209.385 418.377 209.385 418.452V419.325C209.385 419.4 209.324 419.461 209.249 419.461H209.242C209.167 419.461 209.106 419.4 209.106 419.325V418.173C209.106 418.098 209.167 418.038 209.242 418.038H210.372C210.447 418.038 210.508 418.098 210.508 418.173V418.467C210.508 418.542 210.569 418.603 210.644 418.603H211.205C211.28 418.603 211.341 418.542 211.341 418.467V418.452C211.341 418.377 211.28 418.317 211.205 418.317H210.919C210.844 418.317 210.783 418.256 210.783 418.181V418.173C210.783 418.098 210.844 418.038 210.919 418.038Z" fill="#F5F5F5"/>
<path d="M208.691 418.038H208.684C208.609 418.038 208.548 418.098 208.548 418.173V418.467C208.548 418.542 208.487 418.603 208.412 418.603H207.847C207.772 418.603 207.711 418.542 207.711 418.467V418.173C207.711 418.098 207.651 418.038 207.576 418.038H206.449C206.374 418.038 206.313 418.098 206.313 418.173V418.753C206.313 418.828 206.374 418.889 206.449 418.889H207.014C207.089 418.889 207.15 418.828 207.15 418.753V418.738C207.15 418.663 207.089 418.603 207.014 418.603H206.728C206.653 418.603 206.592 418.542 206.592 418.467V418.452C206.592 418.377 206.653 418.317 206.728 418.317H207.297C207.372 418.317 207.432 418.377 207.432 418.452V418.753C207.432 418.828 207.493 418.889 207.568 418.889H208.691C208.766 418.889 208.827 418.828 208.827 418.753V418.173C208.827 418.098 208.766 418.038 208.691 418.038ZM208.133 418.038H208.126C208.051 418.038 207.99 418.098 207.99 418.173V418.181C207.99 418.256 208.051 418.317 208.126 418.317H208.133C208.208 418.317 208.269 418.256 208.269 418.181V418.173C208.269 418.098 208.208 418.038 208.133 418.038ZM208.691 419.175H205.329C205.255 419.175 205.194 419.235 205.194 419.31V419.325C205.194 419.4 205.254 419.461 205.329 419.461H208.691C208.766 419.461 208.827 419.4 208.827 419.325V419.31C208.827 419.235 208.766 419.175 208.691 419.175ZM205.33 418.038H205.899C205.974 418.038 206.034 418.098 206.034 418.173V418.753C206.034 418.828 205.974 418.889 205.899 418.889H205.054C204.979 418.889 204.919 418.95 204.919 419.025V419.325C204.919 419.4 204.858 419.461 204.783 419.461H204.775C204.7 419.461 204.64 419.4 204.64 419.325V418.452C204.64 418.377 204.579 418.317 204.504 418.317H204.493C204.418 418.317 204.357 418.377 204.357 418.452V419.325C204.357 419.4 204.296 419.461 204.221 419.461H204.21C204.135 419.461 204.075 419.4 204.075 419.325V418.452C204.075 418.377 204.014 418.317 203.939 418.317H203.935C203.86 418.317 203.799 418.377 203.799 418.452V419.325C203.799 419.4 203.739 419.461 203.664 419.461H203.656C203.581 419.461 203.52 419.4 203.52 419.325V418.173C203.52 418.098 203.581 418.038 203.656 418.038H204.783C204.858 418.038 204.919 418.098 204.919 418.173V418.467C204.919 418.542 204.979 418.603 205.054 418.603H205.62C205.695 418.603 205.755 418.542 205.755 418.467V418.452C205.755 418.377 205.695 418.317 205.62 418.317H205.329C205.254 418.317 205.194 418.256 205.194 418.181V418.173C205.194 418.098 205.255 418.038 205.33 418.038Z" fill="#F5F5F5"/>
<path d="M203.106 418.038H203.099C203.024 418.038 202.963 418.098 202.963 418.173V418.467C202.963 418.542 202.902 418.603 202.827 418.603H202.262C202.187 418.603 202.126 418.542 202.126 418.467V418.173C202.126 418.098 202.066 418.038 201.991 418.038H200.864C200.789 418.038 200.728 418.098 200.728 418.173V418.753C200.728 418.828 200.789 418.889 200.864 418.889H201.433C201.508 418.889 201.568 418.828 201.568 418.753V418.738C201.568 418.663 201.508 418.603 201.433 418.603H201.146C201.071 418.603 201.011 418.542 201.011 418.467V418.452C201.011 418.377 201.071 418.317 201.146 418.317H201.712C201.787 418.317 201.847 418.377 201.847 418.452V418.753C201.847 418.828 201.908 418.889 201.983 418.889H203.106C203.181 418.889 203.242 418.828 203.242 418.753V418.173C203.242 418.098 203.181 418.038 203.106 418.038ZM202.548 418.038H202.541C202.466 418.038 202.405 418.098 202.405 418.173V418.181C202.405 418.256 202.466 418.317 202.541 418.317H202.548C202.623 418.317 202.684 418.256 202.684 418.181V418.173C202.684 418.098 202.623 418.038 202.548 418.038ZM203.106 419.175H199.748C199.673 419.175 199.612 419.235 199.612 419.31V419.325C199.612 419.4 199.673 419.461 199.748 419.461H203.106C203.181 419.461 203.242 419.4 203.242 419.325V419.31C203.242 419.235 203.181 419.175 203.106 419.175ZM199.748 418.038H200.317C200.392 418.038 200.453 418.098 200.453 418.173V418.753C200.453 418.828 200.392 418.889 200.317 418.889H199.465C199.391 418.889 199.33 418.95 199.33 419.025V419.325C199.33 419.4 199.269 419.461 199.194 419.461H199.187C199.112 419.461 199.051 419.4 199.051 419.325V418.452C199.051 418.377 198.99 418.317 198.915 418.317H198.911C198.836 418.317 198.776 418.377 198.776 418.452V419.325C198.776 419.4 198.715 419.461 198.64 419.461H198.629C198.554 419.461 198.493 419.4 198.493 419.325V418.452C198.493 418.377 198.432 418.317 198.357 418.317H198.35C198.275 418.317 198.214 418.377 198.214 418.452V419.325C198.214 419.4 198.153 419.461 198.078 419.461H198.071C197.996 419.461 197.935 419.4 197.935 419.325V418.173C197.935 418.098 197.996 418.038 198.071 418.038H199.194C199.269 418.038 199.33 418.098 199.33 418.173V418.467C199.33 418.542 199.39 418.603 199.465 418.603H200.035C200.109 418.603 200.17 418.542 200.17 418.467V418.452C200.17 418.377 200.11 418.317 200.035 418.317H199.748C199.673 418.317 199.612 418.256 199.612 418.181V418.173C199.613 418.098 199.673 418.038 199.748 418.038Z" fill="#F5F5F5"/>
<path d="M197.521 418.038H197.513C197.438 418.038 197.378 418.098 197.378 418.173V418.467C197.378 418.542 197.317 418.603 197.242 418.603H196.677C196.602 418.603 196.541 418.542 196.541 418.467V418.173C196.541 418.098 196.48 418.038 196.405 418.038H195.278C195.203 418.038 195.143 418.098 195.143 418.173V418.753C195.143 418.828 195.203 418.889 195.278 418.889H195.847C195.922 418.889 195.983 418.828 195.983 418.753V418.738C195.983 418.663 195.922 418.603 195.847 418.603H195.557C195.482 418.603 195.422 418.542 195.422 418.467V418.452C195.422 418.377 195.482 418.317 195.557 418.317H196.123C196.198 418.317 196.258 418.377 196.258 418.452V418.753C196.258 418.828 196.319 418.889 196.394 418.889H197.521C197.596 418.889 197.657 418.828 197.657 418.753V418.173C197.657 418.098 197.596 418.038 197.521 418.038ZM196.959 418.038H196.955C196.88 418.038 196.82 418.098 196.82 418.173V418.181C196.82 418.256 196.88 418.317 196.955 418.317H196.959C197.034 418.317 197.095 418.256 197.095 418.181V418.173C197.095 418.098 197.034 418.038 196.959 418.038ZM197.521 419.175H194.159C194.084 419.175 194.024 419.235 194.024 419.31V419.325C194.024 419.4 194.084 419.461 194.159 419.461H197.521C197.596 419.461 197.657 419.4 197.657 419.325V419.31C197.657 419.235 197.596 419.175 197.521 419.175ZM194.159 418.038H194.728C194.803 418.038 194.864 418.098 194.864 418.173V418.753C194.864 418.828 194.803 418.889 194.728 418.889H193.88C193.805 418.889 193.744 418.95 193.744 419.025V419.325C193.744 419.4 193.684 419.461 193.609 419.461H193.601C193.526 419.461 193.466 419.4 193.466 419.325V418.452C193.466 418.377 193.405 418.317 193.33 418.317H193.322C193.247 418.317 193.187 418.377 193.187 418.452V419.325C193.187 419.4 193.126 419.461 193.051 419.461H193.043C192.969 419.461 192.908 419.4 192.908 419.325V418.452C192.908 418.377 192.847 418.317 192.772 418.317H192.765C192.69 418.317 192.629 418.377 192.629 418.452V419.325C192.629 419.4 192.568 419.461 192.493 419.461H192.486C192.411 419.461 192.35 419.4 192.35 419.325V418.173C192.35 418.098 192.411 418.038 192.486 418.038H193.609C193.684 418.038 193.745 418.098 193.745 418.173V418.467C193.745 418.542 193.805 418.603 193.88 418.603H194.449C194.524 418.603 194.585 418.542 194.585 418.467V418.452C194.585 418.377 194.524 418.317 194.449 418.317H194.159C194.084 418.317 194.024 418.256 194.024 418.181V418.173C194.024 418.098 194.084 418.038 194.159 418.038Z" fill="#F5F5F5"/>
<path d="M191.936 418.038H191.928C191.853 418.038 191.792 418.098 191.792 418.173V418.467C191.792 418.542 191.732 418.603 191.657 418.603H191.091C191.016 418.603 190.956 418.542 190.956 418.467V418.173C190.956 418.098 190.895 418.038 190.82 418.038H189.693C189.618 418.038 189.557 418.098 189.557 418.173V418.753C189.557 418.828 189.618 418.889 189.693 418.889H190.259C190.334 418.889 190.394 418.828 190.394 418.753V418.738C190.394 418.663 190.334 418.603 190.259 418.603H189.976C189.901 418.603 189.84 418.542 189.84 418.467V418.452C189.84 418.377 189.901 418.317 189.976 418.317H190.537C190.612 418.317 190.673 418.377 190.673 418.452V418.753C190.673 418.828 190.734 418.889 190.809 418.889H191.936C192.011 418.889 192.071 418.828 192.071 418.753V418.173C192.071 418.098 192.011 418.038 191.936 418.038ZM191.374 418.038H191.37C191.295 418.038 191.235 418.098 191.235 418.173V418.181C191.235 418.256 191.295 418.317 191.37 418.317H191.374C191.449 418.317 191.51 418.256 191.51 418.181V418.173C191.51 418.098 191.449 418.038 191.374 418.038ZM191.936 419.175H188.574C188.499 419.175 188.438 419.235 188.438 419.31V419.325C188.438 419.4 188.499 419.461 188.574 419.461H191.936C192.011 419.461 192.071 419.4 192.071 419.325V419.31C192.071 419.235 192.011 419.175 191.936 419.175ZM188.574 418.038H189.139C189.214 418.038 189.275 418.098 189.275 418.173V418.753C189.275 418.828 189.214 418.889 189.139 418.889H188.295C188.22 418.889 188.159 418.95 188.159 419.025V419.325C188.159 419.4 188.099 419.461 188.024 419.461H188.016C187.941 419.461 187.88 419.4 187.88 419.325V418.452C187.88 418.377 187.82 418.317 187.745 418.317H187.737C187.662 418.317 187.602 418.377 187.602 418.452V419.325C187.602 419.4 187.541 419.461 187.466 419.461H187.458C187.383 419.461 187.323 419.4 187.323 419.325V418.452C187.323 418.377 187.262 418.317 187.187 418.317H187.179C187.104 418.317 187.044 418.377 187.044 418.452V419.325C187.044 419.4 186.983 419.461 186.908 419.461H186.9C186.825 419.461 186.765 419.4 186.765 419.325V418.173C186.765 418.098 186.825 418.038 186.9 418.038H188.024C188.099 418.038 188.16 418.098 188.16 418.173V418.467C188.16 418.542 188.22 418.603 188.295 418.603H188.864C188.939 418.603 189 418.542 189 418.467V418.452C189 418.377 188.939 418.317 188.864 418.317H188.574C188.499 418.317 188.438 418.256 188.438 418.181V418.173C188.438 418.098 188.499 418.038 188.574 418.038Z" fill="#F5F5F5"/>
<path d="M186.35 418.038H186.342C186.267 418.038 186.207 418.098 186.207 418.173V418.467C186.207 418.542 186.146 418.603 186.071 418.603H185.502C185.427 418.603 185.366 418.542 185.366 418.467V418.173C185.366 418.098 185.306 418.038 185.231 418.038H184.107C184.032 418.038 183.972 418.098 183.972 418.173V418.753C183.972 418.828 184.032 418.889 184.107 418.889H184.673C184.748 418.889 184.809 418.828 184.809 418.753V418.738C184.809 418.663 184.748 418.603 184.673 418.603H184.383C184.308 418.603 184.247 418.542 184.247 418.467V418.452C184.247 418.377 184.308 418.317 184.383 418.317H184.955C185.03 418.317 185.091 418.377 185.091 418.452V418.753C185.091 418.828 185.152 418.889 185.227 418.889H186.35C186.425 418.889 186.485 418.828 186.485 418.753V418.173C186.486 418.098 186.425 418.038 186.35 418.038ZM185.792 418.038H185.781C185.706 418.038 185.645 418.098 185.645 418.173V418.181C185.645 418.256 185.706 418.317 185.781 418.317H185.792C185.867 418.317 185.928 418.256 185.928 418.181V418.173C185.928 418.098 185.867 418.038 185.792 418.038ZM186.35 419.175H182.988C182.913 419.175 182.853 419.235 182.853 419.31V419.325C182.853 419.4 182.913 419.461 182.988 419.461H186.35C186.425 419.461 186.486 419.4 186.486 419.325V419.31C186.486 419.235 186.425 419.175 186.35 419.175ZM182.988 418.038H183.554C183.628 418.038 183.689 418.098 183.689 418.173V418.753C183.689 418.828 183.629 418.889 183.554 418.889H182.709C182.634 418.889 182.574 418.95 182.574 419.025V419.325C182.574 419.4 182.513 419.461 182.438 419.461H182.43C182.355 419.461 182.295 419.4 182.295 419.325V418.452C182.295 418.377 182.234 418.317 182.159 418.317H182.151C182.077 418.317 182.016 418.377 182.016 418.452V419.325C182.016 419.4 181.955 419.461 181.88 419.461H181.872C181.798 419.461 181.737 419.4 181.737 419.325V418.452C181.737 418.377 181.676 418.317 181.601 418.317H181.59C181.515 418.317 181.454 418.377 181.454 418.452V419.325C181.454 419.4 181.394 419.461 181.319 419.461H181.315C181.24 419.461 181.179 419.4 181.179 419.325V418.173C181.179 418.098 181.24 418.038 181.315 418.038H182.438C182.513 418.038 182.573 418.098 182.573 418.173V418.467C182.573 418.542 182.634 418.603 182.709 418.603H183.271C183.346 418.603 183.407 418.542 183.407 418.467V418.452C183.407 418.377 183.346 418.317 183.271 418.317H182.988C182.913 418.317 182.852 418.256 182.852 418.181V418.173C182.853 418.098 182.913 418.038 182.988 418.038Z" fill="#F5F5F5"/>
<path d="M180.761 418.038H180.757C180.682 418.038 180.622 418.098 180.622 418.173V418.467C180.622 418.542 180.561 418.603 180.486 418.603H179.92C179.845 418.603 179.785 418.542 179.785 418.467V418.173C179.785 418.098 179.724 418.038 179.649 418.038H178.522C178.448 418.038 178.387 418.098 178.387 418.173V418.753C178.387 418.828 178.447 418.889 178.522 418.889H179.084C179.159 418.889 179.22 418.828 179.22 418.753V418.738C179.22 418.663 179.159 418.603 179.084 418.603H178.798C178.723 418.603 178.662 418.542 178.662 418.467V418.452C178.662 418.377 178.723 418.317 178.798 418.317H179.367C179.442 418.317 179.502 418.377 179.502 418.452V418.753C179.502 418.828 179.563 418.889 179.638 418.889H180.762C180.837 418.889 180.897 418.828 180.897 418.753V418.173C180.897 418.098 180.836 418.038 180.761 418.038ZM180.204 418.038H180.196C180.121 418.038 180.06 418.098 180.06 418.173V418.181C180.06 418.256 180.121 418.317 180.196 418.317H180.204C180.278 418.317 180.339 418.256 180.339 418.181V418.173C180.339 418.098 180.278 418.038 180.204 418.038ZM180.761 419.175H177.396C177.321 419.175 177.26 419.235 177.26 419.31V419.325C177.26 419.4 177.321 419.461 177.396 419.461H180.761C180.836 419.461 180.897 419.4 180.897 419.325V419.31C180.897 419.235 180.836 419.175 180.761 419.175ZM177.396 418.038H177.969C178.044 418.038 178.104 418.098 178.104 418.173V418.753C178.104 418.828 178.044 418.889 177.969 418.889H177.124C177.049 418.889 176.989 418.95 176.989 419.025V419.325C176.989 419.4 176.928 419.461 176.853 419.461H176.842C176.767 419.461 176.706 419.4 176.706 419.325V418.452C176.706 418.377 176.645 418.317 176.57 418.317H176.563C176.488 418.317 176.427 418.377 176.427 418.452V419.325C176.427 419.4 176.367 419.461 176.292 419.461H176.287C176.213 419.461 176.152 419.4 176.152 419.325V418.452C176.152 418.377 176.091 418.317 176.016 418.317H176.005C175.93 418.317 175.869 418.377 175.869 418.452V419.325C175.869 419.4 175.809 419.461 175.734 419.461H175.726C175.651 419.461 175.59 419.4 175.59 419.325V418.173C175.59 418.098 175.651 418.038 175.726 418.038H176.853C176.928 418.038 176.989 418.098 176.989 418.173V418.467C176.989 418.542 177.049 418.603 177.124 418.603H177.69C177.765 418.603 177.825 418.542 177.825 418.467V418.452C177.825 418.377 177.765 418.317 177.69 418.317H177.396C177.321 418.317 177.261 418.256 177.261 418.181V418.173C177.26 418.098 177.321 418.038 177.396 418.038Z" fill="#F5F5F5"/>
<path d="M175.176 418.038H175.168C175.093 418.038 175.033 418.098 175.033 418.173V418.467C175.033 418.542 174.972 418.603 174.897 418.603H174.332C174.257 418.603 174.196 418.542 174.196 418.467V418.173C174.196 418.098 174.135 418.038 174.06 418.038H172.933C172.858 418.038 172.798 418.098 172.798 418.173V418.753C172.798 418.828 172.858 418.889 172.933 418.889H173.495C173.57 418.889 173.631 418.828 173.631 418.753V418.738C173.631 418.663 173.57 418.603 173.495 418.603H173.209C173.134 418.603 173.073 418.542 173.073 418.467V418.452C173.073 418.377 173.134 418.317 173.209 418.317H173.781C173.856 418.317 173.917 418.377 173.917 418.452V418.753C173.917 418.828 173.978 418.889 174.053 418.889H175.176C175.251 418.889 175.312 418.828 175.312 418.753V418.173C175.312 418.098 175.251 418.038 175.176 418.038ZM174.618 418.038H174.61C174.536 418.038 174.475 418.098 174.475 418.173V418.181C174.475 418.256 174.535 418.317 174.61 418.317H174.618C174.693 418.317 174.754 418.256 174.754 418.181V418.173C174.754 418.098 174.693 418.038 174.618 418.038ZM175.176 419.175H171.818C171.743 419.175 171.682 419.235 171.682 419.31V419.325C171.682 419.4 171.743 419.461 171.818 419.461H175.176C175.251 419.461 175.312 419.4 175.312 419.325V419.31C175.312 419.235 175.251 419.175 175.176 419.175ZM171.818 418.038H172.383C172.458 418.038 172.519 418.098 172.519 418.173V418.753C172.519 418.828 172.458 418.889 172.383 418.889H171.532C171.457 418.889 171.396 418.95 171.396 419.025V419.325C171.396 419.4 171.336 419.461 171.261 419.461H171.26C171.185 419.461 171.125 419.4 171.125 419.325V418.452C171.125 418.377 171.064 418.317 170.989 418.317H170.974C170.899 418.317 170.838 418.377 170.838 418.452V419.325C170.838 419.4 170.778 419.461 170.703 419.461H170.702C170.627 419.461 170.567 419.4 170.567 419.325V418.452C170.567 418.377 170.506 418.317 170.431 418.317H170.423C170.348 418.317 170.287 418.377 170.287 418.452V419.325C170.287 419.4 170.227 419.461 170.152 419.461H170.137C170.062 419.461 170.002 419.4 170.002 419.325V418.173C170.002 418.098 170.062 418.038 170.137 418.038H171.26C171.335 418.038 171.396 418.098 171.396 418.173V418.467C171.396 418.542 171.457 418.603 171.532 418.603H172.104C172.179 418.603 172.24 418.542 172.24 418.467V418.452C172.24 418.377 172.179 418.317 172.104 418.317H171.818C171.743 418.317 171.682 418.256 171.682 418.181V418.173C171.682 418.098 171.743 418.038 171.818 418.038Z" fill="#F5F5F5"/>
<path d="M219.866 417.172H217.623C217.548 417.172 217.488 417.233 217.488 417.308V417.609C217.488 417.684 217.548 417.745 217.623 417.745H219.866C219.941 417.745 220.001 417.684 220.001 417.609V417.308C220.001 417.233 219.941 417.172 219.866 417.172ZM217.07 417.172H214.831C214.756 417.172 214.695 417.233 214.695 417.308V417.609C214.695 417.684 214.756 417.745 214.831 417.745H217.07C217.145 417.745 217.205 417.684 217.205 417.609V417.308C217.205 417.233 217.145 417.172 217.07 417.172Z" fill="#F5F5F5"/>
<path d="M214.277 417.172H212.038C211.963 417.172 211.902 417.233 211.902 417.308V417.609C211.902 417.684 211.963 417.745 212.038 417.745H214.277C214.352 417.745 214.413 417.684 214.413 417.609V417.308C214.413 417.233 214.352 417.172 214.277 417.172ZM211.488 417.172H209.242C209.167 417.172 209.106 417.233 209.106 417.308V417.609C209.106 417.684 209.167 417.745 209.242 417.745H211.488C211.563 417.745 211.624 417.684 211.624 417.609V417.308C211.624 417.233 211.563 417.172 211.488 417.172Z" fill="#F5F5F5"/>
<path d="M208.692 417.172H206.449C206.374 417.172 206.314 417.233 206.314 417.308V417.609C206.314 417.684 206.374 417.745 206.449 417.745H208.692C208.767 417.745 208.827 417.684 208.827 417.609V417.308C208.827 417.233 208.767 417.172 208.692 417.172ZM205.899 417.172H203.657C203.582 417.172 203.521 417.233 203.521 417.308V417.609C203.521 417.684 203.582 417.745 203.657 417.745H205.899C205.974 417.745 206.035 417.684 206.035 417.609V417.308C206.035 417.233 205.974 417.172 205.899 417.172Z" fill="#F5F5F5"/>
<path d="M203.106 417.172H200.864C200.789 417.172 200.728 417.233 200.728 417.308V417.609C200.728 417.684 200.789 417.745 200.864 417.745H203.106C203.181 417.745 203.242 417.684 203.242 417.609V417.308C203.242 417.233 203.181 417.172 203.106 417.172ZM200.317 417.172H198.071C197.996 417.172 197.935 417.233 197.935 417.308V417.609C197.935 417.684 197.996 417.745 198.071 417.745H200.317C200.392 417.745 200.453 417.684 200.453 417.609V417.308C200.453 417.233 200.392 417.172 200.317 417.172Z" fill="#F5F5F5"/>
<path d="M197.521 417.172H195.278C195.203 417.172 195.143 417.233 195.143 417.308V417.609C195.143 417.684 195.203 417.745 195.278 417.745H197.521C197.596 417.745 197.657 417.684 197.657 417.609V417.308C197.657 417.233 197.596 417.172 197.521 417.172ZM194.728 417.172H192.486C192.411 417.172 192.35 417.233 192.35 417.308V417.609C192.35 417.684 192.411 417.745 192.486 417.745H194.728C194.803 417.745 194.864 417.684 194.864 417.609V417.308C194.864 417.233 194.803 417.172 194.728 417.172Z" fill="#F5F5F5"/>
<path d="M191.936 417.172H189.693C189.618 417.172 189.557 417.233 189.557 417.308V417.609C189.557 417.684 189.618 417.745 189.693 417.745H191.936C192.011 417.745 192.071 417.684 192.071 417.609V417.308C192.071 417.233 192.011 417.172 191.936 417.172ZM189.139 417.172H186.9C186.825 417.172 186.765 417.233 186.765 417.308V417.609C186.765 417.684 186.825 417.745 186.9 417.745H189.139C189.214 417.745 189.275 417.684 189.275 417.609V417.308C189.275 417.233 189.214 417.172 189.139 417.172Z" fill="#F5F5F5"/>
<path d="M186.35 417.172H184.108C184.033 417.172 183.972 417.233 183.972 417.308V417.609C183.972 417.684 184.033 417.745 184.108 417.745H186.35C186.425 417.745 186.486 417.684 186.486 417.609V417.308C186.486 417.233 186.425 417.172 186.35 417.172ZM183.554 417.172H181.315C181.24 417.172 181.179 417.233 181.179 417.308V417.609C181.179 417.684 181.24 417.745 181.315 417.745H183.554C183.629 417.745 183.69 417.684 183.69 417.609V417.308C183.689 417.233 183.629 417.172 183.554 417.172Z" fill="#F5F5F5"/>
<path d="M180.761 417.172H178.522C178.448 417.172 178.387 417.233 178.387 417.308V417.609C178.387 417.684 178.447 417.745 178.522 417.745H180.761C180.836 417.745 180.897 417.684 180.897 417.609V417.308C180.897 417.233 180.836 417.172 180.761 417.172ZM177.969 417.172H175.726C175.651 417.172 175.59 417.233 175.59 417.308V417.609C175.59 417.684 175.651 417.745 175.726 417.745H177.969C178.044 417.745 178.104 417.684 178.104 417.609V417.308C178.104 417.233 178.044 417.172 177.969 417.172Z" fill="#F5F5F5"/>
<path d="M175.176 417.172H172.933C172.858 417.172 172.798 417.233 172.798 417.308V417.609C172.798 417.684 172.858 417.745 172.933 417.745H175.176C175.251 417.745 175.312 417.684 175.312 417.609V417.308C175.312 417.233 175.251 417.172 175.176 417.172ZM172.383 417.172H170.137C170.062 417.172 170.002 417.233 170.002 417.308V417.609C170.002 417.684 170.062 417.745 170.137 417.745H172.383C172.458 417.745 172.519 417.684 172.519 417.609V417.308C172.519 417.233 172.458 417.172 172.383 417.172Z" fill="#F5F5F5"/>
<path d="M194.286 407.925C194.542 407.993 194.815 407.918 195.003 407.727C195.286 408.014 195.749 408.021 196.043 407.741C196.234 407.557 196.312 407.277 196.244 407.025C195.995 407.427 195.47 407.557 195.068 407.305C195.047 407.291 195.02 407.277 195.003 407.264C194.624 407.543 194.089 407.468 193.803 407.093C193.792 407.073 193.772 407.045 193.758 407.025C193.656 407.421 193.894 407.83 194.286 407.925Z" fill="#FF4B55"/>
<path d="M195.875 415.892C196.792 415.389 197.557 414.596 197.976 413.552C198.69 411.762 198.241 409.741 196.874 408.431C196.827 408.386 196.756 408.446 196.79 408.501C198.138 410.699 197.607 413.587 195.521 415.169L195.621 408.786C195.623 408.699 195.584 408.616 195.517 408.562L195.177 408.288C195.073 408.204 194.925 408.204 194.822 408.289L194.488 408.562C194.421 408.616 194.383 408.698 194.384 408.785L194.481 415.173C192.395 413.591 191.863 410.7 193.209 408.501C193.243 408.446 193.172 408.386 193.125 408.431C191.761 409.741 191.308 411.762 192.023 413.552C192.442 414.596 193.207 415.389 194.124 415.892C193.54 416.092 192.927 416.198 192.307 416.18C192.241 416.178 192.228 416.271 192.291 416.29C193.079 416.529 193.889 416.545 194.651 416.374L194.95 416.955C194.971 416.995 195.028 416.995 195.049 416.955L195.35 416.375C196.112 416.545 196.923 416.528 197.711 416.289C197.774 416.27 197.761 416.178 197.695 416.18C197.074 416.198 196.46 416.092 195.875 415.892Z" fill="#FF4B55"/>
<path d="M199.606 409.958C199.137 409.081 198.358 408.417 197.43 408.091C197.372 408.071 197.327 408.148 197.374 408.187C199.422 409.874 199.832 412.878 198.249 415.052C198.167 415.162 198.078 415.277 197.993 415.373C199.937 414.329 200.656 411.901 199.606 409.958Z" fill="#FF4B55"/>
<path d="M191.753 415.052C190.17 412.878 190.577 409.874 192.624 408.187C192.671 408.148 192.626 408.071 192.568 408.092C191.642 408.417 190.868 409.081 190.396 409.958C189.339 411.901 190.065 414.329 192.012 415.373C191.92 415.277 191.831 415.162 191.753 415.052Z" fill="#FF4B55"/>
</g>
<g style="mix-blend-mode:overlay" opacity="0.3" clip-path="url(#clip2_33_1095)">
<path d="M297.138 50.3792H248.863C248.387 50.3792 248.001 49.9932 248.001 49.5171V18.4827C248.001 18.0066 248.387 17.6206 248.863 17.6206H297.138C297.615 17.6206 298.001 18.0066 298.001 18.4827V49.5171C298 49.9933 297.614 50.3792 297.138 50.3792Z" fill="#F5F5F5"/>
<path d="M273 43.4824C278.237 43.4824 282.483 39.237 282.483 34C282.483 28.763 278.237 24.5176 273 24.5176C267.763 24.5176 263.518 28.763 263.518 34C263.518 39.237 267.763 43.4824 273 43.4824Z" fill="#FF4B55"/>
</g>
<g style="mix-blend-mode:overlay" opacity="0.3" clip-path="url(#clip3_33_1095)">
<path d="M277.138 610.379H228.863C228.387 610.379 228.001 609.993 228.001 609.517V578.483C228.001 578.007 228.387 577.621 228.863 577.621H277.138C277.615 577.621 278.001 578.007 278.001 578.483V609.517C278 609.993 277.614 610.379 277.138 610.379Z" fill="#41479B"/>
<path d="M278 578.483C278 578.007 277.614 577.621 277.138 577.621H273.281L257.311 588.084V577.621H248.69V588.084L232.72 577.621H228.863C228.387 577.621 228.001 578.007 228.001 578.483V580.712L241.703 589.69H228.001V598.31H241.703L228.001 607.287V609.517C228.001 609.993 228.387 610.379 228.863 610.379H232.72L248.69 599.916V610.379H257.311V599.916L273.282 610.379H277.139C277.615 610.379 278.001 609.993 278.001 609.517V607.287L264.299 598.31H278V589.69H264.298L278 580.712V578.483Z" fill="#F5F5F5"/>
<path d="M278 591.414H255.587V577.621H250.414V591.414H228.001V596.586H250.414V610.379H255.587V596.586H278V591.414Z" fill="#FF4B55"/>
<path d="M245.476 598.31L228.025 609.638C228.086 610.054 228.43 610.379 228.863 610.379H230.05L248.643 598.31H245.476V598.31Z" fill="#FF4B55"/>
<path d="M261.828 598.31H258.661L277.227 610.361C277.66 610.315 278.001 609.962 278.001 609.517V608.808L261.828 598.31Z" fill="#FF4B55"/>
<path d="M228.001 579.434L243.8 589.69H246.967L228.504 577.705C228.209 577.842 228.001 578.136 228.001 578.483V579.434Z" fill="#FF4B55"/>
<path d="M260.478 589.69L277.971 578.335C277.899 577.932 277.563 577.621 277.139 577.621H275.904L257.312 589.69H260.478Z" fill="#FF4B55"/>
</g>
<g style="mix-blend-mode:overlay" opacity="0.3" clip-path="url(#clip4_33_1095)">
<path d="M290.138 307.379H241.862C241.386 307.379 241 306.993 241 306.517V275.483C241 275.007 241.386 274.621 241.862 274.621H290.138C290.614 274.621 291 275.007 291 275.483V306.517C291 306.993 290.614 307.379 290.138 307.379Z" fill="#F5F5F5"/>
<path d="M291 277.141H241V275.483C241 275.007 241.386 274.621 241.862 274.621H290.138C290.614 274.621 291 275.007 291 275.483L291 277.141Z" fill="#FF4B55"/>
<path d="M291 284.7H241V287.22H291V284.7Z" fill="#FF4B55"/>
<path d="M291 279.66H241V282.18H291V279.66Z" fill="#FF4B55"/>
<path d="M291 292.26H241.862C241.386 292.26 241 291.874 241 291.398V289.74H291V292.26Z" fill="#FF4B55"/>
<path d="M291 299.82H241V302.34H291V299.82Z" fill="#FF4B55"/>
<path d="M290.138 307.379H241.862C241.386 307.379 241 306.993 241 306.517V304.859H291V306.517C291 306.993 290.614 307.379 290.138 307.379Z" fill="#FF4B55"/>
<path d="M291 294.78H241V297.3H291V294.78Z" fill="#FF4B55"/>
<path d="M263.414 274.621H241.862C241.386 274.621 241 275.007 241 275.483V291.398C241 291.874 241.386 292.26 241.862 292.26H263.414C263.89 292.26 264.276 291.874 264.276 291.398V275.483C264.276 275.007 263.89 274.621 263.414 274.621Z" fill="#41479B"/>
<path d="M243.422 276.599L243.612 277.172L244.216 277.176C244.294 277.177 244.326 277.277 244.263 277.323L243.778 277.681L243.96 278.256C243.984 278.331 243.899 278.393 243.835 278.347L243.344 277.996L242.854 278.347C242.79 278.393 242.706 278.331 242.729 278.257L242.911 277.681L242.426 277.323C242.363 277.277 242.395 277.177 242.473 277.176L243.077 277.172L243.267 276.599C243.292 276.525 243.397 276.525 243.422 276.599Z" fill="#F5F5F5"/>
<path d="M243.421 279.593L243.612 280.165L244.215 280.17C244.293 280.171 244.326 280.27 244.263 280.317L243.778 280.675L243.96 281.25C243.983 281.324 243.898 281.386 243.835 281.341L243.344 280.99L242.853 281.341C242.79 281.386 242.705 281.325 242.729 281.25L242.911 280.675L242.425 280.317C242.363 280.27 242.395 280.171 242.473 280.17L243.076 280.165L243.267 279.593C243.292 279.519 243.396 279.519 243.421 279.593Z" fill="#F5F5F5"/>
<path d="M243.421 282.587L243.612 283.159L244.215 283.163C244.293 283.164 244.326 283.264 244.263 283.31L243.778 283.668L243.96 284.244C243.983 284.318 243.898 284.38 243.835 284.334L243.344 283.983L242.853 284.334C242.79 284.38 242.705 284.318 242.729 284.244L242.911 283.669L242.425 283.31C242.363 283.264 242.395 283.164 242.473 283.163L243.076 283.159L243.267 282.587C243.292 282.512 243.396 282.512 243.421 282.587Z" fill="#F5F5F5"/>
<path d="M243.421 285.58L243.612 286.153L244.215 286.157C244.293 286.158 244.326 286.257 244.263 286.304L243.778 286.662L243.96 287.237C243.983 287.312 243.898 287.373 243.835 287.328L243.344 286.977L242.853 287.328C242.79 287.373 242.705 287.312 242.729 287.237L242.911 286.662L242.425 286.304C242.363 286.257 242.395 286.158 242.473 286.157L243.076 286.153L243.267 285.58C243.292 285.506 243.396 285.506 243.421 285.58Z" fill="#F5F5F5"/>
<path d="M243.421 288.574L243.612 289.146L244.215 289.151C244.293 289.151 244.326 289.251 244.263 289.297L243.778 289.656L243.96 290.231C243.983 290.305 243.898 290.367 243.835 290.321L243.344 289.971L242.853 290.321C242.79 290.367 242.705 290.305 242.729 290.231L242.911 289.656L242.425 289.297C242.363 289.251 242.395 289.151 242.473 289.151L243.076 289.146L243.267 288.574C243.292 288.499 243.396 288.499 243.421 288.574Z" fill="#F5F5F5"/>
<path d="M245.745 278.067L245.935 278.639L246.539 278.644C246.617 278.645 246.649 278.744 246.586 278.791L246.101 279.149L246.283 279.724C246.307 279.799 246.222 279.86 246.158 279.815L245.668 279.464L245.177 279.815C245.113 279.86 245.029 279.799 245.052 279.724L245.234 279.149L244.749 278.791C244.686 278.744 244.718 278.645 244.796 278.644L245.4 278.639L245.59 278.067C245.615 277.993 245.72 277.993 245.745 278.067Z" fill="#F5F5F5"/>
<path d="M245.745 281.061L245.935 281.633L246.539 281.638C246.617 281.638 246.649 281.738 246.586 281.784L246.101 282.143L246.283 282.718C246.307 282.792 246.222 282.854 246.158 282.808L245.668 282.458L245.177 282.808C245.113 282.854 245.029 282.792 245.052 282.718L245.234 282.143L244.749 281.784C244.686 281.738 244.718 281.638 244.796 281.638L245.4 281.633L245.59 281.061C245.615 280.987 245.72 280.987 245.745 281.061Z" fill="#F5F5F5"/>
<path d="M245.745 284.054L245.935 284.627L246.539 284.631C246.617 284.632 246.649 284.731 246.586 284.778L246.101 285.136L246.283 285.711C246.307 285.786 246.222 285.847 246.158 285.802L245.668 285.451L245.177 285.802C245.113 285.847 245.029 285.786 245.052 285.711L245.234 285.136L244.749 284.778C244.686 284.731 244.718 284.632 244.796 284.631L245.4 284.627L245.59 284.054C245.615 283.98 245.72 283.98 245.745 284.054Z" fill="#F5F5F5"/>
<path d="M245.745 287.048L245.935 287.62L246.539 287.625C246.617 287.625 246.649 287.725 246.586 287.771L246.101 288.13L246.283 288.705C246.307 288.779 246.222 288.841 246.158 288.795L245.668 288.445L245.177 288.795C245.113 288.841 245.029 288.779 245.052 288.705L245.234 288.13L244.749 287.771C244.686 287.725 244.718 287.625 244.796 287.625L245.4 287.62L245.59 287.048C245.615 286.974 245.72 286.974 245.745 287.048Z" fill="#F5F5F5"/>
<path d="M248.068 276.599L248.259 277.172L248.862 277.176C248.94 277.177 248.973 277.277 248.91 277.323L248.425 277.681L248.607 278.256C248.63 278.331 248.545 278.393 248.482 278.347L247.991 277.996L247.5 278.347C247.437 278.392 247.352 278.331 247.376 278.256L247.558 277.681L247.072 277.323C247.01 277.276 247.042 277.177 247.12 277.176L247.723 277.172L247.914 276.599C247.939 276.525 248.043 276.525 248.068 276.599Z" fill="#F5F5F5"/>
<path d="M248.068 279.593L248.259 280.165L248.862 280.17C248.94 280.171 248.973 280.27 248.91 280.317L248.425 280.675L248.607 281.25C248.63 281.324 248.545 281.386 248.482 281.341L247.991 280.99L247.5 281.341C247.437 281.386 247.352 281.324 247.376 281.25L247.558 280.675L247.072 280.317C247.01 280.27 247.042 280.171 247.12 280.17L247.723 280.165L247.914 279.593C247.939 279.519 248.043 279.519 248.068 279.593Z" fill="#F5F5F5"/>
<path d="M248.068 282.587L248.259 283.159L248.862 283.163C248.94 283.164 248.973 283.264 248.91 283.31L248.425 283.668L248.607 284.244C248.63 284.318 248.545 284.38 248.482 284.334L247.991 283.983L247.5 284.334C247.437 284.38 247.352 284.318 247.376 284.244L247.558 283.668L247.072 283.31C247.01 283.264 247.042 283.164 247.12 283.163L247.723 283.159L247.914 282.587C247.939 282.513 248.043 282.513 248.068 282.587Z" fill="#F5F5F5"/>
<path d="M248.068 285.58L248.259 286.152L248.862 286.157C248.94 286.158 248.973 286.257 248.91 286.304L248.425 286.662L248.607 287.237C248.63 287.312 248.545 287.373 248.482 287.328L247.991 286.977L247.5 287.328C247.437 287.373 247.352 287.312 247.376 287.237L247.558 286.662L247.072 286.304C247.01 286.257 247.042 286.158 247.12 286.157L247.723 286.152L247.914 285.58C247.939 285.506 248.043 285.506 248.068 285.58Z" fill="#F5F5F5"/>
<path d="M248.068 288.574L248.259 289.146L248.862 289.151C248.94 289.151 248.973 289.251 248.91 289.297L248.425 289.656L248.607 290.231C248.63 290.305 248.545 290.367 248.482 290.321L247.991 289.971L247.5 290.321C247.437 290.367 247.352 290.305 247.376 290.231L247.558 289.656L247.072 289.297C247.01 289.251 247.042 289.151 247.12 289.151L247.723 289.146L247.914 288.574C247.939 288.5 248.043 288.5 248.068 288.574Z" fill="#F5F5F5"/>
<path d="M250.392 278.067L250.583 278.639L251.186 278.644C251.264 278.645 251.296 278.744 251.234 278.791L250.748 279.149L250.93 279.724C250.954 279.799 250.869 279.86 250.806 279.815L250.315 279.464L249.824 279.815C249.761 279.86 249.676 279.799 249.699 279.724L249.881 279.149L249.396 278.791C249.333 278.744 249.366 278.645 249.444 278.644L250.047 278.639L250.238 278.067C250.262 277.993 250.367 277.993 250.392 278.067Z" fill="#F5F5F5"/>
<path d="M250.392 281.061L250.583 281.633L251.186 281.638C251.264 281.638 251.296 281.738 251.234 281.784L250.748 282.143L250.93 282.718C250.954 282.792 250.869 282.854 250.806 282.808L250.315 282.458L249.824 282.808C249.761 282.854 249.676 282.792 249.699 282.718L249.881 282.143L249.396 281.784C249.333 281.738 249.366 281.638 249.444 281.638L250.047 281.633L250.238 281.061C250.262 280.987 250.367 280.987 250.392 281.061Z" fill="#F5F5F5"/>
<path d="M250.392 284.054L250.583 284.627L251.186 284.631C251.264 284.632 251.296 284.731 251.234 284.778L250.748 285.136L250.93 285.711C250.954 285.786 250.869 285.847 250.806 285.802L250.315 285.451L249.824 285.802C249.761 285.847 249.676 285.786 249.699 285.711L249.881 285.136L249.396 284.778C249.333 284.731 249.366 284.632 249.444 284.631L250.047 284.627L250.238 284.054C250.262 283.98 250.367 283.98 250.392 284.054Z" fill="#F5F5F5"/>
<path d="M250.392 287.048L250.583 287.62L251.186 287.625C251.264 287.625 251.296 287.725 251.234 287.771L250.748 288.13L250.93 288.705C250.954 288.779 250.869 288.841 250.806 288.795L250.315 288.445L249.824 288.795C249.761 288.841 249.676 288.779 249.699 288.705L249.881 288.13L249.396 287.771C249.333 287.725 249.366 287.625 249.444 287.625L250.047 287.62L250.238 287.048C250.262 286.974 250.367 286.974 250.392 287.048Z" fill="#F5F5F5"/>
<path d="M252.715 276.599L252.906 277.172L253.509 277.176C253.588 277.177 253.62 277.277 253.557 277.323L253.072 277.681L253.254 278.256C253.277 278.331 253.193 278.393 253.129 278.347L252.638 277.996L252.147 278.347C252.084 278.392 251.999 278.331 252.023 278.256L252.205 277.681L251.719 277.323C251.657 277.276 251.689 277.177 251.767 277.176L252.37 277.172L252.561 276.599C252.586 276.525 252.691 276.525 252.715 276.599Z" fill="#F5F5F5"/>
<path d="M252.715 279.593L252.906 280.165L253.509 280.17C253.588 280.171 253.62 280.27 253.557 280.317L253.072 280.675L253.254 281.25C253.277 281.324 253.193 281.386 253.129 281.341L252.638 280.99L252.147 281.341C252.084 281.386 251.999 281.324 252.023 281.25L252.205 280.675L251.719 280.317C251.657 280.27 251.689 280.171 251.767 280.17L252.37 280.165L252.561 279.593C252.586 279.519 252.691 279.519 252.715 279.593Z" fill="#F5F5F5"/>
<path d="M252.715 282.587L252.906 283.159L253.509 283.163C253.588 283.164 253.62 283.264 253.557 283.31L253.072 283.668L253.254 284.244C253.277 284.318 253.193 284.38 253.129 284.334L252.638 283.983L252.147 284.334C252.084 284.38 251.999 284.318 252.023 284.244L252.205 283.668L251.719 283.31C251.657 283.264 251.689 283.164 251.767 283.163L252.37 283.159L252.561 282.587C252.586 282.513 252.691 282.513 252.715 282.587Z" fill="#F5F5F5"/>
<path d="M252.715 285.58L252.906 286.152L253.509 286.157C253.588 286.158 253.62 286.257 253.557 286.304L253.072 286.662L253.254 287.237C253.277 287.312 253.193 287.373 253.129 287.328L252.638 286.977L252.147 287.328C252.084 287.373 251.999 287.312 252.023 287.237L252.205 286.662L251.719 286.304C251.657 286.257 251.689 286.158 251.767 286.157L252.37 286.152L252.561 285.58C252.586 285.506 252.691 285.506 252.715 285.58Z" fill="#F5F5F5"/>
<path d="M252.715 288.574L252.906 289.146L253.509 289.151C253.588 289.151 253.62 289.251 253.557 289.297L253.072 289.656L253.254 290.231C253.277 290.305 253.193 290.367 253.129 290.321L252.638 289.971L252.147 290.321C252.084 290.367 251.999 290.305 252.023 290.231L252.205 289.656L251.719 289.297C251.657 289.251 251.689 289.151 251.767 289.151L252.37 289.146L252.561 288.574C252.586 288.5 252.691 288.5 252.715 288.574Z" fill="#F5F5F5"/>
<path d="M255.039 278.067L255.23 278.639L255.833 278.644C255.911 278.645 255.943 278.744 255.881 278.791L255.395 279.149L255.577 279.724C255.601 279.799 255.516 279.86 255.453 279.815L254.962 279.464L254.471 279.815C254.408 279.86 254.323 279.799 254.346 279.724L254.528 279.149L254.043 278.791C253.98 278.744 254.013 278.645 254.091 278.644L254.694 278.639L254.885 278.067C254.91 277.993 255.014 277.993 255.039 278.067Z" fill="#F5F5F5"/>
<path d="M255.039 281.061L255.23 281.633L255.833 281.638C255.911 281.638 255.943 281.738 255.881 281.784L255.395 282.143L255.577 282.718C255.601 282.792 255.516 282.854 255.453 282.808L254.962 282.458L254.471 282.808C254.408 282.854 254.323 282.792 254.346 282.718L254.528 282.143L254.043 281.784C253.98 281.738 254.013 281.638 254.091 281.638L254.694 281.633L254.885 281.061C254.91 280.987 255.014 280.987 255.039 281.061Z" fill="#F5F5F5"/>
<path d="M255.039 284.054L255.23 284.627L255.833 284.631C255.911 284.632 255.943 284.731 255.881 284.778L255.395 285.136L255.577 285.711C255.601 285.786 255.516 285.847 255.453 285.802L254.962 285.451L254.471 285.802C254.408 285.847 254.323 285.786 254.346 285.711L254.528 285.136L254.043 284.778C253.98 284.731 254.013 284.632 254.091 284.631L254.694 284.627L254.885 284.054C254.91 283.98 255.014 283.98 255.039 284.054Z" fill="#F5F5F5"/>
<path d="M255.039 287.048L255.23 287.62L255.833 287.625C255.911 287.625 255.943 287.725 255.881 287.771L255.395 288.13L255.577 288.705C255.601 288.779 255.516 288.841 255.453 288.795L254.962 288.445L254.471 288.795C254.408 288.841 254.323 288.779 254.346 288.705L254.528 288.13L254.043 287.771C253.98 287.725 254.013 287.625 254.091 287.625L254.694 287.62L254.885 287.048C254.91 286.974 255.014 286.974 255.039 287.048Z" fill="#F5F5F5"/>
<path d="M257.363 276.599L257.553 277.172L258.157 277.176C258.235 277.177 258.267 277.277 258.204 277.323L257.719 277.681L257.901 278.256C257.925 278.331 257.84 278.393 257.776 278.347L257.286 277.996L256.795 278.347C256.731 278.392 256.647 278.331 256.67 278.256L256.852 277.681L256.367 277.323C256.304 277.276 256.336 277.177 256.414 277.176L257.018 277.172L257.208 276.599C257.233 276.525 257.338 276.525 257.363 276.599Z" fill="#F5F5F5"/>
<path d="M257.363 279.593L257.553 280.165L258.157 280.17C258.235 280.171 258.267 280.27 258.204 280.317L257.719 280.675L257.901 281.25C257.925 281.324 257.84 281.386 257.776 281.341L257.286 280.99L256.795 281.341C256.731 281.386 256.647 281.324 256.67 281.25L256.852 280.675L256.367 280.317C256.304 280.27 256.336 280.171 256.414 280.17L257.018 280.165L257.208 279.593C257.233 279.519 257.338 279.519 257.363 279.593Z" fill="#F5F5F5"/>
<path d="M257.363 282.587L257.553 283.159L258.157 283.163C258.235 283.164 258.267 283.264 258.204 283.31L257.719 283.668L257.901 284.244C257.925 284.318 257.84 284.38 257.776 284.334L257.286 283.983L256.795 284.334C256.731 284.38 256.647 284.318 256.67 284.244L256.852 283.668L256.367 283.31C256.304 283.264 256.336 283.164 256.414 283.163L257.018 283.159L257.208 282.587C257.233 282.513 257.338 282.513 257.363 282.587Z" fill="#F5F5F5"/>
<path d="M257.363 285.58L257.553 286.152L258.157 286.157C258.235 286.158 258.267 286.257 258.204 286.304L257.719 286.662L257.901 287.237C257.925 287.312 257.84 287.373 257.776 287.328L257.286 286.977L256.795 287.328C256.731 287.373 256.647 287.312 256.67 287.237L256.852 286.662L256.367 286.304C256.304 286.257 256.336 286.158 256.414 286.157L257.018 286.152L257.208 285.58C257.233 285.506 257.338 285.506 257.363 285.58Z" fill="#F5F5F5"/>
<path d="M257.363 288.574L257.553 289.146L258.157 289.151C258.235 289.151 258.267 289.251 258.204 289.297L257.719 289.656L257.901 290.231C257.925 290.305 257.84 290.367 257.776 290.321L257.286 289.971L256.795 290.321C256.731 290.367 256.647 290.305 256.67 290.231L256.852 289.656L256.367 289.297C256.304 289.251 256.336 289.151 256.414 289.151L257.018 289.146L257.208 288.574C257.233 288.5 257.338 288.5 257.363 288.574Z" fill="#F5F5F5"/>
<path d="M259.686 278.067L259.877 278.639L260.48 278.644C260.558 278.645 260.591 278.744 260.528 278.791L260.042 279.149L260.225 279.724C260.248 279.799 260.163 279.86 260.1 279.815L259.609 279.464L259.118 279.815C259.055 279.86 258.97 279.799 258.993 279.724L259.175 279.149L258.69 278.791C258.627 278.744 258.66 278.645 258.738 278.644L259.341 278.639L259.532 278.067C259.557 277.993 259.661 277.993 259.686 278.067Z" fill="#F5F5F5"/>
<path d="M259.686 281.061L259.877 281.633L260.48 281.638C260.558 281.638 260.591 281.738 260.528 281.784L260.042 282.143L260.225 282.718C260.248 282.792 260.163 282.854 260.1 282.808L259.609 282.458L259.118 282.808C259.055 282.854 258.97 282.792 258.993 282.718L259.175 282.143L258.69 281.784C258.627 281.738 258.66 281.638 258.738 281.638L259.341 281.633L259.532 281.061C259.557 280.987 259.661 280.987 259.686 281.061Z" fill="#F5F5F5"/>
<path d="M259.686 284.054L259.877 284.627L260.48 284.631C260.558 284.632 260.591 284.731 260.528 284.778L260.042 285.136L260.225 285.711C260.248 285.786 260.163 285.847 260.1 285.802L259.609 285.451L259.118 285.802C259.055 285.847 258.97 285.786 258.993 285.711L259.175 285.136L258.69 284.778C258.627 284.731 258.66 284.632 258.738 284.631L259.341 284.627L259.532 284.054C259.557 283.98 259.661 283.98 259.686 284.054Z" fill="#F5F5F5"/>
<path d="M259.686 287.048L259.877 287.62L260.48 287.625C260.558 287.625 260.591 287.725 260.528 287.771L260.042 288.13L260.225 288.705C260.248 288.779 260.163 288.841 260.1 288.795L259.609 288.445L259.118 288.795C259.055 288.841 258.97 288.779 258.993 288.705L259.175 288.13L258.69 287.771C258.627 287.725 258.66 287.625 258.738 287.625L259.341 287.62L259.532 287.048C259.557 286.974 259.661 286.974 259.686 287.048Z" fill="#F5F5F5"/>
<path d="M262.01 276.599L262.2 277.172L262.804 277.176C262.882 277.177 262.914 277.277 262.851 277.323L262.366 277.681L262.548 278.256C262.572 278.331 262.487 278.393 262.423 278.347L261.933 277.996L261.442 278.347C261.378 278.392 261.294 278.331 261.317 278.256L261.499 277.681L261.014 277.323C260.951 277.276 260.983 277.177 261.062 277.176L261.665 277.172L261.856 276.599C261.88 276.525 261.985 276.525 262.01 276.599Z" fill="#F5F5F5"/>
<path d="M262.01 279.593L262.2 280.165L262.804 280.17C262.882 280.171 262.914 280.27 262.851 280.317L262.366 280.675L262.548 281.25C262.572 281.324 262.487 281.386 262.423 281.341L261.933 280.99L261.442 281.341C261.378 281.386 261.294 281.324 261.317 281.25L261.499 280.675L261.014 280.317C260.951 280.27 260.983 280.171 261.062 280.17L261.665 280.165L261.856 279.593C261.88 279.519 261.985 279.519 262.01 279.593Z" fill="#F5F5F5"/>
<path d="M262.01 282.587L262.2 283.159L262.804 283.163C262.882 283.164 262.914 283.264 262.851 283.31L262.366 283.668L262.548 284.244C262.572 284.318 262.487 284.38 262.423 284.334L261.933 283.983L261.442 284.334C261.378 284.38 261.294 284.318 261.317 284.244L261.499 283.668L261.014 283.31C260.951 283.264 260.983 283.164 261.062 283.163L261.665 283.159L261.856 282.587C261.88 282.513 261.985 282.513 262.01 282.587Z" fill="#F5F5F5"/>
<path d="M262.01 285.58L262.2 286.152L262.804 286.157C262.882 286.158 262.914 286.257 262.851 286.304L262.366 286.662L262.548 287.237C262.572 287.312 262.487 287.373 262.423 287.328L261.933 286.977L261.442 287.328C261.378 287.373 261.294 287.312 261.317 287.237L261.499 286.662L261.014 286.304C260.951 286.257 260.983 286.158 261.062 286.157L261.665 286.152L261.856 285.58C261.88 285.506 261.985 285.506 262.01 285.58Z" fill="#F5F5F5"/>
<path d="M262.01 288.574L262.2 289.146L262.804 289.151C262.882 289.151 262.914 289.251 262.851 289.297L262.366 289.656L262.548 290.231C262.572 290.305 262.487 290.367 262.423 290.321L261.933 289.971L261.442 290.321C261.378 290.367 261.294 290.305 261.317 290.231L261.499 289.656L261.014 289.297C260.951 289.251 260.983 289.151 261.062 289.151L261.665 289.146L261.856 288.574C261.88 288.5 261.985 288.5 262.01 288.574Z" fill="#F5F5F5"/>
</g>
<g style="mix-blend-mode:overlay" opacity="0.3" clip-path="url(#clip5_33_1095)">
<path d="M186.138 152.379H137.863C137.387 152.379 137.001 151.993 137.001 151.517V120.482C137.001 120.006 137.387 119.62 137.863 119.62H186.138C186.615 119.62 187.001 120.006 187.001 120.482V151.517C187 151.993 186.614 152.379 186.138 152.379Z" fill="#F5F5F5"/>
<path d="M175.794 119.621H148.208V152.38H175.794V119.621Z" fill="#F5F5F5"/>
<path d="M137.863 119.621C137.387 119.621 137.001 120.007 137.001 120.483V151.517C137.001 151.993 137.387 152.379 137.863 152.379H148.207V119.621H137.863Z" fill="#FF4B55"/>
<path d="M186.139 119.62H175.794V152.379H186.139C186.615 152.379 187.001 151.993 187.001 151.517V120.482C187.001 120.006 186.615 119.62 186.139 119.62Z" fill="#FF4B55"/>
<path d="M167.233 139.785L172.348 136.862L171.174 136.275C170.845 136.11 170.657 135.755 170.705 135.39L171.087 132.527L168.921 133.157C168.443 133.296 167.947 133.002 167.839 132.515L167.632 131.578L165.598 133.957C165.316 134.287 164.779 134.035 164.853 133.608L165.721 128.558L164.391 128.922C164.003 129.028 163.593 128.851 163.404 128.496L162.004 125.872V125.868L162.003 125.87L162.001 125.868V125.872L160.601 128.496C160.412 128.851 160.002 129.028 159.613 128.922L158.284 128.558L159.152 133.608C159.226 134.035 158.688 134.287 158.407 133.957L156.373 131.578L156.166 132.515C156.058 133.002 155.562 133.296 155.083 133.157L152.917 132.527L153.299 135.39C153.348 135.755 153.16 136.11 152.83 136.275L151.657 136.862L156.772 139.785C157.302 140.088 157.534 140.73 157.32 141.302L156.883 142.471L161.266 142.097C161.509 142.076 161.715 142.272 161.708 142.515L161.57 147.207H162.432L162.294 142.515C162.287 142.271 162.493 142.076 162.736 142.097L167.121 142.471L166.684 141.302C166.47 140.73 166.703 140.088 167.233 139.785Z" fill="#FF4B55"/>
</g>
<g style="mix-blend-mode:overlay" opacity="0.3" clip-path="url(#clip6_33_1095)">
<path d="M49.1375 41.3792H0.861803C0.385729 41.3792 -0.000305176 40.9932 -0.000305176 40.5171V9.48271C-0.000305176 9.00664 0.385729 8.62061 0.861803 8.62061H49.1376C49.6137 8.62061 49.9997 9.00664 49.9997 9.48271V40.5171C49.9996 40.9933 49.6136 41.3792 49.1375 41.3792Z" fill="#FF4B55"/>
<path d="M49.9996 22.4138H20.6893V8.62073H15.517V22.4138H-0.000305176V27.5862H15.517V41.3793H20.6893V27.5862H49.9996V22.4138Z" fill="#F5F5F5"/>
</g>
<g style="mix-blend-mode:overlay" opacity="0.3" clip-path="url(#clip7_33_1095)">
<path d="M58.1373 684.379H9.86162C9.38555 684.379 8.99951 683.993 8.99951 683.517V652.483C8.99951 652.007 9.38555 651.621 9.86162 651.621H58.1374C58.6135 651.621 58.9995 652.007 58.9995 652.483V683.517C58.9994 683.993 58.6134 684.379 58.1373 684.379Z" fill="#F5F5F5"/>
<path d="M58.9994 665.414H36.5857V651.621H31.4132V665.414H8.99951V670.586H31.4132V684.379H36.5857V670.586H58.9994V665.414Z" fill="#FF4B55"/>
</g>
<g style="mix-blend-mode:overlay" opacity="0.3" clip-path="url(#clip8_33_1095)">
<path d="M56.6671 543.379H40.8625C40.3864 543.379 40.0004 542.993 40.0004 542.517V511.482C40.0004 511.006 40.3864 510.62 40.8625 510.62H56.6671V543.379Z" fill="#41479B"/>
<path d="M73.3344 510.621H56.6674V543.38H73.3344V510.621Z" fill="#F5F5F5"/>
<path d="M89.1383 543.379H73.3337V510.62H89.1383C89.6144 510.62 90.0004 511.006 90.0004 511.482V542.517C90.0004 542.993 89.6144 543.379 89.1383 543.379Z" fill="#FF4B55"/>
</g>
</g>
<defs>
<clipPath id="clip0_33_1095">
<rect width="50" height="50" fill="white" transform="translate(15 261)"/>
</clipPath>
<clipPath id="clip1_33_1095">
<rect width="50" height="50" fill="white" transform="translate(170 387)"/>
</clipPath>
<clipPath id="clip2_33_1095">
<rect width="50" height="50" fill="white" transform="translate(248 9)"/>
</clipPath>
<clipPath id="clip3_33_1095">
<rect width="50" height="50" fill="white" transform="translate(228 569)"/>
</clipPath>
<clipPath id="clip4_33_1095">
<rect width="50" height="50" fill="white" transform="translate(241 266)"/>
</clipPath>
<clipPath id="clip5_33_1095">
<rect width="50" height="50" fill="white" transform="translate(137 111)"/>
</clipPath>
<clipPath id="clip6_33_1095">
<rect width="50" height="50" fill="white"/>
</clipPath>
<clipPath id="clip7_33_1095">
<rect width="50" height="50" fill="white" transform="translate(9 643)"/>
</clipPath>
<clipPath id="clip8_33_1095">
<rect width="50" height="50" fill="white" transform="translate(40 502)"/>
</clipPath>
</defs>
</svg>
