<svg width="360" height="327" viewBox="0 0 360 327" fill="none" xmlns="http://www.w3.org/2000/svg">
<g style="mix-blend-mode:overlay" opacity="0.3" clip-path="url(#clip0_137_130339)">
<path d="M95.0008 291.54H45.0009V281.483C45.0009 281.007 45.3869 280.621 45.863 280.621H94.1388C94.6149 280.621 95.0009 281.007 95.0009 281.483L95.0008 291.54Z" fill="#464655"/>
<path d="M94.1387 313.379H45.863C45.3869 313.379 45.0009 312.993 45.0009 312.517V302.46H95.0008V312.517C95.0008 312.993 94.6148 313.379 94.1387 313.379Z" fill="#FFE15A"/>
<path d="M95.0008 291.54H45.0009V302.459H95.0008V291.54Z" fill="#FF4B55"/>
</g>
<g style="mix-blend-mode:overlay" opacity="0.3" clip-path="url(#clip1_137_130339)">
<path d="M180.001 87.5404H130.001V77.483C130.001 77.0069 130.387 76.6208 130.863 76.6208H179.139C179.615 76.6208 180.001 77.0069 180.001 77.483L180.001 87.5404Z" fill="#73AF00"/>
<path d="M179.139 109.379H130.863C130.387 109.379 130.001 108.993 130.001 108.517V98.46H180.001V108.517C180.001 108.993 179.615 109.379 179.139 109.379Z" fill="#FF4B55"/>
<path d="M180.001 87.5398H130.002V98.4587H180.001V87.5398Z" fill="#F5F5F5"/>
<path d="M130.136 86.9626H130.144C130.219 86.9626 130.28 86.902 130.28 86.827V86.5333C130.28 86.4583 130.34 86.3976 130.415 86.3976H130.984C131.059 86.3976 131.12 86.4583 131.12 86.5333V86.827C131.12 86.9019 131.181 86.9626 131.256 86.9626H132.379C132.454 86.9626 132.514 86.902 132.514 86.827V86.2471C132.514 86.1722 132.454 86.1115 132.379 86.1115H131.813C131.738 86.1115 131.678 86.1721 131.678 86.2471V86.262C131.678 86.3369 131.738 86.3976 131.813 86.3976H132.1C132.175 86.3976 132.236 86.4583 132.236 86.5333V86.548C132.236 86.6229 132.175 86.6836 132.1 86.6836H131.534C131.459 86.6836 131.399 86.623 131.399 86.548V86.2471C131.399 86.1722 131.338 86.1115 131.263 86.1115H130.136C130.062 86.1115 130.001 86.1721 130.001 86.2471V86.827C130.001 86.9018 130.061 86.9626 130.136 86.9626ZM130.698 86.9626H130.705C130.78 86.9626 130.841 86.902 130.841 86.827V86.8193C130.841 86.7444 130.78 86.6836 130.705 86.6836H130.698C130.623 86.6836 130.562 86.7443 130.562 86.8193V86.827C130.562 86.9018 130.623 86.9626 130.698 86.9626ZM130.136 85.8254H133.498C133.573 85.8254 133.634 85.7648 133.634 85.6898V85.675C133.634 85.6 133.573 85.5393 133.498 85.5393H130.136C130.062 85.5393 130.001 85.6 130.001 85.675V85.6898C130.001 85.7648 130.061 85.8254 130.136 85.8254ZM133.498 86.9626H132.933C132.858 86.9626 132.797 86.902 132.797 86.827V86.2471C132.797 86.1722 132.858 86.1115 132.933 86.1115H133.777C133.852 86.1115 133.913 86.0508 133.913 85.9758V85.675C133.913 85.6 133.973 85.5393 134.048 85.5393H134.056C134.131 85.5393 134.192 85.6 134.192 85.675V86.548C134.192 86.6229 134.252 86.6836 134.327 86.6836H134.335C134.41 86.6836 134.471 86.623 134.471 86.548V85.675C134.471 85.6 134.531 85.5393 134.606 85.5393H134.614C134.689 85.5393 134.749 85.6 134.749 85.675V86.548C134.749 86.6229 134.81 86.6836 134.885 86.6836H134.896C134.971 86.6836 135.032 86.623 135.032 86.548V85.675C135.032 85.6 135.092 85.5393 135.167 85.5393H135.172C135.246 85.5393 135.307 85.6 135.307 85.675V86.827C135.307 86.9019 135.247 86.9626 135.172 86.9626H134.048C133.973 86.9626 133.913 86.902 133.913 86.827V86.5333C133.913 86.4583 133.852 86.3976 133.777 86.3976H133.212C133.137 86.3976 133.076 86.4583 133.076 86.5333V86.548C133.076 86.6229 133.137 86.6836 133.212 86.6836H133.498C133.573 86.6836 133.634 86.7443 133.634 86.8193V86.827C133.634 86.9018 133.573 86.9626 133.498 86.9626Z" fill="#F5F5F5"/>
<path d="M135.726 86.9624H135.737C135.812 86.9624 135.873 86.9018 135.873 86.8268V86.533C135.873 86.4581 135.933 86.3974 136.008 86.3974H136.57C136.645 86.3974 136.706 86.458 136.706 86.533V86.8268C136.706 86.9017 136.767 86.9624 136.842 86.9624H137.965C138.04 86.9624 138.101 86.9018 138.101 86.8268V86.2469C138.101 86.172 138.04 86.1112 137.965 86.1112H137.4C137.325 86.1112 137.264 86.1719 137.264 86.2469V86.2617C137.264 86.3366 137.325 86.3974 137.4 86.3974H137.686C137.761 86.3974 137.822 86.458 137.822 86.533V86.5478C137.822 86.6227 137.761 86.6834 137.686 86.6834H137.121C137.046 86.6834 136.985 86.6228 136.985 86.5478V86.2469C136.985 86.172 136.924 86.1112 136.849 86.1112H135.726C135.651 86.1112 135.59 86.1719 135.59 86.2469V86.8268C135.59 86.9016 135.651 86.9624 135.726 86.9624ZM136.284 86.9624H136.291C136.366 86.9624 136.427 86.9018 136.427 86.8268V86.819C136.427 86.7441 136.366 86.6834 136.291 86.6834H136.284C136.209 86.6834 136.148 86.744 136.148 86.819V86.8268C136.148 86.9016 136.209 86.9624 136.284 86.9624ZM135.726 85.8252H139.084C139.159 85.8252 139.22 85.7646 139.22 85.6896V85.6747C139.22 85.5998 139.159 85.5391 139.084 85.5391H135.726C135.651 85.5391 135.59 85.5997 135.59 85.6747V85.6896C135.59 85.7646 135.651 85.8252 135.726 85.8252ZM139.084 86.9624H138.515C138.44 86.9624 138.379 86.9018 138.379 86.8268V86.2469C138.379 86.172 138.44 86.1112 138.515 86.1112H139.36C139.435 86.1112 139.495 86.0506 139.495 85.9756V85.6747C139.495 85.5998 139.556 85.5391 139.631 85.5391H139.642C139.717 85.5391 139.778 85.5997 139.778 85.6747V86.5478C139.778 86.6227 139.838 86.6834 139.913 86.6834H139.925C140 86.6834 140.06 86.6228 140.06 86.5478V85.6747C140.06 85.5998 140.121 85.5391 140.196 85.5391H140.2C140.275 85.5391 140.336 85.5997 140.336 85.6747V86.5478C140.336 86.6227 140.396 86.6834 140.471 86.6834H140.483C140.558 86.6834 140.618 86.6228 140.618 86.5478V85.6747C140.618 85.5998 140.679 85.5391 140.754 85.5391H140.761C140.836 85.5391 140.897 85.5997 140.897 85.6747V86.8268C140.897 86.9017 140.836 86.9624 140.761 86.9624H139.631C139.556 86.9624 139.495 86.9018 139.495 86.8268V86.533C139.495 86.4581 139.435 86.3974 139.36 86.3974H138.798C138.723 86.3974 138.662 86.458 138.662 86.533V86.5478C138.662 86.6227 138.723 86.6834 138.798 86.6834H139.085C139.159 86.6834 139.22 86.744 139.22 86.819V86.8268C139.22 86.9016 139.159 86.9624 139.084 86.9624Z" fill="#F5F5F5"/>
<path d="M141.312 86.9624H141.319C141.394 86.9624 141.455 86.9018 141.455 86.8268V86.533C141.455 86.4581 141.515 86.3974 141.59 86.3974H142.156C142.231 86.3974 142.292 86.458 142.292 86.533V86.8268C142.292 86.9017 142.352 86.9624 142.427 86.9624H143.554C143.629 86.9624 143.69 86.9018 143.69 86.8268V86.2469C143.69 86.172 143.629 86.1112 143.554 86.1112H142.989C142.914 86.1112 142.853 86.1719 142.853 86.2469V86.2617C142.853 86.3366 142.914 86.3974 142.989 86.3974H143.275C143.35 86.3974 143.411 86.458 143.411 86.533V86.5478C143.411 86.6227 143.35 86.6834 143.275 86.6834H142.706C142.631 86.6834 142.571 86.6228 142.571 86.5478V86.2469C142.571 86.172 142.51 86.1112 142.435 86.1112H141.312C141.237 86.1112 141.176 86.1719 141.176 86.2469V86.8268C141.176 86.9016 141.237 86.9624 141.312 86.9624ZM141.869 86.9624H141.877C141.952 86.9624 142.013 86.9018 142.013 86.8268V86.819C142.013 86.7441 141.952 86.6834 141.877 86.6834H141.869C141.795 86.6834 141.734 86.744 141.734 86.819V86.8268C141.734 86.9016 141.795 86.9624 141.869 86.9624ZM141.312 85.8252H144.673C144.748 85.8252 144.809 85.7646 144.809 85.6896V85.6747C144.809 85.5998 144.748 85.5391 144.673 85.5391H141.312C141.237 85.5391 141.176 85.5997 141.176 85.6747V85.6896C141.176 85.7646 141.237 85.8252 141.312 85.8252ZM144.673 86.9624H144.104C144.029 86.9624 143.969 86.9018 143.969 86.8268V86.2469C143.969 86.172 144.029 86.1112 144.104 86.1112H144.949C145.024 86.1112 145.084 86.0506 145.084 85.9756V85.6747C145.084 85.5998 145.145 85.5391 145.22 85.5391H145.228C145.303 85.5391 145.363 85.5997 145.363 85.6747V86.5478C145.363 86.6227 145.424 86.6834 145.499 86.6834H145.51C145.585 86.6834 145.646 86.6228 145.646 86.5478V85.6747C145.646 85.5998 145.706 85.5391 145.781 85.5391H145.793C145.868 85.5391 145.928 85.5997 145.928 85.6747V86.5478C145.928 86.6227 145.989 86.6834 146.064 86.6834H146.068C146.143 86.6834 146.204 86.6228 146.204 86.5478V85.6747C146.204 85.5998 146.264 85.5391 146.339 85.5391H146.347C146.422 85.5391 146.482 85.5997 146.482 85.6747V86.8268C146.482 86.9017 146.422 86.9624 146.347 86.9624H145.22C145.145 86.9624 145.084 86.9018 145.084 86.8268V86.533C145.084 86.4581 145.024 86.3974 144.949 86.3974H144.383C144.308 86.3974 144.248 86.458 144.248 86.533V86.5478C144.248 86.6227 144.308 86.6834 144.383 86.6834H144.674C144.748 86.6834 144.809 86.744 144.809 86.819V86.8268C144.809 86.9016 144.748 86.9624 144.673 86.9624Z" fill="#F5F5F5"/>
<path d="M146.897 86.9624H146.904C146.979 86.9624 147.04 86.9018 147.04 86.8268V86.533C147.04 86.4581 147.101 86.3974 147.176 86.3974H147.741C147.816 86.3974 147.877 86.458 147.877 86.533V86.8268C147.877 86.9017 147.937 86.9624 148.012 86.9624H149.139C149.214 86.9624 149.275 86.9018 149.275 86.8268V86.2469C149.275 86.172 149.214 86.1112 149.139 86.1112H148.57C148.495 86.1112 148.435 86.1719 148.435 86.2469V86.2617C148.435 86.3366 148.495 86.3974 148.57 86.3974H148.857C148.932 86.3974 148.993 86.458 148.993 86.533V86.5478C148.993 86.6227 148.932 86.6834 148.857 86.6834H148.292C148.217 86.6834 148.156 86.6228 148.156 86.5478V86.2469C148.156 86.172 148.095 86.1112 148.02 86.1112H146.897C146.822 86.1112 146.761 86.1719 146.761 86.2469V86.8268C146.761 86.9016 146.822 86.9624 146.897 86.9624ZM147.455 86.9624H147.462C147.537 86.9624 147.598 86.9018 147.598 86.8268V86.819C147.598 86.7441 147.537 86.6834 147.462 86.6834H147.455C147.38 86.6834 147.319 86.744 147.319 86.819V86.8268C147.319 86.9016 147.38 86.9624 147.455 86.9624ZM146.897 85.8252H150.255C150.33 85.8252 150.391 85.7646 150.391 85.6896V85.6747C150.391 85.5998 150.33 85.5391 150.255 85.5391H146.897C146.822 85.5391 146.761 85.5997 146.761 85.6747V85.6896C146.761 85.7646 146.822 85.8252 146.897 85.8252ZM150.255 86.9624H149.686C149.611 86.9624 149.55 86.9018 149.55 86.8268V86.2469C149.55 86.172 149.611 86.1112 149.686 86.1112H150.538C150.613 86.1112 150.673 86.0506 150.673 85.9756V85.6747C150.673 85.5998 150.734 85.5391 150.809 85.5391H150.817C150.891 85.5391 150.952 85.5997 150.952 85.6747V86.5478C150.952 86.6227 151.013 86.6834 151.088 86.6834H151.092C151.167 86.6834 151.228 86.6228 151.228 86.5478V85.6747C151.228 85.5998 151.288 85.5391 151.363 85.5391H151.374C151.449 85.5391 151.51 85.5997 151.51 85.6747V86.5478C151.51 86.6227 151.571 86.6834 151.646 86.6834H151.653C151.728 86.6834 151.789 86.6228 151.789 86.5478V85.6747C151.789 85.5998 151.85 85.5391 151.925 85.5391H151.932C152.007 85.5391 152.068 85.5997 152.068 85.6747V86.8268C152.068 86.9017 152.007 86.9624 151.932 86.9624H150.808C150.734 86.9624 150.673 86.9018 150.673 86.8268V86.533C150.673 86.4581 150.612 86.3974 150.537 86.3974H149.968C149.893 86.3974 149.833 86.458 149.833 86.533V86.5478C149.833 86.6227 149.893 86.6834 149.968 86.6834H150.255C150.33 86.6834 150.39 86.744 150.39 86.819V86.8268C150.391 86.9016 150.33 86.9624 150.255 86.9624Z" fill="#F5F5F5"/>
<path d="M152.482 86.9624H152.49C152.565 86.9624 152.626 86.9018 152.626 86.8268V86.533C152.626 86.4581 152.686 86.3974 152.761 86.3974H153.327C153.401 86.3974 153.462 86.458 153.462 86.533V86.8268C153.462 86.9017 153.523 86.9624 153.598 86.9624H154.725C154.8 86.9624 154.86 86.9018 154.86 86.8268V86.2469C154.86 86.172 154.8 86.1112 154.725 86.1112H154.156C154.081 86.1112 154.02 86.1719 154.02 86.2469V86.2617C154.02 86.3366 154.081 86.3974 154.156 86.3974H154.446C154.521 86.3974 154.581 86.458 154.581 86.533V86.5478C154.581 86.6227 154.521 86.6834 154.446 86.6834H153.88C153.806 86.6834 153.745 86.6228 153.745 86.5478V86.2469C153.745 86.172 153.684 86.1112 153.609 86.1112H152.482C152.407 86.1112 152.347 86.1719 152.347 86.2469V86.8268C152.347 86.9016 152.407 86.9624 152.482 86.9624ZM153.044 86.9624H153.048C153.123 86.9624 153.183 86.9018 153.183 86.8268V86.819C153.183 86.7441 153.123 86.6834 153.048 86.6834H153.044C152.969 86.6834 152.908 86.744 152.908 86.819V86.8268C152.908 86.9016 152.969 86.9624 153.044 86.9624ZM152.482 85.8252H155.844C155.919 85.8252 155.98 85.7646 155.98 85.6896V85.6747C155.98 85.5998 155.919 85.5391 155.844 85.5391H152.482C152.407 85.5391 152.347 85.5997 152.347 85.6747V85.6896C152.347 85.7646 152.407 85.8252 152.482 85.8252ZM155.844 86.9624H155.275C155.2 86.9624 155.139 86.9018 155.139 86.8268V86.2469C155.139 86.172 155.2 86.1112 155.275 86.1112H156.123C156.198 86.1112 156.259 86.0506 156.259 85.9756V85.6747C156.259 85.5998 156.319 85.5391 156.394 85.5391H156.402C156.477 85.5391 156.538 85.5997 156.538 85.6747V86.5478C156.538 86.6227 156.598 86.6834 156.673 86.6834H156.681C156.756 86.6834 156.817 86.6228 156.817 86.5478V85.6747C156.817 85.5998 156.877 85.5391 156.952 85.5391H156.96C157.035 85.5391 157.095 85.5997 157.095 85.6747V86.5478C157.095 86.6227 157.156 86.6834 157.231 86.6834H157.239C157.313 86.6834 157.374 86.6228 157.374 86.5478V85.6747C157.374 85.5998 157.435 85.5391 157.51 85.5391H157.518C157.592 85.5391 157.653 85.5997 157.653 85.6747V86.8268C157.653 86.9017 157.593 86.9624 157.518 86.9624H156.394C156.319 86.9624 156.259 86.9018 156.259 86.8268V86.533C156.259 86.4581 156.198 86.3974 156.123 86.3974H155.554C155.479 86.3974 155.418 86.458 155.418 86.533V86.5478C155.418 86.6227 155.479 86.6834 155.554 86.6834H155.844C155.919 86.6834 155.98 86.744 155.98 86.819V86.8268C155.98 86.9016 155.919 86.9624 155.844 86.9624Z" fill="#F5F5F5"/>
<path d="M158.067 86.9624H158.075C158.15 86.9624 158.211 86.9018 158.211 86.8268V86.533C158.211 86.4581 158.271 86.3974 158.346 86.3974H158.912C158.987 86.3974 159.047 86.458 159.047 86.533V86.8268C159.047 86.9017 159.108 86.9624 159.183 86.9624H160.31C160.385 86.9624 160.446 86.9018 160.446 86.8268V86.2469C160.446 86.172 160.385 86.1112 160.31 86.1112H159.744C159.669 86.1112 159.609 86.1719 159.609 86.2469V86.2617C159.609 86.3366 159.669 86.3974 159.744 86.3974H160.027C160.102 86.3974 160.163 86.458 160.163 86.533V86.5478C160.163 86.6227 160.102 86.6834 160.027 86.6834H159.466C159.391 86.6834 159.33 86.6228 159.33 86.5478V86.2469C159.33 86.172 159.269 86.1112 159.194 86.1112H158.067C157.992 86.1112 157.932 86.1719 157.932 86.2469V86.8268C157.932 86.9016 157.992 86.9624 158.067 86.9624ZM158.629 86.9624H158.633C158.708 86.9624 158.768 86.9018 158.768 86.8268V86.819C158.768 86.7441 158.708 86.6834 158.633 86.6834H158.629C158.554 86.6834 158.493 86.744 158.493 86.819V86.8268C158.493 86.9016 158.554 86.9624 158.629 86.9624ZM158.067 85.8252H161.429C161.504 85.8252 161.565 85.7646 161.565 85.6896V85.6747C161.565 85.5998 161.504 85.5391 161.429 85.5391H158.067C157.992 85.5391 157.932 85.5997 157.932 85.6747V85.6896C157.932 85.7646 157.992 85.8252 158.067 85.8252ZM161.429 86.9624H160.864C160.789 86.9624 160.728 86.9018 160.728 86.8268V86.2469C160.728 86.172 160.789 86.1112 160.864 86.1112H161.708C161.783 86.1112 161.844 86.0506 161.844 85.9756V85.6747C161.844 85.5998 161.904 85.5391 161.979 85.5391H161.987C162.062 85.5391 162.123 85.5997 162.123 85.6747V86.5478C162.123 86.6227 162.183 86.6834 162.258 86.6834H162.266C162.341 86.6834 162.401 86.6228 162.401 86.5478V85.6747C162.401 85.5998 162.462 85.5391 162.537 85.5391H162.545C162.62 85.5391 162.68 85.5997 162.68 85.6747V86.5478C162.68 86.6227 162.741 86.6834 162.816 86.6834H162.824C162.899 86.6834 162.959 86.6228 162.959 86.5478V85.6747C162.959 85.5998 163.02 85.5391 163.095 85.5391H163.103C163.178 85.5391 163.238 85.5997 163.238 85.6747V86.8268C163.238 86.9017 163.178 86.9624 163.103 86.9624H161.979C161.904 86.9624 161.843 86.9018 161.843 86.8268V86.533C161.843 86.4581 161.783 86.3974 161.708 86.3974H161.139C161.064 86.3974 161.003 86.458 161.003 86.533V86.5478C161.003 86.6227 161.064 86.6834 161.139 86.6834H161.429C161.504 86.6834 161.565 86.744 161.565 86.819V86.8268C161.565 86.9016 161.504 86.9624 161.429 86.9624Z" fill="#F5F5F5"/>
<path d="M163.653 86.9624H163.66C163.735 86.9624 163.796 86.9018 163.796 86.8268V86.533C163.796 86.4581 163.857 86.3974 163.932 86.3974H164.5C164.575 86.3974 164.636 86.458 164.636 86.533V86.8268C164.636 86.9017 164.697 86.9624 164.772 86.9624H165.895C165.97 86.9624 166.031 86.9018 166.031 86.8268V86.2469C166.031 86.172 165.97 86.1112 165.895 86.1112H165.33C165.255 86.1112 165.194 86.1719 165.194 86.2469V86.2617C165.194 86.3366 165.255 86.3974 165.33 86.3974H165.62C165.695 86.3974 165.756 86.458 165.756 86.533V86.5478C165.756 86.6227 165.695 86.6834 165.62 86.6834H165.047C164.972 86.6834 164.912 86.6228 164.912 86.5478V86.2469C164.912 86.172 164.851 86.1112 164.776 86.1112H163.653C163.578 86.1112 163.517 86.1719 163.517 86.2469V86.8268C163.517 86.9016 163.578 86.9624 163.653 86.9624ZM164.21 86.9624H164.222C164.297 86.9624 164.357 86.9018 164.357 86.8268V86.819C164.357 86.7441 164.297 86.6834 164.222 86.6834H164.21C164.136 86.6834 164.075 86.744 164.075 86.819V86.8268C164.075 86.9016 164.136 86.9624 164.21 86.9624ZM163.653 85.8252H167.014C167.089 85.8252 167.15 85.7646 167.15 85.6896V85.6747C167.15 85.5998 167.089 85.5391 167.014 85.5391H163.653C163.578 85.5391 163.517 85.5997 163.517 85.6747V85.6896C163.517 85.7646 163.578 85.8252 163.653 85.8252ZM167.014 86.9624H166.449C166.374 86.9624 166.313 86.9018 166.313 86.8268V86.2469C166.313 86.172 166.374 86.1112 166.449 86.1112H167.293C167.368 86.1112 167.429 86.0506 167.429 85.9756V85.6747C167.429 85.5998 167.49 85.5391 167.565 85.5391H167.572C167.647 85.5391 167.708 85.5997 167.708 85.6747V86.5478C167.708 86.6227 167.769 86.6834 167.844 86.6834H167.851C167.926 86.6834 167.987 86.6228 167.987 86.5478V85.6747C167.987 85.5998 168.047 85.5391 168.122 85.5391H168.13C168.205 85.5391 168.266 85.5997 168.266 85.6747V86.5478C168.266 86.6227 168.326 86.6834 168.401 86.6834H168.413C168.488 86.6834 168.548 86.6228 168.548 86.5478V85.6747C168.548 85.5998 168.609 85.5391 168.684 85.5391H168.688C168.763 85.5391 168.824 85.5997 168.824 85.6747V86.8268C168.824 86.9017 168.763 86.9624 168.688 86.9624H167.565C167.49 86.9624 167.429 86.9018 167.429 86.8268V86.533C167.429 86.4581 167.368 86.3974 167.293 86.3974H166.731C166.657 86.3974 166.596 86.458 166.596 86.533V86.5478C166.596 86.6227 166.656 86.6834 166.731 86.6834H167.015C167.089 86.6834 167.15 86.744 167.15 86.819V86.8268C167.15 86.9016 167.089 86.9624 167.014 86.9624Z" fill="#F5F5F5"/>
<path d="M169.242 86.9624H169.246C169.321 86.9624 169.382 86.9018 169.382 86.8268V86.533C169.382 86.4581 169.442 86.3974 169.517 86.3974H170.083C170.158 86.3974 170.219 86.458 170.219 86.533V86.8268C170.219 86.9017 170.279 86.9624 170.354 86.9624H171.481C171.556 86.9624 171.617 86.9018 171.617 86.8268V86.2469C171.617 86.172 171.556 86.1112 171.481 86.1112H170.919C170.844 86.1112 170.784 86.1719 170.784 86.2469V86.2617C170.784 86.3366 170.844 86.3974 170.919 86.3974H171.206C171.281 86.3974 171.341 86.458 171.341 86.533V86.5478C171.341 86.6227 171.281 86.6834 171.206 86.6834H170.637C170.562 86.6834 170.501 86.6228 170.501 86.5478V86.2469C170.501 86.172 170.44 86.1112 170.365 86.1112H169.242C169.167 86.1112 169.106 86.1719 169.106 86.2469V86.8268C169.106 86.9016 169.167 86.9624 169.242 86.9624ZM169.8 86.9624H169.807C169.882 86.9624 169.943 86.9018 169.943 86.8268V86.819C169.943 86.7441 169.882 86.6834 169.807 86.6834H169.8C169.725 86.6834 169.664 86.744 169.664 86.819V86.8268C169.664 86.9016 169.725 86.9624 169.8 86.9624ZM169.242 85.8252H172.607C172.682 85.8252 172.743 85.7646 172.743 85.6896V85.6747C172.743 85.5998 172.682 85.5391 172.607 85.5391H169.242C169.167 85.5391 169.106 85.5997 169.106 85.6747V85.6896C169.106 85.7646 169.167 85.8252 169.242 85.8252ZM172.607 86.9624H172.034C171.96 86.9624 171.899 86.9018 171.899 86.8268V86.2469C171.899 86.172 171.959 86.1112 172.034 86.1112H172.879C172.954 86.1112 173.015 86.0506 173.015 85.9756V85.6747C173.015 85.5998 173.075 85.5391 173.15 85.5391H173.161C173.236 85.5391 173.297 85.5997 173.297 85.6747V86.5478C173.297 86.6227 173.358 86.6834 173.433 86.6834H173.44C173.515 86.6834 173.576 86.6228 173.576 86.5478V85.6747C173.576 85.5998 173.637 85.5391 173.712 85.5391H173.716C173.791 85.5391 173.851 85.5997 173.851 85.6747V86.5478C173.851 86.6227 173.912 86.6834 173.987 86.6834H173.998C174.073 86.6834 174.134 86.6228 174.134 86.5478V85.6747C174.134 85.5998 174.194 85.5391 174.269 85.5391H174.277C174.352 85.5391 174.413 85.5997 174.413 85.6747V86.8268C174.413 86.9017 174.352 86.9624 174.277 86.9624H173.15C173.075 86.9624 173.015 86.9018 173.015 86.8268V86.533C173.015 86.4581 172.954 86.3974 172.879 86.3974H172.314C172.239 86.3974 172.178 86.458 172.178 86.533V86.5478C172.178 86.6227 172.239 86.6834 172.314 86.6834H172.607C172.682 86.6834 172.743 86.744 172.743 86.819V86.8268C172.743 86.9016 172.682 86.9624 172.607 86.9624Z" fill="#F5F5F5"/>
<path d="M174.827 86.9624H174.835C174.91 86.9624 174.97 86.9018 174.97 86.8268V86.533C174.97 86.4581 175.031 86.3974 175.106 86.3974H175.672C175.746 86.3974 175.807 86.458 175.807 86.533V86.8268C175.807 86.9017 175.868 86.9624 175.943 86.9624H177.07C177.145 86.9624 177.205 86.9018 177.205 86.8268V86.2469C177.205 86.172 177.145 86.1112 177.07 86.1112H176.508C176.433 86.1112 176.372 86.1719 176.372 86.2469V86.2617C176.372 86.3366 176.433 86.3974 176.508 86.3974H176.795C176.869 86.3974 176.93 86.458 176.93 86.533V86.5478C176.93 86.6227 176.87 86.6834 176.795 86.6834H176.222C176.147 86.6834 176.086 86.6228 176.086 86.5478V86.2469C176.086 86.172 176.025 86.1112 175.95 86.1112H174.827C174.752 86.1112 174.692 86.1719 174.692 86.2469V86.8268C174.692 86.9016 174.752 86.9624 174.827 86.9624ZM175.385 86.9624H175.393C175.468 86.9624 175.528 86.9018 175.528 86.8268V86.819C175.528 86.7441 175.468 86.6834 175.393 86.6834H175.385C175.31 86.6834 175.249 86.744 175.249 86.819V86.8268C175.249 86.9016 175.31 86.9624 175.385 86.9624ZM174.827 85.8252H178.185C178.26 85.8252 178.321 85.7646 178.321 85.6896V85.6747C178.321 85.5998 178.26 85.5391 178.185 85.5391H174.827C174.752 85.5391 174.691 85.5997 174.691 85.6747V85.6896C174.692 85.7646 174.752 85.8252 174.827 85.8252ZM178.185 86.9624H177.62C177.545 86.9624 177.484 86.9018 177.484 86.8268V86.2469C177.484 86.172 177.545 86.1112 177.62 86.1112H178.472C178.546 86.1112 178.607 86.0506 178.607 85.9756V85.6747C178.607 85.5998 178.668 85.5391 178.743 85.5391H178.743C178.818 85.5391 178.879 85.5997 178.879 85.6747V86.5478C178.879 86.6227 178.94 86.6834 179.015 86.6834H179.029C179.104 86.6834 179.165 86.6228 179.165 86.5478V85.6747C179.165 85.5998 179.226 85.5391 179.301 85.5391H179.301C179.376 85.5391 179.437 85.5997 179.437 85.6747V86.5478C179.437 86.6227 179.497 86.6834 179.572 86.6834H179.58C179.655 86.6834 179.716 86.6228 179.716 86.5478V85.6747C179.716 85.5998 179.776 85.5391 179.851 85.5391H179.866C179.941 85.5391 180.002 85.5997 180.002 85.6747V86.8268C180.002 86.9017 179.941 86.9624 179.866 86.9624H178.743C178.668 86.9624 178.607 86.9018 178.607 86.8268V86.533C178.607 86.4581 178.547 86.3974 178.472 86.3974H177.899C177.824 86.3974 177.763 86.458 177.763 86.533V86.5478C177.763 86.6227 177.824 86.6834 177.899 86.6834H178.185C178.26 86.6834 178.321 86.744 178.321 86.819V86.8268C178.321 86.9016 178.26 86.9624 178.185 86.9624Z" fill="#F5F5F5"/>
<path d="M130.137 87.8275H132.38C132.455 87.8275 132.515 87.7669 132.515 87.6919V87.391C132.515 87.3161 132.455 87.2554 132.38 87.2554H130.137C130.062 87.2554 130.002 87.316 130.002 87.391V87.6919C130.002 87.7669 130.062 87.8275 130.137 87.8275ZM132.933 87.8275H135.172C135.247 87.8275 135.308 87.7669 135.308 87.6919V87.391C135.308 87.3161 135.247 87.2554 135.172 87.2554H132.933C132.858 87.2554 132.798 87.316 132.798 87.391V87.6919C132.798 87.7669 132.858 87.8275 132.933 87.8275Z" fill="#F5F5F5"/>
<path d="M135.726 87.8275H137.965C138.04 87.8275 138.101 87.7669 138.101 87.6919V87.391C138.101 87.3161 138.04 87.2554 137.965 87.2554H135.726C135.651 87.2554 135.59 87.316 135.59 87.391V87.6919C135.59 87.7669 135.651 87.8275 135.726 87.8275ZM138.515 87.8275H140.761C140.836 87.8275 140.897 87.7669 140.897 87.6919V87.391C140.897 87.3161 140.836 87.2554 140.761 87.2554H138.515C138.44 87.2554 138.379 87.316 138.379 87.391V87.6919C138.379 87.7669 138.44 87.8275 138.515 87.8275Z" fill="#F5F5F5"/>
<path d="M141.312 87.8275H143.554C143.629 87.8275 143.69 87.7669 143.69 87.6919V87.391C143.69 87.3161 143.629 87.2554 143.554 87.2554H141.312C141.237 87.2554 141.176 87.316 141.176 87.391V87.6919C141.176 87.7669 141.237 87.8275 141.312 87.8275ZM144.104 87.8275H146.347C146.422 87.8275 146.482 87.7669 146.482 87.6919V87.391C146.482 87.3161 146.422 87.2554 146.347 87.2554H144.104C144.029 87.2554 143.969 87.316 143.969 87.391V87.6919C143.969 87.7669 144.029 87.8275 144.104 87.8275Z" fill="#F5F5F5"/>
<path d="M146.897 87.8275H149.139C149.214 87.8275 149.275 87.7669 149.275 87.6919V87.391C149.275 87.3161 149.214 87.2554 149.139 87.2554H146.897C146.822 87.2554 146.761 87.316 146.761 87.391V87.6919C146.761 87.7669 146.822 87.8275 146.897 87.8275ZM149.686 87.8275H151.932C152.007 87.8275 152.068 87.7669 152.068 87.6919V87.391C152.068 87.3161 152.007 87.2554 151.932 87.2554H149.686C149.611 87.2554 149.55 87.316 149.55 87.391V87.6919C149.55 87.7669 149.611 87.8275 149.686 87.8275Z" fill="#F5F5F5"/>
<path d="M152.482 87.8275H154.725C154.8 87.8275 154.86 87.7669 154.86 87.6919V87.391C154.86 87.3161 154.8 87.2554 154.725 87.2554H152.482C152.407 87.2554 152.347 87.316 152.347 87.391V87.6919C152.347 87.7669 152.407 87.8275 152.482 87.8275ZM155.275 87.8275H157.518C157.592 87.8275 157.653 87.7669 157.653 87.6919V87.391C157.653 87.3161 157.593 87.2554 157.518 87.2554H155.275C155.2 87.2554 155.139 87.316 155.139 87.391V87.6919C155.139 87.7669 155.2 87.8275 155.275 87.8275Z" fill="#F5F5F5"/>
<path d="M158.067 87.8275H160.31C160.385 87.8275 160.446 87.7669 160.446 87.6919V87.391C160.446 87.3161 160.385 87.2554 160.31 87.2554H158.067C157.992 87.2554 157.932 87.316 157.932 87.391V87.6919C157.932 87.7669 157.992 87.8275 158.067 87.8275ZM160.864 87.8275H163.103C163.178 87.8275 163.238 87.7669 163.238 87.6919V87.391C163.238 87.3161 163.178 87.2554 163.103 87.2554H160.864C160.789 87.2554 160.728 87.316 160.728 87.391V87.6919C160.728 87.7669 160.789 87.8275 160.864 87.8275Z" fill="#F5F5F5"/>
<path d="M163.653 87.8275H165.895C165.97 87.8275 166.031 87.7669 166.031 87.6919V87.391C166.031 87.3161 165.97 87.2554 165.895 87.2554H163.653C163.578 87.2554 163.517 87.316 163.517 87.391V87.6919C163.517 87.7669 163.578 87.8275 163.653 87.8275ZM166.449 87.8275H168.688C168.763 87.8275 168.823 87.7669 168.823 87.6919V87.391C168.823 87.3161 168.763 87.2554 168.688 87.2554H166.449C166.374 87.2554 166.313 87.316 166.313 87.391V87.6919C166.313 87.7669 166.374 87.8275 166.449 87.8275Z" fill="#F5F5F5"/>
<path d="M169.242 87.8275H171.481C171.556 87.8275 171.616 87.7669 171.616 87.6919V87.391C171.616 87.3161 171.556 87.2554 171.481 87.2554H169.242C169.167 87.2554 169.106 87.316 169.106 87.391V87.6919C169.106 87.7669 169.167 87.8275 169.242 87.8275ZM172.035 87.8275H174.277C174.352 87.8275 174.413 87.7669 174.413 87.6919V87.391C174.413 87.3161 174.352 87.2554 174.277 87.2554H172.035C171.96 87.2554 171.899 87.316 171.899 87.391V87.6919C171.899 87.7669 171.96 87.8275 172.035 87.8275Z" fill="#F5F5F5"/>
<path d="M174.827 87.8275H177.07C177.145 87.8275 177.205 87.7669 177.205 87.6919V87.391C177.205 87.3161 177.145 87.2554 177.07 87.2554H174.827C174.752 87.2554 174.691 87.316 174.691 87.391V87.6919C174.692 87.7669 174.752 87.8275 174.827 87.8275ZM177.62 87.8275H179.866C179.941 87.8275 180.002 87.7669 180.002 87.6919V87.391C180.002 87.3161 179.941 87.2554 179.866 87.2554H177.62C177.545 87.2554 177.484 87.316 177.484 87.391V87.6919C177.484 87.7669 177.545 87.8275 177.62 87.8275Z" fill="#F5F5F5"/>
<path d="M179.866 99.0376H179.858C179.783 99.0376 179.723 99.0982 179.723 99.1732V99.467C179.723 99.5419 179.662 99.6026 179.587 99.6026H179.018C178.943 99.6026 178.882 99.542 178.882 99.467V99.1732C178.882 99.0983 178.822 99.0376 178.747 99.0376H177.623C177.549 99.0376 177.488 99.0982 177.488 99.1732V99.7532C177.488 99.8281 177.548 99.8889 177.623 99.8889H178.189C178.264 99.8889 178.324 99.8282 178.324 99.7532V99.7384C178.324 99.6635 178.264 99.6027 178.189 99.6027H177.902C177.827 99.6027 177.767 99.5421 177.767 99.4671V99.4523C177.767 99.3774 177.827 99.3167 177.902 99.3167H178.468C178.543 99.3167 178.603 99.3773 178.603 99.4523V99.7532C178.603 99.8281 178.664 99.8889 178.739 99.8889H179.866C179.941 99.8889 180.002 99.8282 180.002 99.7532V99.1732C180.001 99.0983 179.941 99.0376 179.866 99.0376ZM179.304 99.0376H179.297C179.222 99.0376 179.161 99.0982 179.161 99.1732V99.181C179.161 99.2559 179.222 99.3166 179.297 99.3166H179.304C179.379 99.3166 179.44 99.256 179.44 99.181V99.1732C179.44 99.0983 179.379 99.0376 179.304 99.0376ZM179.866 100.175H176.504C176.429 100.175 176.369 100.235 176.369 100.31V100.325C176.369 100.4 176.429 100.461 176.504 100.461H179.866C179.941 100.461 180.001 100.4 180.001 100.325V100.31C180.001 100.235 179.941 100.175 179.866 100.175ZM176.504 99.0376H177.07C177.145 99.0376 177.205 99.0982 177.205 99.1732V99.7532C177.205 99.8281 177.145 99.8889 177.07 99.8889H176.225C176.15 99.8889 176.09 99.9495 176.09 100.025V100.325C176.09 100.4 176.029 100.461 175.954 100.461H175.946C175.871 100.461 175.811 100.4 175.811 100.325V99.4523C175.811 99.3774 175.75 99.3167 175.675 99.3167H175.667C175.592 99.3167 175.532 99.3773 175.532 99.4523V100.325C175.532 100.4 175.471 100.461 175.396 100.461H175.389C175.314 100.461 175.253 100.4 175.253 100.325V99.4523C175.253 99.3774 175.192 99.3167 175.117 99.3167H175.106C175.031 99.3167 174.97 99.3773 174.97 99.4523V100.325C174.97 100.4 174.91 100.461 174.835 100.461H174.831C174.756 100.461 174.695 100.4 174.695 100.325V99.1733C174.695 99.0984 174.756 99.0377 174.831 99.0377H175.954C176.029 99.0377 176.09 99.0983 176.09 99.1733V99.4671C176.09 99.542 176.15 99.6027 176.225 99.6027H176.791C176.865 99.6027 176.926 99.5421 176.926 99.4671V99.4523C176.926 99.3774 176.866 99.3167 176.791 99.3167H176.504C176.429 99.3167 176.369 99.2561 176.369 99.1811V99.1733C176.369 99.0983 176.429 99.0376 176.504 99.0376Z" fill="#F5F5F5"/>
<path d="M174.277 99.0376H174.266C174.191 99.0376 174.13 99.0982 174.13 99.1732V99.467C174.13 99.5419 174.07 99.6026 173.995 99.6026H173.433C173.358 99.6026 173.297 99.542 173.297 99.467V99.1732C173.297 99.0983 173.237 99.0376 173.162 99.0376H172.038C171.963 99.0376 171.903 99.0982 171.903 99.1732V99.7532C171.903 99.8281 171.963 99.8889 172.038 99.8889H172.604C172.679 99.8889 172.739 99.8282 172.739 99.7532V99.7384C172.739 99.6635 172.679 99.6027 172.604 99.6027H172.317C172.242 99.6027 172.181 99.5421 172.181 99.4671V99.4523C172.181 99.3774 172.242 99.3167 172.317 99.3167H172.883C172.958 99.3167 173.018 99.3773 173.018 99.4523V99.7532C173.018 99.8281 173.079 99.8889 173.154 99.8889H174.277C174.352 99.8889 174.413 99.8282 174.413 99.7532V99.1732C174.413 99.0983 174.352 99.0376 174.277 99.0376ZM173.719 99.0376H173.712C173.637 99.0376 173.576 99.0982 173.576 99.1732V99.181C173.576 99.2559 173.637 99.3166 173.712 99.3166H173.719C173.794 99.3166 173.855 99.256 173.855 99.181V99.1732C173.855 99.0983 173.794 99.0376 173.719 99.0376ZM174.277 100.175H170.919C170.844 100.175 170.783 100.235 170.783 100.31V100.325C170.783 100.4 170.844 100.461 170.919 100.461H174.277C174.352 100.461 174.413 100.4 174.413 100.325V100.31C174.413 100.235 174.352 100.175 174.277 100.175ZM170.919 99.0376H171.488C171.563 99.0376 171.624 99.0982 171.624 99.1732V99.7532C171.624 99.8281 171.563 99.8889 171.488 99.8889H170.644C170.569 99.8889 170.508 99.9495 170.508 100.025V100.325C170.508 100.4 170.447 100.461 170.372 100.461H170.361C170.286 100.461 170.225 100.4 170.225 100.325V99.4523C170.225 99.3774 170.165 99.3167 170.09 99.3167H170.079C170.004 99.3167 169.943 99.3773 169.943 99.4523V100.325C169.943 100.4 169.882 100.461 169.807 100.461H169.803C169.728 100.461 169.668 100.4 169.668 100.325V99.4523C169.668 99.3774 169.607 99.3167 169.532 99.3167H169.521C169.446 99.3167 169.385 99.3773 169.385 99.4523V100.325C169.385 100.4 169.324 100.461 169.249 100.461H169.242C169.167 100.461 169.106 100.4 169.106 100.325V99.1733C169.106 99.0984 169.167 99.0377 169.242 99.0377H170.372C170.447 99.0377 170.508 99.0983 170.508 99.1733V99.4671C170.508 99.542 170.569 99.6027 170.644 99.6027H171.205C171.28 99.6027 171.341 99.5421 171.341 99.4671V99.4523C171.341 99.3774 171.28 99.3167 171.205 99.3167H170.919C170.844 99.3167 170.783 99.2561 170.783 99.1811V99.1733C170.783 99.0983 170.844 99.0376 170.919 99.0376Z" fill="#F5F5F5"/>
<path d="M168.691 99.0376H168.684C168.609 99.0376 168.548 99.0982 168.548 99.1732V99.467C168.548 99.5419 168.487 99.6026 168.412 99.6026H167.847C167.772 99.6026 167.711 99.542 167.711 99.467V99.1732C167.711 99.0983 167.651 99.0376 167.576 99.0376H166.449C166.374 99.0376 166.313 99.0982 166.313 99.1732V99.7532C166.313 99.8281 166.374 99.8889 166.449 99.8889H167.014C167.089 99.8889 167.15 99.8282 167.15 99.7532V99.7384C167.15 99.6635 167.089 99.6027 167.014 99.6027H166.728C166.653 99.6027 166.592 99.5421 166.592 99.4671V99.4523C166.592 99.3774 166.653 99.3167 166.728 99.3167H167.297C167.372 99.3167 167.432 99.3773 167.432 99.4523V99.7532C167.432 99.8281 167.493 99.8889 167.568 99.8889H168.691C168.766 99.8889 168.827 99.8282 168.827 99.7532V99.1732C168.827 99.0983 168.766 99.0376 168.691 99.0376ZM168.133 99.0376H168.126C168.051 99.0376 167.99 99.0982 167.99 99.1732V99.181C167.99 99.2559 168.051 99.3166 168.126 99.3166H168.133C168.208 99.3166 168.269 99.256 168.269 99.181V99.1732C168.269 99.0983 168.208 99.0376 168.133 99.0376ZM168.691 100.175H165.329C165.255 100.175 165.194 100.235 165.194 100.31V100.325C165.194 100.4 165.254 100.461 165.329 100.461H168.691C168.766 100.461 168.827 100.4 168.827 100.325V100.31C168.827 100.235 168.766 100.175 168.691 100.175ZM165.33 99.0376H165.899C165.974 99.0376 166.034 99.0982 166.034 99.1732V99.7532C166.034 99.8281 165.974 99.8889 165.899 99.8889H165.054C164.979 99.8889 164.919 99.9495 164.919 100.025V100.325C164.919 100.4 164.858 100.461 164.783 100.461H164.775C164.7 100.461 164.64 100.4 164.64 100.325V99.4523C164.64 99.3774 164.579 99.3167 164.504 99.3167H164.493C164.418 99.3167 164.357 99.3773 164.357 99.4523V100.325C164.357 100.4 164.296 100.461 164.221 100.461H164.21C164.135 100.461 164.075 100.4 164.075 100.325V99.4523C164.075 99.3774 164.014 99.3167 163.939 99.3167H163.935C163.86 99.3167 163.799 99.3773 163.799 99.4523V100.325C163.799 100.4 163.739 100.461 163.664 100.461H163.656C163.581 100.461 163.52 100.4 163.52 100.325V99.1733C163.52 99.0984 163.581 99.0377 163.656 99.0377H164.783C164.858 99.0377 164.919 99.0983 164.919 99.1733V99.4671C164.919 99.542 164.979 99.6027 165.054 99.6027H165.62C165.695 99.6027 165.755 99.5421 165.755 99.4671V99.4523C165.755 99.3774 165.695 99.3167 165.62 99.3167H165.329C165.254 99.3167 165.194 99.2561 165.194 99.1811V99.1733C165.194 99.0983 165.255 99.0376 165.33 99.0376Z" fill="#F5F5F5"/>
<path d="M163.106 99.0376H163.099C163.024 99.0376 162.963 99.0982 162.963 99.1732V99.467C162.963 99.5419 162.902 99.6026 162.827 99.6026H162.262C162.187 99.6026 162.126 99.542 162.126 99.467V99.1732C162.126 99.0983 162.066 99.0376 161.991 99.0376H160.864C160.789 99.0376 160.728 99.0982 160.728 99.1732V99.7532C160.728 99.8281 160.789 99.8889 160.864 99.8889H161.433C161.508 99.8889 161.568 99.8282 161.568 99.7532V99.7384C161.568 99.6635 161.508 99.6027 161.433 99.6027H161.146C161.071 99.6027 161.011 99.5421 161.011 99.4671V99.4523C161.011 99.3774 161.071 99.3167 161.146 99.3167H161.712C161.787 99.3167 161.847 99.3773 161.847 99.4523V99.7532C161.847 99.8281 161.908 99.8889 161.983 99.8889H163.106C163.181 99.8889 163.242 99.8282 163.242 99.7532V99.1732C163.242 99.0983 163.181 99.0376 163.106 99.0376ZM162.548 99.0376H162.541C162.466 99.0376 162.405 99.0982 162.405 99.1732V99.181C162.405 99.2559 162.466 99.3166 162.541 99.3166H162.548C162.623 99.3166 162.684 99.256 162.684 99.181V99.1732C162.684 99.0983 162.623 99.0376 162.548 99.0376ZM163.106 100.175H159.748C159.673 100.175 159.612 100.235 159.612 100.31V100.325C159.612 100.4 159.673 100.461 159.748 100.461H163.106C163.181 100.461 163.242 100.4 163.242 100.325V100.31C163.242 100.235 163.181 100.175 163.106 100.175ZM159.748 99.0376H160.317C160.392 99.0376 160.453 99.0982 160.453 99.1732V99.7532C160.453 99.8281 160.392 99.8889 160.317 99.8889H159.465C159.391 99.8889 159.33 99.9495 159.33 100.025V100.325C159.33 100.4 159.269 100.461 159.194 100.461H159.187C159.112 100.461 159.051 100.4 159.051 100.325V99.4523C159.051 99.3774 158.99 99.3167 158.915 99.3167H158.911C158.836 99.3167 158.776 99.3773 158.776 99.4523V100.325C158.776 100.4 158.715 100.461 158.64 100.461H158.629C158.554 100.461 158.493 100.4 158.493 100.325V99.4523C158.493 99.3774 158.432 99.3167 158.357 99.3167H158.35C158.275 99.3167 158.214 99.3773 158.214 99.4523V100.325C158.214 100.4 158.153 100.461 158.078 100.461H158.071C157.996 100.461 157.935 100.4 157.935 100.325V99.1733C157.935 99.0984 157.996 99.0377 158.071 99.0377H159.194C159.269 99.0377 159.33 99.0983 159.33 99.1733V99.4671C159.33 99.542 159.39 99.6027 159.465 99.6027H160.035C160.109 99.6027 160.17 99.5421 160.17 99.4671V99.4523C160.17 99.3774 160.11 99.3167 160.035 99.3167H159.748C159.673 99.3167 159.612 99.2561 159.612 99.1811V99.1733C159.613 99.0983 159.673 99.0376 159.748 99.0376Z" fill="#F5F5F5"/>
<path d="M157.521 99.0376H157.513C157.438 99.0376 157.378 99.0982 157.378 99.1732V99.467C157.378 99.5419 157.317 99.6026 157.242 99.6026H156.677C156.602 99.6026 156.541 99.542 156.541 99.467V99.1732C156.541 99.0983 156.48 99.0376 156.405 99.0376H155.278C155.203 99.0376 155.143 99.0982 155.143 99.1732V99.7532C155.143 99.8281 155.203 99.8889 155.278 99.8889H155.847C155.922 99.8889 155.983 99.8282 155.983 99.7532V99.7384C155.983 99.6635 155.922 99.6027 155.847 99.6027H155.557C155.482 99.6027 155.422 99.5421 155.422 99.4671V99.4523C155.422 99.3774 155.482 99.3167 155.557 99.3167H156.123C156.198 99.3167 156.258 99.3773 156.258 99.4523V99.7532C156.258 99.8281 156.319 99.8889 156.394 99.8889H157.521C157.596 99.8889 157.657 99.8282 157.657 99.7532V99.1732C157.657 99.0983 157.596 99.0376 157.521 99.0376ZM156.959 99.0376H156.955C156.88 99.0376 156.82 99.0982 156.82 99.1732V99.181C156.82 99.2559 156.88 99.3166 156.955 99.3166H156.959C157.034 99.3166 157.095 99.256 157.095 99.181V99.1732C157.095 99.0983 157.034 99.0376 156.959 99.0376ZM157.521 100.175H154.159C154.084 100.175 154.024 100.235 154.024 100.31V100.325C154.024 100.4 154.084 100.461 154.159 100.461H157.521C157.596 100.461 157.657 100.4 157.657 100.325V100.31C157.657 100.235 157.596 100.175 157.521 100.175ZM154.159 99.0376H154.728C154.803 99.0376 154.864 99.0982 154.864 99.1732V99.7532C154.864 99.8281 154.803 99.8889 154.728 99.8889H153.88C153.805 99.8889 153.744 99.9495 153.744 100.025V100.325C153.744 100.4 153.684 100.461 153.609 100.461H153.601C153.526 100.461 153.466 100.4 153.466 100.325V99.4523C153.466 99.3774 153.405 99.3167 153.33 99.3167H153.322C153.247 99.3167 153.187 99.3773 153.187 99.4523V100.325C153.187 100.4 153.126 100.461 153.051 100.461H153.043C152.969 100.461 152.908 100.4 152.908 100.325V99.4523C152.908 99.3774 152.847 99.3167 152.772 99.3167H152.765C152.69 99.3167 152.629 99.3773 152.629 99.4523V100.325C152.629 100.4 152.568 100.461 152.493 100.461H152.486C152.411 100.461 152.35 100.4 152.35 100.325V99.1733C152.35 99.0984 152.411 99.0377 152.486 99.0377H153.609C153.684 99.0377 153.745 99.0983 153.745 99.1733V99.4671C153.745 99.542 153.805 99.6027 153.88 99.6027H154.449C154.524 99.6027 154.585 99.5421 154.585 99.4671V99.4523C154.585 99.3774 154.524 99.3167 154.449 99.3167H154.159C154.084 99.3167 154.024 99.2561 154.024 99.1811V99.1733C154.024 99.0983 154.084 99.0376 154.159 99.0376Z" fill="#F5F5F5"/>
<path d="M151.936 99.0376H151.928C151.853 99.0376 151.792 99.0982 151.792 99.1732V99.467C151.792 99.5419 151.732 99.6026 151.657 99.6026H151.091C151.016 99.6026 150.956 99.542 150.956 99.467V99.1732C150.956 99.0983 150.895 99.0376 150.82 99.0376H149.693C149.618 99.0376 149.557 99.0982 149.557 99.1732V99.7532C149.557 99.8281 149.618 99.8889 149.693 99.8889H150.259C150.334 99.8889 150.394 99.8282 150.394 99.7532V99.7384C150.394 99.6635 150.334 99.6027 150.259 99.6027H149.976C149.901 99.6027 149.84 99.5421 149.84 99.4671V99.4523C149.84 99.3774 149.901 99.3167 149.976 99.3167H150.537C150.612 99.3167 150.673 99.3773 150.673 99.4523V99.7532C150.673 99.8281 150.734 99.8889 150.809 99.8889H151.936C152.011 99.8889 152.071 99.8282 152.071 99.7532V99.1732C152.071 99.0983 152.011 99.0376 151.936 99.0376ZM151.374 99.0376H151.37C151.295 99.0376 151.235 99.0982 151.235 99.1732V99.181C151.235 99.2559 151.295 99.3166 151.37 99.3166H151.374C151.449 99.3166 151.51 99.256 151.51 99.181V99.1732C151.51 99.0983 151.449 99.0376 151.374 99.0376ZM151.936 100.175H148.574C148.499 100.175 148.438 100.235 148.438 100.31V100.325C148.438 100.4 148.499 100.461 148.574 100.461H151.936C152.011 100.461 152.071 100.4 152.071 100.325V100.31C152.071 100.235 152.011 100.175 151.936 100.175ZM148.574 99.0376H149.139C149.214 99.0376 149.275 99.0982 149.275 99.1732V99.7532C149.275 99.8281 149.214 99.8889 149.139 99.8889H148.295C148.22 99.8889 148.159 99.9495 148.159 100.025V100.325C148.159 100.4 148.099 100.461 148.024 100.461H148.016C147.941 100.461 147.88 100.4 147.88 100.325V99.4523C147.88 99.3774 147.82 99.3167 147.745 99.3167H147.737C147.662 99.3167 147.602 99.3773 147.602 99.4523V100.325C147.602 100.4 147.541 100.461 147.466 100.461H147.458C147.383 100.461 147.323 100.4 147.323 100.325V99.4523C147.323 99.3774 147.262 99.3167 147.187 99.3167H147.179C147.104 99.3167 147.044 99.3773 147.044 99.4523V100.325C147.044 100.4 146.983 100.461 146.908 100.461H146.9C146.825 100.461 146.765 100.4 146.765 100.325V99.1733C146.765 99.0984 146.825 99.0377 146.9 99.0377H148.024C148.099 99.0377 148.16 99.0983 148.16 99.1733V99.4671C148.16 99.542 148.22 99.6027 148.295 99.6027H148.864C148.939 99.6027 149 99.5421 149 99.4671V99.4523C149 99.3774 148.939 99.3167 148.864 99.3167H148.574C148.499 99.3167 148.438 99.2561 148.438 99.1811V99.1733C148.438 99.0983 148.499 99.0376 148.574 99.0376Z" fill="#F5F5F5"/>
<path d="M146.35 99.0376H146.342C146.267 99.0376 146.207 99.0982 146.207 99.1732V99.467C146.207 99.5419 146.146 99.6026 146.071 99.6026H145.502C145.427 99.6026 145.366 99.542 145.366 99.467V99.1732C145.366 99.0983 145.306 99.0376 145.231 99.0376H144.107C144.032 99.0376 143.972 99.0982 143.972 99.1732V99.7532C143.972 99.8281 144.032 99.8889 144.107 99.8889H144.673C144.748 99.8889 144.809 99.8282 144.809 99.7532V99.7384C144.809 99.6635 144.748 99.6027 144.673 99.6027H144.383C144.308 99.6027 144.247 99.5421 144.247 99.4671V99.4523C144.247 99.3774 144.308 99.3167 144.383 99.3167H144.955C145.03 99.3167 145.091 99.3773 145.091 99.4523V99.7532C145.091 99.8281 145.152 99.8889 145.227 99.8889H146.35C146.425 99.8889 146.485 99.8282 146.485 99.7532V99.1732C146.486 99.0983 146.425 99.0376 146.35 99.0376ZM145.792 99.0376H145.781C145.706 99.0376 145.645 99.0982 145.645 99.1732V99.181C145.645 99.2559 145.706 99.3166 145.781 99.3166H145.792C145.867 99.3166 145.928 99.256 145.928 99.181V99.1732C145.928 99.0983 145.867 99.0376 145.792 99.0376ZM146.35 100.175H142.988C142.913 100.175 142.853 100.235 142.853 100.31V100.325C142.853 100.4 142.913 100.461 142.988 100.461H146.35C146.425 100.461 146.486 100.4 146.486 100.325V100.31C146.486 100.235 146.425 100.175 146.35 100.175ZM142.988 99.0376H143.554C143.628 99.0376 143.689 99.0982 143.689 99.1732V99.7532C143.689 99.8281 143.629 99.8889 143.554 99.8889H142.709C142.634 99.8889 142.574 99.9495 142.574 100.025V100.325C142.574 100.4 142.513 100.461 142.438 100.461H142.43C142.355 100.461 142.295 100.4 142.295 100.325V99.4523C142.295 99.3774 142.234 99.3167 142.159 99.3167H142.151C142.077 99.3167 142.016 99.3773 142.016 99.4523V100.325C142.016 100.4 141.955 100.461 141.88 100.461H141.872C141.797 100.461 141.737 100.4 141.737 100.325V99.4523C141.737 99.3774 141.676 99.3167 141.601 99.3167H141.59C141.515 99.3167 141.454 99.3773 141.454 99.4523V100.325C141.454 100.4 141.394 100.461 141.319 100.461H141.315C141.24 100.461 141.179 100.4 141.179 100.325V99.1733C141.179 99.0984 141.24 99.0377 141.315 99.0377H142.438C142.513 99.0377 142.573 99.0983 142.573 99.1733V99.4671C142.573 99.542 142.634 99.6027 142.709 99.6027H143.271C143.346 99.6027 143.407 99.5421 143.407 99.4671V99.4523C143.407 99.3774 143.346 99.3167 143.271 99.3167H142.988C142.913 99.3167 142.852 99.2561 142.852 99.1811V99.1733C142.853 99.0983 142.913 99.0376 142.988 99.0376Z" fill="#F5F5F5"/>
<path d="M140.761 99.0376H140.757C140.682 99.0376 140.622 99.0982 140.622 99.1732V99.467C140.622 99.5419 140.561 99.6026 140.486 99.6026H139.92C139.845 99.6026 139.785 99.542 139.785 99.467V99.1732C139.785 99.0983 139.724 99.0376 139.649 99.0376H138.522C138.448 99.0376 138.387 99.0982 138.387 99.1732V99.7532C138.387 99.8281 138.447 99.8889 138.522 99.8889H139.084C139.159 99.8889 139.22 99.8282 139.22 99.7532V99.7384C139.22 99.6635 139.159 99.6027 139.084 99.6027H138.798C138.723 99.6027 138.662 99.5421 138.662 99.4671V99.4523C138.662 99.3774 138.723 99.3167 138.798 99.3167H139.367C139.442 99.3167 139.502 99.3773 139.502 99.4523V99.7532C139.502 99.8281 139.563 99.8889 139.638 99.8889H140.762C140.837 99.8889 140.897 99.8282 140.897 99.7532V99.1732C140.897 99.0983 140.836 99.0376 140.761 99.0376ZM140.204 99.0376H140.196C140.121 99.0376 140.06 99.0982 140.06 99.1732V99.181C140.06 99.2559 140.121 99.3166 140.196 99.3166H140.204C140.278 99.3166 140.339 99.256 140.339 99.181V99.1732C140.339 99.0983 140.278 99.0376 140.204 99.0376ZM140.761 100.175H137.396C137.321 100.175 137.26 100.235 137.26 100.31V100.325C137.26 100.4 137.321 100.461 137.396 100.461H140.761C140.836 100.461 140.897 100.4 140.897 100.325V100.31C140.897 100.235 140.836 100.175 140.761 100.175ZM137.396 99.0376H137.969C138.044 99.0376 138.104 99.0982 138.104 99.1732V99.7532C138.104 99.8281 138.044 99.8889 137.969 99.8889H137.124C137.049 99.8889 136.989 99.9495 136.989 100.025V100.325C136.989 100.4 136.928 100.461 136.853 100.461H136.842C136.767 100.461 136.706 100.4 136.706 100.325V99.4523C136.706 99.3774 136.645 99.3167 136.57 99.3167H136.563C136.488 99.3167 136.427 99.3773 136.427 99.4523V100.325C136.427 100.4 136.367 100.461 136.292 100.461H136.287C136.213 100.461 136.152 100.4 136.152 100.325V99.4523C136.152 99.3774 136.091 99.3167 136.016 99.3167H136.005C135.93 99.3167 135.869 99.3773 135.869 99.4523V100.325C135.869 100.4 135.809 100.461 135.734 100.461H135.726C135.651 100.461 135.59 100.4 135.59 100.325V99.1733C135.59 99.0984 135.651 99.0377 135.726 99.0377H136.853C136.928 99.0377 136.989 99.0983 136.989 99.1733V99.4671C136.989 99.542 137.049 99.6027 137.124 99.6027H137.69C137.765 99.6027 137.825 99.5421 137.825 99.4671V99.4523C137.825 99.3774 137.765 99.3167 137.69 99.3167H137.396C137.321 99.3167 137.261 99.2561 137.261 99.1811V99.1733C137.26 99.0983 137.321 99.0376 137.396 99.0376Z" fill="#F5F5F5"/>
<path d="M135.176 99.0376H135.168C135.093 99.0376 135.033 99.0982 135.033 99.1732V99.467C135.033 99.5419 134.972 99.6026 134.897 99.6026H134.332C134.257 99.6026 134.196 99.542 134.196 99.467V99.1732C134.196 99.0983 134.135 99.0376 134.06 99.0376H132.933C132.858 99.0376 132.798 99.0982 132.798 99.1732V99.7532C132.798 99.8281 132.858 99.8889 132.933 99.8889H133.495C133.57 99.8889 133.631 99.8282 133.631 99.7532V99.7384C133.631 99.6635 133.57 99.6027 133.495 99.6027H133.209C133.134 99.6027 133.073 99.5421 133.073 99.4671V99.4523C133.073 99.3774 133.134 99.3167 133.209 99.3167H133.781C133.856 99.3167 133.917 99.3773 133.917 99.4523V99.7532C133.917 99.8281 133.978 99.8889 134.053 99.8889H135.176C135.251 99.8889 135.312 99.8282 135.312 99.7532V99.1732C135.312 99.0983 135.251 99.0376 135.176 99.0376ZM134.618 99.0376H134.61C134.536 99.0376 134.475 99.0982 134.475 99.1732V99.181C134.475 99.2559 134.535 99.3166 134.61 99.3166H134.618C134.693 99.3166 134.754 99.256 134.754 99.181V99.1732C134.754 99.0983 134.693 99.0376 134.618 99.0376ZM135.176 100.175H131.818C131.743 100.175 131.682 100.235 131.682 100.31V100.325C131.682 100.4 131.743 100.461 131.818 100.461H135.176C135.251 100.461 135.312 100.4 135.312 100.325V100.31C135.312 100.235 135.251 100.175 135.176 100.175ZM131.818 99.0376H132.383C132.458 99.0376 132.519 99.0982 132.519 99.1732V99.7532C132.519 99.8281 132.458 99.8889 132.383 99.8889H131.532C131.457 99.8889 131.396 99.9495 131.396 100.025V100.325C131.396 100.4 131.336 100.461 131.261 100.461H131.26C131.185 100.461 131.124 100.4 131.124 100.325V99.4523C131.124 99.3774 131.064 99.3167 130.989 99.3167H130.974C130.899 99.3167 130.838 99.3773 130.838 99.4523V100.325C130.838 100.4 130.778 100.461 130.703 100.461H130.702C130.627 100.461 130.567 100.4 130.567 100.325V99.4523C130.567 99.3774 130.506 99.3167 130.431 99.3167H130.423C130.348 99.3167 130.287 99.3773 130.287 99.4523V100.325C130.287 100.4 130.227 100.461 130.152 100.461H130.137C130.062 100.461 130.002 100.4 130.002 100.325V99.1733C130.002 99.0984 130.062 99.0377 130.137 99.0377H131.26C131.335 99.0377 131.396 99.0983 131.396 99.1733V99.4671C131.396 99.542 131.457 99.6027 131.532 99.6027H132.104C132.179 99.6027 132.24 99.5421 132.24 99.4671V99.4523C132.24 99.3774 132.179 99.3167 132.104 99.3167H131.818C131.743 99.3167 131.682 99.2561 131.682 99.1811V99.1733C131.682 99.0983 131.743 99.0376 131.818 99.0376Z" fill="#F5F5F5"/>
<path d="M179.866 98.1724H177.623C177.548 98.1724 177.488 98.233 177.488 98.308V98.6089C177.488 98.6838 177.548 98.7445 177.623 98.7445H179.866C179.941 98.7445 180.001 98.6839 180.001 98.6089V98.308C180.001 98.233 179.941 98.1724 179.866 98.1724ZM177.07 98.1724H174.831C174.756 98.1724 174.695 98.233 174.695 98.308V98.6089C174.695 98.6838 174.756 98.7445 174.831 98.7445H177.07C177.145 98.7445 177.205 98.6839 177.205 98.6089V98.308C177.205 98.233 177.145 98.1724 177.07 98.1724Z" fill="#F5F5F5"/>
<path d="M174.277 98.1724H172.038C171.963 98.1724 171.902 98.233 171.902 98.308V98.6089C171.902 98.6838 171.963 98.7445 172.038 98.7445H174.277C174.352 98.7445 174.413 98.6839 174.413 98.6089V98.308C174.413 98.233 174.352 98.1724 174.277 98.1724ZM171.488 98.1724H169.242C169.167 98.1724 169.106 98.233 169.106 98.308V98.6089C169.106 98.6838 169.167 98.7445 169.242 98.7445H171.488C171.563 98.7445 171.624 98.6839 171.624 98.6089V98.308C171.624 98.233 171.563 98.1724 171.488 98.1724Z" fill="#F5F5F5"/>
<path d="M168.692 98.1724H166.449C166.374 98.1724 166.314 98.233 166.314 98.308V98.6089C166.314 98.6838 166.374 98.7445 166.449 98.7445H168.692C168.767 98.7445 168.827 98.6839 168.827 98.6089V98.308C168.827 98.233 168.767 98.1724 168.692 98.1724ZM165.899 98.1724H163.657C163.582 98.1724 163.521 98.233 163.521 98.308V98.6089C163.521 98.6838 163.582 98.7445 163.657 98.7445H165.899C165.974 98.7445 166.035 98.6839 166.035 98.6089V98.308C166.035 98.233 165.974 98.1724 165.899 98.1724Z" fill="#F5F5F5"/>
<path d="M163.106 98.1724H160.864C160.789 98.1724 160.728 98.233 160.728 98.308V98.6089C160.728 98.6838 160.789 98.7445 160.864 98.7445H163.106C163.181 98.7445 163.242 98.6839 163.242 98.6089V98.308C163.242 98.233 163.181 98.1724 163.106 98.1724ZM160.317 98.1724H158.071C157.996 98.1724 157.935 98.233 157.935 98.308V98.6089C157.935 98.6838 157.996 98.7445 158.071 98.7445H160.317C160.392 98.7445 160.453 98.6839 160.453 98.6089V98.308C160.453 98.233 160.392 98.1724 160.317 98.1724Z" fill="#F5F5F5"/>
<path d="M157.521 98.1724H155.278C155.203 98.1724 155.143 98.233 155.143 98.308V98.6089C155.143 98.6838 155.203 98.7445 155.278 98.7445H157.521C157.596 98.7445 157.657 98.6839 157.657 98.6089V98.308C157.657 98.233 157.596 98.1724 157.521 98.1724ZM154.728 98.1724H152.486C152.411 98.1724 152.35 98.233 152.35 98.308V98.6089C152.35 98.6838 152.411 98.7445 152.486 98.7445H154.728C154.803 98.7445 154.864 98.6839 154.864 98.6089V98.308C154.864 98.233 154.803 98.1724 154.728 98.1724Z" fill="#F5F5F5"/>
<path d="M151.936 98.1724H149.693C149.618 98.1724 149.557 98.233 149.557 98.308V98.6089C149.557 98.6838 149.618 98.7445 149.693 98.7445H151.936C152.011 98.7445 152.071 98.6839 152.071 98.6089V98.308C152.071 98.233 152.011 98.1724 151.936 98.1724ZM149.139 98.1724H146.9C146.825 98.1724 146.765 98.233 146.765 98.308V98.6089C146.765 98.6838 146.825 98.7445 146.9 98.7445H149.139C149.214 98.7445 149.275 98.6839 149.275 98.6089V98.308C149.275 98.233 149.214 98.1724 149.139 98.1724Z" fill="#F5F5F5"/>
<path d="M146.35 98.1724H144.108C144.033 98.1724 143.972 98.233 143.972 98.308V98.6089C143.972 98.6838 144.033 98.7445 144.108 98.7445H146.35C146.425 98.7445 146.486 98.6839 146.486 98.6089V98.308C146.486 98.233 146.425 98.1724 146.35 98.1724ZM143.554 98.1724H141.315C141.24 98.1724 141.179 98.233 141.179 98.308V98.6089C141.179 98.6838 141.24 98.7445 141.315 98.7445H143.554C143.629 98.7445 143.69 98.6839 143.69 98.6089V98.308C143.689 98.233 143.629 98.1724 143.554 98.1724Z" fill="#F5F5F5"/>
<path d="M140.761 98.1724H138.522C138.448 98.1724 138.387 98.233 138.387 98.308V98.6089C138.387 98.6838 138.447 98.7445 138.522 98.7445H140.761C140.836 98.7445 140.897 98.6839 140.897 98.6089V98.308C140.897 98.233 140.836 98.1724 140.761 98.1724ZM137.969 98.1724H135.726C135.651 98.1724 135.59 98.233 135.59 98.308V98.6089C135.59 98.6838 135.651 98.7445 135.726 98.7445H137.969C138.044 98.7445 138.104 98.6839 138.104 98.6089V98.308C138.104 98.233 138.044 98.1724 137.969 98.1724Z" fill="#F5F5F5"/>
<path d="M135.176 98.1724H132.933C132.858 98.1724 132.798 98.233 132.798 98.308V98.6089C132.798 98.6838 132.858 98.7445 132.933 98.7445H135.176C135.251 98.7445 135.312 98.6839 135.312 98.6089V98.308C135.312 98.233 135.251 98.1724 135.176 98.1724ZM132.383 98.1724H130.137C130.062 98.1724 130.002 98.233 130.002 98.308V98.6089C130.002 98.6838 130.062 98.7445 130.137 98.7445H132.383C132.458 98.7445 132.519 98.6839 132.519 98.6089V98.308C132.519 98.233 132.458 98.1724 132.383 98.1724Z" fill="#F5F5F5"/>
<path d="M154.286 88.9252C154.542 88.9934 154.815 88.9183 155.003 88.7273C155.286 89.0139 155.749 89.0207 156.043 88.7411C156.234 88.5569 156.312 88.2772 156.244 88.0249C155.995 88.4273 155.47 88.5569 155.068 88.3045C155.047 88.2907 155.02 88.2771 155.003 88.2635C154.624 88.5431 154.089 88.4681 153.803 88.0931C153.792 88.0725 153.772 88.0452 153.758 88.0249C153.656 88.4207 153.894 88.8297 154.286 88.9252Z" fill="#FF4B55"/>
<path d="M155.875 96.8922C156.792 96.3889 157.557 95.5961 157.976 94.5517C158.69 92.7617 158.241 90.7412 156.874 89.4307C156.827 89.3856 156.756 89.4459 156.79 89.5014C158.138 91.6989 157.607 94.5867 155.521 96.1691L155.621 89.7856C155.623 89.699 155.584 89.6165 155.517 89.5619L155.177 89.2878C155.073 89.2038 154.925 89.2043 154.822 89.2888L154.488 89.5619C154.421 89.6164 154.383 89.6984 154.384 89.7846L154.481 96.1725C152.395 94.5909 151.863 91.7005 153.209 89.5015C153.243 89.446 153.172 89.3857 153.125 89.4308C151.761 90.7414 151.308 92.7618 152.023 94.5517C152.442 95.5959 153.207 96.3888 154.124 96.8921C153.54 97.0921 152.927 97.1981 152.307 97.1803C152.241 97.1785 152.228 97.2707 152.291 97.2896C153.079 97.5288 153.889 97.5452 154.651 97.3744L154.95 97.9548C154.971 97.9948 155.028 97.995 155.049 97.9549L155.35 97.3747C156.112 97.5452 156.923 97.5285 157.711 97.2893C157.774 97.2704 157.761 97.1782 157.695 97.1801C157.074 97.1981 156.46 97.0921 155.875 96.8922Z" fill="#FF4B55"/>
<path d="M159.606 90.9576C159.137 90.0811 158.358 89.4168 157.43 89.0913C157.372 89.0709 157.327 89.1476 157.374 89.1868C159.422 90.8734 159.832 93.8774 158.249 96.0522C158.167 96.1614 158.078 96.2773 157.993 96.3726C159.937 95.3292 160.656 92.9013 159.606 90.9576Z" fill="#FF4B55"/>
<path d="M151.753 96.0523C150.17 93.8775 150.577 90.8736 152.624 89.187C152.671 89.1478 152.626 89.0712 152.568 89.0915C151.642 89.4171 150.868 90.0812 150.396 90.9577C149.339 92.9015 150.065 95.3293 152.012 96.3726C151.92 96.2773 151.831 96.1615 151.753 96.0523Z" fill="#FF4B55"/>
</g>
<g style="mix-blend-mode:overlay" opacity="0.3" clip-path="url(#clip2_137_130339)">
<path d="M327.138 61.3792H278.863C278.387 61.3792 278.001 60.9932 278.001 60.5171V29.4827C278.001 29.0066 278.387 28.6206 278.863 28.6206H327.138C327.615 28.6206 328.001 29.0066 328.001 29.4827V60.5171C328 60.9933 327.614 61.3792 327.138 61.3792Z" fill="#F5F5F5"/>
<path d="M303 54.4824C308.237 54.4824 312.483 50.237 312.483 45C312.483 39.763 308.237 35.5176 303 35.5176C297.763 35.5176 293.518 39.763 293.518 45C293.518 50.237 297.763 54.4824 303 54.4824Z" fill="#FF4B55"/>
</g>
<g style="mix-blend-mode:overlay" opacity="0.3" clip-path="url(#clip3_137_130339)">
<path d="M237.138 291.379H188.863C188.387 291.379 188.001 290.993 188.001 290.517V259.483C188.001 259.007 188.387 258.621 188.863 258.621H237.138C237.614 258.621 238.001 259.007 238.001 259.483V290.517C238 290.993 237.614 291.379 237.138 291.379Z" fill="#41479B"/>
<path d="M238 259.483C238 259.007 237.614 258.621 237.138 258.621H233.281L217.311 269.084V258.621H208.69V269.084L192.72 258.621H188.863C188.387 258.621 188.001 259.007 188.001 259.483V261.712L201.703 270.69H188.001V279.31H201.703L188.001 288.287V290.517C188.001 290.993 188.387 291.379 188.863 291.379H192.72L208.69 280.916V291.379H217.311V280.916L233.282 291.379H237.139C237.615 291.379 238.001 290.993 238.001 290.517V288.287L224.299 279.31H238V270.69H224.298L238 261.712V259.483Z" fill="#F5F5F5"/>
<path d="M238 272.414H215.587V258.621H210.414V272.414H188.001V277.586H210.414V291.379H215.587V277.586H238V272.414Z" fill="#FF4B55"/>
<path d="M205.476 279.31L188.025 290.638C188.086 291.054 188.43 291.379 188.863 291.379H190.05L208.643 279.31H205.476V279.31Z" fill="#FF4B55"/>
<path d="M221.828 279.31H218.661L237.227 291.361C237.66 291.315 238.001 290.962 238.001 290.517V289.808L221.828 279.31Z" fill="#FF4B55"/>
<path d="M188.001 260.435L203.8 270.69H206.967L188.504 258.705C188.209 258.842 188.001 259.136 188.001 259.483V260.435Z" fill="#FF4B55"/>
<path d="M220.478 270.69L237.971 259.335C237.899 258.932 237.563 258.621 237.139 258.621H235.904L217.312 270.69H220.478Z" fill="#FF4B55"/>
</g>
<g style="mix-blend-mode:overlay" opacity="0.3" clip-path="url(#clip4_137_130339)">
<path d="M320.138 318.379H271.862C271.386 318.379 271 317.993 271 317.517V286.483C271 286.007 271.386 285.621 271.862 285.621H320.138C320.614 285.621 321 286.007 321 286.483V317.517C321 317.993 320.614 318.379 320.138 318.379Z" fill="#F5F5F5"/>
<path d="M321 288.141H271V286.483C271 286.007 271.386 285.621 271.862 285.621H320.138C320.614 285.621 321 286.007 321 286.483L321 288.141Z" fill="#FF4B55"/>
<path d="M321 295.7H271V298.22H321V295.7Z" fill="#FF4B55"/>
<path d="M321 290.66H271V293.18H321V290.66Z" fill="#FF4B55"/>
<path d="M321 303.26H271.862C271.386 303.26 271 302.874 271 302.398V300.74H321V303.26Z" fill="#FF4B55"/>
<path d="M321 310.82H271V313.34H321V310.82Z" fill="#FF4B55"/>
<path d="M320.138 318.379H271.862C271.386 318.379 271 317.993 271 317.517V315.859H321V317.517C321 317.993 320.614 318.379 320.138 318.379Z" fill="#FF4B55"/>
<path d="M321 305.78H271V308.3H321V305.78Z" fill="#FF4B55"/>
<path d="M293.414 285.621H271.862C271.386 285.621 271 286.007 271 286.483V302.398C271 302.874 271.386 303.26 271.862 303.26H293.414C293.89 303.26 294.276 302.874 294.276 302.398V286.483C294.276 286.007 293.89 285.621 293.414 285.621Z" fill="#41479B"/>
<path d="M273.422 287.6L273.612 288.172L274.216 288.176C274.294 288.177 274.326 288.277 274.263 288.323L273.778 288.681L273.96 289.257C273.984 289.331 273.899 289.393 273.835 289.347L273.344 288.996L272.854 289.347C272.79 289.393 272.706 289.331 272.729 289.257L272.911 288.682L272.426 288.323C272.363 288.277 272.395 288.177 272.473 288.176L273.077 288.172L273.267 287.6C273.292 287.525 273.397 287.525 273.422 287.6Z" fill="#F5F5F5"/>
<path d="M273.421 290.593L273.612 291.165L274.215 291.17C274.293 291.171 274.326 291.27 274.263 291.317L273.778 291.675L273.96 292.25C273.983 292.325 273.898 292.386 273.835 292.341L273.344 291.99L272.853 292.341C272.79 292.386 272.705 292.325 272.729 292.25L272.911 291.675L272.425 291.317C272.363 291.27 272.395 291.171 272.473 291.17L273.076 291.165L273.267 290.593C273.292 290.519 273.396 290.519 273.421 290.593Z" fill="#F5F5F5"/>
<path d="M273.421 293.587L273.612 294.159L274.215 294.163C274.293 294.164 274.326 294.264 274.263 294.31L273.778 294.668L273.96 295.244C273.983 295.318 273.898 295.38 273.835 295.334L273.344 294.983L272.853 295.334C272.79 295.38 272.705 295.318 272.729 295.244L272.911 294.669L272.425 294.31C272.363 294.264 272.395 294.164 272.473 294.163L273.076 294.159L273.267 293.587C273.292 293.512 273.396 293.512 273.421 293.587Z" fill="#F5F5F5"/>
<path d="M273.421 296.58L273.612 297.153L274.215 297.157C274.293 297.158 274.326 297.257 274.263 297.304L273.778 297.662L273.96 298.237C273.983 298.312 273.898 298.373 273.835 298.328L273.344 297.977L272.853 298.328C272.79 298.373 272.705 298.312 272.729 298.237L272.911 297.662L272.425 297.304C272.363 297.257 272.395 297.158 272.473 297.157L273.076 297.153L273.267 296.58C273.292 296.506 273.396 296.506 273.421 296.58Z" fill="#F5F5F5"/>
<path d="M273.421 299.574L273.612 300.146L274.215 300.151C274.293 300.151 274.326 300.251 274.263 300.297L273.778 300.656L273.96 301.231C273.983 301.305 273.898 301.367 273.835 301.321L273.344 300.971L272.853 301.321C272.79 301.367 272.705 301.305 272.729 301.231L272.911 300.656L272.425 300.297C272.363 300.251 272.395 300.151 272.473 300.151L273.076 300.146L273.267 299.574C273.292 299.499 273.396 299.499 273.421 299.574Z" fill="#F5F5F5"/>
<path d="M275.745 289.067L275.935 289.64L276.539 289.644C276.617 289.645 276.649 289.744 276.586 289.791L276.101 290.149L276.283 290.724C276.307 290.799 276.222 290.86 276.158 290.815L275.668 290.464L275.177 290.815C275.113 290.86 275.029 290.799 275.052 290.724L275.234 290.149L274.749 289.791C274.686 289.744 274.718 289.645 274.796 289.644L275.4 289.64L275.59 289.067C275.615 288.993 275.72 288.993 275.745 289.067Z" fill="#F5F5F5"/>
<path d="M275.745 292.061L275.935 292.633L276.539 292.638C276.617 292.638 276.649 292.738 276.586 292.784L276.101 293.143L276.283 293.718C276.307 293.792 276.222 293.854 276.158 293.808L275.668 293.458L275.177 293.808C275.113 293.854 275.029 293.792 275.052 293.718L275.234 293.143L274.749 292.784C274.686 292.738 274.718 292.638 274.796 292.638L275.4 292.633L275.59 292.061C275.615 291.987 275.72 291.987 275.745 292.061Z" fill="#F5F5F5"/>
<path d="M275.745 295.054L275.935 295.627L276.539 295.631C276.617 295.632 276.649 295.732 276.586 295.778L276.101 296.136L276.283 296.711C276.307 296.786 276.222 296.848 276.158 296.802L275.668 296.451L275.177 296.802C275.113 296.847 275.029 296.786 275.052 296.711L275.234 296.136L274.749 295.778C274.686 295.731 274.718 295.632 274.796 295.631L275.4 295.627L275.59 295.054C275.615 294.98 275.72 294.98 275.745 295.054Z" fill="#F5F5F5"/>
<path d="M275.745 298.048L275.935 298.62L276.539 298.625C276.617 298.625 276.649 298.725 276.586 298.771L276.101 299.13L276.283 299.705C276.307 299.779 276.222 299.841 276.158 299.796L275.668 299.445L275.177 299.796C275.113 299.841 275.029 299.779 275.052 299.705L275.234 299.13L274.749 298.771C274.686 298.725 274.718 298.625 274.796 298.625L275.4 298.62L275.59 298.048C275.615 297.974 275.72 297.974 275.745 298.048Z" fill="#F5F5F5"/>
<path d="M278.068 287.6L278.259 288.172L278.862 288.176C278.94 288.177 278.973 288.277 278.91 288.323L278.425 288.681L278.607 289.257C278.63 289.331 278.545 289.393 278.482 289.347L277.991 288.996L277.5 289.347C277.437 289.393 277.352 289.331 277.376 289.257L277.558 288.681L277.072 288.323C277.01 288.277 277.042 288.177 277.12 288.176L277.723 288.172L277.914 287.6C277.939 287.525 278.044 287.525 278.068 287.6Z" fill="#F5F5F5"/>
<path d="M278.068 290.593L278.259 291.165L278.862 291.17C278.94 291.171 278.973 291.27 278.91 291.317L278.425 291.675L278.607 292.25C278.63 292.325 278.545 292.386 278.482 292.341L277.991 291.99L277.5 292.341C277.437 292.386 277.352 292.325 277.376 292.25L277.558 291.675L277.072 291.317C277.01 291.27 277.042 291.171 277.12 291.17L277.723 291.165L277.914 290.593C277.939 290.519 278.044 290.519 278.068 290.593Z" fill="#F5F5F5"/>
<path d="M278.068 293.587L278.259 294.159L278.862 294.163C278.94 294.164 278.973 294.264 278.91 294.31L278.425 294.668L278.607 295.244C278.63 295.318 278.545 295.38 278.482 295.334L277.991 294.983L277.5 295.334C277.437 295.38 277.352 295.318 277.376 295.244L277.558 294.668L277.072 294.31C277.01 294.264 277.042 294.164 277.12 294.163L277.723 294.159L277.914 293.587C277.939 293.513 278.044 293.513 278.068 293.587Z" fill="#F5F5F5"/>
<path d="M278.068 296.58L278.259 297.153L278.862 297.157C278.94 297.158 278.973 297.257 278.91 297.304L278.425 297.662L278.607 298.237C278.63 298.312 278.545 298.373 278.482 298.328L277.991 297.977L277.5 298.328C277.437 298.373 277.352 298.312 277.376 298.237L277.558 297.662L277.072 297.304C277.01 297.257 277.042 297.158 277.12 297.157L277.723 297.153L277.914 296.58C277.939 296.506 278.044 296.506 278.068 296.58Z" fill="#F5F5F5"/>
<path d="M278.068 299.574L278.259 300.146L278.862 300.151C278.94 300.151 278.973 300.251 278.91 300.297L278.425 300.656L278.607 301.231C278.63 301.305 278.545 301.367 278.482 301.321L277.991 300.971L277.5 301.321C277.437 301.367 277.352 301.305 277.376 301.231L277.558 300.656L277.072 300.297C277.01 300.251 277.042 300.151 277.12 300.151L277.723 300.146L277.914 299.574C277.939 299.5 278.044 299.5 278.068 299.574Z" fill="#F5F5F5"/>
<path d="M280.392 289.067L280.583 289.64L281.186 289.644C281.264 289.645 281.296 289.744 281.234 289.791L280.748 290.149L280.93 290.724C280.954 290.799 280.869 290.86 280.806 290.815L280.315 290.464L279.824 290.815C279.761 290.86 279.676 290.799 279.699 290.724L279.881 290.149L279.396 289.791C279.333 289.744 279.366 289.645 279.444 289.644L280.047 289.64L280.238 289.067C280.262 288.993 280.367 288.993 280.392 289.067Z" fill="#F5F5F5"/>
<path d="M280.392 292.061L280.583 292.633L281.186 292.638C281.264 292.638 281.296 292.738 281.234 292.784L280.748 293.143L280.93 293.718C280.954 293.792 280.869 293.854 280.806 293.808L280.315 293.458L279.824 293.808C279.761 293.854 279.676 293.792 279.699 293.718L279.881 293.143L279.396 292.784C279.333 292.738 279.366 292.638 279.444 292.638L280.047 292.633L280.238 292.061C280.262 291.987 280.367 291.987 280.392 292.061Z" fill="#F5F5F5"/>
<path d="M280.392 295.054L280.583 295.627L281.186 295.631C281.264 295.632 281.296 295.732 281.234 295.778L280.748 296.136L280.93 296.711C280.954 296.786 280.869 296.848 280.806 296.802L280.315 296.451L279.824 296.802C279.761 296.847 279.676 296.786 279.699 296.711L279.881 296.136L279.396 295.778C279.333 295.731 279.366 295.632 279.444 295.631L280.047 295.627L280.238 295.054C280.262 294.98 280.367 294.98 280.392 295.054Z" fill="#F5F5F5"/>
<path d="M280.392 298.048L280.583 298.62L281.186 298.625C281.264 298.625 281.296 298.725 281.234 298.771L280.748 299.13L280.93 299.705C280.954 299.779 280.869 299.841 280.806 299.796L280.315 299.445L279.824 299.796C279.761 299.841 279.676 299.779 279.699 299.705L279.881 299.13L279.396 298.771C279.333 298.725 279.366 298.625 279.444 298.625L280.047 298.62L280.238 298.048C280.262 297.974 280.367 297.974 280.392 298.048Z" fill="#F5F5F5"/>
<path d="M282.715 287.6L282.906 288.172L283.509 288.176C283.588 288.177 283.62 288.277 283.557 288.323L283.072 288.681L283.254 289.257C283.277 289.331 283.193 289.393 283.129 289.347L282.638 288.996L282.147 289.347C282.084 289.393 281.999 289.331 282.023 289.257L282.205 288.681L281.719 288.323C281.657 288.277 281.689 288.177 281.767 288.176L282.37 288.172L282.561 287.6C282.586 287.525 282.691 287.525 282.715 287.6Z" fill="#F5F5F5"/>
<path d="M282.715 290.593L282.906 291.165L283.509 291.17C283.588 291.171 283.62 291.27 283.557 291.317L283.072 291.675L283.254 292.25C283.277 292.325 283.193 292.386 283.129 292.341L282.638 291.99L282.147 292.341C282.084 292.386 281.999 292.325 282.023 292.25L282.205 291.675L281.719 291.317C281.657 291.27 281.689 291.171 281.767 291.17L282.37 291.165L282.561 290.593C282.586 290.519 282.691 290.519 282.715 290.593Z" fill="#F5F5F5"/>
<path d="M282.715 293.587L282.906 294.159L283.509 294.163C283.588 294.164 283.62 294.264 283.557 294.31L283.072 294.668L283.254 295.244C283.277 295.318 283.193 295.38 283.129 295.334L282.638 294.983L282.147 295.334C282.084 295.38 281.999 295.318 282.023 295.244L282.205 294.668L281.719 294.31C281.657 294.264 281.689 294.164 281.767 294.163L282.37 294.159L282.561 293.587C282.586 293.513 282.691 293.513 282.715 293.587Z" fill="#F5F5F5"/>
<path d="M282.715 296.58L282.906 297.153L283.509 297.157C283.588 297.158 283.62 297.257 283.557 297.304L283.072 297.662L283.254 298.237C283.277 298.312 283.193 298.373 283.129 298.328L282.638 297.977L282.147 298.328C282.084 298.373 281.999 298.312 282.023 298.237L282.205 297.662L281.719 297.304C281.657 297.257 281.689 297.158 281.767 297.157L282.37 297.153L282.561 296.58C282.586 296.506 282.691 296.506 282.715 296.58Z" fill="#F5F5F5"/>
<path d="M282.715 299.574L282.906 300.146L283.509 300.151C283.588 300.151 283.62 300.251 283.557 300.297L283.072 300.656L283.254 301.231C283.277 301.305 283.193 301.367 283.129 301.321L282.638 300.971L282.147 301.321C282.084 301.367 281.999 301.305 282.023 301.231L282.205 300.656L281.719 300.297C281.657 300.251 281.689 300.151 281.767 300.151L282.37 300.146L282.561 299.574C282.586 299.5 282.691 299.5 282.715 299.574Z" fill="#F5F5F5"/>
<path d="M285.039 289.067L285.23 289.64L285.833 289.644C285.911 289.645 285.943 289.744 285.881 289.791L285.395 290.149L285.577 290.724C285.601 290.799 285.516 290.86 285.453 290.815L284.962 290.464L284.471 290.815C284.408 290.86 284.323 290.799 284.346 290.724L284.528 290.149L284.043 289.791C283.98 289.744 284.013 289.645 284.091 289.644L284.694 289.64L284.885 289.067C284.91 288.993 285.014 288.993 285.039 289.067Z" fill="#F5F5F5"/>
<path d="M285.039 292.061L285.23 292.633L285.833 292.638C285.911 292.638 285.943 292.738 285.881 292.784L285.395 293.143L285.577 293.718C285.601 293.792 285.516 293.854 285.453 293.808L284.962 293.458L284.471 293.808C284.408 293.854 284.323 293.792 284.346 293.718L284.528 293.143L284.043 292.784C283.98 292.738 284.013 292.638 284.091 292.638L284.694 292.633L284.885 292.061C284.91 291.987 285.014 291.987 285.039 292.061Z" fill="#F5F5F5"/>
<path d="M285.039 295.054L285.23 295.627L285.833 295.631C285.911 295.632 285.943 295.732 285.881 295.778L285.395 296.136L285.577 296.711C285.601 296.786 285.516 296.848 285.453 296.802L284.962 296.451L284.471 296.802C284.408 296.847 284.323 296.786 284.346 296.711L284.528 296.136L284.043 295.778C283.98 295.731 284.013 295.632 284.091 295.631L284.694 295.627L284.885 295.054C284.91 294.98 285.014 294.98 285.039 295.054Z" fill="#F5F5F5"/>
<path d="M285.039 298.048L285.23 298.62L285.833 298.625C285.911 298.625 285.943 298.725 285.881 298.771L285.395 299.13L285.577 299.705C285.601 299.779 285.516 299.841 285.453 299.796L284.962 299.445L284.471 299.796C284.408 299.841 284.323 299.779 284.346 299.705L284.528 299.13L284.043 298.771C283.98 298.725 284.013 298.625 284.091 298.625L284.694 298.62L284.885 298.048C284.91 297.974 285.014 297.974 285.039 298.048Z" fill="#F5F5F5"/>
<path d="M287.363 287.6L287.553 288.172L288.157 288.176C288.235 288.177 288.267 288.277 288.204 288.323L287.719 288.681L287.901 289.257C287.925 289.331 287.84 289.393 287.776 289.347L287.286 288.996L286.795 289.347C286.731 289.393 286.647 289.331 286.67 289.257L286.852 288.681L286.367 288.323C286.304 288.277 286.336 288.177 286.414 288.176L287.018 288.172L287.209 287.6C287.233 287.525 287.338 287.525 287.363 287.6Z" fill="#F5F5F5"/>
<path d="M287.363 290.593L287.553 291.165L288.157 291.17C288.235 291.171 288.267 291.27 288.204 291.317L287.719 291.675L287.901 292.25C287.925 292.325 287.84 292.386 287.776 292.341L287.286 291.99L286.795 292.341C286.731 292.386 286.647 292.325 286.67 292.25L286.852 291.675L286.367 291.317C286.304 291.27 286.336 291.171 286.414 291.17L287.018 291.165L287.209 290.593C287.233 290.519 287.338 290.519 287.363 290.593Z" fill="#F5F5F5"/>
<path d="M287.363 293.587L287.553 294.159L288.157 294.163C288.235 294.164 288.267 294.264 288.204 294.31L287.719 294.668L287.901 295.244C287.925 295.318 287.84 295.38 287.776 295.334L287.286 294.983L286.795 295.334C286.731 295.38 286.647 295.318 286.67 295.244L286.852 294.668L286.367 294.31C286.304 294.264 286.336 294.164 286.414 294.163L287.018 294.159L287.209 293.587C287.233 293.513 287.338 293.513 287.363 293.587Z" fill="#F5F5F5"/>
<path d="M287.363 296.58L287.553 297.153L288.157 297.157C288.235 297.158 288.267 297.257 288.204 297.304L287.719 297.662L287.901 298.237C287.925 298.312 287.84 298.373 287.776 298.328L287.286 297.977L286.795 298.328C286.731 298.373 286.647 298.312 286.67 298.237L286.852 297.662L286.367 297.304C286.304 297.257 286.336 297.158 286.414 297.157L287.018 297.153L287.209 296.58C287.233 296.506 287.338 296.506 287.363 296.58Z" fill="#F5F5F5"/>
<path d="M287.363 299.574L287.553 300.146L288.157 300.151C288.235 300.151 288.267 300.251 288.204 300.297L287.719 300.656L287.901 301.231C287.925 301.305 287.84 301.367 287.776 301.321L287.286 300.971L286.795 301.321C286.731 301.367 286.647 301.305 286.67 301.231L286.852 300.656L286.367 300.297C286.304 300.251 286.336 300.151 286.414 300.151L287.018 300.146L287.209 299.574C287.233 299.5 287.338 299.5 287.363 299.574Z" fill="#F5F5F5"/>
<path d="M289.686 289.067L289.877 289.64L290.48 289.644C290.558 289.645 290.591 289.744 290.528 289.791L290.042 290.149L290.225 290.724C290.248 290.799 290.163 290.86 290.1 290.815L289.609 290.464L289.118 290.815C289.055 290.86 288.97 290.799 288.993 290.724L289.176 290.149L288.69 289.791C288.627 289.744 288.66 289.645 288.738 289.644L289.341 289.64L289.532 289.067C289.557 288.993 289.661 288.993 289.686 289.067Z" fill="#F5F5F5"/>
<path d="M289.686 292.061L289.877 292.633L290.48 292.638C290.558 292.638 290.591 292.738 290.528 292.784L290.042 293.143L290.225 293.718C290.248 293.792 290.163 293.854 290.1 293.808L289.609 293.458L289.118 293.808C289.055 293.854 288.97 293.792 288.993 293.718L289.176 293.143L288.69 292.784C288.627 292.738 288.66 292.638 288.738 292.638L289.341 292.633L289.532 292.061C289.557 291.987 289.661 291.987 289.686 292.061Z" fill="#F5F5F5"/>
<path d="M289.686 295.054L289.877 295.627L290.48 295.631C290.558 295.632 290.591 295.732 290.528 295.778L290.042 296.136L290.225 296.711C290.248 296.786 290.163 296.848 290.1 296.802L289.609 296.451L289.118 296.802C289.055 296.847 288.97 296.786 288.993 296.711L289.176 296.136L288.69 295.778C288.627 295.731 288.66 295.632 288.738 295.631L289.341 295.627L289.532 295.054C289.557 294.98 289.661 294.98 289.686 295.054Z" fill="#F5F5F5"/>
<path d="M289.686 298.048L289.877 298.62L290.48 298.625C290.558 298.625 290.591 298.725 290.528 298.771L290.042 299.13L290.225 299.705C290.248 299.779 290.163 299.841 290.1 299.796L289.609 299.445L289.118 299.796C289.055 299.841 288.97 299.779 288.993 299.705L289.176 299.13L288.69 298.771C288.627 298.725 288.66 298.625 288.738 298.625L289.341 298.62L289.532 298.048C289.557 297.974 289.661 297.974 289.686 298.048Z" fill="#F5F5F5"/>
<path d="M292.01 287.6L292.2 288.172L292.804 288.176C292.882 288.177 292.914 288.277 292.851 288.323L292.366 288.681L292.548 289.257C292.572 289.331 292.487 289.393 292.423 289.347L291.933 288.996L291.442 289.347C291.378 289.393 291.294 289.331 291.317 289.257L291.499 288.681L291.014 288.323C290.951 288.277 290.983 288.177 291.062 288.176L291.665 288.172L291.856 287.6C291.88 287.525 291.985 287.525 292.01 287.6Z" fill="#F5F5F5"/>
<path d="M292.01 290.593L292.2 291.165L292.804 291.17C292.882 291.171 292.914 291.27 292.851 291.317L292.366 291.675L292.548 292.25C292.572 292.325 292.487 292.386 292.423 292.341L291.933 291.99L291.442 292.341C291.378 292.386 291.294 292.325 291.317 292.25L291.499 291.675L291.014 291.317C290.951 291.27 290.983 291.171 291.062 291.17L291.665 291.165L291.856 290.593C291.88 290.519 291.985 290.519 292.01 290.593Z" fill="#F5F5F5"/>
<path d="M292.01 293.587L292.2 294.159L292.804 294.163C292.882 294.164 292.914 294.264 292.851 294.31L292.366 294.668L292.548 295.244C292.572 295.318 292.487 295.38 292.423 295.334L291.933 294.983L291.442 295.334C291.378 295.38 291.294 295.318 291.317 295.244L291.499 294.668L291.014 294.31C290.951 294.264 290.983 294.164 291.062 294.163L291.665 294.159L291.856 293.587C291.88 293.513 291.985 293.513 292.01 293.587Z" fill="#F5F5F5"/>
<path d="M292.01 296.58L292.2 297.153L292.804 297.157C292.882 297.158 292.914 297.257 292.851 297.304L292.366 297.662L292.548 298.237C292.572 298.312 292.487 298.373 292.423 298.328L291.933 297.977L291.442 298.328C291.378 298.373 291.294 298.312 291.317 298.237L291.499 297.662L291.014 297.304C290.951 297.257 290.983 297.158 291.062 297.157L291.665 297.153L291.856 296.58C291.88 296.506 291.985 296.506 292.01 296.58Z" fill="#F5F5F5"/>
<path d="M292.01 299.574L292.2 300.146L292.804 300.151C292.882 300.151 292.914 300.251 292.851 300.297L292.366 300.656L292.548 301.231C292.572 301.305 292.487 301.367 292.423 301.321L291.933 300.971L291.442 301.321C291.378 301.367 291.294 301.305 291.317 301.231L291.499 300.656L291.014 300.297C290.951 300.251 290.983 300.151 291.062 300.151L291.665 300.146L291.856 299.574C291.88 299.5 291.985 299.5 292.01 299.574Z" fill="#F5F5F5"/>
</g>
<g style="mix-blend-mode:overlay" opacity="0.3" clip-path="url(#clip5_137_130339)">
<path d="M366.138 163.379H317.863C317.387 163.379 317.001 162.993 317.001 162.517V131.482C317.001 131.006 317.387 130.62 317.863 130.62H366.138C366.615 130.62 367.001 131.006 367.001 131.482V162.517C367 162.993 366.614 163.379 366.138 163.379Z" fill="#F5F5F5"/>
<path d="M355.794 130.621H328.208V163.38H355.794V130.621Z" fill="#F5F5F5"/>
<path d="M317.863 130.621C317.387 130.621 317.001 131.007 317.001 131.483V162.517C317.001 162.993 317.387 163.379 317.863 163.379H328.207V130.621H317.863Z" fill="#FF4B55"/>
<path d="M366.139 130.621H355.794V163.379H366.139C366.615 163.379 367.001 162.993 367.001 162.517V131.483C367.001 131.007 366.615 130.621 366.139 130.621Z" fill="#FF4B55"/>
<path d="M347.233 150.785L352.348 147.862L351.174 147.275C350.845 147.11 350.657 146.755 350.705 146.39L351.087 143.527L348.921 144.157C348.443 144.296 347.947 144.002 347.839 143.515L347.632 142.578L345.598 144.957C345.316 145.287 344.779 145.035 344.853 144.608L345.721 139.558L344.392 139.922C344.003 140.028 343.593 139.851 343.404 139.496L342.004 136.872V136.868L342.003 136.87L342.001 136.868V136.872L340.601 139.496C340.412 139.851 340.002 140.028 339.613 139.922L338.284 139.558L339.152 144.608C339.226 145.035 338.688 145.287 338.407 144.957L336.373 142.578L336.166 143.515C336.058 144.002 335.562 144.296 335.083 144.157L332.917 143.527L333.299 146.39C333.348 146.755 333.16 147.11 332.83 147.275L331.657 147.862L336.772 150.785C337.302 151.088 337.534 151.73 337.32 152.302L336.883 153.471L341.266 153.097C341.509 153.076 341.715 153.272 341.708 153.515L341.57 158.207H342.432L342.294 153.515C342.287 153.271 342.493 153.076 342.736 153.097L347.121 153.471L346.684 152.302C346.471 151.73 346.703 151.088 347.233 150.785Z" fill="#FF4B55"/>
</g>
<g style="mix-blend-mode:overlay" opacity="0.3" clip-path="url(#clip6_137_130339)">
<path d="M47.1375 41.3792H-1.13821C-1.61429 41.3792 -2.00032 40.9932 -2.00032 40.5171V9.48271C-2.00032 9.00664 -1.61429 8.62061 -1.13821 8.62061H47.1376C47.6136 8.62061 47.9997 9.00664 47.9997 9.48271V40.5171C47.9996 40.9933 47.6135 41.3792 47.1375 41.3792Z" fill="#FF4B55"/>
<path d="M47.9996 22.4139H18.6893V8.62085H13.5169V22.4139H-2.00032V27.5863H13.5169V41.3794H18.6893V27.5863H47.9996V22.4139Z" fill="#F5F5F5"/>
</g>
<g style="mix-blend-mode:overlay" opacity="0.3" clip-path="url(#clip7_137_130339)">
<path d="M176.137 101.379H127.862C127.386 101.379 126.999 100.993 126.999 100.517V69.483C126.999 69.0069 127.386 68.6208 127.862 68.6208H176.137C176.613 68.6208 176.999 69.0069 176.999 69.483V100.517C176.999 100.994 176.613 101.379 176.137 101.379Z" fill="#F5F5F5"/>
<path d="M176.999 82.4139H154.586V68.6208H149.413V82.4139H126.999V87.5863H149.413V101.379H154.586V87.5863H176.999V82.4139Z" fill="#FF4B55"/>
</g>
<g style="mix-blend-mode:overlay" opacity="0.3" clip-path="url(#clip8_137_130339)">
<path d="M16.6671 224.379H0.862476C0.386401 224.379 0.000366211 223.993 0.000366211 223.517V192.482C0.000366211 192.006 0.386401 191.62 0.862476 191.62H16.6671V224.379Z" fill="#41479B"/>
<path d="M33.3344 191.621H16.6674V224.379H33.3344V191.621Z" fill="#F5F5F5"/>
<path d="M49.1383 224.379H33.3337V191.62H49.1383C49.6144 191.62 50.0004 192.006 50.0004 192.482V223.517C50.0004 223.993 49.6144 224.379 49.1383 224.379Z" fill="#FF4B55"/>
</g>
<defs>
<clipPath id="clip0_137_130339">
<rect width="50" height="50" fill="white" transform="translate(45 272)"/>
</clipPath>
<clipPath id="clip1_137_130339">
<rect width="50" height="50" fill="white" transform="translate(130 68)"/>
</clipPath>
<clipPath id="clip2_137_130339">
<rect width="50" height="50" fill="white" transform="translate(278 20)"/>
</clipPath>
<clipPath id="clip3_137_130339">
<rect width="50" height="50" fill="white" transform="translate(188 250)"/>
</clipPath>
<clipPath id="clip4_137_130339">
<rect width="50" height="50" fill="white" transform="translate(271 277)"/>
</clipPath>
<clipPath id="clip5_137_130339">
<rect width="50" height="50" fill="white" transform="translate(317 122)"/>
</clipPath>
<clipPath id="clip6_137_130339">
<rect width="50" height="50" fill="white" transform="translate(-2)"/>
</clipPath>
<clipPath id="clip7_137_130339">
<rect width="50" height="50" fill="white" transform="translate(127 60)"/>
</clipPath>
<clipPath id="clip8_137_130339">
<rect width="50" height="50" fill="white" transform="translate(0 183)"/>
</clipPath>
</defs>
</svg>
