<svg width="1001" height="1090" viewBox="0 0 1001 1090" fill="none" xmlns="http://www.w3.org/2000/svg">
<g clip-path="url(#clip0_149_130109)">
<g clip-path="url(#clip1_149_130109)">
<g clip-path="url(#clip2_149_130109)">
<g clip-path="url(#clip3_149_130109)">
<g clip-path="url(#clip4_149_130109)">
<g clip-path="url(#clip5_149_130109)">
<g clip-path="url(#clip6_149_130109)">
<path d="M440.424 509.662L432.696 528.984C432.696 528.984 416.075 553.327 416.465 551.785C416.849 550.243 410.667 562.22 410.667 562.22L414.533 574.592L402.939 567.248L395.594 527.829L382.842 508.113L385.549 489.562L367.773 478.739L355.014 473.718L342.649 449.76C342.649 449.76 346.515 432.754 347.676 432.367C348.831 431.983 346.898 418.456 346.898 418.456L325.256 422.315L324.094 416.52C324.094 416.52 349.215 401.064 348.828 402.222C348.44 403.38 373.177 405.697 373.177 405.697L386.32 399.902L409.505 396.814L419.553 391.403H476.364L465.161 406.862L445.836 412.658L441.583 418.456L436.558 417.298L437.717 402.613L428.83 396.814L418.008 401.067L426.897 406.862L423.032 412.658H416.465L409.505 409.95L391.728 418.844L398.685 424.248L408.35 417.294H420.715L425.352 428.501L409.892 438.549L395.203 448.21L387.088 456.717L386.704 464.445L373.565 458.646L364.291 463.286L367.379 473.722L375.888 470.243L386.32 486.474L397.524 481.45L421.486 494.206L440.424 509.662Z" fill="#F6995C"/>
<path d="M381.68 468.691L399.457 471.402L393.658 475.264L381.68 468.691Z" fill="#F6995C"/>
<path d="M463.612 412.654L471.344 413.429L469.795 409.179L463.612 412.654Z" fill="#F6995C"/>
<path d="M496.848 392.948H508.833L500.327 398.743L496.848 392.948Z" fill="#F6995C"/>
<path d="M377.04 609.758H609.313L628.635 594.295C628.635 594.295 605.831 586.957 604.676 586.957C603.514 586.957 513.467 591.978 513.467 591.978L457.814 602.414L435.4 598.942L429.218 583.099L418.011 596.618L363.517 599.717L377.04 609.758Z" fill="#F6995C"/>
<path d="M532.405 534.008L539.749 533.625L540.904 516.623L532.405 534.008Z" fill="#F6995C"/>
<path d="M616.664 530.533C616.664 530.533 613.95 548.317 614.347 547.155C614.728 545.993 635.595 545.222 635.595 545.222L646.027 552.566L664.582 537.487C664.582 537.487 654.15 514.306 653.766 515.461C653.382 516.623 638.303 517.394 638.303 517.394L616.664 530.533Z" fill="#F6995C"/>
<path d="M663.04 562.998L667.673 565.699L676.172 554.879L663.04 562.998Z" fill="#F6995C"/>
<path d="M485.019 427.079L479.192 430.353L474.044 428.244L476.076 423.646L476.879 418.196L480.487 417.164L485.019 427.079Z" fill="#F6995C"/>
<path d="M639.299 437.19L640.01 449.393L634.078 454.97L645.587 451.83L639.299 437.19Z" fill="#F6995C"/>
<path d="M626.754 473.099L631.986 491.234L635.468 489.139L626.754 473.099Z" fill="#F6995C"/>
<path d="M623.618 489.491L625.713 499.603L620.488 504.476L614.552 500.645L623.618 489.491Z" fill="#F6995C"/>
<path d="M598.866 492.28L610.717 503.089L626.406 512.155L611.407 508.321L599.211 496.466L598.866 492.28Z" fill="#F6995C"/>
<path d="M640.704 505.187C641.75 504.831 652.559 503.441 652.559 503.441L662.663 509.018L651.865 511.458L640.704 505.187Z" fill="#F6995C"/>
<path d="M625.36 505.187L632.677 507.268L629.892 496.815L625.36 505.187Z" fill="#F6995C"/>
<path d="M659.55 411.112C661.093 411.112 607.38 402.609 607.38 402.609L567.964 395.265L518.11 406.084L504.967 402.997L489.898 416.911L492.602 423.093L478.692 435.071L471.351 440.866L475.6 450.14L460.528 468.691L469.418 492.653C469.418 492.653 491.06 494.586 492.218 495.361C493.38 496.135 495.31 521.64 494.922 522.795C494.539 523.956 503.041 547.528 503.041 547.528L515.797 544.44L527.778 524.724L528.549 508.493L543.231 486.08L533.573 483.372L549.037 473.711L551.744 465.596L565.651 469.071L576.474 490.713L578.791 478.345L590.772 468.296L602.366 490.713L605.073 492.646L610.869 486.847L612.023 477.186L623.624 465.205L620.53 449.362L634.447 434.286L622.846 425.399L625.557 418.055L637.183 419.227L644.58 426.431L648.555 428.188L647.77 418.629C647.759 418.639 658.547 411.112 659.55 411.112ZM499.961 419.484L501.246 414.351L507.671 410.496L509.21 421.283L495.091 424.621L499.961 419.484ZM520.307 456.544L505.935 454.15L493.162 452.474L491.053 448.341L478.684 449.372L489.331 440.018L498.517 446.538V449.112L502.9 445.506L501.309 440.091L508.013 447.675L523.265 448.555L520.307 456.544ZM526.849 442.855L514.058 441.817L516.976 434.043L528.894 439.785L526.849 442.855Z" fill="#F6995C"/>
</g>
</g>
<path d="M93.3281 332.517L83.1468 328.81L94.62 297.286L139.274 313.536C139.095 319.058 138.473 324.465 137.41 329.765C136.347 335.062 134.654 340.898 132.335 347.268C128.896 356.72 124.112 363.988 117.985 369.073C111.837 374.151 104.647 377.096 96.42 377.909C88.1677 378.71 79.2425 377.365 69.6375 373.872C60.1004 370.401 52.528 365.534 46.9274 359.264C41.309 352.969 37.8448 345.615 36.5315 337.205C35.2038 328.763 36.3525 319.566 39.9741 309.614C41.8314 304.507 44.0574 299.855 46.6483 295.654C49.2464 291.434 52.1093 287.68 55.2335 284.395L63.6003 292.372C60.9843 295.078 58.4292 298.263 55.9313 301.927C53.437 305.592 51.3971 309.596 49.819 313.937C47.1887 321.162 46.4264 327.915 47.5251 334.199C48.6094 340.451 51.3971 345.941 55.8812 350.661C60.3867 355.392 66.4274 359.135 73.9998 361.887C81.2251 364.517 88.0424 365.677 94.4589 365.369C100.875 365.058 106.555 362.964 111.504 359.078C116.432 355.188 120.379 349.158 123.349 340.995C124.809 336.98 125.833 333.494 126.413 330.545C127.021 327.579 127.45 324.845 127.694 322.336L100.621 312.48L93.3281 332.517Z" fill="#9BB0C1"/>
<path d="M150.565 177.913C154.687 173.218 159.25 170.086 164.25 168.512C169.249 166.937 174.388 166.876 179.666 168.329C184.963 169.797 190.087 172.71 195.044 177.061L200.462 181.821L167.578 219.246C173.876 224.532 179.974 227.094 185.872 226.926C191.766 226.726 197.098 223.913 201.865 218.488C204.914 215.016 207.297 211.652 209.015 208.399C210.729 205.146 212.225 201.543 213.502 197.592L221.379 204.517C220.148 208.381 218.623 211.928 216.809 215.152C214.995 218.38 212.447 221.862 209.165 225.595C204.627 230.759 199.556 234.402 193.949 236.527C188.341 238.65 182.479 238.99 176.363 237.54C170.229 236.077 164.135 232.684 158.08 227.366C152.096 222.109 147.849 216.598 145.336 210.833C142.806 205.057 141.994 199.331 142.892 193.663C143.762 187.994 146.317 182.744 150.565 177.913ZM157.826 184.476C154.068 188.749 152.476 193.348 153.041 198.265C153.603 203.15 156.13 207.981 160.617 212.758L185.084 184.913C181.96 182.168 178.818 180.257 175.655 179.18C172.523 178.099 169.446 177.945 166.415 178.715C163.387 179.488 160.524 181.406 157.826 184.476Z" fill="#9BB0C1"/>
<path d="M326.91 95.2963C330.775 102.343 332.872 109.006 333.197 115.294C333.501 121.592 332.127 127.246 329.075 132.257C326.054 137.277 321.492 141.464 315.383 144.818C309.743 147.913 304.013 149.373 298.198 149.205C292.394 149.055 286.854 147.19 281.583 143.619C276.311 140.047 271.741 134.74 267.873 127.694C262.072 117.126 260.265 107.535 262.455 98.9179C264.648 90.2684 270.306 83.4403 279.428 78.4374C285.211 75.2631 291.019 73.7565 296.856 73.9175C302.661 74.0678 308.158 75.9001 313.347 79.4143C318.514 82.9393 323.034 88.2321 326.91 95.2963ZM278.716 121.746C281.454 126.735 284.485 130.714 287.813 133.684C291.17 136.665 294.777 138.38 298.628 138.834C302.482 139.289 306.554 138.337 310.849 135.982C315.125 133.634 318.113 130.711 319.824 127.203C321.509 123.707 321.985 119.753 321.255 115.33C320.558 110.917 318.836 106.218 316.099 101.23C313.304 96.1409 310.258 92.1829 306.959 89.3558C303.627 86.5215 300.066 84.8861 296.276 84.4459C292.454 83.9986 288.364 84.972 284.009 87.3661C277.492 90.9411 273.949 95.6828 273.377 101.588C272.79 107.471 274.572 114.192 278.716 121.746Z" fill="#9BB0C1"/>
<path d="M498.67 47.2138C499.626 55.0295 499.432 62.2584 498.09 68.9039C496.77 75.5244 494.315 81.286 490.726 86.1959C487.115 91.1058 482.334 94.9779 476.386 97.8086L502.385 118.991L484.989 121.116L463.732 101.674C463.202 101.738 462.651 101.827 462.082 101.945C461.488 102.064 460.926 102.157 460.397 102.221C452.835 103.144 446.132 102.758 440.285 101.062C434.412 99.3474 429.366 96.5346 425.143 92.6303C420.946 88.7224 417.575 83.8233 415.03 77.9292C412.486 72.0388 410.757 65.3718 409.848 57.9282C408.639 48.0369 409.201 39.2191 411.527 31.4678C413.853 23.695 418.072 17.3429 424.184 12.4079C430.272 7.4515 438.352 4.35955 448.426 3.1285C458.038 1.95471 466.369 3.01756 473.419 6.32423C480.487 9.60226 486.159 14.7483 490.432 21.7589C494.701 28.748 497.446 37.2329 498.67 47.2138ZM422.66 56.5003C423.647 64.5916 425.616 71.4197 428.565 76.9773C431.535 82.535 435.568 86.6039 440.657 89.1912C445.767 91.7499 451.919 92.5874 459.112 91.707C466.398 90.8159 472.152 88.522 476.379 84.8253C480.627 81.0999 483.511 76.1864 485.035 70.0777C486.581 63.969 486.861 56.8689 485.873 48.7776C484.391 36.6496 480.716 27.4489 474.847 21.1684C468.96 14.9165 460.586 12.4509 449.729 13.7785C442.443 14.6696 436.627 16.9599 432.283 20.6495C427.956 24.3141 425.018 29.1882 423.469 35.2754C421.94 41.3341 421.669 48.4126 422.66 56.5003Z" fill="#9BB0C1"/>
<path d="M648.171 47.8292L659.73 50.8532L641.311 121.259L631.874 118.794L632.597 109.006L632.057 108.867C629.935 110.928 627.483 112.449 624.706 113.426C621.936 114.381 619.048 114.861 616.046 114.868C613.043 114.875 610.012 114.478 606.96 113.68C601.341 112.209 596.872 110.08 593.543 107.288C590.194 104.49 588.054 100.968 587.127 96.7135C586.182 92.4334 586.49 87.316 588.047 81.3611L600.11 35.2539L611.805 38.3136L599.942 83.6479C598.478 89.2413 598.65 93.7754 600.454 97.2467C602.265 100.697 605.843 103.123 611.19 104.522C618.963 106.555 624.939 105.789 629.112 102.225C633.27 98.6316 636.426 92.7126 638.584 84.4638L648.171 47.8292Z" fill="#9BB0C1"/>
<path d="M780.144 115.351C785.247 118.958 788.844 123.163 790.934 127.969C793.027 132.776 793.629 137.879 792.741 143.282C791.839 148.704 789.484 154.108 785.677 159.49L781.515 165.381L740.829 136.626C736.234 143.447 734.334 149.781 735.121 155.629C735.941 161.469 739.301 166.476 745.199 170.645C748.974 173.311 752.567 175.329 755.985 176.689C759.402 178.052 763.142 179.158 767.204 180.01L761.152 188.574C757.18 187.758 753.494 186.616 750.091 185.152C746.691 183.689 742.959 181.52 738.9 178.65C733.286 174.681 729.127 170.022 726.429 164.672C723.727 159.322 722.772 153.528 723.566 147.29C724.375 141.035 727.105 134.619 731.757 128.037C736.356 121.531 741.388 116.725 746.852 113.623C752.331 110.498 757.939 109.085 763.672 109.382C769.401 109.647 774.891 111.636 780.144 115.351ZM774.379 123.263C769.734 119.978 764.992 118.876 760.165 119.957C755.366 121.03 750.828 124.051 746.548 129.022L776.82 150.415C779.221 147.019 780.788 143.694 781.526 140.434C782.27 137.206 782.102 134.128 781.014 131.197C779.926 128.266 777.714 125.622 774.379 123.263Z" fill="#9BB0C1"/>
<path d="M859.343 277.968C855.518 280.727 851.642 282.08 847.709 282.023C843.755 281.983 839.851 280.677 835.989 278.104C832.131 275.531 828.449 271.816 824.942 266.96C821.979 262.855 819.757 259.076 818.268 255.623C816.779 252.17 815.813 248.888 815.369 245.771L824.158 239.433C824.674 242.611 825.643 246.236 827.064 250.309C828.488 254.349 830.446 258.092 832.933 261.539C836.48 266.456 839.84 269.444 843.011 270.507C846.163 271.584 849.069 271.162 851.721 269.247C853.192 268.188 854.215 266.831 854.802 265.182C855.385 263.528 855.518 261.231 855.196 258.282C854.856 255.348 854.022 251.411 852.691 246.472C851.402 241.588 850.515 237.261 850.025 233.489C849.538 229.717 849.788 226.357 850.783 223.405C851.778 220.456 853.893 217.811 857.135 215.474C862.128 211.874 867.445 211.13 873.093 213.241C878.74 215.353 883.947 219.715 888.717 226.325C891.311 229.921 893.391 233.536 894.947 237.164C896.493 240.775 897.628 244.393 898.354 248.026L888.259 250.284C887.468 247.045 886.462 243.803 885.238 240.561C884.018 237.318 882.372 234.266 880.307 231.403C877.441 227.427 874.613 224.858 871.826 223.691C869.038 222.524 866.54 222.735 864.336 224.324C862.715 225.494 861.687 226.965 861.251 228.74C860.782 230.512 860.829 232.899 861.387 235.901C861.931 238.918 862.818 242.829 864.057 247.636C865.366 252.388 866.239 256.614 866.669 260.315C867.12 263.997 866.794 267.297 865.692 270.213C864.608 273.115 862.493 275.699 859.343 277.968Z" fill="#9BB0C1"/>
<path d="M891.709 381.985C892.278 383.706 893.001 385.424 893.888 387.138C894.794 388.845 895.606 390.191 896.322 391.175L887.654 394.038C886.666 393.043 885.611 391.483 884.494 389.357C883.363 387.26 882.454 385.177 881.771 383.101C880.583 379.505 880.114 375.969 880.357 372.491C880.586 369.041 881.932 365.856 884.394 362.939C886.885 360.037 890.921 357.668 896.501 355.825L936.728 342.545L933.486 332.718L938.911 330.928L946.687 339.367L962.87 339.052L965.089 345.765L949.242 350.997L955.838 370.98L947.07 373.872L940.475 353.892L900.512 367.083C896.3 368.475 893.509 370.508 892.142 373.185C890.803 375.876 890.66 378.811 891.709 381.985Z" fill="#9BB0C1"/>
<path d="M101.191 664L111.533 660.217L123.231 692.217L77.9151 708.786C74.4439 704.367 71.3841 699.75 68.7324 694.933C66.0877 690.138 63.5827 684.502 61.2136 678.024C57.7137 668.448 56.6902 659.673 58.1503 651.693C59.5889 643.723 63.2427 636.738 69.1081 630.733C74.9878 624.699 82.8036 619.9 92.5554 616.339C102.218 612.807 111.293 611.651 119.778 612.875C128.234 614.088 135.724 617.531 142.252 623.207C148.808 628.897 153.933 636.791 157.626 646.89C159.515 652.061 160.825 657.132 161.555 662.107C162.307 667.074 162.539 671.862 162.246 676.471L150.554 675.738C150.819 671.93 150.715 667.789 150.239 663.316C149.789 658.832 148.754 654.387 147.144 649.979C144.464 642.649 140.642 636.899 135.682 632.729C130.75 628.575 124.996 626.127 118.422 625.39C111.826 624.66 104.687 625.701 97.0072 628.51C89.6781 631.191 83.6123 634.755 78.8098 639.207C74.0287 643.651 71.0012 648.998 69.7272 655.25C68.421 661.487 69.287 668.752 72.3181 677.04C73.8033 681.098 75.2848 684.477 76.7628 687.175C78.2372 689.852 79.6937 692.249 81.1359 694.368L108.62 684.319L101.191 664Z" fill="#9BB0C1"/>
<path d="M208.21 770.822C212.4 775.578 214.966 780.581 215.9 785.82C216.852 791.048 216.254 796.234 214.1 801.384C211.931 806.512 208.331 811.296 203.296 815.73L197.806 820.569L164.368 782.614C158.216 788.279 154.856 794.09 154.279 800.042C153.707 805.996 155.85 811.733 160.717 817.258C163.82 820.78 166.898 823.607 169.957 825.743C172.996 827.894 176.42 829.862 180.221 831.648L172.251 838.673C168.526 836.941 165.155 834.958 162.135 832.725C159.118 830.492 155.933 827.479 152.587 823.682C147.967 818.436 144.953 812.857 143.551 806.941C142.134 801.011 142.549 795.053 144.803 789.077C147.09 783.1 151.302 777.41 157.436 772.003C163.502 766.66 169.603 763.081 175.737 761.263C181.874 759.478 187.736 759.406 193.326 761.042C198.934 762.663 203.894 765.923 208.21 770.822ZM200.669 777.281C196.829 772.926 192.413 770.722 187.41 770.665C182.379 770.611 177.179 772.525 171.818 776.419L196.69 804.651C199.861 801.856 202.194 798.95 203.683 795.933C205.175 792.884 205.733 789.792 205.357 786.661C204.964 783.508 203.4 780.384 200.669 777.281Z" fill="#9BB0C1"/>
<path d="M328.023 903.371C324.086 910.561 319.506 916 314.288 919.683C309.067 923.365 303.488 925.287 297.543 925.448C291.581 925.598 285.494 923.973 279.282 920.574C273.556 917.439 269.183 913.338 266.162 908.263C263.121 903.182 261.682 897.416 261.85 890.968C262.04 884.53 264.101 877.716 268.041 870.526C273.91 859.812 281.132 853.031 289.71 850.178C298.288 847.33 307.209 848.443 316.478 853.517C322.365 856.742 326.831 860.893 329.873 865.974C332.908 871.024 334.335 876.732 334.16 883.098C333.995 889.443 331.952 896.2 328.023 903.371ZM279.042 876.549C276.254 881.642 274.493 886.426 273.763 890.9C273.033 895.373 273.534 899.392 275.263 902.96C276.991 906.528 280.022 909.498 284.363 911.874C288.722 914.261 292.87 915.22 296.806 914.755C300.721 914.279 304.368 912.529 307.746 909.505C311.142 906.492 314.238 902.441 317.022 897.348C319.846 892.195 321.556 887.425 322.157 883.041C322.776 878.668 322.243 874.735 320.554 871.242C318.847 867.739 315.769 864.768 311.332 862.335C304.733 858.721 298.742 858.273 293.356 860.997C288.006 863.706 283.232 868.891 279.042 876.549Z" fill="#9BB0C1"/>
<path d="M502.936 926.826C501.977 934.756 500.03 941.835 497.099 948.051C494.172 954.27 490.336 959.363 485.601 963.328C480.863 967.293 475.209 969.941 468.635 971.276L489.097 998.495L471.458 996.359L455.243 972.038C454.689 971.97 454.113 971.924 453.504 971.899C452.899 971.874 452.33 971.827 451.801 971.763C444.121 970.832 437.604 968.814 432.251 965.711C426.872 962.605 422.581 958.611 419.385 953.73C416.186 948.852 414.053 943.198 412.98 936.778C411.885 930.351 411.799 923.347 412.718 915.761C413.932 905.73 416.644 897.169 420.845 890.073C425.025 882.998 430.723 877.77 437.941 874.388C445.162 870.981 453.891 869.897 464.129 871.135C473.881 872.316 481.836 875.397 487.995 880.379C494.158 885.335 498.488 891.78 500.989 899.71C503.512 907.666 504.16 916.705 502.936 926.826ZM425.705 917.471C424.71 925.68 424.997 932.895 426.557 939.122C428.121 945.324 431.109 950.305 435.522 954.07C439.93 957.856 445.789 960.189 453.096 961.077C460.475 961.971 466.709 961.098 471.802 958.464C476.891 955.852 480.934 951.722 483.933 946.072C486.936 940.399 488.936 933.46 489.931 925.251C491.423 912.937 490.031 902.978 485.758 895.373C481.486 887.768 473.838 883.295 462.816 881.96C455.415 881.066 449.124 881.903 443.949 884.483C438.774 887.038 434.688 891.129 431.689 896.754C428.693 902.358 426.7 909.262 425.705 917.471Z" fill="#9BB0C1"/>
<path d="M630.45 879.402L642.209 876.31L660.99 947.775L651.385 950.298L647.144 941.291L646.607 941.434C645.759 944.322 644.342 946.88 642.356 949.106C640.37 951.332 638.065 953.2 635.435 954.707C632.783 956.221 629.895 957.387 626.771 958.207C621.088 959.699 616.071 960.035 611.726 959.209C607.386 958.404 603.735 956.349 600.776 953.043C597.816 949.736 595.544 945.062 593.958 939.022L581.659 892.22L593.518 889.103L605.607 935.096C607.099 940.779 609.515 944.708 612.847 946.884C616.178 949.056 620.551 949.432 625.966 948.008C633.871 945.928 638.781 942.264 640.688 937.007C642.574 931.757 642.42 924.954 640.223 916.598L630.45 879.402Z" fill="#9BB0C1"/>
<path d="M736.589 820.676C741.763 817.011 747.006 814.993 752.32 814.617C757.62 814.224 762.713 815.369 767.605 818.056C772.475 820.755 776.848 824.845 780.728 830.32L784.954 836.293L743.667 865.52C748.649 872.237 754.07 876.195 759.932 877.397C765.79 878.6 771.724 877.072 777.732 872.82C781.561 870.108 784.7 867.349 787.148 864.532C789.61 861.737 791.929 858.545 794.108 854.952L800.249 863.623C798.13 867.145 795.804 870.287 793.264 873.053C790.726 875.819 787.391 878.664 783.258 881.588C777.553 885.628 771.684 888.033 765.654 888.799C759.606 889.579 753.727 888.534 748.022 885.661C742.322 882.755 737.107 877.963 732.384 871.289C727.714 864.693 724.801 858.245 723.645 851.95C722.521 845.659 723.069 839.822 725.291 834.439C727.499 829.036 731.264 824.448 736.589 820.676ZM742.214 828.86C737.476 832.217 734.814 836.376 734.23 841.339C733.643 846.338 735 851.71 738.299 857.457L769.008 835.713C766.563 832.264 763.922 829.637 761.081 827.837C758.207 826.03 755.194 825.146 752.038 825.192C748.863 825.25 745.589 826.473 742.214 828.86Z" fill="#9BB0C1"/>
<path d="M886.287 739.198C890.166 741.996 892.718 745.31 893.935 749.139C895.133 752.954 895.112 757.134 893.87 761.679C892.646 766.234 890.259 770.972 886.717 775.889C883.7 780.073 880.765 783.426 877.913 785.949C875.061 788.475 872.205 790.469 869.349 791.929L860.392 785.469C863.309 783.966 866.497 781.869 869.954 779.178C873.418 776.519 876.41 773.442 878.94 769.934C882.54 764.942 884.337 760.741 884.333 757.334C884.333 753.956 882.998 751.304 880.321 749.372C878.833 748.298 877.194 747.733 875.404 747.675C873.619 747.647 871.368 748.273 868.648 749.543C865.921 750.785 862.385 752.846 858.044 755.727C853.757 758.537 849.878 760.777 846.407 762.455C842.921 764.151 839.597 764.989 836.433 764.971C833.269 764.953 830.049 763.758 826.771 761.396C821.703 757.742 819.281 752.843 819.499 746.702C819.724 740.593 822.254 734.184 827.089 727.477C829.723 723.824 832.547 720.66 835.56 717.994C838.541 715.332 841.651 713.081 844.896 711.241L850.3 720.249C847.444 722.027 844.639 724.028 841.89 726.254C839.171 728.476 836.766 731.035 834.672 733.933C831.766 737.966 830.195 741.513 829.959 744.58C829.723 747.647 830.729 749.987 832.969 751.605C834.608 752.786 836.365 753.308 838.24 753.172C840.083 753.04 842.363 752.22 845.079 750.717C847.817 749.225 851.299 747.113 855.532 744.379C859.676 741.613 863.462 739.419 866.894 737.798C870.312 736.195 873.601 735.447 876.761 735.551C879.91 735.673 883.084 736.889 886.287 739.198Z" fill="#9BB0C1"/>
<path d="M945.166 634.361C945.742 632.618 946.179 630.783 946.48 628.85C946.777 626.918 946.938 625.322 946.966 624.058L955.73 626.961C955.938 628.399 955.866 630.321 955.509 632.722C955.161 635.102 954.639 637.339 953.948 639.436C952.728 643.118 950.967 646.289 948.666 648.951C946.379 651.642 943.341 653.428 939.555 654.301C935.79 655.182 931.074 654.684 925.405 652.809L884.562 639.282L881.266 649.238L875.744 647.409L874.52 635.811L861.125 626.273L863.373 619.496L879.477 624.828L886.201 604.522L895.098 607.468L888.373 627.773L928.955 641.214C933.232 642.631 936.735 642.653 939.462 641.279C942.192 639.908 944.093 637.6 945.166 634.361Z" fill="#9BB0C1"/>
<path d="M26.2681 499.228C26.2681 478.458 43.1056 461.62 63.876 461.62C84.6464 461.62 101.484 478.458 101.484 499.228C101.484 519.999 84.6464 536.836 63.876 536.836C43.1056 536.836 26.2681 519.999 26.2681 499.228Z" fill="#9BB0C1"/>
<path d="M898.78 499.228C898.78 478.458 915.617 461.62 936.391 461.62C957.162 461.62 973.999 478.458 973.999 499.228C973.999 519.999 957.162 536.836 936.391 536.836C915.621 536.836 898.783 519.999 898.78 499.228Z" fill="#9BB0C1"/>
</g>
</g>
</g>
</g>
</g>
<defs>
<clipPath id="clip0_149_130109">
<rect width="995.827" height="1084.79" fill="white" transform="translate(2.21973 2.66687)"/>
</clipPath>
<clipPath id="clip1_149_130109">
<rect width="995.827" height="1084.79" fill="white" transform="translate(2.21973 2.66687)"/>
</clipPath>
<clipPath id="clip2_149_130109">
<rect width="995.827" height="1084.79" fill="white" transform="translate(2.21973 2.66687)"/>
</clipPath>
<clipPath id="clip3_149_130109">
<rect width="995.827" height="1084.79" fill="white" transform="translate(2.21973 2.66687)"/>
</clipPath>
<clipPath id="clip4_149_130109">
<rect width="995.827" height="995.827" fill="white" transform="translate(2.21973 2.66687)"/>
</clipPath>
<clipPath id="clip5_149_130109">
<rect width="352.078" height="218.355" fill="white" transform="translate(324.094 391.403)"/>
</clipPath>
<clipPath id="clip6_149_130109">
<rect width="352.078" height="218.355" fill="white" transform="translate(324.094 391.403)"/>
</clipPath>
</defs>
</svg>
