<svg width="180" height="150" fill="none" xmlns="http://www.w3.org/2000/svg"><path d="m40.2 44.1.2-.4-.7-.4v.8h.5Zm2.4 1.3.5.1.1-.4-.3-.1-.3.4ZM40 48.8l.5.2v-.2H40ZM36.6 57l-.5-.2v.1l.5.1Zm-.6 4.5h-.5.5Zm.6 6.6H36v.1l.5-.1Zm2.8 9.4-.4.1v.2l.3.1.1-.4Zm2.6 1 .4-.4-.1-.1h-.1l-.2.4ZM45 82l.5-.2v-.2l-.5.4Zm.5 1.6-.5.1v.3h.4v-.4Zm4.5.6.3-.4h-.2v.4Zm7 4.4-.2.5h.2v-.5Zm6.3.6v.5h.4l.1-.4h-.5Zm.1-1v-.5h-.4v.4l.4.1Zm3.1.2.4-.4-.2-.1h-.1v.5Zm2.8 2.4.4-.2v-.1l-.1-.1-.3.4Zm1.2 3.1-.5.2v.2l.3.1.2-.5Zm3.3 1.3-.2.5.3.1.2-.3-.3-.3Zm1.3-1.5.1-.5H75l-.1.2.3.3Zm2.1.3.4-.3-.1-.2h-.2v.5Zm3.7 4.8.5-.3-.5.3Zm1.7 3.3-.4.2.1.3h.3v-.5Zm4 .5-.1.5.7.1-.2-.7-.5.1Zm-1-3.2-.5-.3-.1.2v.2l.5-.1Zm1.9-3.2-.3-.5v.1l-.1.1.4.3Zm3.8-2-.1-.5h-.1l.2.5Zm7-1.6.3-.3-.2-.2h-.3l.2.5Zm1 1.1-.4.4.2.2h.2v-.6Zm3.8-.7v.5h.7l-.3-.7-.4.2Zm-1.3-2.5-.1-.5-.6.2.3.5.4-.2Zm3.6-1.2V89h-.1l.1.5Zm5.3.2v.5h.1v-.5Zm2.4-.7.3-.4-.2-.1h-.3l.2.5Zm2.6 2 .5-.1v-.2h-.2l-.3.3Zm.7 3h-.5v.2l.5-.3Zm4.9 5.5-.4.4.3.3.4-.3-.3-.4Zm1-.9.4.4.1-.1v-.2h-.5Zm.4-3.3.5.1v-.2l-.5.1Zm-4.6-8.5h-.5V87l.5-.3Zm0-3.2-.4-.2v.2h.4Zm.9-2-.4-.4v.1l.4.2Zm6.6-8.3.4.3v-.1l-.4-.2Zm1-3 .6.2v-.3l-.1-.2-.4.4Zm-2.4-2.6-.5.1v.1l.1.1.4-.3Zm-1.5-4.4-.3-.4-.3.2.1.3.5-.1Zm.8-.7.5-.2-.2-.6-.6.4.3.4Zm1.7 4.5-.5.2.3.6.5-.4-.3-.4Zm.4-.4.4.4.1-.1v-.2h-.5Zm.8-7.4-.4-.4v.2l-.1.1h.5Zm6-5.8.3.3.4-.5-.5-.3-.3.5Zm-2.9-1.6h-.5v.3l.3.2.2-.5Zm.4-2.6-.4-.3V49.2h.4Zm4-5 .4.3.4-.5-.5-.3-.3.5Zm-2.2-1.3-.4.3v.1h.2l.2-.4Zm-1.3-2.7.4-.2-.2-.5-.5.2.3.5Zm-1.8.9v.5H129l-.3-.5Zm-.9-.3.2-.4-.6-.2v.6h.4Zm-.4 5.8.3.5.2-.2v-.3h-.5Zm-6.6 3.1-.2-.4h-.2v.2l.4.2Zm-1 2.2-.4-.2v.5l.5-.3Zm.9 1.7.2.5.4-.3-.2-.4-.4.2Zm-2.3 1.2v.5h.2l-.2-.5Zm-2.2.6-.2-.5h-.4v.5h.6Zm.1 1.4.3.4.2-.2v-.3l-.5.1Zm-5.4 4.8-.2.4.3.1.2-.2-.3-.3Zm-1.7-.5-.5-.2-.3.5.6.2.2-.5Zm1.2-2.4.4.2.1-.2v-.2l-.5.2Zm-1.2-2.9.5-.2v-.2h-.3l-.2.4Zm-.8-.2.2-.5-.5-.1-.1.4.4.2Zm-.4 1.1-.3.5.5.2.2-.5-.4-.2Zm-.8-.4-.5-.1-.1.4.4.2.2-.5Zm.8-2.1.5.1v-.2l-.1-.2-.4.3Zm-1.3-1.6.4-.3-.1-.1h-.2l-.1.4Zm-1.5-.2.1-.5h-.3l-.2.2.4.3Zm-2.4 3.9-.5-.3-.1.2v.2l.6-.1Zm1.3 4 .4.3.1-.2v-.2l-.5.1Zm-1.2 2.3-.2.4.4.2.2-.4-.4-.2Zm-1.3-.5-.5.2v.2l.3.1.2-.5Zm-1.7-6.4-.4-.3-.1.2v.2h.5Zm2.4-2.8-.2-.5h-.1l-.1.1.4.4Zm3.3-1.5.2.5.4-.3-.2-.4-.4.2Zm-.4-.8.5-.2-.2-.3h-.4l.1.5Zm-3.4.9-.4.3.2.2h.3l-.1-.5ZM99.2 49l.4-.4-.4-.3-.3.3.3.4Zm-2.8 2.7v.5h.2l.1-.1-.3-.4Zm-3.3-.1-.3-.4-1 .8h1.3v-.4Zm3.6-3 .3.4 1-1h-1.4v.6Zm-3.5 0-.2.5h.2v-.5ZM86.8 47l.2-.4h-.2v.4Zm-7.7.8v.5-.5ZM62 47v.5-.5Zm-18.2-3.9v-.4l-.7-.2.2.8.5-.2Zm.4 2 .5.2V45l-.5.1Zm-.9 2.3-.2.4.5.2.2-.4-.5-.2Zm-1-.5-.4-.1-.2.4.4.2.2-.5Zm-8.8 42.3-.2-.4-.6.3.5.5.3-.4Zm4.6-2 .2-.5h-.4l.2.5ZM35.2 91l.3.4.5-.3-.4-.4-.4.3ZM34 92l-.2.4.3.1.2-.1-.3-.4Zm-1.6-.7.3-.5-.4-.1-.2.3.3.3Zm-.9 1-.4-.3-.3.3.4.4.3-.4Zm.9 1-.4.3.2.2h.2v-.5Zm1.7.1.4.2.4-.6-.8-.1v.5Zm-.6 1.2v.5h.4v-.2l-.4-.3Zm-2.3.4v-.5h-.3l-.1.2.4.3ZM30 96.8l-.5-.3-.2.3.3.3.4-.3Zm3.9 3.5.1.5 1-.3-.8-.6-.3.4Zm-3.8 1-.1-.4h-.3v.4h.4Zm0 .7h-.6v.5h.5v-.5Zm3.4 0v.5H33.8l-.3-.5Zm2.8-2 .3.5-.3-.4Zm1.1-.9-.1-.5h-.1l-.1.2.3.3Zm1.7-.4.1.5h.2l.1-.3-.4-.2Zm.4-1v-.5h-.4l-.1.3.5.2Zm1 .1.4-.3-.1-.1h-.2v.4ZM42 99l-.3.4.2.2h.3L42 99Zm1.1-.2.4-.4-.2-.1H43l.1.5Zm5.7 5-.4.4.5.4.3-.5-.4-.3Zm.9-1.4.4.3.2-.4-.3-.3-.3.4Zm-4.3-3.7.3-.3-.3.3ZM42.8 97h-.5v.2l.2.2.3-.4Zm.2-8.5h.5V88H43v.4Zm-2.5 0-.2.4h.2v-.5Zm17.8 11.3h.5V99h-.6v.6Zm-1.3.2v-.5h-.3l-.1.3.4.2Zm1.5 1.5v.5h.6l-.1-.6h-.5Zm-2.1-.2-.4-.2-.4.6h.8v-.4Zm5.5-.5.4-.3-.5-.5-.3.5.4.3Zm1.8 1.9.3.4.6-.3-.5-.5-.4.4Zm-2.6-.8-.4-.3-.2.3.3.3.3-.3Zm1.2 1.5-.4.3.3.4.4-.2-.3-.5Zm4-1 .2-.5-.2-.1h-.2l.1.5Zm-2.1.6-.1-.5-.8.2.5.6.4-.3Zm4.6 1.1.2.5.8-.4-.7-.5-.3.4Zm-2.6 1.2-.4.4.2.3.4-.2-.2-.5Zm2.6 0 .3-.5-.8-.5v1h.5Zm3.8 2.2.4.4.4-.5-.5-.3-.3.4Zm-3.5 2h-.5v.4l.4.1.1-.5Zm1.4.4-.1.5h.3l.2-.2-.4-.3ZM39.9 44.6l2.5 1.2.5-.8-2.5-1.3-.5.9Zm.6 4.2.2-4.7h-1l-.2 4.7h1Zm-3.4 8.4 3.4-8.2-1-.4-3.4 8.2 1 .4Zm-.6 4.4.6-4.5-1-.1-.6 4.5 1 .1ZM37 68l-.6-6.5h-1l.6 6.6h1Zm2.8 9.3L37.1 68l-1 .3 2.9 9.4 1-.3Zm2.3.6-2.6-1-.3 1 2.5 1 .4-1Zm3.3 3.8-3.1-3.6-.8.6 3.2 3.7.7-.7Zm.5 1.9-.4-1.7-1 .3.5 1.6 1-.2Zm4.2.2-4.6-.6-.1 1 4.6.6v-1Zm7.3 4.5L50.4 84l-.5.8 7 4.5.6-.9Zm6 .5-6.3-.6v1l6.2.6v-1Zm-.5-.6v1l.9.2.1-1-1-.2Zm3.7-.2-3.1-.2-.1 1 3.1.2v-1Zm3 2.5L67 88.1l-.7.7 2.7 2.4.7-.7Zm1.3 3.4-1.2-3.2-1 .3 1.3 3.2 1-.3Zm3 1-3.2-1.3-.4 1 3.3 1.2.3-1Zm.9-1.4L73.5 95l.7.6 1.4-1.5-.7-.6Zm2.5 0-2.1-.2-.1 1 2 .3.2-1Zm4 5-3.7-4.7-.8.6 3.7 4.8.8-.6Zm1.8 3.5-1.7-3.4-1 .5 1.8 3.3.9-.4Zm3.5.2-4-.5v1l3.9.5v-1Zm-1.5-2.6 1 3.3.9-.3-1-3.3-1 .3Zm2-3.6-2 3.2.9.5 2-3.2-1-.5Zm4-2.2-3.9 2 .5 1 3.8-2-.4-1Zm7-1.5-6.9 1.5.2 1 7-1.6-.3-1Zm1.5 1.2-1-1-.7.6 1 1 .7-.6Zm3.4-.9-3.8.7.1 1 3.9-.7-.2-1Zm-1.6-1.8 1.3 2.6.8-.5-1.3-2.6-.8.5Zm3.9-1.8-3.6 1 .2 1 3.7-1-.3-1Zm5.4.1-5.3-.2v1l5.3.2v-1Zm2.2-.7-2.3.7.2 1 2.4-.7-.3-1Zm3 2.1-2.5-2-.6.8 2.6 2 .6-.8Zm1 3.2-.7-2.9-1 .2.7 3 1-.3Zm4.8 5.4-5-5.6-.7.7 5 5.6.7-.7Zm.3-1-1 1 .6.7 1-1-.6-.7Zm.2-3-.3 3.4h1l.3-3.2-1-.1Zm-4.6-8.1 4.7 8.5.9-.5-4.7-8.5-.9.5Zm0-3.5v3.2h1v-3.2h-1Zm1-2.3-1 2 1 .5.8-2-.9-.5Zm6.6-8.3-6.6 8.2.8.7 6.6-8.3-.8-.6Zm1-2.8-1.1 3 1 .3 1-3-.9-.3Zm-2.4-2.2 2.5 2.7.8-.7-2.5-2.7-.8.7Zm-1.6-4.6 1.5 4.4 1-.3-1.5-4.4-1 .3Zm1-1.2-.8.7.6.7.8-.6-.6-.8Zm2.5 4.7-1.7-4.5-1 .4 1.7 4.5 1-.4Zm-.4-.5-.4.3.6.8.5-.4-.7-.7Zm.6-7.2-.8 7.5h1l.8-7.4h-1Zm6-6.1-5.9 5.8.7.7 6-5.8-.7-.7Zm-2.6-.7 2.8 1.5.5-.9-2.8-1.5-.5.9Zm.1-3.1-.4 2.5 1 .2.4-2.6-1-.1Zm4.2-5.3-4 5 .7.6 4-5-.7-.6Zm-2.1-.5 2.2 1.2.5-.9-2.2-1.2-.5.9Zm-1.6-3 1.4 2.8.9-.5-1.4-2.7-.9.4Zm-1 1.1 1.7-.9-.5-.9-1.7 1 .5.8Zm-1.3-.2 1 .3.2-1-1-.2-.2 1Zm.2 5.3.4-5.7h-1l-.4 5.7h1Zm-6.9 3.6 6.7-3.1-.5-1-6.6 3.2.4.9Zm-.7 2 1-2.3-1-.4-.9 2.2 1 .4Zm.8 1.2-.8-1.7-.9.5.8 1.6 1-.4Zm-2.5 1.9 2.3-1.2-.5-1-2.3 1.3.5.9Zm-2.3.5 2.2-.5-.2-1-2.3.6.3 1Zm.5 1-.1-1.5-1 .1.1 1.5 1-.2Zm-5.6 5.1 5.4-4.7-.6-.8-5.5 4.8.7.7Zm-2.2-.3 1.7.4.3-1-1.7-.4-.3 1Zm1-3.1-1.3 2.4 1 .4 1.1-2.4-.9-.4Zm-1.2-2.5 1.1 2.9 1-.4-1.2-2.9-1 .4Zm-.5 0 .8.3.3-1-.8-.2-.3 1Zm.1 1 .5-1.2-1-.4-.4 1.1 1 .4Zm-1.4-.2.7.4.5-1-.8-.3-.4.9Zm.5-2.8-.8 2.2 1 .3.8-2.2-1-.3Zm-1.2-1 1.3 1.5.8-.6-1.3-1.6-.8.6Zm-1.1-.1 1.4.2.2-1-1.5-.2-.1 1Zm-2 3.6 2.5-3.8-.9-.6-2.5 3.9.9.5Zm1.4 3.7-1.4-4.1-1 .3 1.4 4 1-.2Zm-1.3 2.6 1.2-2.2-.8-.5-1.2 2.2.8.5Zm-1.9-.2 1.3.4.4-.9-1.4-.4-.3 1Zm-2-6.8 1.7 6.5 1-.3-1.7-6.4-1 .2Zm2.5-3.3-2.4 2.9.8.6 2.4-2.8-.8-.7Zm3.5-1.6-3.3 1.5.4 1 3.3-1.5-.4-1Zm-.6 0 .3.7 1-.4-.4-.8-1 .5Zm-3 1 3.5-.8-.2-1-3.4.9.2 1ZM99 49.5l2.5 2.4.7-.7-2.5-2.4-.7.7Zm-2.2 2.8 2.9-2.8-.7-.7-2.8 2.7.6.8Zm-3.6 0h3.3v-1h-3.2v1Zm3.2-3.9-3.5 3 .7.8 3.5-3-.7-.8Zm-3.1 1 3.5-.1v-1h-3.5v1Zm-6.5-1.8 6.3 1.7.3-1-6.3-1.6-.3 1Zm-7.5.8 7.7-.8-.1-1-7.7.8v1Zm-17.3-.8 17.2.8v-1L62 46.5v1Zm-18.3-3.9 18.2 4 .2-1-18.2-4-.2 1Zm1 1.4-.5-2-1 .3.5 2 1-.3Zm-1 2.6 1-2.3-1-.3-.8 2.2.9.4Zm-1.6-.2 1 .4.4-.9-1-.4-.4.9Zm.2-2.1-.4 1.5 1 .3.3-1.6-1-.2Zm-8.6 44.4 4.6-2-.4-1-4.6 2 .4 1Zm2 1-1.8-1.8-.7.7 1.8 1.8.7-.7Zm-1.3 1.6 1.2-.9-.5-.8-1.3.9.6.8Zm-2-.7 1.5.7.4-.9-1.5-.7-.5 1Zm-.4 1 1-1-.8-.7-1 1 .8.7Zm.9.2-1-1-.6.8.8 1 .8-.8Zm1.3 0-1.7-.1v1l1.7.1v-1Zm-.1 2 .5-1.3-.9-.4-.5 1.2.9.5Zm-2.7.6 2.3-.4-.2-1-2.3.4.2 1Zm-1 1.6 1.3-1.8-.8-.6-1.3 1.9.9.5Zm4 2.9-4-3.5-.7.7 4 3.6.6-.8Zm-4 2 3.7-1.1-.2-1-3.8 1 .3 1Zm.2.1.1-.6-1-.1v.6l1 .1Zm3-.5h-3.4v1h3.4v-1Zm2.5-1.8-2.7 2 .5.7 2.8-2-.6-.7Zm1-1-1 1 .7.8 1-1-.6-.7Zm2-.5-1.7.4.2 1 1.7-.4-.3-1Zm0-.7-.4 1 1 .4.3-1-1-.4Zm1.6-.2h-1.1l-.1 1h1.1l.1-1Zm1.8 1.4-1.5-1.2-.6.7 1.4 1.2.7-.7Zm.6-.4-1 .3.2 1 1-.3-.2-1Zm6 5.1-5.5-5-.7.8 5.6 5 .7-.8Zm.2-1.3-.9 1.4.9.6.9-1.4-.9-.6Zm-4.2-3 4.3 3.7.7-.8-4.3-3.6-.7.7Zm-2.5-1.8L45 99l.6-.8-2.6-1.8-.6.8Zm0-8.9-.2 8.5h1l.2-8.4h-1Zm-2 .4 2.5.1v-1h-2.5v1Zm-2.7-1.2 2.5 1.2.4-1-2.5-1-.4.8Zm20.4 11.6-1.2.2.1 1 1.3-.2-.2-1Zm.8 2.1-.2-1.7-1 .2.2 1.6 1-.1Zm-2.6.4 2 .2.1-1-2-.2-.1 1Zm.2-2L56 101l.8.4.7-1.3-.9-.4Zm5 1.4 1.8 1.8.7-.7-1.8-1.8-.7.7Zm0 1 .7-1.1-.8-.6-.8 1.1.9.6Zm1.1 1-1.2-1.6-.7.6 1.1 1.5.8-.6Zm.8-1-1.4.8.5.9 1.4-.8-.5-.9Zm2.6-.4-2 .7.3 1 2-.7-.3-1Zm3 1.9-2.6-1.8-.6.8 2.7 1.8.5-.8Zm-2.7 2 2.6-1.1-.4-1-2.6 1.3.4.9Zm-2.6-2.4 2 2.4.8-.7-2-2.4-.8.7Zm4.8 2.3 3.8 2.4.5-.9-3.8-2.3-.5.8Zm1 4-.3-4.4h-1l.3 4.4h1Zm1-.2-1.4-.3-.2 1 1.4.3.2-1Zm1.7-2.2-2.2 2.4.8.6 2-2.3-.6-.7Z" fill="#F6995C"/><g filter="url(#a)"><path d="M69.2 83.7v.1H69v-.2H69l-.4-.4a4 4 0 0 0-.4-.5l-.2-.2H68l-.2.2h-.1l-.1-.2v.8h-.1v-1.1h-.2a10.5 10.5 0 0 1-1.6-.2h-.3l-.5-.1A8 8 0 0 1 63 81l-.3-.2-.2-.1-.1-.2a5 5 0 0 1-1-1.4 6 6 0 0 1-.4-2.4V68.5c0-.3.2-.5.5-.5h3.9l.4.1.1.1v7.6l.1.8c0 .2 0 .5.2.8 0 .2.2.4.4.6h.2l.2.1a2 2 0 0 0 1 0h.1l.2-.1.3-.3.2-.4v-.2l.1-.7V68.4l.1-.2.3-.2h4.2c.1 0 .2 0 .3.2l.1.3V78a565.7 565.7 0 0 0-.6 1.5s0 .2-.2.3c0 .2-.2.3-.3.4l-.1.2h-.1l-.2.2-.1.1-.1.1-.1.3-.1.3a3.3 3.3 0 0 1-.4.7l-.2.3h-.1V82l-.2.4-.1.1-.1.1-.1.2v.5l-.1.1V83l-.1-.3v-.4h-.1v-.1a29.8 29.8 0 0 1-.2-.1V82H70l-.1.1-.1.3a7 7 0 0 1-.4.9l-.1.2h-.2Zm18.6-3.9-.3.4-.2.2-.2.1v.1h-.2a119.3 119.3 0 0 1-.4.8l-.2.2v.1h-.1v.7a27 27 0 0 1-.2 2v-1a24.4 24.4 0 0 0-.1-1.8h-.1v-.1.1l-.1.2v.1l-.2.2v.1h-.1l-.3.8-.1.4-.1.2v-1.2h-.1l-.1.3-.1.2a3.6 3.6 0 0 1-.6.9l-.2.1-.1.2h-.2l-.3-.1a1.7 1.7 0 0 1-.3-.3l-.3-.5-.3-.4v-.2l-.2-.2v-.1h-.2v.1l-.1.1v-.1l-.1-.2c-1.5 0-2.7-.2-3.6-.7a5.3 5.3 0 0 1-2.4-1.9l-.1-.3-.1-.2-.1-.3a13 13 0 0 0-.1-.7v-.3l.2-.2h.2l.1-.1h3.3a3 3 0 0 1 .7 0l.3.1.2.2.3.2a2.8 2.8 0 0 0 .6.2l.7.1a5.1 5.1 0 0 0 .8 0l.2-.1h.1c.3-.2.4-.3.4-.5l-.1-.2-.2-.2H83a4.5 4.5 0 0 0-.4.1H81.9l-.2.1-.2.1-.4.2h-.4l-.2-.2-.2-.1a3.5 3.5 0 0 1-.7-.5l-.5-.4-.1-.2h-.2v.1l-.3.2c0 .1 0 .2-.2.2l-.2.1-.1-.1-.1-.2-.1-.3-.1-.3-.2-.2-.2-.1v-.1l-.2-.2H77a4.1 4.1 0 0 1-.9-1v-.2a119.3 119.3 0 0 0-.4-1 5.7 5.7 0 0 1 0-2 224.9 224.9 0 0 0 .4-.8c.4-.8 1-1.4 2-2 1-.4 2.1-.7 3.5-.7h.1c1.1 0 2 .2 2.9.5a6 6 0 0 1 2 1.2 4.4 4.4 0 0 1 1.3 1.7v.3l.1.2v.3c0 .1 0 .2-.2.3h-.1v.1H87.3v.1l-.3.1-.3.1h-.3a1 1 0 0 0-.4 0H85.5l-.2-.1-.2-.1h-.2l-.4.1a4 4 0 0 1-.4 0l-.1.1-.2.1h-.5a.8.8 0 0 1-.3-.2 2 2 0 0 0-.3-.4l-.1-.2h-.7l-.1-.1h-.2v-.1h-.4v.1H80.9v.1l-.1.1v.2c0 .1 0 .3.3.4h.1l.4.2.9.2h.6l.4.1h.5c2 .4 3.4 1.1 4 2.2l.2.4v.2l.2.3v.5l.1.2v.5c0 .5 0 1-.2 1.4l-.4.7-.1.2Zm15.8 1.3.1.3v.4h-.1v.1l-.1.1V82.3h-.1v.2l-.1.1V82.3l-.2.2-.2.2a14 14 0 0 0-1 1.9l-.2.1-.1.4v.4l-.1-.1v-.7a.7.7 0 0 1-.2-.2l-.1-.3-.1-.3-.3-.3h-.1l-.2.2h.2v.2s0 .2-.2.3V84a11.4 11.4 0 0 1-.1-.5l-.2-.2-.1-.3-.1-.2v-.1l-.1-.1-.1-.1-.3.1.3-.1c-.3 0-.3.2-.3.2l.2-.1v-.1l-.2.1-.1.3v.1l-.1-.3v-.4a3.3 3.3 0 0 1-.3-.4l-.1-.1a29.8 29.8 0 0 1-.6-1.5v.1l-.1.1-.1.2-.2.2a7.9 7.9 0 0 0-.5 1.3 7 7 0 0 1-.4.9 566.1 566.1 0 0 0-.5.9h-.2l-.1-.3a294 294 0 0 1-.7-2.6v-.2a29.8 29.8 0 0 1-.2-.3l-.1.4v.5L95 81l-.1-.3.1-.1v-.3l-.1.1-.2.2-.1.1a56.7 56.7 0 0 0-.3 0l-.1-.3-.2-.2-.1-.3v.5l-.1.1a224.9 224.9 0 0 0-.2.5l-.1.3v.2l-.1.1-.2.2-.1.2a4.6 4.6 0 0 1-.3.7v.3a294 294 0 0 0-.2.4v.5l-.2.5-.1.4-.1.3-.1.2v.2l-.2.1-.2.1a653.3 653.3 0 0 0-.2.5v-.5l-.1-.1-.2-.3h-.1v-.1L91 85l-.2-.2a19 19 0 0 0-1-2.2h-.1l-.1-.2-.1-.1-.2.1v.3l-.2-.1v-.1c0 .3-.1.3 0 .2L89 82h-.1l-.2-.2V81l.2-.2v-.2l.7-1.9a30.4 30.4 0 0 0 .4-1.4V77a119.3 119.3 0 0 1 .3-.4l1-3a27.8 27.8 0 0 0 .6-2l.2-.4.4-.8.3-1 .3-.8c0-.2.1-.3.3-.5l.7-.2h4.7l.1.2.3.2a2 2 0 0 1 .1.4v.2l.1.1v.1l.2.5v.2l.2.3v.3l.1.1v.1l.1.1.3.5.3.9v.2l.3.6.2.7.2.6.2.7 1 2.8.2.6a13.2 13.2 0 0 1 .4 1.3l.4 1.2.1.2Zm-7.4-8.5v.1l-.2.4v.3l-.5 1.5v.2l-.1.1a2.4 2.4 0 0 1-.2.6V76l-.1.1h2.2v-.1l-.1-.2v-.2l-.1-.2a10 10 0 0 1-.3-1l-.4-1.1-.1-.5a4 4 0 0 0-.1-.2Z" fill="#51829B"/></g><defs><filter id="a" x="41" y="49.8" width="82.8" height="59.1" filterUnits="userSpaceOnUse" color-interpolation-filters="sRGB"><feFlood flood-opacity="0" result="BackgroundImageFix"/><feColorMatrix in="SourceAlpha" values="0 0 0 0 0 0 0 0 0 0 0 0 0 0 0 0 0 0 127 0" result="hardAlpha"/><feOffset dy="2"/><feGaussianBlur stdDeviation="10"/><feComposite in2="hardAlpha" operator="out"/><feColorMatrix values="0 0 0 0 0.960784 0 0 0 0 0.929412 0 0 0 0 0.929412 0 0 0 0.4 0"/><feBlend in2="BackgroundImageFix" result="effect1_dropShadow_116_130196"/><feBlend in="SourceGraphic" in2="effect1_dropShadow_116_130196" result="shape"/></filter></defs></svg>