<svg width="180" height="150" fill="none" xmlns="http://www.w3.org/2000/svg"><path d="M75.5 25.4 75 25l-.1.2.5.2Zm2.8-3.4.1-.5h-.3l-.2.2.4.3ZM75 29.2l.3.4.2-.1v-.2l-.5-.1Zm-3.2 2.4-.3-.4-.2.2v.2h.5Zm.5 7.7.1.5h.5v-.5h-.6Zm-1.4.3-.1-.5h-.3l-.1.3.5.2ZM68.4 46l-.5-.2v.2h.5Zm.4 3.9.4.1v-.2h-.4Zm-1.5 4-.5-.1V54.2l.5-.1Zm1.6 5.3h.5v-.1h-.5Zm.4 3.3.4.3V62.6h-.4Zm-1.7 3.2-.4-.2-.1.2v.2l.5-.2Zm.7 2.7.4.3.2-.2-.1-.2-.5.1Zm-1.7 2.7-.4-.3-.1.2v.2l.5-.1Zm1 4.8.2.4.3-.2V76h-.6Zm-1.4.8-.2-.5-.2.2v.2h.4Zm-.5 3.6h-.5.5Zm.1 6.5h-.5.5Zm.8 7.3h-.5v.5h.5v-.5Zm1.7.2h.5v-.5h-.5v.5Zm0 1 .4.4.1-.2v-.2h-.5Zm-.9 1L67 96l-.2.3.2.3.4-.2Zm.4.7h.4V96.8l-.4.3Zm-.5 3.2-.5-.1h.5Zm-.4 3.9.4.2v-.2H67Zm-.8 1.7-.5-.2v.4l.5-.2Zm.5 1.6.4.2.1-.2v-.2l-.5.2Zm-1.9 4-.4-.1V111.7l.4-.1Zm.7 4.3-.5.1v.7l.7-.3-.2-.5Zm1.6-.8.5-.2-.2-.6-.6.3.3.5Zm1 4.3h-.4v.5h.5v-.5Zm3.7-.3.2-.5h-.2v.5Zm3.5 1.2-.2.5.4.1.2-.3-.4-.3Zm.6-.8.4.3.2-.3-.3-.3-.3.3Zm-1.3-1.4H74v.2l.1.1.4-.3Zm-.5-4-.3-.4-.2.2v.3h.5Zm2.4-2 .4.5v-.1l.1-.2-.5-.1Zm.7-3.1-.3-.4-.1.1v.2h.4Zm3.2-3 .4.3v-.1l.1-.2h-.5Zm.7-2.5.5.1V103.2l-.5.2Zm-.4-1 .4-.3-.1-.2h-.3v.5Zm-1.8-.1-.3.4.1.1h.2v-.5Zm-2.2-2h-.5v.2l.2.2.3-.4ZM77 98l-.4-.4v.2l-.1.1h.5Zm1.4-1.7-.2-.5H78l-.1.2.4.3Zm2.9-.7v.5l.4-.1v-.3l-.4-.1Zm.7-2.3.4.2v-.2H82Zm-.2-2-.3-.4-.2.1v.3h.5Zm4-3.3.4.4.2-.1V88h-.5Zm-.3-2.2h.5l-.1-.7-.6.2.2.5Zm-2 .7v.5h.2l-.2-.5Zm-1.2 0h-.5v.4h.4v-.5Zm-.1-4.2v-.5h-.6v.5h.6Zm5.2.9v.5H87.5l-.3-.5Zm1.8-1 .3.4.4-.2-.2-.5-.5.3Zm-.7-1.5-.5-.2v.5l.5-.3Zm1.3-2.5.4.3V78.2h-.4Zm-.3-1.6V76h-.5v.5h.5Zm1.6-.3v-.5.5Zm6-.4v.5h.1l-.2-.5Zm4.3-2.4.2.4h.1v-.1l-.3-.3Zm3-3.7.3.3.3-.4-.4-.3-.3.4Zm-1.7-1.4-.4-.2-.2.3.3.3.3-.4Zm.6-1.5.5.2V67h-.5Zm-.2-1.5h.5V65h-.2l-.3.3Zm-3.2-2.2h-.5v.3l.2.2.3-.5Zm2.7-12.2-.4-.4v.1l-.1.2h.5Zm6.4-7.2-.2-.5-.2.1.4.4Zm6.4-3.3.2.5.3-.2v-.3h-.5Zm-.2-4.9h.5v-.5h-.5v.5Zm-2.1.2v-.5h-.4l-.1.3.5.2Zm-1 2.8.3.4v-.1l.1-.1-.5-.2Zm-3 2.6v.5h.1l.2-.2-.4-.3Zm-8.1-.6-.5-.3-.3.7h.7v-.4Zm3.3-6.5.5.2.2-.4-.4-.2-.3.4Zm-7-4.7.2-.4-.1-.1h-.1v.5Zm-3.1-.5-.4.3.1.1h.2l.1-.4Zm-6-6.7.4-.3-.1-.2h-.2v.5Zm-3.2 0v-.5h-.5v.4h.5Zm-.3 2.7v.5h.4V25h-.4Zm-1 .2-.4.3.2.2h.3V25Zm-1.5-2.3.5-.3-.1-.2h-.3v.5Zm-7 99.2.1-.5h-.6v.5h.6Zm.8.1.4-.2v-.3H76l-.1.5Zm-.6 6.7h-.5v.5h.5v-.5Zm6.8 0v.4h.4l.1-.4h-.5Zm.1-1h.5v-.3l-.3-.2-.2.5Zm-4.4-2-.4.2v.2h.2l.2-.4Zm-2-100.1 3-3.4-.9-.6-2.8 3.3.8.7Zm-.4 3.6.6-3.9-1-.1-.6 3.8 1 .2ZM72 32l3.2-2.4-.6-.8-3.2 2.4.6.8Zm.7 7.3-.5-7.7h-1l.5 7.8h1Zm-1.9.7 1.5-.2-.1-1-1.5.3.1 1Zm-2 6.2 2.4-6.5-1-.3-2.3 6.5 1 .3Zm.5 3.7-.4-3.9-1 .1.4 4 1-.2Zm-1.6 4.3 1.5-4-1-.4-1.4 4.1 1 .3Zm1.7 5-1.7-5.3-1 .3 1.7 5.2 1-.3Zm.3 3.4-.3-3.4-1 .1.4 3.4 1-.1ZM68.1 66l1.6-3.2-.9-.5-1.6 3.2.9.5Zm.7 2.3-.7-2.7-1 .3.7 2.7 1-.3Zm-1.8 3 1.7-2.6-.8-.5-1.7 2.6.8.6Zm1 4.5-.9-4.8-1 .2 1 4.8 1-.2Zm-1.5 1.3 1.3-.8-.5-.8-1.3.7.5.9Zm-.4 3.3.6-3.7-1-.1-.5 3.7 1 .1Zm.2 6.4-.1-6.5h-1l.1 6.5h1Zm.8 7.3-.8-7.3h-1l.8 7.4 1-.1Zm1.2-.3-1.6-.2-.1 1 1.6.2.1-1Zm.5 1.5v-1h-1v1h1Zm-1 1.3.9-1-.7-.6-1 1 .8.6Zm.4.1-.4-.6-.8.4.3.7.9-.5Zm-.4 3.5.4-3.2-1-.1-.4 3.2 1 .1Zm-.4 4 .4-4h-1l-.4 3.8 1 .1Zm-.9 1.8.8-1.7-.9-.4-.8 1.7 1 .4Zm.5 1.2-.5-1.5-1 .3.6 1.6 1-.4Zm-1.8 4.5 1.8-4.1-.9-.4-1.8 4 .9.5Zm.7 4-.7-4.3-1 .2.7 4.2 1-.1Zm.8-1.3-1.6.9.5.9 1.6-.9-.5-.9Zm1.8 4.6-1-4.3-1 .3 1 4.3 1-.3Zm3.2-.6-3.7.3.1 1 3.7-.3-.1-1Zm3.7 1.3-3.5-1.3-.4 1 3.5 1.2.4-1Zm0-.7-.6.9.8.5.6-.8-.8-.6Zm-1.3-.8 1.3 1.5.7-.7-1.2-1.4-.8.6Zm-.6-4.2.5 4 1-.2-.5-4-1 .2Zm2.6-2.4-2.4 2 .6.7 2.5-2-.7-.7Zm.6-3L76 112l1 .2.6-3.2-1-.2Zm3.3-3.3-3.2 3.1.7.7 3.2-3-.7-.8Zm.6-2.2-.8 2.5 1 .2.7-2.4-1-.3Zm-.5-.6.5 1 .9-.4-.5-1-.9.4Zm-1.3.2h1.7v-1h-1.7v1Zm-2.5-2.1 2.2 2 .7-.8-2.2-2-.7.8Zm0-2.8-.2 2.3 1 .1.3-2.3h-1ZM78 96l-1.4 1.6.8.7 1.4-1.7-.8-.6Zm3.1-.9-2.9.7.3 1 2.9-.7-.3-1Zm.4-2-.7 2.3 1 .3.6-2.2-1-.3Zm-.2-1.8.2 2h1l-.2-2h-1Zm4.3-3.6-4.1 3.2.6.7 4-3.2-.5-.7Zm-.6-1.8.4 2.2 1-.1-.4-2.3-1 .2ZM83.6 87l2-.7-.4-1-2 .8.4 1ZM82 87l1.2.1.1-1h-1.2v.9Zm-.5-4.6v4.1h1v-4h-1Zm5.8.4-5.3-.9-.1 1 5.2.9.2-1Zm1.5-1-1.8 1 .5 1 1.8-1-.5-1Zm-1-.7.8 1.4.9-.5-.8-1.4-.9.5Zm1.3-3L88 80.5l1 .5 1.2-2.5-.9-.5Zm-.3-1.4.3 1.7 1-.1-.3-1.7-1 .1Zm2-.8-1.5.3.1 1 1.6-.3-.1-1Zm6-.4-6 .4.2 1 5.8-.4v-1ZM101 73l-4.4 2.4.4 1 4.4-2.5-.4-.9Zm2.7-3.5-2.9 3.7.8.6 2.9-3.7-.8-.6Zm-1.5-.7 1.6 1.4.6-.8L103 68l-.7.8Zm.4-2-.5 1.4.9.4.6-1.5-1-.4Zm-.2-1.3.2 1.5 1-.1-.2-1.5h-1Zm-3-1.8 3.2 2.1.6-.8-3.2-2.2-.6.9Zm2.5-12.8L99.3 63l1 .3L103 51l-1-.2Zm6.5-7.5-6.4 7.2.8.7 6.4-7.2-.8-.7Zm6.6-3.3-6.4 3.2.4 1 6.4-3.3-.4-1Zm-.5-4.5.2 5h1l-.2-5h-1Zm-1.6.7 2.2-.2v-1l-2.3.2v1Zm-.6 2.5 1-2.9-1-.3-1 2.8 1 .4Zm-3.1 2.7 3-2.5-.7-.8-3 2.6.7.7Zm-8.5-.4 8.1.6v-1l-8-.6v1Zm3-7.2-3.4 6.4 1 .5 3.3-6.5-1-.4Zm-7-4.1 7.1 4.7.6-.8-7.1-4.7-.6.8Zm-2.8-.4 3 .5.2-1-3-.5-.2 1Zm-6.2-6.8 6 6.6.7-.7-6-6.6-.7.7Zm-3 0 3.3.1v-1H85v1Zm.3 2.4.3-2.8-1-.1-.3 2.8 1 .1Zm-1.4.6 1-.2-.2-1-1 .2.2 1Zm-2-2.5 1.5 2.3.8-.6-1.4-2.3-.9.6Zm-3.5-.6 3.8.8.2-1-3.8-.8-.2 1Zm-3.1 100 .7.1.2-1h-.8l-.1.9Zm.7 6.3-.1-6.8h-1v6.8h1Zm6.3-.6h-6.8v1H82v-1Zm-.4-.5v1l.9.1.1-1h-1Zm-4-1.5 4.3 2 .4-.9-4.3-2-.5 1Zm-2.2-3.9 1.9 3.7.9-.4-2-3.7-.8.4Z" fill="#F6995C"/><g filter="url(#a)"><path d="M43 81.5v.3l.1.2v.2H43l-.1.1v.2l-.1.1v.2l-.1.1v.1l-.1-.2v-.1l-.2.2-.1.2a14 14 0 0 0-1 1.9l-.2.1H41v.8h-.1v-.5l-.1-.3-.1-.2-.2-.3v-.3l-.3-.3H40l-.2.2h.1l.1.2s0 .2-.2.3v-.4a11.4 11.4 0 0 1-.2-.5l-.1-.3-.2-.2v-.2l-.1-.1v-.2H39l-.2.1.2-.1c-.2 0-.3.2-.2.2l.1-.1.2-.2-.3.2h-.1v.3c0 .1 0 .2-.1.1v-.7a3.3 3.3 0 0 1-.3-.4l-.1-.1-.1-.2-.2-.4a4.8 4.8 0 0 0-.2-.7l-.1-.2h-.1v.2l-.2.2-.1.2a8 8 0 0 0-.5 1.2 7 7 0 0 1-.4 1l-.2.3-.1.4H36l-.1.2h-.2l-.1-.4-.1-.2-.2-.6-.1-.6a41.1 41.1 0 0 0-.4-1.1V81h-.1v-.1h-.1v.8c0 .1-.1 0-.1 0v-.2c-.2-.2-.2-.3-.1-.3v-.4l-.1.1-.1.2h-.1v.1a61.7 61.7 0 0 0-.3 0l-.2-.3-.1-.2-.2-.4v.2c.1 0 .1.1 0 .1v.4l-.1.2-.1.3-.1.3-.1.2-.2.2-.1.2v.1a4.6 4.6 0 0 1-.3.7v.3l-.2.3v.1l-.1.5-.1.5-.1.3-.2.4v.2l-.1.2-.1.1-.2.1v.9l-.1.1-.1-.5v-.5l-.1-.1h-.1l-.2-.3-.1-.1-.2-.3-.1-.2a19 19 0 0 0-1-2.2H29l-.1-.2-.2-.1-.1.1v.2l-.1.1-.1-.1v-.1l-.1.2v-.7h-.1l-.2-.2-.1-.3v-.3l.1-.2.1-.2.1-.2.7-2a29.5 29.5 0 0 0 .4-1.3v-.2l.1-.2.1-.1V77l1.1-3a27 27 0 0 0 .6-1.9l.1-.4.4-.8.4-1 .3-.9.3-.4.6-.2h4.7l.2.2.2.2a2 2 0 0 1 .2.4V69.5l.1.1.2.5v.2l.2.3v.3h.1V71.3c.2.1.2.3.3.5l.4.8v.2l.3.7.2.7c0 .1 0 .3.2.5l.1.8 1 2.8.3.6a13.2 13.2 0 0 1 .4 1.2l.4 1.3v.2ZM35.5 73v.2l-.1.2-.1.3-.5 1.6V75.6a2.4 2.4 0 0 1-.2.5v.2l-.1.2v.1h2.2v-.2l-.1-.1-.1-.2v-.2a10.1 10.1 0 0 1-.4-1l-.3-1.2-.1-.4-.1-.2Zm21.6 9v.2l-.2.1v.2l-.1.2-.3.5-.2.3-.2.3-.1.1v-1.2h-.2l-.2.2c-.1.1-.1.1-.1 0l-.2-.2-.1-.1v.6H55V83l-.1-.4v.1l-.2.2-.1.4a2.5 2.5 0 0 1 0 .6h-.2v-.5l-.1-.3V83h-.2a83.3 83.3 0 0 0-.3.5v.6l-.1.7v.3l-.1.3-.1-.1v-.4a15.5 15.5 0 0 1 0-1.5 16.5 16.5 0 0 1-.7-.6h-.2v.5l-.1.5-.1-.2v-.2a16.5 16.5 0 0 1-.2 0l-.1-.4v-.5V82.8v-.2l-.1-.2v.1l-.1-.1V82h-.1l-.1-.1v-.2h-.1a119.3 119.3 0 0 1-.6-1.4l-.2-.5-.1-.1a2.8 2.8 0 0 0-.2-.6l-.2-.4-.1-.2a56.2 56.2 0 0 1-.2-.3v-.1l-.2-.2v.2l-.1.2v.1h-.4l-.1-.3-.1-.2v4l-.1.2H49l-.1.2-.2.1v.1l-.1.4a2.6 2.6 0 0 1-.1.6h-.2V83.2l-.1-.2V83l-.1-.1H48v.1h-.2a21.1 21.1 0 0 0 0 2.7c0 .1 0 .1-.1 0-.1 0-.2-.1-.1-.3V85a443.4 443.4 0 0 1-.3-2.1v-.1l-.1-.2v.1H46.5l-.3-.2h-.2l-.2.2h-.4a65.2 65.2 0 0 0-.6 0 13.9 13.9 0 0 1-.5-.3.5.5 0 0 1-.2-.5V69a.5.5 0 0 1 .3-.5h7.1a7.2 7.2 0 0 1 3.6 1.3c.6.5 1 1 1.2 1.6.2.6.4 1.2.4 2 0 .4 0 .8-.2 1.2l-.1.5v.1l-.3.5a4 4 0 0 1-.3.5h-.1v.1l-.2.2h-.1l-.1.2h-.1v1l.2 1v.1l.1.2.4.8.5 1a9.8 9.8 0 0 0 .6 1v.2Zm-7.7-7.8h1.5c.2 0 .3-.1.3-.3l.3-.4a1.2 1.2 0 0 0 0-.4v-.5l-.3-.3H49.6l-.2-.2h-.2v2l.2.1ZM55 78l.1-1v.3h-.2s0-.1-.1 0h-.1v.2l.3.5Zm-2.6 5v-.3V83Zm18.5-2.8v.1l-.2.1-.1.2a1.5 1.5 0 0 1-.3.3l-.2.2-.1.1-.1.2-.2.3a2.4 2.4 0 0 1 0 .4l-.2.2v.2l-.1.1-.1.2-.2.2v.6a6.3 6.3 0 0 1 .2 1.1c0 .2-.1.2-.3.2-.2 0-.3-.2-.3-.4s0-.5.2-.8v-.8l-.1-.2a2.4 2.4 0 0 0-.2-.3h-.1a98.7 98.7 0 0 1-.1 1.6v.6c0 .1 0 .1-.1 0v-.9h-.1V83H68v-.2l-.1-.2-.1.2v.5c0 .2.1.3 0 .4v.2a7.9 7.9 0 0 1-.1-1 12.6 12.6 0 0 0-.3.9v.1l-.1.1h-.2v-.2H67l-.3-.4a2.5 2.5 0 0 1-.3-.4l-.1-.2v.2l-.1.2-.1-.1v-.2l-.1.1-.2.2-.1.4v.5l-.2.1v.1l-.1.2V83l-.2-.2-.1-.1-.1-.1c-.1-.1-.2 0-.2 0v.7l-.1-.2v-.6c-1.4 0-2.6-.3-3.5-.7a4.9 4.9 0 0 1-2.5-2.2l-.2-.4v-.2l-.1-.3-.2-.4-.1-.8V72.7a5 5 0 0 1 .8-2v-.2h.1l.1-.2h.1c.6-.7 1.4-1.2 2.3-1.6 1-.3 2-.5 3.2-.5H65.4a2.5 2.5 0 0 1 .5 0h.5l.2.1h.2a6.7 6.7 0 0 1 .9.2 6.7 6.7 0 0 1 3.2 2 4.4 4.4 0 0 1 .6 1c.2.2.2.5.3.8v.5l-.1.1-.1.1v.1l-.1.2h-.1v-.1H71l-.3.2h-.5l-.3-.1h-.8l-.1.2-.2.1h-.2l-.2.2-.2.1h3l.4.1v.2c.2 0 .2.2.2.3v2.2a6.5 6.5 0 0 1-.1 1.7l-.3.8-.2.4-.1.3-.2.2Zm-6-1.4.9-.1.7-.5v-.3l.2-.3V77.1l-.2.1v.2l-.2.1-.1.1h-.4l-.1-.1-.2-.2V77c-.1 0-.2 0-.2-.2v-.1l-.1-.3v-2.1l.1-.2c.2-.2.3-.3.5-.3h2-.1l-.2-.2a5 5 0 0 0-.5-.2l-.5-.4v-.2h-.2l-.1-.3-.2-.1v-.1l-.2.1h-.2v.3l-.1.1c-.1 0-.2 0-.1-.2v-.4l-.1.3v.3h-.1l-.1-.3v-.1l-.1-.2-.1.1h-.2v.1h-.2v-.2h-.2v.2l-.1.1c-.1.1-.2.1-.2 0l-.2-.2v.1l-.2.1v.1l-.2.6V77.7a1.4 1.4 0 0 0 .7.8 1.6 1.6 0 0 0 .7.2h.1Zm.8 5.3.1.3v.5-.8Zm-.1 2.4c0 .2 0 .2 0 0a7 7 0 0 1-.2-1.3v-.7a35.5 35.5 0 0 0 .2 2Zm.1-.1a8.2 8.2 0 0 0 .1-1.5l.1.8c0 .3 0 .5-.2.7Zm19.4-6.6a26 26 0 0 0 0 2V82l-.1.2h-.1l-.1.2h-.1v.2h-.1v.1h-.1c0 .2-.2.2-.2.3l-.2.3-.2.2-.1.2-.2.2a.8.8 0 0 1-.3.2l-.1.1-.1.1h-.2a1.3 1.3 0 0 1-.2-.1l-.2.1v2.2c0 .2 0 .3-.2.3l-.1-.3v-.4a454.6 454.6 0 0 0 0-1.9l-.2-.1a8.8 8.8 0 0 0-.3-.7l-.3-.5-.1-.2v-.2h-.1v.5l-.1.1v-.4l-.2.3-.1.2a3.3 3.3 0 0 1-.5.9v.3a2.6 2.6 0 0 1-.1.5v.2a65.2 65.2 0 0 1-.2-.3v-.4h-.1a2.8 2.8 0 0 0 0 .6v.1c-.2 0-.2-.2-.1-.4v-.5.1l-.1.3v-.2l-.2-.2h-.1l-.2.1-.2.3v.6a88 88 0 0 0 0 1.4c0 .1 0 .2-.2.2-.1 0-.2-.1-.2-.3v-.6a74.8 74.8 0 0 0 .1-1.3v-.2h-.2l-.2-.6-.3-.6V83h-.3l-.2-.1v-.1h-.2l-.2.4H77a30.3 30.3 0 0 0-.2 3c-.1-.2-.2-.5-.1-.7a29 29 0 0 1 .1-1.8c0-.2 0-.4-.2-.6l-.3-.3v-.1h-.1l-.1-.3-.2.2h-.2v.5l-.2 1a11.4 11.4 0 0 1-.2 1 1 1 0 0 1-.1-.6v-.7l.1-.5s0-.1-.2 0l-.5-.1a212310361348.2 212310361348.2 0 0 1-.2-.3v.5a12.7 12.7 0 0 1 0 1.1c0 .2 0 .2-.1 0a1 1 0 0 1-.2-.5v-.7c.1-.2.2-.4.1-.6v.8c-.1.1-.1 0-.1-.1V83l-.1-.6-.2-.1a.5.5 0 0 1-.2-.5V68.6l.3-.2h10.8l.1.2.1.3V72l-.2.2a3.5 3.5 0 0 0-.2.2h-.8a1 1 0 0 0-.5.1l-.2.1-.2.1h-.2l-.2.2h-.8l-.2.1-.2.1s-.2.1-.2 0h-.7L80 73l-.4-.2-.4-.2a4 4 0 0 0-.3-.1l-.5-.2v1.2h5.3a1 1 0 0 1 .5.1l.2.2v.1l.1.2V77l-.3.3-.3.1-.3.1-.3.2a1 1 0 0 1-.3.1 7 7 0 0 1-.5.1h-.2l-.2.2H80.8c-.1-.1-.3-.1-.4 0h-.3l-.3-.2a1.6 1.6 0 0 0-.6-.4 4 4 0 0 0-.6-.1 2 2 0 0 0-.2 0v1.2h6.4v.1h.2v1.1ZM99.5 82v.2l-.1.1-.1.1a4.5 4.5 0 0 0-.1.8l-.1.7a29 29 0 0 1-.4 2v-.2l-.2-.5v-.4l-.2-1-.1-1.1v.4H98l-.1.1h-.1a141.4 141.4 0 0 0-.2-.2v.1l-.1.1h-.1a134.5 134.5 0 0 1-.2.8v-.4l-.1-.5a4.5 4.5 0 0 1-.3-.3v-.2h-.2v.1l-.2.1v.2h-.1l-.1-.2-.2-.2H95.4v-.2l-.2-.2a3.2 3.2 0 0 1-.4-.4v-.2l-.2-.1v-.2a83.3 83.3 0 0 0-.2-.2l-.1-.2-.4-.4a59.5 59.5 0 0 1-1-1.7l-.8-1.2a3.6 3.6 0 0 1-.4-.5v-.1 5c-.1.1-.1.1 0 .1h-.1v.1l-.2.2-.1.1-.1.2v.1l-.1.1-.4.8-.2.4-.1.2h-.1v.1l-.1.8v.8H90v-1l-.1-.6v-.1h-.1l-.2-.3V83.6h-.1v-.2l-.2-.6-.1-.2v.9h-.1v-.1l-.1-.2-.2-.2-.2-.3-.1.1h-.1l-.2.2-.2.2H88v.7a23.3 23.3 0 0 1 .1 1.7c0 .1 0 .2-.2 0s-.3-.5-.3-.8l.1-1 .1-.8V83a65.2 65.2 0 0 0-.2.2v.4-.6l-.2-.5-.1-.1a.5.5 0 0 1-.3-.5V68.7l.3-.2h.1l.2-.1H91l.2.2.3.4.2.4.1.2.4.5.4.7v.1l.7 1.2.6.9.5.8.3.4v-5.5h.1l.1-.2.3-.1H99.2l.2.2v.1l.1.2V81.2a4 4 0 0 1 0 .7Zm14.3-10.3V72.4l-.2.1-.1.1-.2.3-.1.3-.2.3-.2.4a32.6 32.6 0 0 1-1 1.8l-.1-.1-.1-.2-.2-.2V75h-.1v-.1l-.2-.4-.4-.6a16.5 16.5 0 0 0-.5-.8l-.2-.2v-.2V82l-.1.1v.1l-.3.2v.1h-.1l-.1.2h-.5c-.1 0-.2 0-.1-.1h-.2l-.1.3s-.2.1-.2 0h-.1l-.1-.2v.1h-.2v.4l-.2.4v.3a3 3 0 0 0 0 .3h-.1l-.1-.5V83l-.1-.2-.1-.2-.2-.1h-.2l-.1.1-.2.2a8.5 8.5 0 0 0-.2.4l-.1.1h-.1v.7a22.7 22.7 0 0 1-.2 2.4v-.6a41.5 41.5 0 0 1 0-1.9l-.1-.6v-.1l-.2-.3-.2-.3v-.2H105.1a.5.5 0 0 1-.3-.2v-9.4l-.1-.1-.1.1v.2l-.1.1-.1.3-.1.1-.2.2-.1.2-.2.1-.1.2v.2h-.1V74l-.1-.2-.1-.1-.1-.2H103v.4l-.2-.4-.1.2-.1.1-.1.4v.4l-.1-.2h-.2v-.7h-.1l-.1-.2-.2-.2-.1-.1a29.6 29.6 0 0 1-.6-.7.5.5 0 0 1-.2-.5v-2.9a2 2 0 0 1 0-.5l.2-.2.3-.1h12l.1.1.2.2v2.9Zm-11.4 4.2c0 .1 0 .1 0 0l-.1-.6v-.6 1.2Zm.1 0a3.7 3.7 0 0 0 .1-.5v.5Zm17.9 5V82l-.3.3-.1.2-.1.2v.1l-.1.1-.1-.1v-.2h-.1l-.1.2h-.1l-.2.3-.1.2-.1.2-.1.2v.1l-.1.1h-.1a12 12 0 0 1-.1-.6h-.1l-.1-.1h-.1l-.2-.1V83.4h-.1V83.1h-.1v.1h-.1l-.1.1v1l-.2 1.1a7.6 7.6 0 0 1-.2 1.6s0 .1 0 0h-.2v-.7l-.1-.8v-.9a5.9 5.9 0 0 0 0-.7v.4c0 .2-.1.2-.1.1V84l-.2-.6v-.1l-.1-.1-.3-.3h-.1l-.1-.2h-.2v.5c-.2 0-.2-.1-.1-.3v-.3s-.1-.1-.1 0v.1-.2h-.1c-.3-.1-.4-.3-.4-.6a4.1 4.1 0 0 1 0-.8V68.7h.1v-.2h.4l.1-.1h4.2c.2 0 .2.1.3.2v.3c.1.1.1.2 0 .4V80.9Zm14.8 1.1v.2l-.2.1c0 .1-.1.1 0 .1h-.1a4.2 4.2 0 0 0-.1.8v.7a35.6 35.6 0 0 1-.5 2v-.2l-.1-.5-.1-.4-.1-1-.2-1.1v.4h-.1v.1h-.1a14.1 14.1 0 0 1-.2-.2l-.1.1v.1h-.2V84.5h-.1V83.5l-.2-.5a4 4 0 0 1-.2-.3l-.1-.1v-.1h-.2v.1l-.1.1-.1.2h-.1v-.2h-.1l-.2-.2H131l-.1-.2-.2-.2-.2-.2-.1-.2-.1-.2-.1-.1a1.5 1.5 0 0 0-.2-.3V81l-.2-.2-.3-.4a52 52 0 0 1-1-1.7l-.9-1.2a3.6 3.6 0 0 1-.3-.5v-.1h-.1V82.1h-.1l-.2.2v.1h-.1v.2l-.1.1-.1.1-.4.8-.2.4v.2h-.1l-.1.1v.8l-.1.8v-.3l-.1-.7v-.6l-.1-.1-.2-.3v-.1l-.1-.2-.1-.2-.2-.6v-.2l-.1.4v.5l-.1-.1-.1-.2-.2-.2-.1-.3-.2.1h-.1l-.1.2h-.1l-.1.2H123.5v.7a24 24 0 0 1 .2 1.7c0 .1-.1.2-.3 0-.2-.2-.3-.5-.3-.8 0-.3 0-.7.2-1V83a5 5 0 0 1-.1-.2v.8h-.1v-.6l-.2-.5-.1-.1a.5.5 0 0 1-.2-.5V68.7l.2-.2h.2l.1-.1h3.6l.2.2.3.4.2.4.2.2.4.5c0 .3.2.5.3.7v.1l.8 1.2a14.7 14.7 0 0 1 1 1.7l.3.4V69l.1-.2.2-.2.3-.1H134.8l.3.2v12.6a4.1 4.1 0 0 1 0 .7Zm16-.4.2.3v.4h-.2v.2l-.1.1V82.8l-.1.1v.1l-.1-.2v-.1l-.2.2-.2.2a16 16 0 0 0-1 1.9l-.1.1h-.1v.4l-.1.4v-.2l-.1-.3v-.3l-.2-.2-.1-.3-.1-.3-.2-.3h-.1l-.2.2h.1l.1.2s0 .2-.2.3v-.1l-.1-.3v-.5c-.2 0-.2-.1-.3-.3v-.2l-.2-.2V83l-.1-.2-.3.1.2-.1c-.2 0-.3.2-.3.2l.2-.1.1-.2-.2.2h-.1v.3c0 .1 0 .2-.1.1V83l-.1-.4a3.3 3.3 0 0 1-.2-.4l-.2-.1a3 3 0 0 0 0-.2l-.2-.4a4.5 4.5 0 0 0-.2-.6v-.2l-.1-.1h-.1l-.1.2-.1.2-.1.2a8.4 8.4 0 0 0-.6 1.2 6.7 6.7 0 0 1-.3 1l-.2.3c0 .2 0 .3-.2.4l-.2.2h-.1l-.2-.4a29.4 29.4 0 0 0-.7-2.5v-.2l-.1-.2-.1-.1v.4l-.1.4c0 .1 0 0 0 0v-.2l-.2-.3.2-.1-.1-.3h-.1v.1a8.3 8.3 0 0 1-.2.3l-.1.5v.4h-.1v-.4l-.1-.6-.2-.2-.1-.2-.2-.4v.5a5.6 5.6 0 0 1 0 .2l-.2.2v.3l-.2.3v.2h-.1c0 .2 0 .2-.2.2v.2l-.1.1a4.3 4.3 0 0 1-.2.7l-.1.3a29.4 29.4 0 0 1-.1.4l-.1.5-.2.5v.3l-.2.4v.2l-.1.2-.2.1-.1.1a65.3 65.3 0 0 1-.2.5v-.5l-.2-.1-.2-.3-.1-.1-.2-.3-.1-.2-.4-.8a18 18 0 0 0-.7-1.4l-.2-.2v-.1h-.1l-.1.1v.2l-.1.1-.2-.1v-.1.2-.7h-.1a.5.5 0 0 1-.3-.3V82a1.8 1.8 0 0 1 .1-.5l.1-.2V81l.8-2a27.2 27.2 0 0 0 .4-1.3v-.2a12 12 0 0 0 .3-.5l1-3a24.6 24.6 0 0 0 .6-1.9l.1-.4.4-.8.4-1 .3-.9.2-.4.7-.2h4.7l.2.2.2.2a2 2 0 0 1 .2.4V69.5l.1.1.2.5v.2l.1.3.1.3.1.2v.1l.3.5.3.8.1.2.2.7.2.7.2.5.2.8 1 2.8.2.6a12.6 12.6 0 0 1 .4 1.2l.5 1.3v.2Zm-7.4-8.5v.2l-.1.2-.1.3-.5 1.6V75.6l-.1.3-.1.2v.2l-.1.2v.1h-.1H145l-.1-.2v-.1l-.1-.2v-.2a11.4 11.4 0 0 1-.4-1l-.3-1.2-.2-.4V73h-.1Z" fill="#51829B"/></g><defs><filter id="a" x="8" y="50.2" width="163.4" height="59.1" filterUnits="userSpaceOnUse" color-interpolation-filters="sRGB"><feFlood flood-opacity="0" result="BackgroundImageFix"/><feColorMatrix in="SourceAlpha" values="0 0 0 0 0 0 0 0 0 0 0 0 0 0 0 0 0 0 127 0" result="hardAlpha"/><feOffset dy="2"/><feGaussianBlur stdDeviation="10"/><feComposite in2="hardAlpha" operator="out"/><feColorMatrix values="0 0 0 0 0.960784 0 0 0 0 0.929412 0 0 0 0 0.929412 0 0 0 0.4 0"/><feBlend in2="BackgroundImageFix" result="effect1_dropShadow_116_130248"/><feBlend in="SourceGraphic" in2="effect1_dropShadow_116_130248" result="shape"/></filter></defs></svg>