<svg width="180" height="150" fill="none" xmlns="http://www.w3.org/2000/svg"><path d="m67.9 59.6.2.5h.1l.1-.2-.4-.3Zm3-5.7-.3-.4-.1.1.4.3ZM55.5 64.5l-.2-.5-.2.1v.3h.4Zm-1.5 8h-.5v.2l.5-.2Zm3.6 7 .5.1V79.3l-.5.3Zm-.3 2.4h-.5v.2l.1.1.4-.3Zm1.6 1.8h.5v-.2l-.1-.2-.4.4Zm-.2 3.5.3.4.2-.1v-.3h-.5Zm-1 .6-.3-.4h-.2v.3h.5Zm-.2 1.2H57v.2l.2.2.3-.4Zm3 1.9-.3.4.2.1h.2l-.1-.5Zm2.6-.6v.5h.2l-.2-.5Zm3-2v-.5h-.2l-.2.1.3.4Zm6.6 0v.5h.3l.1-.2-.4-.3Zm1.5-1.8-.3-.4h-.1l.4.4Zm2.4-1.5v-.5H76.3l.3.5Zm2.8 0v.6h.2l-.2-.5Zm3.3-1.4V83h-.2l.2.5Zm3 0 .2-.4h-.1v.5Zm4.4 1.2.4-.3v-.2h-.2l-.2.5Zm2.5 3.2.5-.2-.5.2Zm1.3 2.4-.5.2v.2h.2l.3-.4Zm1.4.7.5.1.1-.4-.4-.2-.2.5Zm-.3 1.4-.5-.1-.2.7.7-.1v-.5Zm4.3-.7.4-.3-.1-.2h-.3v.5Zm3.5 4.7-.4.3v.1h.2l.2-.4Zm5.3 1.6-.1.5H108.3l-.2-.5Zm1.8-.8v-.5h-.2l.2.5Zm3.1.8-.1.5h.2l.2-.1-.3-.4Zm2.7-2.2v-.5h-.2v.1l.2.4Zm3.5-.2v.5h.4l.1-.4h-.5Zm1.5-6-.4-.3h-.1v.2l.5.1ZM124 85l.4.3.1-.2h-.5Zm1.9-7.5.5.1v-.2l-.5.1Zm-2-6.6.4-.1v-.2l-.5.3Zm-5-6.7-.5.3.4-.3Zm-1.6-3 .5-.3-.1-.2h-.1l-.3.4Zm-4.3-2.5-.4.1v.3h.2l.2-.4Zm-.8-4.4h.4V54l-.3-.1-.1.4Zm-1.1-.4h-.5v.3l.3.1.2-.4Zm-.2-3.5h.5V50l-.4-.1-.1.4Zm-2.2-.9-.5.2v.2l.3.1.2-.5Zm-2-7.2.5-.2v-.3h-.4v.5Zm-1.3-.3.1-.5-.5-.1v.5l.4.1Zm-1.8 12.9.3.3.1-.1v-.2h-.4Zm-1.3 1.3-.3.4.4.2.3-.3-.4-.3Zm-8.8-6-.4-.2-.2.4.4.2.2-.4Zm2.8-4.7.5.3.2-.4-.3-.2-.4.3Zm-1-1 .4-.3-.1-.2h-.3v.5Zm-3.8.5-.3.4.2.1h.2V45Zm-3.1-2.3.3-.4h-.4v.4Zm-2.2.4-.1-.5v.5Zm-2.4.6v-.5l-.9.2.6.6.3-.3Zm1.4 1.6.5.3.2-.3-.3-.3-.4.3Zm-2 3.3-.4-.2v.2h.5Zm0 1.9.1.4h.4v-.4h-.5Zm-2.2.3-.4.4.2.2h.2v-.6ZM78.4 48l.4-.3-.3-.3-.4.2.3.4Zm31.2 53v-.5l-.5.1v.4h.5Zm1-.2.3-.4-.2-.2-.3.1.1.5Zm-1 4.6h-.6v.2l.2.2.3-.4Zm2.4 2.5-.3.4.1.1h.2v-.5Zm3.4 0v.4h.3l.2-.3-.5-.2Zm1.6-3.4.5.2v-.2h-.5Zm-.3-4h.5v-.5h-.6l.1.5Zm-1.7.3v-.5h-.4v.3l.4.2Zm-.5 1.6v.5h.4v-.4l-.4-.1Zm-2.3.1-.4.4.2.1h.2v-.5ZM68.3 60l3-5.8-.8-.5-3 5.8.8.5Zm-12.6 5 12.4-4.8-.4-1-12.4 5 .4.9Zm-1.2 7.7 1.5-8-1-.2-1.5 8 1 .2Zm3.5 6.7-3.5-7-1 .4 3.6 7 1-.4Zm-.2 2.6.3-2.3h-1l-.3 2.2 1 .1Zm1.5 1.4-1.6-1.7-.8.6 1.6 1.8.8-.7Zm0 4v-3.6h-1v3.5h1Zm-1.4 1 1-.7-.4-.8-1 .6.4.8Zm.1.7.2-1.1-1-.2L57 89l1 .1Zm2.8 1.5-3-2-.6.9 3 1.9.6-.8Zm2.2-.7-2.6.6.2 1 2.6-.6-.2-1Zm2.7-1.9-2.9 2 .6.9 2.9-2-.6-.9Zm7 0H66v1h6.7v-1Zm1-1.7L72.5 88l.7.6 1.5-1.8-.8-.6Zm2.6-1.7L74 86.1l.5.8 2.5-1.5-.6-.9Zm3 0h-2.7v1h2.7v-1Zm3.2-1.4-3.3 1.5.4 1 3.3-1.6-.4-.9Zm3.3 0h-3.1v1h3v-1Zm4.5 1.2-4.4-1.1-.3 1 4.4 1 .3-1Zm2.7 3.4-2.5-3.2-.8.6 2.5 3.2.8-.6Zm1.3 2.5-1.2-2.4-1 .5 1.3 2.3.9-.4Zm1.2.4-1.4-.7-.5 1 1.5.6.4-.9Zm0 2 .3-1.4-1-.3-.3 1.5 1 .2Zm3.8-1.3-4.4.7.1 1 4.4-.7-.1-1Zm3.9 4.9-3.5-4.7-.8.6 3.5 4.7.8-.6Zm5 1.5L103 96l-.3 1 5.4 1.6.3-1Zm1.5-.8-1.8.8.4.9 1.8-.8-.4-1Zm3.4.7-3.1-.8-.3 1 3.2.8.2-1Zm2.3-2.1-2.7 2.2.6.8 2.8-2.2-.7-.8Zm3.8-.3-3.5.2v1l3.6-.2v-1Zm1-5.6-1.4 6 1 .2 1.4-6-1-.2Zm3.5-4.9-3.4 4.7.8.6 3.4-4.7-.8-.6Zm1.8-7.3-1.9 7.5 1 .2 1.9-7.5-1-.2Zm-2-6.4 2 6.7 1-.3-2.1-6.6-1 .2Zm-5-6.5 5 6.7.8-.6-5-6.7-.8.6Zm-1.5-3.2 1.5 3.2.9-.5-1.5-3.1-1 .4Zm-4.1-2.1 4.3 2.3.5-.8-4.3-2.4-.5.9Zm-1.1-4.8.9 4.4 1-.2-1-4.4-1 .2Zm-.8 0 1 .4.4-1-1-.4-.4 1Zm-.5-4 .2 3.5h1l-.2-3.5h-1Zm-1.9-.4 2.2.9.3-1-2.1-.8-.4.9Zm-2.3-7.6 2 7.3 1-.3-2-7.3-1 .3Zm-.9 0 1.3.4.2-1-1.3-.3-.2 1ZM104.2 55l1.8-12.8-1-.2-1.8 12.9 1 .1Zm-1.4 1.6 1.2-1.3-.7-.7-1.3 1.3.8.7Zm-9.4-5.9 8.7 6 .6-.8-8.8-6-.5.8Zm2.6-5.4L93.2 50l.9.5 2.8-4.7-.9-.6Zm-.9-.3 1 1 .7-.7-1-1-.7.7Zm-3.4.6 3.8-.5v-1l-4 .5.2 1Zm-3.5-2.4 3.1 2.3.6-.8-3.1-2.3-.6.8Zm-1.9.5 2.2-.4-.1-1-2.2.4.1 1Zm-2.2.6 2.3-.6-.3-1-2.3.6.3 1Zm1.6.8-1.4-1.6-.7.6 1.4 1.6.7-.6Zm-2 3.9 2-3.3-.8-.5-2 3.3.9.5Zm.1 1.6v-1.9h-1v1.8h1Zm-2.7.8 2.3-.4-.2-1-2.2.4.1 1Zm-3-3 2.6 2.9.7-.7-2.6-2.9-.8.7Zm-6.9 6 7.5-6-.6-.8-7.5 6 .6.8Zm38.6 47 .9-.1-.3-1-.9.2.3 1Zm.2 4 .1-4.4h-1v4.4h1Zm2.4 2.2-2.5-2.5-.7.7 2.5 2.5.7-.7Zm3-.3-3.4.1v1h3.4v-1Zm1.2-3-1.6 3.3.9.4 1.6-3.3-1-.4Zm-.4-3.7.3 4 1-.1-.3-4h-1Zm-1.1.7 1.7-.3-.2-1-1.7.3.2 1Zm-.1 1.2.5-1.6-1-.3-.5 1.6 1 .3Zm-2.8.5 2.3-.1v-1l-2.3.1v1Zm-2-1.9 1.6 1.8.8-.7-1.7-1.8-.7.7Z" fill="#F6995C"/><g filter="url(#a)"><path d="M44 81v.3l.1.3v.1H44l-.1.2v.2h-.1v.2l-.1.2-.1-.1v-.2l-.2.2-.1.2a13.9 13.9 0 0 0-1 1.9l-.2.1H42v.8h-.1v-.5l-.1-.3-.1-.2a785.3 785.3 0 0 0-.5-.9H41l-.2.2h.1l.1.2s0 .2-.2.3v-.3a11.4 11.4 0 0 1-.2-.5l-.1-.3-.2-.2v-.2l-.1-.2v-.1l-.2-.1-.2.1.2-.1-.2.2.1-.1.2-.1-.3.1h-.1v.3l-.1.2v-.7a3.3 3.3 0 0 1-.3-.5l-.1-.1-.1-.1-.2-.5a4.8 4.8 0 0 0-.2-.7l-.1-.2-.1.1v.1a3 3 0 0 1-.3.5 8 8 0 0 0-.5 1.2 7 7 0 0 1-.4.9l-.2.4-.1.3-.1.1h-.1c0 .1-.1 0-.2 0l-.1-.2-.1-.3-.2-.5-.1-.6a40.8 40.8 0 0 0-.4-1.2V80.6l-.1-.2h-.1v.9h-.1V81c-.2-.2-.2-.3-.1-.3v-.4.1h-.1l-.1.2h-.1v.1a61.2 61.2 0 0 0-.3 0l-.2-.3-.1-.2-.2-.3v.6l-.1.3-.1.2-.1.3-.1.2v.1l-.2.2h-.1v.2a4.7 4.7 0 0 1-.3.7v.3l-.2.3v.1l-.1.5-.1.5-.1.4-.2.3v.2l-.1.2-.1.2h-.2v1H32l-.1-.5v-.5h-.1l-.1-.1-.2-.2v-.1l-.1-.1-.2-.2-.1-.3a19 19 0 0 0-1-2.2H30l-.1-.2-.2-.1-.1.2v.2h-.2v-.2l-.1.2v-.7h-.1a.5.5 0 0 1-.3-.3v-.4l.1-.3.1-.2.1-.1.7-2a29.5 29.5 0 0 0 .4-1.4V77l.1-.2.1-.1v-.1l1.1-3a27 27 0 0 0 .6-2l.1-.4.4-.8.4-1 .3-.8c0-.2.1-.3.3-.5l.6-.2h4.7l.2.2.2.2a2 2 0 0 1 .2.5v.2l.1.2.2.4v.2l.2.3v.3l.1.1V70.8c.2 0 .2.2.3.4l.4.9v.2l.3.6.2.7.2.6.1.7 1 2.8.3.6a13.2 13.2 0 0 1 .4 1.3l.4 1.2v.3Zm-7.5-8.4-.1.4-.1.3-.5 1.5v.4a2.4 2.4 0 0 1-.2.5v.1l-.1.2v.1h2.2V76l-.1-.2-.1-.2v-.2a10.1 10.1 0 0 1-.4-1l-.3-1.1-.1-.4v-.1l-.1-.2Zm16.5 11-.1.1-.1-.2-.5-.4a4 4 0 0 0-.4-.4v-.1l-.2-.1v-.1h-.1l-.2.2h-.1v-.1c-.1 0-.1.2 0 .4l-.2.4V82h-.2a10.5 10.5 0 0 1-1.6-.1H49l-.5-.2a8 8 0 0 1-1.8-.9l-.3-.2a222.2 222.2 0 0 1-.3-.2v-.1a5 5 0 0 1-1-1.3 6 6 0 0 1-.4-2.5v-8.2c0-.3.2-.4.5-.5H49l.4.1.1.2.1.3v8l.2.8c0 .2.2.4.4.6h.1a56.2 56.2 0 0 1 .8.2h.5l.2-.1.1-.1c.2 0 .2-.2.3-.3l.2-.4V77l.1-.6v-8.1l.2-.2.2-.1h4.5l.2.5v9l-.2.4a471.4 471.4 0 0 0-.5 1.5l-.1.3-.4.5h-.1v.2l-.3.2-.2.2-.1.3v.2a3.3 3.3 0 0 1-.5.7l-.2.3-.1-.2v-.2l-.2.3-.1.1-.1.1v.3l-.1.2V83.2h-.2V83a440 440 0 0 1 0-.7h-.1v-.1L54 82V82h-.2l-.1.2-.1.2a7 7 0 0 1-.4 1l-.2.2Zm18.5-3.9-.3.4-.2.2-.2.2h-.1l-.1.3-.3.5c0 .1 0 .1 0 0h-.1l-.1.2-.1.1v.7a27 27 0 0 1-.3 2v-1a24.4 24.4 0 0 0 0-1.8h-.2v.2l-.2.2v.2H69c0 .3-.2.5-.3.8l-.1.4v.2l-.1-.6v-.6l-.2.3v.3a3.6 3.6 0 0 1-.7.8l-.1.2-.2.1s-.1.1-.2 0H67a1.7 1.7 0 0 1-.4-.4c0-.2-.2-.3-.3-.5l-.2-.4-.1-.2-.2-.2-.1-.1-.1.2h-.1V82h-.1c-1.5 0-2.6-.2-3.6-.6a5.3 5.3 0 0 1-2.3-2l-.2-.3V79l-.2-.3a12.8 12.8 0 0 0-.1-.7v-.3l.2-.2h3.6a3 3 0 0 1 .7 0h.3l.2.2.3.2a2.8 2.8 0 0 0 .6.2l.7.1a5.1 5.1 0 0 0 .8 0l.2-.1h.1l.4-.4-.1-.3-.1-.1h-.3a4.4 4.4 0 0 0-.4 0h-.5l-.3.1-.2.1-.4.2h-.4l-.2-.2a352.4 352.4 0 0 0-.9-.6l-.4-.4-.2-.1H62.4l-.1.3-.2.1h-.2v.1l-.2-.1-.1-.2-.1-.3-.1-.3a7.6 7.6 0 0 1-.6-.5l-.1-.2a4.1 4.1 0 0 1-.9-1v-.1a79.5 79.5 0 0 0-.4-1 5.7 5.7 0 0 1 0-2l.1-.1.1-.3.1-.2v-.1c.5-.9 1.2-1.5 2.1-2 1-.5 2.1-.8 3.5-.8h.1c1.2 0 2.1.2 3 .5a6 6 0 0 1 2 1.2 4.4 4.4 0 0 1 1.2 1.7v.3l.1.2v.3l-.1.3h-.2v.1h-.2l-.1.1-.3.2h-.6a1 1 0 0 0-.3 0h-.7l-.1-.1h-.8a4 4 0 0 1-.5 0l-.1.2H67a.8.8 0 0 1-.3-.2 2 2 0 0 0-.3-.4l-.1-.1-.7-.1h-.1l-.2-.2h-.4v.1H64.5V72.2h-.1c0 .3.1.4.3.5h.2l.3.2 1 .2H66.8l.3.1h.5c2 .4 3.4 1.2 4 2.2l.2.4.1.2.1.3v.1l.1.4v.7c0 .5 0 1-.2 1.4-.1.3-.2.6-.4.7v.2Zm14.1-8.6V72l-.2.2-.1.1-.2.2-.1.3-.2.4-.2.3a26.3 26.3 0 0 1-.6 1.4l-.3.2v.2h-.1l-.2-.2c0-.2-.1-.2-.2-.3v-.1l-.1-.2-.2-.3-.4-.6a16 16 0 0 0-.5-1l-.1-.1-.2-.1V81.8l-.3.2a105885515723.3 105885515723.3 0 0 0-.4.2h-.4c0-.1 0-.1-.2 0l-.1.2c0 .1-.1.1-.2 0H80v-.1h-.1l-.1.1h-.1v.3l-.1.5a233 233 0 0 1-.3 0v-.8l-.2-.1-.2-.2h-.2v.1l-.3.3a11.6 11.6 0 0 0-.2.3l-.1.1H78v.7a22 22 0 0 1-.2 2.4v-.6a46.5 46.5 0 0 1 0-1.8l-.1-.7a6 6 0 0 0-.4-.7V82H77v-.1a.6.6 0 0 1-.3-.2l-.1-.2v-9.1l-.1-.2v.2l-.1.1v.2l-.2.2-.1.2-.1.1-.2.1v.1l-.2.2s-.1 0 0 .2l-.2.1v-.2l-.1-.3-.1-.1-.1-.1-.1-.1H75v.1l-.1.2v.1l-.1-.4h-.1l-.1.2v.1h-.1v.5a32.4 32.4 0 0 1-.2 0l-.2.2V73.3l-.2-.2-.2-.1-.1-.2a33.8 33.8 0 0 1-.6-.7.5.5 0 0 1-.2-.4v-2.9a2 2 0 0 1 0-.5v-.1l.2-.2h11.3l.5-.1h.5l.1.2c.1 0 .2 0 .2.2V71Zm-11.4 4.2c0 .1 0 .1 0 0l-.1-.6V74v.6l.1.6Zm.2 0a3.4 3.4 0 0 0 0-.4v.4Zm25.6 6.2v.2h-.1l-.1.2-.1.1v.2l-.4.6-.2.3-.1.2-.1.1-.1-.6v-.6h-.2l-.1.2-.1.1h-.1l-.2-.2V82l-.1.3v.3l-.1-.1v-.4h-.1l-.1.2h-.1v.4a2.5 2.5 0 0 1-.1.6s0 .1-.1 0v-.2l-.1-.3v-.2l-.1-.2H97l-.1.2-.1.1-.1.2h-.1V84.3c-.1.1-.1.2 0 .4 0 .1 0 .2-.2.3v-.5a15.7 15.7 0 0 1-.1-1.6 16.5 16.5 0 0 0-.7-.6h-.1l-.1.5v.6h-.1v-.2l-.1-.2a16.5 16.5 0 0 0-.1-.1c-.2-.1-.2-.2-.2-.4v-.4.2V82h-.1s0-.1 0 0l-.1-.4h-.1v-.1l-.1-.1v-.1l-.2-.2V81l-.2-.3a7 7 0 0 0-.3-.7l-.2-.5v-.2l-.3-.4v-.2l-.2-.3v-.2L93 78V78l-.1-.2v-.1l-.2-.1-.1.2v.1l-.1.1-.2.1-.2-.2v-.2c-.1-.2-.2-.2-.2-.1v4s0 .1 0 0l-.1.1v.1h-.2v.2h-.1l-.1.2v.4a2.5 2.5 0 0 1-.2.5c0 .1 0 .1-.1 0L91 83V82.7l-.1-.2v-.1l-.2.1-.1.1a21.3 21.3 0 0 0 0 2.6c0 .1-.1.2-.2.1 0 0-.1-.2 0-.4v-.4a521.8 521.8 0 0 1-.4-2.2V82h-.7l-.2-.2-.2.1-.2.1h-.5a65.2 65.2 0 0 0-.6 0 13.9 13.9 0 0 1-.4-.3.5.5 0 0 1-.3-.4V68.5a.5.5 0 0 1 .4-.5h.2c0-.1 0-.1.2 0h5.9c.3-.1.5 0 .8 0a7.2 7.2 0 0 1 3.5 1.2c.6.5 1 1 1.2 1.6.3.6.4 1.2.4 2l-.1 1.2c0 .3-.1.5-.2.5v.1l-.3.5a4 4 0 0 1-.3.5l-.1.1-.2.2v.1l-.2.1-.1.1v.9l.2 1v.2l.1.1c.2.2.3.5.4.9l.5.8a10 10 0 0 0 .6 1.1V81.5Zm-7.8-7.7h1.6l.3-.3.2-.4a1.1 1.1 0 0 0 0-.5v-.4c0-.2-.1-.3-.3-.4H92.4l-.2-.1H92v2h.2Zm5.7 3.6v-1V76.7h-.1c0 .1 0 0-.1 0h-.2v.1l.1.2.3.4Zm-2.7 5c.1-.1 0-.2 0-.2v.2Zm20.1-1.3.1.2v.4l-.1.2-.1.2a5.6 5.6 0 0 1-.1.4l-.1-.1v-.2l-.2.2-.2.2a15.8 15.8 0 0 0-1 1.9l-.1.1h-.1v.5l-.1.3v-.1l-.1-.4v-.3l-.2-.2a785.3 785.3 0 0 0-.5-.9l-.2.2.2.2s0 .2-.2.3l-.1-.3v-.5l-.3-.3a3.3 3.3 0 0 1-.2-.4v-.2l-.1-.1v-.1l-.4.1.3-.1-.3.2.2-.1.1-.1-.3.1v.3l-.1.2v-.4l-.1-.3a3.3 3.3 0 0 1-.2-.5l-.2-.1v-.1l-.2-.5a4.5 4.5 0 0 0-.2-.6v-.1l-.1-.2h-.1v.1l-.1.1a2.7 2.7 0 0 1-.2.5 8.4 8.4 0 0 0-.6 1.2 6.7 6.7 0 0 1-.3.9l-.2.4-.2.3v.1h-.2c0 .1 0 0-.1 0l-.2-.2v-.3l-.2-.5-.2-.6a31.7 31.7 0 0 0-.3-1.2v-.2l-.1-.1v-.2h-.1v.4l-.1.5V81l-.2-.3.1-.1v-.3l-.1.1-.1.2h-.1v.1l-.1.5v.4h-.1v-.4l-.1-.5-.2-.3-.2-.2-.1-.3v.4a5.6 5.6 0 0 1-.3.7v.3l-.1.2-.1.1-.2.2-.1.2a4.3 4.3 0 0 1-.3.7v.6h-.1v.1l-.2.5v.5l-.2.4v.3l-.2.2v.2l-.2.2h-.1v.5l-.1.5h-.1v-1a5.5 5.5 0 0 0-.2-.1l-.2-.2v-.1l-.1-.1-.2-.2-.2-.3-.3-.8a18 18 0 0 0-.9-1.6v-.1h-.1l-.1.2v.2h-.2v-.2c-.1.3-.2.4-.2.2v-.7a.5.5 0 0 1-.3-.3v-.2a1.8 1.8 0 0 1 .1-.5v-.2l.2-.1.6-2a27.2 27.2 0 0 0 .4-1.4l.1-.2.1-.2v-.1l.1-.1 1-3a24.6 24.6 0 0 0 .7-2l.1-.4.4-.8.4-1 .2-.8c0-.2.2-.3.3-.5l.7-.2h4.7l.2.2.2.2a2 2 0 0 1 .2.5v.4l.3.4v.2l.1.3.1.3v.1l.1.1v.2l.3.4.3.9v.2l.3.6.2.7.2.6.2.7 1 2.8.2.6a12.6 12.6 0 0 1 .4 1.3l.5 1.2v.3Zm-7.4-8.5-.2.4v.3l-.5 1.5a9.6 9.6 0 0 1-.2.9v.1l-.1.2v.1h-.1 2.2V75.9l-.1-.2v-.2a11.4 11.4 0 0 1-.4-1l-.4-1.1v-.4l-.1-.1v-.2h-.1Zm19.8 8.4V81.7h-.1l-.2.2-.1.1-.2.1-.2.2H126.6l-.2-.1V82v.6l-.3.3v-.8h-.1l-.1.2h-.1l-.1.2-.3.2-.2.2a17.8 17.8 0 0 0-.2 2v-1l-.1-1-.2-.2v-.2l-.1-.1v-.1h-.2v2h-.4v-2h-.3l-.2.2v.2h-.1v1a8.1 8.1 0 0 1-.2 1.1h-.1V83h-.1v.5l-.1-.5v-.4l-.1-.1v-.1l-.2-.1v-.1l-.1-.1-.1-.1v.4h-.2v.1c-.1 0-.1.1-.1 0v-.4l-.2.1-.2.2h-.1v.5l-.1.1v.2h-.2v-.4l-.1-.3-.1-.1-.2-.2a2.4 2.4 0 0 0 0-.2v.2l-.1.2-.1.1-.1-.2v-.2l-.1.2-.1.1a16.6 16.6 0 0 0-.8 1.3c0 .2-.1.2-.2.3l-.1.1v.1l-.1.2v.2h-.2v-.3l-.1-.3h-.1V84l-.1-.1-.2-.3-.2-.3-.3-.3-.2-.4-.2-.2-.1-.2h-.2V82l-.1-.1v.9a37 37 0 0 1-.1 2v-1.5c0-.5 0-1-.2-1.5l-.2-.1-.1-.4V68.2l.1-.2H117l.2-.1h4.1l.1.1c.2.1.2.2.2.3v9.4l.1.1h5.5l.3.1.1.1v.2l.1.1V81Zm6.5-.6v1.1l-.2.4-.1.2-.1.2-.2.2v-.2l-.1-.1-.2.1v.1l-.2.3-.1.2h-.2a5.6 5.6 0 0 1-.2.6 12 12 0 0 1-.2-.6 5.5 5.5 0 0 0-.2-.3h-.2v.3h-.1v-.1l-.1-.2-.1.1-.2.2v.9l-.1 1.2a7.6 7.6 0 0 1-.2 1.5l-.1.1-.1-.1V86l-.1-.3v-1.7a5.9 5.9 0 0 0-.1-.6v.4s0 .1 0 0l-.1-.4-.1-.7h-.1v-.2l-.4-.3-.1-.1-.2-.1v.3l-.1.2s-.1 0 0-.2V82l-.1-.1v.1-.2h-.2c-.2-.1-.3-.3-.3-.5a4.1 4.1 0 0 1 0-.8V68.2l.2-.2h.2l.2-.1h4.2l.3.3v12.2Zm16.1.7.1.2v.4l-.2.2v.2l-.1.2v.2l-.2-.1v-.2l-.1.2-.2.2a12.4 12.4 0 0 0-1 1.9l-.2.1v.5l-.1.3-.1-.1v-.7a.7.7 0 0 1-.2-.2l-.1-.3-.1-.2-.3-.4-.3.2h.2v.2s0 .2-.2.3v-.3a7.7 7.7 0 0 1-.1-.5l-.2-.3a3.3 3.3 0 0 1-.2-.4v-.2l-.1-.1-.1-.1-.3.1.3-.1-.3.2.2-.1.1-.1-.3.1-.1.3v.2-.4l-.1-.3a3.3 3.3 0 0 1-.3-.5v-.1h-.1v-.1l-.2-.5a4.9 4.9 0 0 0-.3-.7V80h-.1v.1l-.1.1a3 3 0 0 1-.3.5 7.5 7.5 0 0 0-.5 1.2 7.8 7.8 0 0 1-.4.9l-.1.4-.2.3v.1h-.2c0 .1-.1 0-.2 0v-.2l-.2-.3-.2-.5V82a57.4 57.4 0 0 0-.4-1.2v-.1l-.1-.1V80.4h-.1v.4l-.1.5-.1-.3v-.7l-.1.1-.2.2-.1.1a33 33 0 0 0-.2.5v-.5l-.2-.3-.2-.2-.1-.3v.5l-.1.1v.3l-.2.2v.3l-.2.2v.1l-.2.2-.1.2a4.8 4.8 0 0 1-.3.7v.3a28.6 28.6 0 0 0-.2.4v.5l-.2.5v.4l-.2.3v.2l-.2.2v.2h-.3a64.7 64.7 0 0 0-.2.5v-.5a6.7 6.7 0 0 1-.2-.1l-.1-.2v-.1l-.2-.1-.1-.2-.2-.3-.4-.8a19.4 19.4 0 0 0-.6-1.4l-.2-.2-.1-.1-.2.2v.2h-.2v-.2.2l-.1-.7-.3-.1V80.9l.2-.2v-.1l.7-2a36.8 36.8 0 0 0 .4-1.4l.1-.2a11.4 11.4 0 0 1 .2-.4l1-3a34.6 34.6 0 0 0 .8-2.4l.4-.8.3-1 .3-.8c0-.2.2-.3.3-.5l.7-.2h4.7l.1.2.3.2a2.1 2.1 0 0 1 .1.5l.1.2v.2l.2.4.1.2.1.3.1.3v.2l.1.2.3.4.3.9v.2l.3.6.2.7.2.6.2.7 1 2.8.2.6a13.8 13.8 0 0 1 .4 1.3l.4 1.2.1.3Zm-7.4-8.5-.2.4v.3l-.5 1.5a9.1 9.1 0 0 0-.2.6 5 5 0 0 0-.2.6v.1h2.2V75.9l-.2-.2v-.2a9.1 9.1 0 0 1-.3-1l-.4-1.1v-.4l-.1-.1a5.9 5.9 0 0 0 0-.2h-.1Z" fill="#51829B"/></g><defs><filter id="a" x="9" y="49.7" width="161.5" height="59.1" filterUnits="userSpaceOnUse" color-interpolation-filters="sRGB"><feFlood flood-opacity="0" result="BackgroundImageFix"/><feColorMatrix in="SourceAlpha" values="0 0 0 0 0 0 0 0 0 0 0 0 0 0 0 0 0 0 127 0" result="hardAlpha"/><feOffset dy="2"/><feGaussianBlur stdDeviation="10"/><feComposite in2="hardAlpha" operator="out"/><feColorMatrix values="0 0 0 0 0.960784 0 0 0 0 0.929412 0 0 0 0 0.929412 0 0 0 0.4 0"/><feBlend in2="BackgroundImageFix" result="effect1_dropShadow_116_130170"/><feBlend in="SourceGraphic" in2="effect1_dropShadow_116_130170" result="shape"/></filter></defs></svg>