<svg width="180" height="150" fill="none" xmlns="http://www.w3.org/2000/svg"><path clip-rule="evenodd" d="m58.6 43.5 3.5-.3 1.6-.7 1 2 2.6.8 3.2-2.3.1-1-2-3.2.3-.6 1.2.8 2.8-.3 4-1.5.5-1.2h1v1.2l1 1-1.4 3 2.6 3 3.4-1.7 2.5.1-.4-1 2.5-.2 1.5.7h2.8l2-4.5h.8l1.8 4.4 1.7 1.7-2 1.7 1.4.9 5 1.1 5.4 2.1 1.7 2.3 1.7-.6 1.4 1 5.5.5 5 4.6 3.7.7 1.2 3.3-.6 2.8-1.9 2.8-3 2.2-2.4 4.3-1-.7-1 4.1.5 1.8-1.2 4.2-2.3 5.4-1.9 1.2.1 1.5-4.7 1.5-2.1.8-6 3-1.4 2 .5 2.6-3 4.7-2 3.3-.8-1.3-1 1.8-.1 1-2 3-.9-.6.9-1.5-3.8-3.7-.9.6-1.4-2.2-.8.6-.8-.4 3.3-4 3.9-2.3-.7-3-1 .5-.4-.2.6-3.5-2 .3-.3-2.9-4.3-.8-.6-4.2 1.1-2.7v-1.8l-1.6-.7-.2-1.4-3-.6-.8-2.5v-2.5l-1.8-.1-8-3.3-.5-2 .6-1.4-1.1-1.1-5.1 3.4-4.3-.4-.1-2.5-1.6 1.3-2.6-1.2-2.7-4.2 1.2-1.8.8-3 3.8-1.9 1.7.2 1-6.5-1.3-1.8-.1-1.4 1.1-.8-.6-1.8Z" stroke="#F6995C"/><g filter="url(#a)"><path d="m65.2 77.5-.1 1c-.2.7-.6 1.4-1.2 2v1.1c0 .2 0 .3-.2.4 0 .1-.1 0-.1 0V80.6c0 .3-.2.5-.3.7l-.2.1v-.2a1120.1 1120.1 0 0 1-1.1 1.6 4 4 0 0 1-.8 1.2 7.6 7.6 0 0 1-.6.6v.3l-.2.4h-.1v-.8H60v-.1l-.1-.1-.1-.2v-.1l-.2-.1-.1-.1-.2-.2v-.2a6.2 6.2 0 0 1-.7-1.2v-.2l-.2-.2a2141.3 2141.3 0 0 1-.3.2H58v.2l-.3.3-.2.5-.1.4v.2h-.1a83.3 83.3 0 0 1-.4.8 2.5 2.5 0 0 1 0 .5l-.1.1v-.2l-.2-.4v-.4h-.2v.2a184.5 184.5 0 0 1-.3 0l-.1-.1V84a6 6 0 0 1-.4-.6l-.3-.4V83l-.2-.1v-.1l-.2-.1a13.8 13.8 0 0 0-.4-.4l-.2-.1-.2-.1h-.5l-.2.1h-.1v1a13 13 0 0 1-.1 1.1l-.2-.4a294 294 0 0 0 0-1.1l-.2-.9v.8l-.1-.2v-.4l-.2-.5a.5.5 0 0 1-.3-.5V67.9l.1-.1.4-.2H60a6 6 0 0 1 .6 0h.2a34.7 34.7 0 0 1 1.5.4h.2a4.2 4.2 0 0 1 1.6 1.1l.3.4.2.3.1.3a5.3 5.3 0 0 1 .3 2c0 .3 0 .5-.2.7v.2l-.2.2a2.8 2.8 0 0 1-.3.4l-.2.3-.2.1v.6l.2.1.1.1.3.3.4.5c.3.5.4 1 .4 1.6v.3Zm-7.9-6.4h-.1v1.8H59l.3-.3c.2-.2.2-.4.2-.5v-.7l-.3-.2h-.6a4 4 0 0 1-1 0l-.4-.1Zm-.1 7h2.1c.2 0 .4-.2.5-.5.1-.3.2-.6 0-.9l-.1-.2c-.1-.2-.3-.2-.5-.2a12.3 12.3 0 0 1-1 .1h-.4l-.2-.1h-.4v1.9Zm22.6 3v.3h-.1v.2l-.2.1v.2l-.4.6-.1.3-.2.2v.1h-.1v-.6l-.1-.6-.2.1-.1.1-.1.1-.2-.2-.1-.2v.3l-.1.3v-.1l-.1-.4-.2.2h-.1v.4a2.5 2.5 0 0 1-.1.6v.1l-.1-.2V83a200 200 0 0 0-.3-.6v.1l-.2.1v.2h-.1l-.1.7v1l-.1.3-.1-.2v-.3a15.7 15.7 0 0 1 0-1.6H76l-.1-.2-.1-.2h-.2l-.1-.2h-.2v.5l-.1.6-.1-.2v-.2H75l-.1-.1c-.1-.1-.2-.2-.1-.4v-.4.2l-.1-.2v-.1c-.1 0-.2-.1-.1 0l-.1-.4-.1-.1-.1-.1V81a119.3 119.3 0 0 0-1.2-2.6L73 78V78l-.1-.1v-.1l-.1-.1v-.2l-.1-.1-.2-.1v.2l-.1.1-.1.1-.2.1-.1-.2-.1-.2-.1-.1v4l-.1.1h-.1v.1l-.1.1h-.1v.2h-.2v.5a2.5 2.5 0 0 1-.2.5v.1l-.1-.1v-.1l-.1-.2V82.2l-.1-.1-.1.1-.2.1a21.3 21.3 0 0 0 0 2.6c0 .1 0 .2-.1.1-.1 0-.2-.2-.1-.4v-.4a633.8 633.8 0 0 1 0-1.9H70V82L70 82l-.1-.2a44.8 44.8 0 0 1-.3.1l-.3-.1-.3-.2-.2.1-.2.1h-1a14 14 0 0 1-.5-.3.5.5 0 0 1-.2-.4V68.2a.5.5 0 0 1 .3-.5h.2c0-.1.1-.1.2 0h5.9c.3-.1.6 0 .8 0a7.2 7.2 0 0 1 3.6 1.2v.1c.5.4.9 1 1.2 1.5.2.6.4 1.2.4 2l-.2 1.2c0 .3 0 .5-.2.5v.1l-.2.5a4 4 0 0 1-.4.5v.1l-.2.2h-.1v.1l-.2.1v1l.1 1 .1.2v.1l.5.9.5.8a10 10 0 0 0 .6 1.1V81.2ZM72 73.6h1.6l.3-.3.2-.4a1.1 1.1 0 0 0 .1-.5V72l-.3-.4h-1.7l-.2-.1h-.1v2h.1Zm5.7 3.6v-1 .4h-.2v-.1h-.2v.1l.1.1.3.5Zm-2.6 5v-.2.2Zm20-1.3.2.2v.4l-.1.1-.1.2-.1.2V82.2h-.1V82l-.3.2-.1.2a14.2 14.2 0 0 0-1 1.9l-.2.1v.1l-.1.4v.3H93v-.5l-.1-.3-.1-.2-.2-.3v-.2l-.3-.4h-.1l-.2.2.1.1.1.1s0 .2-.2.3v-.3a12 12 0 0 1-.2-.5l-.1-.3-.2-.2v-.4l-.2-.1V82l-.3.1.2-.1-.2.2.1-.1.2-.1-.3.1H91v.5l-.1-.4V82a3.3 3.3 0 0 1-.3-.5l-.1-.1A29.8 29.8 0 0 0 90 80V79.7h-.2v.2l-.2.3v.2a8 8 0 0 0-.6 1.2 7 7 0 0 1-.4.9 566.1 566.1 0 0 1-.5.9h-.2l-.1-.3a294 294 0 0 0-.8-2.6v-.1a29.8 29.8 0 0 0-.1-.4l-.1.4v.5h-.1v-.3l-.1-.3V80v.1l-.1.1v.1l-.2.1a67.5 67.5 0 0 0-.3 0l-.2-.3-.1-.2-.2-.3v.1c.1 0 .1.1 0 .2V80.2a224.9 224.9 0 0 1-.2.5l-.1.3v.2l-.2.1-.1.2-.1.1v.1a4.6 4.6 0 0 1-.3.7v.3a294 294 0 0 1-.2.4l-.1.5-.1.5-.1.4-.2.3v.2l-.1.2-.1.2h-.2a653.3 653.3 0 0 1-.2.5v-.5H83v-.1l-.3-.2v-.2l-.3-.2-.1-.3a18.9 18.9 0 0 0-1-2.2h-.1l-.1-.2-.2-.1v.2l-.2.2h-.1V82l-.1.2v-.7h-.1l-.2-.1v-.2c-.1 0-.1-.1 0-.2v-.5l.1-.2.1-.1.7-2a29.5 29.5 0 0 0 .4-1.4v-.2a119.3 119.3 0 0 0 .3-.4l1-3a27 27 0 0 0 .6-2l.1-.4.4-.8.4-1 .3-.8c0-.2.1-.3.3-.5l.6-.2H90l.4.1.2.1.2.2a2 2 0 0 1 .2.5v.2l.1.2.2.4v.2l.2.3v.3l.1.1V70.5c.2 0 .3.2.3.4l.4.9v.2l.3.6.2.7.2.6.1.7 1 2.8.3.6a13.1 13.1 0 0 1 .4 1.3l.4 1.2v.3Zm-7.4-8.5v.1l-.1.3v.3l-.6 1.5v.4a2.4 2.4 0 0 1-.2.5V75.7h-.1v.2h2.2v-.2l-.1-.2v-.2l-.2-.2a10.2 10.2 0 0 1-.3-1L88 73l-.1-.4v-.1l-.1-.2Zm20.8 8v.5a1.3 1.3 0 0 1 0 .5h-.1l-.1.2-.1.1-.1.4c0 .1 0 .2-.2.3 0 .2-.1.2-.3 0v-.1l-.2-.3v.2h-.2a3.1 3.1 0 0 0-.3.1V82l-.1.3a14.8 14.8 0 0 0 0 1.5h-.1v-.4l-.1-.3v-.9l-.3.3a4.2 4.2 0 0 1-.3.2v.1l-.1.1-.1.2v-.1l-.1-.1v-.1l-.3-.2c0-.1 0-.2-.2-.2h-.1l-.3.1v-.2h-.1v.2l-.1.2V82H104.2v.3l-.1.3-.1.1a273.4 273.4 0 0 0-.4.4 3.7 3.7 0 0 1-.4.6l-.2.1h-.8a22.2 22.2 0 0 1 0-1.8h-.2l-.2.2-.1.3a2.1 2.1 0 0 0-.2.4l-.2.1v.9l-.1.9V86.2l-.1.4a2 2 0 0 1 0 .5h-.1l-.1-.1v-1.1l-.1-1.3c0-.3 0-.7-.2-1.1l-.1.2h-.1l-.1.1a138.2 138.2 0 0 0-.3 2.3l-.1-.7v-1.7h-.1a1.8 1.8 0 0 1-.2-.4c0-.2-.1-.3-.2-.3l-.2-.3-.4-.6V82l-.1-.1h-.1V83h-.4v-1h-.1c-.2.4-.2.7-.2 1v.9a141.4 141.4 0 0 0-.4 1.3c-.1 0-.2 0-.2-.3v-.7l.1-1v-.7h-.1l-.2-.1-.2-.2v.5a11.5 11.5 0 0 1 0 1c0 .1 0 .1-.1 0a.7.7 0 0 1-.2-.4V82v.8l-.1-.1a3.5 3.5 0 0 0-.1-.5 32.6 32.6 0 0 1 0-.6h-.1a.6.6 0 0 1-.3-.2v-.2L96 81v-3l.2-.3.3-.3.3-.3.3-.4.8-.7.9-1 .7-.8.7-.6.6-.7.6-.6.2-.2.1-.1.1-.2h.1-1.3l-.1.1h-.2a10.2 10.2 0 0 1-1.2.4h-.6l-.1-.1h-.1v.5l-.1.2v.4H98L98 73l-.1-.1-.1-.2h-.1l-.1-.2h-.2v-.1h-.1l-.2-.1-.2-.1-.1-.1-.2-.2v-.1l-.1-.1-.1-.1-.1-.1a2.8 2.8 0 0 1 0-.1v-.1l-.1-.2v-3c0-.1 0-.2.2-.3l.3-.2h11.1c.3 0 .4.2.4.5V70.8a1.3 1.3 0 0 1-.2.8l-.1.2-.2.2-.5.5v.1l-.2.1-1.5 1.7a319 319 0 0 0-1.1 1.3l-.5.5-.2.2-.2.2-.4.4v.1l-.4.4h5l.6.1.1.1v.2l.1.4v2.1Zm-10.8 2.2v.6l.1.8a17.3 17.3 0 0 0 0-1.4c0-.2 0-.2 0 0Zm17.7-2.4v1.1l-.2.4-.1.2-.1.2-.2.2V82l-.1-.1-.2.1v.1l-.2.3-.1.2-.2.1a5.6 5.6 0 0 1-.2.5 12 12 0 0 1-.2-.6v-.1h-.1l-.1-.2h-.2v.3h-.1v-.1l-.1-.2-.1.1-.2.2a77.6 77.6 0 0 1 0 1l-.1 1a7.6 7.6 0 0 1-.2 1.6l-.1.1-.1-.1v-.4l-.1-.3v-1.7a5.9 5.9 0 0 0-.1-.6v.4s0 .1 0 0l-.1-.4-.1-.7h-.1v-.2l-.4-.3-.1-.1-.2-.1v.3l-.1.2c-.1 0-.1 0 0-.2v-.3l-.1-.1v.1-.2h-.2c-.2-.1-.3-.3-.3-.5a4.1 4.1 0 0 1 0-.8V67.9l.2-.2h.2l.2-.1h4.2l.3.3V80Zm13.4.6V81.3l-.1.1-.2.2-.2.1v.1h-.2v.2h-.5v-.1l-.2-.1v.6l-.2.3-.1-.4V82l-.1.2h-.1l-.1.2-.3.2-.2.2h-.1a17.8 17.8 0 0 0-.1 2l-.1-1v-1l-.2-.2a12 12 0 0 1-.2-.3v-.1h-.1v1l-.1 1H125v-1l-.1-1h-.2v.1l-.2.1-.1.2v.2a214.1 214.1 0 0 0-.3 1.9v-1l-.1-.8v.4c0 .2 0 .2-.1.1v-.9h-.1v-.1l-.1-.1-.1-.1V82l-.2-.1v-.1.2l-.1.2h-.1v.1l-.2.1v-.5l-.1.1-.2.2-.2.1a14.1 14.1 0 0 0-.1.7h-.1l-.1-.4v-.3h-.1v-.1l-.2-.2a2.9 2.9 0 0 0 0-.2l-.1.2v.2h-.1v.1h-.1V82l-.1.2-.1.1a16.7 16.7 0 0 0-.8 1.3v.1l-.2.2-.2.1v.4l-.1.1h-.1l-.1-.3v-.3h-.2v-.2h-.1a33.3 33.3 0 0 1-1.2-1.6l-.1-.2h-.1v-.1.9a37 37 0 0 1-.2 2V83l-.1-1.5-.2-.1-.2-.4V68h.1l.1-.2H118.1l.1-.1h4.2v.1h.2v.3l.1.2V77.5h5.6l.3.1v.1l.2.2v2.8Z" fill="#51829B"/></g><defs><filter id="a" x="32.2" y="49.6" width="116.6" height="59.8" filterUnits="userSpaceOnUse" color-interpolation-filters="sRGB"><feFlood flood-opacity="0" result="BackgroundImageFix"/><feColorMatrix in="SourceAlpha" values="0 0 0 0 0 0 0 0 0 0 0 0 0 0 0 0 0 0 127 0" result="hardAlpha"/><feOffset dy="2"/><feGaussianBlur stdDeviation="10"/><feComposite in2="hardAlpha" operator="out"/><feColorMatrix values="0 0 0 0 0.960784 0 0 0 0 0.929412 0 0 0 0 0.929412 0 0 0 0.4 0"/><feBlend in2="BackgroundImageFix" result="effect1_dropShadow_116_130222"/><feBlend in="SourceGraphic" in2="effect1_dropShadow_116_130222" result="shape"/></filter></defs></svg>