<svg width="180" height="150" fill="none" xmlns="http://www.w3.org/2000/svg"><path d="m67.5 48.2-.2-.5-.5.3.3.5.4-.3Zm2.9-1.7V46h-.2l.2.5Zm1.5 6.7-.4.3.2.3.3-.1-.1-.5Zm5.5-1.3.1-.5h-.2l.1.5Zm4.3.7-.1.4v-.4Zm5.2-.1v.5h.2l-.2-.5Zm2.3-.8.1.5.3-.1v-.2l-.4-.2Zm.6-1.7.4.2.2-.4-.3-.2-.3.4ZM88 48.9l-.3-.4-.4.4.5.4.2-.4Zm1.5-1.7.3.4.2-.3v-.2l-.5.1Zm-.7-1.7h-.5v.2l.5-.2Zm.3-2.5h.5V42.7l-.5.3Zm-.7-1.3-.4-.2-.2.2.2.3.4-.3Zm.7-1 .4.2v-.2h-.4Zm.5-3.7h.5v-.1h-.5Zm-.5-4h.5l-.1-.6-.6.1.2.5Zm-3.9 1v-.5H85l-.1.1.3.4Zm-4.2 4.2-.3-.4-.1.1v.2h.4Zm-.7 2.8.3.4h.2V41l-.5-.1Zm-1.2.6-.2-.4-.2.1v.2l.4.1Zm-.5 1.7v.5h.4l.1-.4-.5-.1Zm-1.8.2V43h-.4l-.1.3.5.2Zm-.7 1.8-.3.4.5.5.3-.7-.5-.2ZM75 44.1l.4-.3-.3-.2h-.2l.1.5Zm-2.5 1-.1-.6-.3.1v.3l.4.1Zm-.5 1.4v.5h.4l.1-.4-.5-.1Zm-20.3 8.3.4-.3-.4-.5-.4.5.4.3Zm2.4 3-.4.3.2.2h.3v-.5ZM40.6 70l-.4-.3-.3.5.5.3.2-.5Zm1.4.8h.5v-.3l-.3-.1-.2.4Zm0 3.8h-.4v.7l.6-.2-.1-.5Zm2.9-.9h.5v-.6l-.7.2.2.4Zm0 7.6h-.5v.2l.5-.2Zm1.2 2.2.4.3.1-.3v-.2l-.5.2Zm-2.6 3.7-.4.3.4.6.5-.6-.5-.3Zm-.8-1.3.4-.3-.1-.2h-.2l-.1.5Zm-2.3-.7.2-.5-.5-.1-.1.5.4.1Zm-.4 2.3h-.5v.1h.5Zm.4 1.9-.5.1v.2l.2.1.3-.4Zm.7.5-.3.4.4.3.3-.5-.4-.2Zm.8-1.8.2-.4-.4-.2-.2.4.4.2Zm1.2.4-.1.4.1-.4Zm1.6 0h.5v-.4h-.4v.5Zm.3 3.2.4.3V91.7H45Zm-2.2 3-.4-.3-.2.3.1.2.5-.2Zm3.4 6.7-.5.2.3.5.4-.3-.2-.4Zm2.2-1.3.1-.5h-.4l.3.5Zm12.5 3.9-.1.5.1-.5Zm14.4 1.7v.5-.5Zm11-.4v-.5h-.1v.5Zm7.1 1.1v.5h.2l.2-.1-.4-.4Zm2.3-2.1v-.5h-.2l-.2.1.4.4Zm2.3 0 .2-.4H98v.4Zm2.1 1.1.4-.3-.1-.1-.3.4Zm2.6 3-.4.3.2.2h.3v-.5Zm4.9-.6.4.3.6-.9-1 .1v.5Zm-.9 1.3-.4-.2V109.2h.4Zm.3 3.8.5.2V112.8h-.5Zm-1.7 3.1-.4-.2-.2.4.3.2.3-.4Zm1.2.8-.3.4.3.2.3-.2-.3-.4Zm5.8-3.8.2.4.4-.3-.2-.4-.4.3Zm-1-2.1-.3-.4-.3.3.2.3.4-.2Zm4.6-4.6-.2-.4h-.1l.3.4Zm5.7-3 .3.5.2-.2v-.3h-.5Zm-.5-5.4v-.5h-.5v.6h.5Zm2.1 0 .4-.4-.2-.2h-.2v.5Zm3.2 3-.3.4.4.3.3-.4-.4-.3Zm1.2-1.4.4-.4-.4-.3-.3.3.3.4Zm1 .7.5.2v-.3l-.2-.2-.3.3Zm-.3 1.2h-.5l-.1.2.3.2.3-.4Zm1.7 1.2-.3.4.5.4.3-.6-.5-.2Zm4.3-9.4.5.2.2-.5-.4-.2-.3.5ZM132 92l.2-.5h-.5l.3.5Zm-3.2 2.1-.2.5h.5l-.3-.5Zm-3-1h-.4v.3l.3.1.2-.4Zm-.3-2v-.5l-.6.1v.5h.6Zm2.6-.3v.5h.4V91l-.4-.2Zm.4-1.6.5.2.2-.8-.8.1.1.5Zm-4 .6-.4-.1-.3.8.8-.2v-.5Zm.4-.9-.3-.4-.2.1v.2l.5.1Zm4-2.8.3.4.2-.1v-.2l-.5-.1Zm1-3.4.3-.4-.6-.3-.2.6.5.1Zm1 .5h.5v-.3l-.3-.1-.2.4Zm1.7 7-.5.2.2.6.5-.3-.2-.5Zm5.9-3.7-.1-.5h-.2l.3.5Zm2.5-.4v.5h.8l-.4-.7-.4.2Zm-1.3-1.8.4-.3v-.1h-.1l-.3.4Zm-3.2-1.8.2-.4-.2-.1h-.2l.2.5Zm-3.5.8-.4.3.2.2h.3l-.1-.5Zm-2.3-3.2.4-.3-.4.3Zm-2-2 .4-.4-.3-.3-.3.2.2.4Zm-1.3.7-.3.4.3.1.2-.1-.2-.4Zm-2.3-1.5.3-.4-.2-.2h-.2l.1.6Zm-2.9.6v.5h.1V78Zm-2.8-.3h-.5v.4l.5.1v-.5Zm0-1.4h.4v-.3l-.2-.1-.3.4Zm-7-4.2.2-.4-1.1-.7.3 1.3.5-.2Zm1 3.6.4.3v-.4l-.5.1Zm-1.1 1.8v.5h.2l.2-.2-.4-.3Zm-2.3 0-.5.3.2.2h.3v-.5Zm-2-3.2.5-.3-.1-.2h-.3v.5Zm-1.7 0-.2.5h.1v-.5Zm-3-1.1.2-.5h-.4l.3.5Zm-1.4 1v.4H102.1l-.3-.5Zm-2.1-.4v-.5h-.3l-.2.3.5.2Zm-.5 1-.5-.2-.1.3.1.2.5-.2Zm2 4.2h.6v-.2l-.5.2Zm0 2.6h-.4v.3l.2.2.3-.5Zm3.2 2 .5-.2v-.2h-.3l-.2.3Zm.6 3.3.4.3.1-.2v-.2l-.5.1Zm-2 3-.4-.3-.2.3.2.3.4-.3Zm2.6 3.9h.5v-.2l-.5.2Zm0 1.8.4.4.2-.2v-.2h-.5Zm-1.3 1-.3.4.3.2.3-.2-.3-.4Zm-3-1.7-.4.1v.2h.2l.3-.3Zm-1.8-5h.4v-.4h-.4v.5Zm-4.7.1-.2.5h.2V90ZM90 87.6l.2-.5H90l.1.5Zm-2.5.7-.5.2.2.4.4-.1-.1-.5Zm-1.4-3 .5-.3-.2-.2h-.3v.4Zm-1.5-.2h-.5v.5h.4v-.5Zm0-5.3-.5-.3-.1.1v.2h.5Zm4.3-5.4.4.3v-.1l-.4-.2Zm1-3 .2-.5-.5-.3-.2.6.5.1Zm.9.3h.5v-.3l-.3-.1-.2.4Zm-.2 2.8h-.5v.3l.3.1.2-.4Zm1.8 1-.3.4.5.2.2-.4-.4-.3Zm1.2-2.5.3-.4-.5-.3-.3.5.5.2Zm1.4 1-.3.3.5.3.2-.4-.4-.3Zm1-1.7.4.3.2-.4-.3-.3-.3.4Zm-1.2-1 .4-.3-.1-.1-.3.4Zm-3.6-1.5-.5-.3-.3.5.6.3.2-.5Zm2.2-3.2.4.3.3-.3-.3-.3-.4.3ZM92 65.1h-.5v.2l.1.2.4-.4Zm.6-3.4v-.5l-.5-.1v.5h.5Zm3.2.7h.5V62h-.4l-.1.4Zm.6 2.7-.5.2.2.9.7-.7-.4-.4Zm1.7-2 .1-.4H98l-.2.2.3.3Zm1.7.4h.5v-.4l-.4-.1v.5Zm-.4 4.5.3.4h.2V68h-.5Zm-2.3 1.4L97 69l-.7.3.6.5.3-.4Zm1.6 1.2-.3.4.2.2.3-.2-.2-.4Zm2.9-1.4.2-.4-.2-.1h-.2l.2.5Zm3.6 2.2-.2.4v.1h.2v-.5Zm4.6-.3v.5h.5V71h-.5Zm0-.9h.4v-.3l-.3-.1-.2.4Zm-3.5-1.5-.4-.2-.3.5.5.2.2-.5Zm.4-.5v-.5h-.2l-.2.2.4.3Zm3.1-.2v.5h1l-.5-.8-.5.3Zm-1.4-2 .4-.4-.1-.1h-.2l-.1.4Zm-3.7-1.4-.5.2v.2l.3.1.2-.5Zm-.5-1.8.1-.5-.9-.3.3 1 .5-.2Zm4.1 1.4-.1.5.7.2V64h-.6Zm-.3-4h.5v-.4h-.4l-.1.4Zm-3.6-1.1.2-.5h-.3l-.2.1.3.4Zm-.8.9v.5h.1l.2-.2-.3-.3Zm-2.4-.2h-.5v.5h.5v-.5Zm.4-1.9.5.1v-.3l-.3-.2-.2.4ZM97 55.6l.2-.5H97l.2.5Zm-1.2.6-.3.4.3.2.3-.1-.3-.5ZM91.6 53l.3-.4-.2-.2-.3.1.2.5ZM88 54.4v.5h.2l-.2-.5Zm-3.5.1v.5-.5Zm-4 0v-.6.5Zm-1.9.2v-.4h-.3v.1l.3.3Zm-1.4 1.9-.4-.3-.2.3.2.3.4-.3Zm2.6 3.2-.4.3.2.2h.2v-.5Zm1.3.1h.5v-.5h-.4v.5Zm.4 2.3.2.5.3-.2v-.3h-.5Zm-1.5 1-.2.5h.5l-.3-.5Zm-1.5-.7-.4.4h.2l.2-.4ZM76 60.3h-.5v.2l.2.2.3-.4Zm0-4.3h.5v-.2l-.5.2Zm-.3-1.1.5-.1-.2-.6-.5.2.2.5Zm-3.4 1.6-.4.4.3.2.3-.1-.2-.5ZM70 54.4l-.4.3.4-.3Zm-2.7-3 .4-.4-.2-.2h-.2v.5Zm-1.8-.2v-.5h-.4v.4l.4.1Zm-.2 1 .4.3v-.2h-.4Zm-2.2 3.3-.4-.2-.2.2.2.3.4-.3Zm.7 1h.5V56.2l-.5.3Zm0 1.2h-.4v.4h.4v-.4Zm2.6 0h.5l-.1-.4h-.4v.5Zm.9 2.5.4.3.1-.2V60l-.5.1Zm-.9 1.5v.5h.3l.2-.3-.5-.2Zm-3.1-.8-.4.3.1.1h.2l.1-.4Zm-2.7-3.2.4-.3-.2-.2h-.2v.5Zm-4.7-.3v-.5h-.1v.5Zm11.8-8.8 2.8-1.7-.5-.9-2.8 1.7.5.9Zm4.5 4.3-4.4-5-.8.6 4.4 5 .8-.6Zm5-1.5-5.5 1.3.2 1 5.5-1.3-.2-1Zm4.5.7-4.3-.7-.1 1 4.2.6.2-1Zm5-.1h-5.1v1h5.2v-1Zm2.2-.8-2.3.8.4 1 2.2-.8-.3-1Zm.3-1.4-.6 1.7 1 .4.5-1.7-.9-.4Zm-1.4-.5 1.6 1.1.6-.8-1.7-1.2-.5.9Zm1.3-2.4-1.4 1.6.7.7 1.4-1.6-.7-.7Zm-.7-1.2.6 1.7 1-.3-.7-1.8-1 .4Zm.2-2.8-.3 2.6h1l.3-2.5h-1Zm-.6-1 .6 1.3 1-.5-.8-1.2-.8.5Zm.6-1.5-.6 1 .8.6.7-1.1-.9-.5Zm.5-3.5-.5 3.7 1 .1.5-3.7-1-.1Zm-.5-3.8.5 4 1-.2-.5-4-1 .2Zm-3.2 1.4 3.8-1-.3-1-3.8 1 .3 1Zm-4 4 4.2-4.2-.7-.7-4.2 4.2.7.7Zm-.6 2.6.7-2.8-1-.2-.7 2.8 1 .2Zm-1.5 1 1.3-.7-.5-.8-1.2.6.4.9Zm-.2 1.3.5-1.6-1-.3-.4 1.6 1 .3ZM77 44l1.9-.2-.1-1-1.9.2.1 1Zm-.2 1.5.6-1.9-1-.3-.6 1.9 1 .3Zm-2.1-1 1.3 1.2.7-.7-1.3-1.2-.7.7Zm-2 1 2.5-.9-.3-1-2.5 1 .3.9Zm-.2 1.1.5-1.4-1-.3-.4 1.4 1 .3Zm-2 .4h1.5v-1h-1.5v1Zm-19.2 8 2.4 3.1.8-.6-2.4-3-.8.6ZM41 70.4l11-15.2-.8-.6-11 15.2.8.6Zm1.2 0-1.4-.7-.4.9 1.3.7.5-.8Zm.4 4.3-.1-3.8h-1v3.8h1Zm2.1-1.3L42 74l.3 1 2.8-.9-.3-1Zm.7 8v-7.6h-1v7.6h1Zm1.1 2L45.4 81l-1 .4 1.2 2.2 1-.4ZM44 87.5l2.5-3.7-.8-.6-2.6 3.7.9.6ZM42.3 86l.8 1.4.9-.6-.9-1.3-.8.5Zm-2-.4 2.2.6.3-1-2.2-.6-.3 1Zm.2 2 .4-2.4-1-.2-.4 2.3 1 .2Zm.4 1.6-.4-1.9-1 .2.4 1.9 1-.2Zm.4.2-.6-.5-.6.8.7.5.5-.8Zm.2-1.6-.9 1.7 1 .5.8-1.7-1-.5Zm1.7 0-1.1-.2-.3 1 1.2.2.2-1Zm1.6.2L43 88v1h1.6v-1Zm.7 3.6-.3-3.2h-1l.3 3.3 1-.1ZM43.2 95l2.2-3-.8-.6-2.2 3 .8.6Zm3.4 6.2-3.4-6.7-.9.4 3.4 6.7 1-.4Zm1.5-1.5L46 101l.5.8 2.2-1.3-.5-.8Zm13 3.8-12.6-3.9-.3 1 12.6 3.9.3-1Zm14.2 1.7L61 103.5l-.1 1 14.3 1.7.1-1Zm10.9-.4-11 .4.1 1 11-.4-.1-1Zm7.3 1.1-7.2-1.1-.2 1 7.3 1.1.1-1Zm1.8-2-2.2 2.2.7.7 2.2-2.2-.7-.7Zm2.7 0-2.3-.1v1H98v-1Zm2.4 1.1-2.2-1.1-.4.9 2.1 1 .5-.8Zm2.7 3-2.6-2.9-.7.7 2.5 2.9.8-.7Zm4.4-.7-4.8.6v1l5-.6-.2-1Zm-.3 2 .8-1.2-.8-.5-.9 1.3.9.5Zm.3 3.5-.3-3.7h-1l.3 3.8h1Zm-1.7 3.5 1.7-3.2-1-.5-1.6 3.2.9.5Zm1 0-1.2-.7-.6.8 1.2.8.6-.8Zm5.2-3.8-5.8 3.9.6.8 5.7-3.8-.5-.9Zm-1.1-1.4 1 2 .8-.4-1-2-.8.4Zm4.7-5.1-4.6 4.5.7.7 4.6-4.5-.7-.7Zm5.8-3-5.7 2.9.5.9 5.6-3-.4-.9Zm-.8-5 .5 5.4h1l-.5-5.5h-1Zm2.6-.7-2 .1v1h2v-1Zm3.6 3.2-3.2-3-.7.7 3.2 3 .7-.7Zm.5-1.4-1.3 1.5.8.6 1.2-1.4-.7-.7Zm1.6.8-1-.8-.6.8 1 .7.6-.7Zm-.1 1.7.3-1.2-1-.3-.3 1.2 1 .3Zm1.5.6-1.7-1.2-.6.8 1.7 1.2.6-.8Zm3.6-9.2-4.3 9.4.9.4 4.3-9.4-1-.4Zm-2.1-.6 2.3 1.2.5-.9-2.4-1.2-.4 1Zm-2.7 2.1 3.2-2-.6-1-3.2 2.2.6.8Zm-3.4-1 3 1 .3-.9-3-1-.3 1Zm-.7-2.3.4 2 1-.2-.4-2-1 .2Zm3-.8-2.6.2.1 1 2.6-.3v-1Zm0-1.3-.4 1.6 1 .3.4-1.6-1-.3Zm-3.4 1.2 4-.6-.2-1-4 .6.2 1Zm-.2-1.5-.3.9 1 .3.2-1-1-.2Zm4.3-3.1-4.1 2.8.5.8 4.1-2.8-.5-.8Zm.7-3.1-1 3.4 1 .2 1-3.4-1-.2Zm1.7.2-1-.5-.4.8 1 .6.4-1Zm2 7.3-1.7-7-1 .2 1.7 7 1-.2Zm5-4-5.8 3.7.5.9 6-3.8-.6-.8Zm2.8-.5-2.5.4.1 1 2.5-.4-.1-1Zm-1.6-1 1.2 1.8.9-.5-1.3-2-.8.6Zm-3-1.7 3.2 1.8.5-.9-3.3-1.7-.5.8Zm-3.2.9 3.5-.8-.3-1-3.4.8.2 1Zm-2.8-3.5 2.3 3.3.8-.6-2.3-3.2-.8.5Zm-2-2 2 2.1.8-.7-2-2-.8.7Zm-.7.9 1.3-.7-.4-.9-1.3.7.4.9Zm-2.8-1.5 2.3 1.5.6-.9-2.3-1.4-.6.8Zm-2.5.7 3-.6-.3-1-2.9.7.2 1Zm-3-.3 2.9.3v-1l-2.7-.3-.1 1Zm-.5-1.9.1 1.4h1V76l-1 .1Zm-6.7-3.8 7 4.2.5-.8-7-4.2-.5.8Zm1.7 3.1-1-3.6-1 .3 1 3.6 1-.3Zm-1.1 2.2 1-1.8-.8-.5-1 1.7.8.6Zm-2.7.2h2.3v-1H110v1Zm-2.3-3.5 1.8 3.3.9-.5-1.9-3.3-.8.5Zm-1.4.3h1.8v-1h-1.8v1Zm-3.1-1.1 2.9 1 .4-.8-3-1.2-.3 1Zm-1 .8 1.4-.9-.5-.8-1.5 1 .6.7Zm-2.5-.2 2.1.3.2-1-2.1-.3-.2 1Zm0 .8.5-1-.9-.5-.5 1 1 .5Zm2.1 3.7-2-4.2-1 .5L101 79l1-.4Zm0 2.8V79h-1v2.6h1Zm3 1.5-3.2-1.9-.5.9 3.1 1.9.5-.9Zm.8 3.7-.6-3.4-1 .2.6 3.4 1-.2Zm-2 3.4 2-3-1-.6-2 3 1 .6Zm2.6 3.3-2.7-3.9-.8.6 2.6 3.9.9-.6Zm0 2v-1.7h-1v1.8h1Zm-1.5 1.5 1.4-1-.6-.8-1.4 1 .6.8Zm-3.5-1.7 3 1.7.5-.8-3-1.8-.5.9Zm-2-5.1 1.8 4.8 1-.3-2-4.9-.9.4Zm-4.3.3h4.7v-1h-4.7v1Zm-5-2.4 4.8 2.4.4-1-4.8-2.3-.4 1Zm-2.2.8 2.5-.7-.2-1-2.6.7.3 1Zm-2-3.4 1.4 3 1-.3-1.4-3-1 .3Zm-1 .2 1.5.1v-1h-1.5v1Zm-.6-5.8V85h1v-5.3h-1Zm4.5-5.7-4.4 5.4.8.6 4.4-5.4-.8-.6Zm1-3-1 3.2.9.3 1-3.1-1-.3Zm1.5.2-.9-.4-.4.9.9.4.4-1Zm.1 3.2.2-2.7-1-.1-.2 2.8h1Zm1.5.5L91 74l-.5 1 1.7.9.5-1Zm.5-2.2L92 75.2l.9.5 1.2-2.5-.9-.4Zm2.2.7-1.4-1-.6.9 1.4 1 .6-1Zm.2-1.5-1 1.7 1 .5.9-1.6-.9-.6Zm-1-.3 1.1 1 .7-.8-1.1-1-.7.8Zm-3.5-1.4 3.6 1.5.4-1-3.7-1.5-.3 1Zm2-4-2.3 3.2.9.6 2.2-3.2-.8-.6Zm-1.5-.8 1.6 1.5.7-.7-1.6-1.5-.7.7Zm.5-3.9-.6 3.5 1 .1.5-3.4-1-.2Zm3.8.4-3.2-.8-.3 1 3.3.7.2-1Zm1 3-.6-2.7-1 .3.6 2.7 1-.3Zm.9-2.1-1.8 2 .8.6 1.7-2-.7-.6Zm2.1 0-1.7-.2-.1 1 1.6.3.2-1Zm0 5.2.4-4.6h-1L99 68h1Zm-2.5 1.7 2.3-1.4-.6-.8L97 69l.5.8Zm1.6.4L97.4 69l-.6.8 1.6 1.2.6-.8Zm2.4-1.4-3 1.3.5 1 2.9-1.4-.4-1Zm4 2.2-3.6-2.2-.5.9 3.7 2.1.5-.8Zm4.4-.4-4.6.3v1l4.6-.3v-1Zm-.6-.3.1.8h1v-.9h-1Zm-3-1 3.3 1.4.4-1-3.4-1.4-.4 1Zm.1-1.4-.4.6.8.5.4-.6-.8-.5Zm3.5-.4-3 .2v1l3-.2v-1Zm-1.8-1.3 1.4 2 .9-.5-1.5-2-.8.5Zm-3.5-1 3.7 1.2.3-1-3.6-1.2-.4 1Zm-.8-2.2.5 1.8 1-.3-.6-1.8-1 .3Zm4.8.7-4.2-1.4-.3 1 4.2 1.4.3-1Zm-1-3.4.3 4 1-.2-.3-4-1 .2Zm-3.2-.7 3.5 1.1.3-1-3.5-1-.3.9Zm-.4.7.9-.8-.7-.8-.9.9.7.7Zm-2.7 0 2.3.2v-1l-2.3-.2v1Zm-.1-2.5-.4 2 1 .1.4-1.9-1-.2ZM96.9 56l4.5 2.4.4-1-4.5-2.3-.4 1Zm-.7.7 1.1-.7-.4-.9-1.2.7.5.9Zm-5-3.3 4.4 3.2.6-.8-4.3-3.2-.6.8Zm-3 1.4 3.6-1.4-.4-.9-3.6 1.4.4 1Zm-3.7.2L88 55v-1l-3.6.1v1Zm-4 0h4v-1h-4v1Zm-1.8.2 1.9-.3-.2-1-1.9.4.2 1ZM77.6 57 79 55l-.8-.7-1.4 1.9.8.6Zm2.6 2.6-2.6-3.2-.8.6 2.6 3.2.8-.6Zm1 0-1.3-.2-.1 1 1.3.1v-1Zm.8 2.7-.4-2.4-1 .2.4 2.3 1-.1Zm-1.7 1.4 1.4-1-.5-.8-1.5 1 .6.8Zm-2-.7 1.5.8.4-1-1.5-.7-.4 1Zm-2.5-2.2 2.3 2.2.7-.8-2.3-2.2-.7.8Zm-.2-4.7v4.3h1V56h-1Zm-.3-1 .3 1.1 1-.3-.3-1-1 .2Zm-2.7 2 3.4-1.7-.4-.9-3.4 1.7.4.9Zm-2.9-2.3L72 57l.7-.7-2.3-2.2-.7.7Zm-2.7-3 2.7 3 .7-.7-2.6-3-.8.6Zm-1.4 0 1.8.1v-1l-1.8-.1v1Zm.3.6.2-1-1-.2-.2 1 1 .2Zm-2.2 3.5 2.1-3.3-.8-.5-2.2 3.3.9.5Zm.6.4-.7-1-.8.6.7 1 .8-.6Zm.2 1.4v-1.1h-1v1.2h1Zm2-.3-2.5-.1v1h2.5v-1Zm1.3 2.8-.8-2.5-1 .4.9 2.4 1-.3Zm-.8 1.8.8-1.4-.9-.5-.8 1.4.9.5Zm-3.7-.5 3.1.8.3-1-3.2-.8-.2 1Zm-3-3.4 2.7 3.2.8-.6-2.7-3.2-.8.6ZM56 58l4.7.3v-1L56 57v1Zm-1.9.4 2-.4-.2-1-2 .4.2 1Z" fill="#F6995C"/><g filter="url(#a)"><path d="M57.7 80.6h-.1l-.1.2h-.1l-.1.2-.2.2-.1.2a13.8 13.8 0 0 0-.2.6v.4l-.2.3-.2.8v.2l-.1.2-.2.4H56V84.7h-.1c0 .1-.1.1-.1 0h-.2.1-.1l-.2.2v.2h-.1l-.1.1H55a119.3 119.3 0 0 0-.2-.4A17.9 17.9 0 0 0 54 83H54v.7l.2.6c0 .2-.1.3-.3.3-.1 0-.2-.1-.2-.3v-.6c.1-.3.2-.5.1-.6v.2l-.1.2-.2.2-.1.2h-.1a4.2 4.2 0 0 0 0 .9c0-.2 0-.4-.2-.4l-.1.2v-.8h-.1v-.1l-.3-.3-.3-.2a5.4 5.4 0 0 0-.3-.3h-.2v.2-.3c-1.4 0-2.5-.2-3.5-.6a4.8 4.8 0 0 1-2.8-3.1 2.3 2.3 0 0 1-.2-.4v-.8l-.1-1V76a19.1 19.1 0 0 0 0-1.8 12.6 12.6 0 0 1 0-1.2h.1c0-.5.2-.9.3-1.2a5 5 0 0 1 3.2-3c1-.3 2-.5 3.1-.5h.6c1 0 2.1.3 3 .7a5 5 0 0 1 2.6 2.2l.2.4a3.7 3.7 0 0 1 .3 1.4v.7l-.2.2-.1.1c0-.1 0 0-.1 0h-.3l-.2.3-.2.2-.2.2-.1-.1s0-.1-.1 0H57a25.8 25.8 0 0 0-.6.4h-.2L56 75l-.3-.2h-.4l-.3-.2a1 1 0 0 1-.4-.1l-.2-.2a2.8 2.8 0 0 0-.4-.3v.1l-.1.1h-.1V74l-.1-.1-.2-.3-.2-.4c0-.2-.1-.3-.3-.5h-.1v-.1h-.4c-.2 0-.2.1-.3.2l-.1.3-.1.2-.2.1-.1-.3v-.5l-.2.2v.2H51V72.6h-.1l-.2.2-.2.4v.8l-.1.6v3l.1.2v.1l.1.2.6.4.8.2c.3 0 .6 0 .8-.2l.2-.1.2-.2.1-.3V78l.1-.2.1-.2.2-.2H54a1.5 1.5 0 0 1 .5 0h4l.2.3v.8a4.7 4.7 0 0 1-1 2.2ZM53 85.4a67.5 67.5 0 0 1 0-.8v.8Zm.2.4Zm-.2-.4v.2a1.4 1.4 0 0 0 0-.2Zm21-3.6v.6h-.1v.2h-.1v.2a56.2 56.2 0 0 0-.2.4V83l-.2.2-.2.2a13.8 13.8 0 0 0-1 1.9l-.2.1-.1.5v.3l-.1-.1v-.7c-.1 0-.2 0-.2-.2l-.1-.3-.1-.2-.3-.4H71l-.2.2h.2v.2s0 .2-.2.3v-.3a10.9 10.9 0 0 1-.1-.5l-.2-.3-.1-.2-.1-.2v-.2l-.1-.1-.1-.1-.3.1.3-.1-.3.2.2-.1V83l-.2.1-.1.3v.2l-.1-.4V83a3.3 3.3 0 0 1-.3-.5l-.1-.1a29.8 29.8 0 0 1-.6-1.5v.1l-.1.1-.1.3-.2.2a7.9 7.9 0 0 0-.5 1.2 7 7 0 0 1-.4.9 566.1 566.1 0 0 0-.5.9h-.2l-.1-.3a294 294 0 0 1-.7-2.6v-.1a29.8 29.8 0 0 1-.2-.4l-.1.4v.5l-.1-.3-.1-.3.1-.1V81l-.1.1-.2.2-.1.1a56.7 56.7 0 0 0-.3 0l-.1-.3-.2-.2-.1-.3v.4a56.2 56.2 0 0 0-.3.7l-.1.3v.2l-.1.1-.2.2-.1.2a4.6 4.6 0 0 1-.3.7v.3a294 294 0 0 0-.2.4v.5l-.2.5-.1.4-.1.3-.1.2v.2l-.2.2H62a653.3 653.3 0 0 0-.2.5v-.5h-.1v-.1l-.2-.2-.1-.1v-.1l-.2-.2-.2-.3a19 19 0 0 0-1-2.2H60l-.1-.2-.1-.1c-.1 0-.2 0-.2.2v.2h-.2V83c0 .3-.1.4 0 .2l-.1-.7h-.1l-.2-.1V81.6l.2-.2v-.1l.7-2a30.4 30.4 0 0 0 .4-1.4v-.2a119.3 119.3 0 0 1 .3-.4l1-3a27.8 27.8 0 0 0 .6-2l.2-.4.4-.8.3-1 .3-.8c0-.2.1-.3.3-.5l.7-.2H69l.1.2.3.2a2 2 0 0 1 .1.5v.2h.1v.2l.2.4v.2l.2.3v.3l.1.1v.1l.1.2.3.4.3.9v.2l.3.6.2.7.2.6.2.7 1 2.8.2.6a13.2 13.2 0 0 1 .4 1.3l.4 1.2.1.3Zm-7.5-8.5-.2.4v.3l-.5 1.5v.2l-.1.2a2.4 2.4 0 0 1-.2.5V76.7l-.1.1h2.2v-.1l-.1-.2v-.2l-.1-.2a10 10 0 0 1-.3-1l-.4-1.1-.1-.4V73.3h-.1Zm21.2 8.9v.1l-.1.2h-.1a4.4 4.4 0 0 0-.2.8v.7a29.6 29.6 0 0 1-.3 1.7v.2h-.1v-.1l-.2-.5V85l-.2-1-.1-1V83.1h-.2v.1H86V83H86v.2h-.2v.2h-.1a150.2 150.2 0 0 1-.2.8v-.4l-.1-.5a4.4 4.4 0 0 1-.3-.4v-.2h-.2v.1l-.2.1v.2s0 .1-.1 0l-.1-.2-.2-.2h-.5c0 .1 0 .1-.1 0h-.1v-.2l-.3-.1a3.2 3.2 0 0 1-.3-.5v-.2h-.2v-.2l-.1-.1-.1-.2-.1-.2c-.2 0-.3-.2-.4-.4a57.4 57.4 0 0 1-1-1.7l-.8-1.2-.3-.4v-.1h-.1V77v5.1c-.1 0-.1 0 0 0h-.1v.1l-.3.3v.1l-.1.2-.2.2-.4.8-.1.4-.1.1h-.1v.1l-.1.8v.8h-.1V85.1l-.1-.7v-.1H78l-.2-.3v-.2l-.1-.1v-.2l-.3-.5v-.2.8h-.1v-.1l-.2-.1-.1-.3-.2-.2h-.1l-.2.1-.2.2v.1H76v.7a23.5 23.5 0 0 1 .1 1.7c0 .2 0 .2-.2 0s-.3-.4-.3-.8l.1-1 .1-.8a65.2 65.2 0 0 0-.2.2v.3-.5l-.2-.6h-.2a.5.5 0 0 1-.2-.5V69l.2-.3h3.9c.2 0 .2.1.3.2l.2.3.3.4.1.2.4.6.4.7.7 1.2.6.9.5.9.2.4h.1v-5.6h.1l.1-.1c.1-.2.2-.2.3-.2H87.4l.2.2v.2l.1.2v12.2a4 4 0 0 1 0 .8Zm16.1-.4.1.2v.4h-.1v.2h-.1v.2l-.1.2v.2h-.1V83l-.2.2-.2.2a12.4 12.4 0 0 0-1 1.9l-.2.1a44 44 0 0 0-.2.3v-.3a.7.7 0 0 1-.2-.2l-.1-.3-.1-.2-.3-.4h-.1l-.2.2h.2v.2s0 .2-.2.3v-.3a7.7 7.7 0 0 1-.1-.5l-.2-.3-.1-.2-.1-.2v-.2l-.1-.1-.1-.1-.3.1.3-.1-.3.2.2-.1V83l-.2.1-.1.3v.2l-.1-.4V83a3.3 3.3 0 0 1-.3-.5l-.1-.1v-.1H99l-.1-.5a4.8 4.8 0 0 0-.3-.7v-.2h-.1v.1l-.1.1-.1.3-.2.2a8 8 0 0 0-.5 1.2 7 7 0 0 1-.4.9l-.1.4-.2.3v.1h-.2c0 .1-.1 0-.2 0l-.1-.2v-.3l-.3-.5-.1-.6a41.1 41.1 0 0 0-.3-1.2v-.1l-.1-.1v-.1l-.1-.2-.1.4v.5l-.1-.3-.1-.3.1-.1V81l-.1.1-.2.2-.1.1a61.7 61.7 0 0 0-.3 0l-.1-.3-.2-.2-.1-.3v.5l-.1.1-.1.3v.2l-.2.3v.2l-.1.1-.2.2-.1.2a4.6 4.6 0 0 1-.3.7v.3l-.1.3v.1l-.2.5-.1.5-.1.4-.1.3-.1.2v.2l-.2.2H92v1h-.1V87l-.1-.5h-.1v-.1l-.2-.2-.1-.1v-.1l-.2-.2-.2-.3a19 19 0 0 0-1-2.2h-.1l-.1-.2-.1-.1c-.1 0-.2 0-.2.2v.2h-.2V83c0 .3-.1.4 0 .2l-.1-.7H89l-.2-.1V81.6l.2-.2v-.1l.7-2a29.5 29.5 0 0 0 .4-1.4v-.2l.2-.2v-.1l.1-.1 1-3a27 27 0 0 0 .6-2l.2-.4.4-.8.3-1 .3-.8c0-.2.1-.3.3-.5l.7-.2H99l.1.2.3.2a2 2 0 0 1 .1.5v.2h.1v.2l.2.4v.2l.2.3v.3l.1.1v.1l.1.2.3.4.3.9v.2l.3.6.2.7.2.6.2.7 1 2.8.2.6a13.8 13.8 0 0 1 .4 1.3l.4 1.2.1.3Zm-7.4-8.5-.2.4v.3l-.5 1.5v.2l-.1.2a2.4 2.4 0 0 1-.2.5V76.7l-.1.1h2.2v-.1l-.1-.2v-.2l-.1-.2a10.1 10.1 0 0 1-.3-1l-.4-1.1-.1-.4V73.3h-.1Zm21.6 2.5v.6a13.8 13.8 0 0 1-.2 2.2 5.8 5.8 0 0 1-.5 1.3l-.3.4c0 .1 0 .2-.2.3l-.2.2-.2.2-.2.2a1.2 1.2 0 0 0-.3.4v.1l-.1.1-.2.3s-.2 0-.3.2l-.2.1h-.1v.2l-.1.2h-.1v.1a18 18 0 0 0-.1 1.7v1.6h-.1a5.6 5.6 0 0 0-.1-.3l-.2-1-.1-.7v-1.6h-.4l-.1.1-.1.2-.4.6v.4l-.3.5-.3.5h-.1v.1h-.5v.2h-.2c0 .1 0 .1-.1 0h-.2V85l-.2-.1-.2-.2h-.1v.1l-.1.2v.2l-.1.7v1a18.1 18.1 0 0 1-.1 1.6V87a41.4 41.4 0 0 1-.3-2.2l-.2.2-.3.3a35 35 0 0 1-.1 1.2l-.1.6a5 5 0 0 1 0 .4l-.1.2v.1l-.1-1a10.5 10.5 0 0 0 0-1h-.1v1a11.7 11.7 0 0 1-.2 1v-.7l-.2-.4V86l-.1-.7-.2-.1V85l-.2-.2a18.3 18.3 0 0 1-.5-1.4l-.3-.6v-.1l-.1.1v.3-.1h-.1v-.3l-.1.1-.1.1-.1.1-.1.1-.2.4v.3l-.1.2v.4c-.1 0-.1.1-.1 0l-.2-.1v.2c.2 0 .2.2.2.2 0 .1 0 .1-.2 0-.1 0-.2 0-.2-.2V84c.1-.2.2-.4.1-.5 0-.1 0-.1 0 0v.5c0 .1 0 .1-.1 0 0 0-.1-.2 0-.4v-.4l-.2-.2V83H105.8v.9c.1.1 0 .2 0 .1-.2 0-.2-.3-.1-.5a1.3 1.3 0 0 0 0-.6c-.1 0-.1 0 0 .1l-.1.1s-.1 0 0-.1v-.2l-.2-.2h-.2a.5.5 0 0 1-.2-.5v-3.8l-.5-1.1c-.1-.4-.2-.7 0-1 0-.2.2-.3.5-.3v-6.7l.1-.4a.5.5 0 0 1 .5-.2h6.7a6.9 6.9 0 0 1 4 1.6 4.7 4.7 0 0 1 1 1.3c.3.5.5 1 .6 1.6a3 3 0 0 1 0 .4l.1.6v1.7Zm-7.9-3.2-.1-.1-.2-.2h.2v6.2a5 5 0 0 1-.3 2.1c-.2.5-.5.7-.9.8a2 2 0 0 1-1.2-.3l-1.2-1a11 11 0 0 1-1.2-1.4l-.7-1.4c-.1-.4-.2-.8 0-1 0-.3.3-.4.7-.4.3 0 1 .2 1.7.7.8.4 1.9 1 3.1 2l.2.1h1.3l.5-.1c.2 0 .3-.1.3-.2l.2-.1v-.1l.2-.5.1-.4v-.1l.1-.2v-3.3l-.2-.4-.1-.2-.2-.2h-1.2l-.2.1h-.2l-.3-.1a9.2 9.2 0 0 0-.4-.3Zm23.3 9.2v.6l-.1.2-.1.2a5.6 5.6 0 0 1-.1.4l-.1-.1v-.2l-.2.2-.2.2a16 16 0 0 0-1 1.9l-.1.1h-.1v.5l-.1.3V86l-.1-.4v-.3l-.2-.2-.1-.3-.1-.2-.2-.4h-.1l-.2.2h.1l.1.2s0 .2-.2.3l-.1-.3V84l-.3-.3v-.2l-.2-.2v-.2l-.1-.1V83l-.3.1.2-.1-.3.2.2-.1.1-.1-.2.1h-.1v.3l-.1.2v-.4l-.1-.3a3.3 3.3 0 0 1-.2-.5l-.2-.1a3 3 0 0 0 0-.2l-.2-.4a4.5 4.5 0 0 0-.2-.6V81l-.1-.2h-.1v.1l-.1.1-.1.3-.1.2a8.4 8.4 0 0 0-.6 1.2 6.7 6.7 0 0 1-.3.9 56.6 56.6 0 0 1-.6.9h-.1l-.2-.3a29.4 29.4 0 0 0-.7-2.6v-.2l-.1-.1V81h-.1v.4l-.1.5v-.3l-.2-.3.2-.1-.1-.3-.1.1a8.3 8.3 0 0 1-.2.3l-.1.5v.4h-.1V82l-.1-.5-.2-.3-.1-.2-.2-.3v.6l-.2.3v.2l-.2.3v.2a8.3 8.3 0 0 1-.3.3l-.1.2a4.3 4.3 0 0 1-.2.7l-.1.3a29.4 29.4 0 0 1-.1.4l-.1.5-.2.5v.4l-.2.3v.2l-.1.2-.2.2h-.1a65.3 65.3 0 0 1-.2.5v-.5h-.2v-.1l-.2-.2V86l-.1-.1-.2-.2-.1-.3-.4-.8a18 18 0 0 0-.7-1.4l-.2-.2v-.1h-.1l-.1.2v.2H118.7V83v.2-.7h-.1a.5.5 0 0 1-.3-.3v-.2a1.8 1.8 0 0 1 .1-.5l.1-.2v-.1l.8-2a27.2 27.2 0 0 0 .4-1.4v-.2a12 12 0 0 0 .3-.4l1-3a24.6 24.6 0 0 0 .6-2l.1-.4.4-.8.4-1 .3-.8.2-.5.7-.2h4.7l.2.2.2.2a2 2 0 0 1 .2.5v.2l.1.2.2.4v.2l.1.3.1.3v.1l.1.1v.2l.3.4.3.9.1.2.2.6.2.7.2.6.2.7 1 2.8.2.6a12.6 12.6 0 0 1 .4 1.3l.5 1.2v.3Zm-7.5-8.5-.1.4-.1.3-.5 1.5v.4l-.1.2-.1.3v.1l-.1.2v.1h-.1H127.1l-.1-.1v-.2l-.1-.2v-.2a11.4 11.4 0 0 1-.4-1l-.3-1.1-.2-.4v-.1a3 3 0 0 0 0-.2h-.1Z" fill="#51829B"/></g><defs><filter id="a" x="25.2" y="50.4" width="128.4" height="60.3" filterUnits="userSpaceOnUse" color-interpolation-filters="sRGB"><feFlood flood-opacity="0" result="BackgroundImageFix"/><feColorMatrix in="SourceAlpha" values="0 0 0 0 0 0 0 0 0 0 0 0 0 0 0 0 0 0 127 0" result="hardAlpha"/><feOffset dy="2"/><feGaussianBlur stdDeviation="10"/><feComposite in2="hardAlpha" operator="out"/><feColorMatrix values="0 0 0 0 0.960784 0 0 0 0 0.929412 0 0 0 0 0.929412 0 0 0 0.4 0"/><feBlend in2="BackgroundImageFix" result="effect1_dropShadow_116_130214"/><feBlend in="SourceGraphic" in2="effect1_dropShadow_116_130214" result="shape"/></filter></defs></svg>