<svg width="180" height="150" fill="none" xmlns="http://www.w3.org/2000/svg"><path d="m47.7 84.5 1-1 7.5 7.5 5 .5.5 1.5 2.5-1.5 2.5 1 1 1V95h4l4-2.5 2.5 1 1.5-1.5 1 2.5.5 3-2.5 2.5-1 2.5h3v1.5l1.5.5-1 2 5.5 2.5v-2.5h5.5l2.5-2 2.5 1 .5 2 1.5 1 2-.5 2.5 1 .5 2 1.5-.5V109l3.5-1 2.5-2 .5-1.5 1.5 2 6-3.5 4.5-5 1-4.5 2-3 .5-3.5h-4l3.5-2-.5-2.5-2-1-3.5-5 4.5-6-3.5-1-2 2-4-3.5 3.5-1.5 3-4 1.5 1-1.5 4.5 5.5-4 3.5-5 1.5 1 2.5-4 1.5.5.5-1.5-1.5-4 1-1.5h2l.5-3.5-.5-1 .4-4-2.9 1.5-1 1.5h-2.5l-.5-1.5-5-1-4-6.5-4-.5-3.5 1L115 37h1.2v1.5l-1.5 2.5.5 1.7-1.5 1.3h-2l-1.5 4 1 1 2-.5 2-.5 2 1.5.5 1.5-2.5-.5-7 5.5-2.5-1-1 2 .5 1.5-3.5 3-3.5-.5-4.5 2-5.5-2-8-1-1.5-3-3.5-2.5-2.5-.5-1-1 1-2.5-1-3-2-1-1-2-1.5-.5-.5 1h-2l-.5 3h-2l-2-1-2.5 4h-3.5v3.5l-1.5 1-.5 1.5-5.5.5-.5 1.5h-1l-1.5-1-3.5 1-.5 2.5 1.5 1V65l-1.5.5 2 3.5 3 2 1 3-.5 4-1-.5-.5 3 4 4Z" stroke="#F6995C"/><g filter="url(#a)"><path d="m69.2 78-.2.2-.2.2-.2.2-.1.1a13.3 13.3 0 0 0-.2.7v.3l-.1.4-.3.8v.2l-.1.2-.2.4-.1.1v.1l-.1.2h-.1c-.1 0-.2-.1-.1-.2l-.1.1-.2.2v.2h-.1l-.1.1h-.1v-.1l-.1-.2-.1-.1a17.9 17.9 0 0 0-.7-1.7h-.1V81.7c0 .2 0 .3-.2.3-.1 0-.2-.1-.2-.3V81l.2-.6-.1.2-.1.2-.2.2v.1h-.1v.1a4.2 4.2 0 0 0 0 .9l-.3-.4-.1.1v-.7l-.2-.1-.2-.3-.2-.2a5.4 5.4 0 0 0-.4-.3l-.1-.1v.2l-.1-.2c-1.3 0-2.5-.2-3.5-.6a4.8 4.8 0 0 1-2.8-3.2 2.3 2.3 0 0 1-.1-.3l-.2-.8v-1.8a19.3 19.3 0 0 0 0-1.8 12.5 12.5 0 0 1 .1-1.2c0-.5.2-.9.3-1.2a5 5 0 0 1 3.2-3c1-.3 2-.5 3.1-.5h.6c1.1 0 2.1.3 3.1.7a5 5 0 0 1 2.5 2.2l.2.4a3.7 3.7 0 0 1 .4 1.4v.6l-.1.1-.2.2v.1h-.1v-.1h-.1l-.3.2-.2.2-.2.2-.2.2V72c0-.1-.1-.1-.2 0h-.1a24.7 24.7 0 0 0-.6.4h-.2l-.2-.1-.3-.2-.3-.1h-.4a1 1 0 0 1-.4-.2l-.2-.2a2.8 2.8 0 0 0-.4-.3v.1l-.1.1v-.1l-.1-.1-.1-.2-.2-.2-.2-.4c0-.2-.1-.3-.3-.5V70H64c-.1 0-.2 0-.3.2l-.1.3-.1.2-.2.1-.1-.4V70l-.1.2-.1.1-.1.1h-.2l-.1-.1-.1-.2V70h-.1l-.2.2v.1l-.2.3V75.4l.1.2.6.4.8.1.8-.1.2-.1.2-.2.1-.3.1-.2v-.1l.1-.2.2-.2H65.6a1.5 1.5 0 0 1 .5 0h4l.2.3V75.7a4.7 4.7 0 0 1-1 2.2Zm-4.7 4.8a61.7 61.7 0 0 1 0-.9v.9Zm.2.4Zm-.2-.4v.2a1.4 1.4 0 0 0 0-.2Zm20.5-4v.3a1.5 1.5 0 0 1 0 .4v.2l-.3.2v.2l-.2.2v.1a29.3 29.3 0 0 0 0 2.9c0 .2 0 .4-.2.5l-.1-.1v-.9a35 35 0 0 1-.1-2.1H84l-.1-.1-.1-.2v-.1l-.2.2v.1h-.2v.2l-.1.2-.1.2v.1l-.1-.2v-.3H83v.3l-.1.2-.1-.1-.1-.2v-.2a2.4 2.4 0 0 0-.2-.3h-.1l-.2-.2v.9H82l-.1-.4-.1-.5c-.2.1-.2.3-.2.5V81.7s0 .1-.1 0v-1.1H81.1l-.2-.1h-.2v.5l-.1.6v-.3l-.1-.5v-.6.2c0 .1 0 .2-.2.3V80a56.2 56.2 0 0 1-.4-.5 8.1 8.1 0 0 1 0-1.2v-3.8.5a16.5 16.5 0 0 0-.5.5l-.8 1.1v.2l-.3.2v.5a5.2 5.2 0 0 1-.1.6l-.1.2V78.1l-.1-.5V77h-.2v-.1l-.1-.2-.3-.5a3.2 3.2 0 0 0-.3-.6l-.3-.3-.1-.2v4.6l-.2.1-.1.1-.1.2v.1l-.3.2h-.5.2-.5v-.1.4-.3l-.1-.2v.4l-.2-.1v-.2l-.3.2-.2.2-.2.3v.1l-.1-.4v-.4H74v.4h-.1v-.1l-.2-.2H73.1l-.2-.2s-.1 0 0 .2l-.1.5v-.1a29.8 29.8 0 0 1-.3-.4l-.1-.3-.3-.1-.3-.3V66.5l.1-.3V66H72.3l.2-.1h3.8c.3 0 .5.1.5.4v4.1l.1.2H80v-4.3c0-.3.3-.4.5-.4h4.1l.2.1.2.4v12.2Zm-9.6 1.8v-.2.2l.2.1-.2-.1Zm17-2.1v1.1l-.3.3-.1.2-.1.3-.1.1-.1-.1v-.2l-.1.1-.1.1-.1.1-.2.3-.1.1-.1.2v.1l-.1.1v.1l-.1.1h-.1a7 7 0 0 1 0-.4h-.1V81l-.1-.1-.1-.1h-.1l-.2-.1V81H90V80.8h-.1v.1h-.1l-.1.1v1a226.4 226.4 0 0 0-.5 2.8v-.2a17.2 17.2 0 0 0-.2-.6v-1.7a6 6 0 0 0 0-.6v.3l-.1.2v-.6l-.2-.6v-.1l-.1-.1-.3-.3h-.1l-.1-.2h-.2v.5c-.2 0-.2-.1-.1-.2V80h-.1v.1-.2h-.1c-.3-.1-.4-.3-.4-.6a4 4 0 0 1 0-.8V66.3h.1l.1-.2H87.7l.1-.1h4.3l.2.3v.2l.1.4v11.6Zm14.8 1v.2l-.2.1v.1h-.1a5 5 0 0 0-.1.8v.7a25.3 25.3 0 0 1-.3 1.7v.1l-.1.1h-.1v-.1l-.1-.5-.1-.4-.1-1c0-.5 0-.8-.2-1.1v.4h-.1v.1h-.1a14.1 14.1 0 0 0-.2-.2v.1h-.1v.1h-.2a69.4 69.4 0 0 1-.2.8v-.8a4.9 4.9 0 0 1-.3-.4l-.1-.1V80h-.2v.1l-.1.1-.1.2h-.1v-.2h-.1l-.2-.2h-.4c0 .1-.1.1-.2 0l-.1-.2-.2-.2a3.5 3.5 0 0 1-.3-.4l-.1-.2-.1-.1-.1-.1v-.2l-.2-.1v-.2l-.4-.4a75.6 75.6 0 0 1-1-1.7l-.9-1.2a3.6 3.6 0 0 1-.3-.5v-.1h-.1V79.7h-.1l-.2.2v.1l-.1.1v.1l-.1.1-.1.2-.4.8-.2.4v.1H98v.1h-.1v.8l-.1.8v-.2l-.1-.7v-.7l-.1-.1-.2-.3v-.1l-.1-.1a56.2 56.2 0 0 1-.1-.3l-.2-.5v-.2l-.1.4v.4l-.1-.1-.1-.1-.2-.3-.1-.3-.2.1-.1.1H96l-.1.2-.1.1H95.5v.7a23.5 23.5 0 0 1 .2 1.7c0 .2-.1.2-.3 0-.2-.2-.3-.4-.3-.8 0-.3 0-.6.2-1v-.9a65.2 65.2 0 0 1-.1.3v.3H95v-.6l-.2-.5-.1-.1a.5.5 0 0 1-.2-.4V66.3l.2-.2h.2l.1-.1h3.6l.2.3.3.3.2.4.2.2.4.6.3.6v.1l.8 1.2.5.9.6.9.2.4V66.4l.1-.2.2-.2.3-.1H106.8l.3.2v12.6a3.8 3.8 0 0 1 0 .8Zm16-.4.2.3v.4h-.2V80.2l-.1.2-.1.2v.1l-.1-.1v-.2l-.2.2-.2.2a14 14 0 0 0-1 1.9l-.1.1h-.1v.8h-.1V83l-.1-.3a.7.7 0 0 1-.2-.2v-.3l-.2-.3-.2-.3h-.1l-.2.2h.1l.1.2s0 .2-.2.3V82a11.4 11.4 0 0 1-.2-.5l-.2-.2v-.3l-.2-.2v-.2l-.2-.1-.2.1.2-.1c-.2 0-.3.2-.3.2l.2-.1.1-.1-.2.1h-.1v.3c0 .2 0 .2-.1.1v-.7a3.3 3.3 0 0 1-.3-.4l-.2-.1v-.2l-.2-.4a4.9 4.9 0 0 0-.2-.7l-.1-.2-.1.1v.1l-.2.2-.1.2a8 8 0 0 0-.6 1.3 6.7 6.7 0 0 1-.3.9l-.2.3c0 .2 0 .3-.2.4v.1H116l-.2-.2v-.3l-.2-.5-.2-.7a41.1 41.1 0 0 0-.3-1.1V78.7l-.2-.2v.9h-.1V79l-.2-.3.2-.1-.1-.3v.1h-.1l-.1.2h-.1v.1l-.1.5v.4h-.1v-.4l-.1-.5-.2-.3-.1-.2-.2-.3v.6l-.2.3v.2l-.2.3V79.7l-.3.2v.2a4.8 4.8 0 0 1-.3.7v.3l-.2.3v.1l-.1.5-.2.5v.4l-.2.3v.2l-.1.2-.2.1-.1.1v.9l-.2.1v-1l-.2-.1-.2-.3-.1-.1-.2-.3-.1-.2a19.5 19.5 0 0 0-1-2.2h-.1l-.2-.2v-.1h-.1l-.1.1v.3h-.1l-.2-.1v-.1.2-.7h-.1a.5.5 0 0 1-.3-.3v-.5l.1-.2.1-.2v-.2l.8-1.9a27.2 27.2 0 0 0 .4-1.4V75l.1-.2.1-.1v-.1l1.1-3a24.6 24.6 0 0 0 .6-2l.1-.4.4-.8.4-1 .3-.8.2-.5.7-.2h4.7l.2.2.2.2a2.1 2.1 0 0 1 .2.4V67.1l.1.1.2.5v.2l.1.3.1.3v.1l.1.1v.1l.3.5.3.9.1.2.2.6.2.7.2.6.2.7 1 2.8.2.6a13.2 13.2 0 0 1 .4 1.3l.5 1.2v.2Zm-7.4-8.5v.1l-.1.4-.1.3-.5 1.5V73.2l-.1.3-.1.3v.1l-.1.2v.1h2.2v-.1l-.2-.2v-.4a10.1 10.1 0 0 1-.4-1l-.3-1.1-.2-.5a3.9 3.9 0 0 0 0-.2Z" fill="#51829B"/></g><defs><filter id="a" x="36.7" y="47.8" width="106.7" height="59.1" filterUnits="userSpaceOnUse" color-interpolation-filters="sRGB"><feFlood flood-opacity="0" result="BackgroundImageFix"/><feColorMatrix in="SourceAlpha" values="0 0 0 0 0 0 0 0 0 0 0 0 0 0 0 0 0 0 127 0" result="hardAlpha"/><feOffset dy="2"/><feGaussianBlur stdDeviation="10"/><feComposite in2="hardAlpha" operator="out"/><feColorMatrix values="0 0 0 0 0.960784 0 0 0 0 0.929412 0 0 0 0 0.929412 0 0 0 0.4 0"/><feBlend in2="BackgroundImageFix" result="effect1_dropShadow_116_130102"/><feBlend in="SourceGraphic" in2="effect1_dropShadow_116_130102" result="shape"/></filter></defs></svg>