<svg width="180" height="150" fill="none" xmlns="http://www.w3.org/2000/svg"><path d="M88.2 26.2v-.5h-.3l-.1.2.4.3Zm-1.1 2-.4-.3-.5.8h.9v-.5Zm4.3-2.2.5.2.4-.7h-.9v.5Zm-1 2.2v.5h.3l.1-.3-.4-.2Zm-28.9 20-.4-.1-.2.3.3.3.3-.4Zm5.6-13.8-.2-.5h-.2v.3l.4.2Zm-3.2 16.1-.3.4.5.4.3-.5-.5-.3Zm9.5-16.8.5.2V33.6h-.5Zm-.3-2h.5l-.1-.6-.6.2.2.5ZM59.6 75.2l-.3-.4h-.1l-.1.3.5.1Zm2.8-1.7.3.5.1-.1v-.2l-.4-.2Zm-3.4 4-.5-.1v.4l.5-.3Zm1 1.8-.4.2.3.4.3-.2-.1-.4Zm4-1.6.5-.1-.1-.5-.5.2.2.4Zm1 2.6-.5.1.1.3h.3v-.4Zm5 .7-.2.5h.3l.2-.2-.4-.3Zm5-5 .4.3.3-.2-.2-.4-.4.3Zm-4.7-8.3.4-.3-.2-.3h-.3v.6Zm-3.8.4v-.5H66l-.1.3.5.2Zm-1 3v.5h.4V71l-.4-.1Zm-2.1 0v-.6H63l-.1.4.5.1ZM78 31.7v-.5h-.4v.4l.4.1Zm2.2 0 .2-.5h-.2v.4Zm-3.9 5 .5.1-.5-.2Zm-2 4.6.3.5h.2v-.3l-.4-.2Zm-2.4 1-.2-.5h-.1l-.1.2.4.3ZM70 44.8l-.4-.3-.3.5.5.2.2-.4Zm4 2.3h.4v-.3l-.2-.2-.3.5Zm-.8 2.6v.5h.4v-.3l-.4-.2Zm-4.5.7-.1-.5h-.3l-.1.3.5.2Zm-1 2.6-.5-.2-.2.5.5.2.2-.5Zm4.5 1.3-.2.4h.4l-.2-.4Zm2.5-1.2.5-.3-.3-.4-.4.2.2.5Zm.7 1 .4.4.2-.3-.2-.3-.4.3ZM74 56.3l-.4-.3-.2.2v.3l.6-.2Zm.6 2 .2.5.4-.2-.1-.4-.5.1Zm-1.4.7-.3.4.3.2.3-.2-.3-.4Zm-.8-.8.3-.3-.3-.3-.3.2.3.4Zm-3 2.3-.3-.4-.1.1v.2h.4Zm-.2 2 .3.5.1-.1v-.3h-.4Zm-1.2.9-.3-.4-.5.3.4.4.4-.3Zm.6.7-.3.3.2.2h.2V64Zm3.8-.7.5-.1-.1-.5h-.5l.1.6Zm1 4.3-.6.1.2.5.5-.1-.2-.5Zm.7-.3.2.5h.1l.1-.2-.4-.3Zm1-1.7.2-.4-.4-.3-.2.4.4.3Zm1.5.9-.2.4.3.2.3-.3-.4-.3Zm1.6-1.5.5-.1-.2-1-.7.7.4.4Zm.4 2.3.4.3.2-.2v-.2l-.6.1Zm-2.4 3.3-.4-.3-.1.2v.3l.5-.2Zm1.5 4.1-.4.2v.3h.4v-.5Zm.8 0v.5h.3l.1-.2-.4-.3Zm1-1.7.3-.3-.4-.6-.4.7.4.2Zm1.3 1.6-.4.3.3.4.3-.3-.2-.4Zm5.9-3.4.3-.4-.3-.2-.3.1.3.5Zm1.1 1 .4.3.4-.4-.5-.3-.3.4ZM86 73.8l-.3-.3-.3.2.1.3.5-.2Zm1.5 6.6-.5.1v.2h.2l.3-.3Zm.7.5-.3.4.4.3.3-.3-.4-.4Zm1.8-1.7.5.1.3-1.6-1.2 1.1.4.4Zm-2 9.9-.1.5h.5v-.4L88 89Zm-8.7-1.7v-.5l-.4-.1-.1.4.5.2Zm-.7 1.7-.5-.2-.1.4.3.2.3-.4Zm1.7 1.3.5-.1v-.2l-.2-.1-.3.4Zm.2 1.8.2.4.4-.1v-.4h-.6Zm-2.2.9-.1-.5-.3.1v.3h.4Zm0 1.3h-.6v.5h.6v-.5Zm3.5-.5h.5v-.5h-.5v.5Zm0 4.6.2.4h.4v-.4h-.6Zm-2.8 1-.2-.4h-.2v.2l.4.3Zm-1 2 .2.4h.2v-.2l-.4-.2Zm-2.7.9-.1-.5-.6.2.3.5.4-.2Zm1.7 3v.5h.8l-.4-.7-.4.2Zm-3 .2v-.5h-.4l-.1.3.4.2Zm-.4.9-.5-.2-.2.6h.6v-.4Zm4.3.5v.5h.2l.2-.2-.4-.3Zm1-1.4v-.5h-.3l-.2.2.4.3Zm3.3.6.3-.4h-.2l-.1.4Zm2.8 2.3-.3.4H85v-.4Zm3.3.4v.5h.1l.2-.1-.3-.4Zm2.4-2 .3-.5-.3-.2-.3.2.3.4Zm1.3.6.4.4.5-.5-.6-.3-.3.4Zm-2.4 2.3-.3-.3H89v.2l.5.1Zm-.3 1.5v.5h.4l.1-.4-.5-.1Zm-1.5.2v.5h.1v-.5Zm-7.7-.1v-.5h-.7l.2.6.5-.1Zm.4 1 .1.4.5-.1-.2-.5-.4.1Zm-2.5.6-.1-.5-.3.1v.3l.4.1Zm-1 2.9.3.4.1-.1v-.2l-.4-.1Zm-7.5 6.7-.4-.4-.5.4.6.4.3-.4Zm2.1 1.3-.2.4v.1h.2v-.5Zm2 0v.5h.2l-.2-.5Zm6-3.7.2-.4-.3-.2-.2.2.2.4Zm4.1 2.6-.3.4.6.4.2-.6-.5-.2Zm.3-.7.4.1.1-.2v-.2l-.5.3Zm-.7-1.5-.4-.4-.2.3.1.3.5-.2Zm3.3-3.2v-.5h-.2l-.2.1.4.4Zm9.1.9v.4h.2l.2-.1-.4-.3Zm2.3-2.5v-.5h-.2l-.2.1.4.4Zm5.3.3v.5h.1l-.1-.5Zm2.9-1 .2-.5h-.4l.2.5Zm3 1.5-.2.4.2.1h.2l-.2-.5Zm5.7-2 .2.5.2-.1-.4-.4Zm2.9-2.8.3.4.1-.1v-.2h-.4Zm.5-2.6.5.1.1-.6h-.6v.5Zm-5.1.1h-.5v.6h.5v-.6Zm.1-1.8-.3-.4-.2.2v.2h.5Zm4.4-3.6.4.4v-.2l-.4-.2Zm3.2-6.2.4.3.1-.3v-.2l-.5.2Zm-1.5-3 .4-.2v-.1l-.2-.1-.2.4ZM113 92l.2-.5-.4-.2-.2.4.4.3Zm-1.7 2.5-.1.5h.3l.2-.2-.4-.3Zm-3.4-1-.4-.4-.4.6.7.2.1-.5Zm2.5-3 .3.4.2-.1v-.2h-.5Zm0-1.8h.6v-.2l-.2-.1-.3.3Zm-3-2.8-.5-.4-.3.4.4.4.3-.4Zm1.5-1.6.3.3.3-.3-.3-.4-.3.4Zm-1.7-1.8h-.5v.2l.1.1.4-.3Zm.2-1.9h.5v-.2l-.2-.1-.3.3Zm-2.6-2.4h-.5v.3h.2l.3-.3Zm-.6-3.4.5-.1v-.3l-.4-.1v.5Zm-4.3-1-.5.3.1.2h.3v-.4Zm-2.7-5.2-.5-.1v.2l.5-.1ZM98 63h.5V62.8l-.5.3Zm-1.6-2.4.4-.3-.1-.1-.2-.1-.1.5Zm-3.8-1.4.2-.5H92.5l.1.5Zm-2.8.8-.3.4.2.2.2-.1-.1-.5Zm-1.2-.8-.3-.4-.7.4.7.4.3-.4Zm2.8-1.8.2.5.2-.1v-.2l-.4-.2Zm.5-1.2.5.2.1-.3-.2-.2-.4.3Zm-.8-1.2-.4-.3-.2.3.2.3.4-.3Zm2.7-3 .4.3.1-.2-.5-.1Zm3-8.9.5.2.1-.3-.2-.2-.4.3Zm-1.4-1.6.3-.3-.1-.2h-.3v.5Zm-2.3.3-.2.4.1.1h.2v-.5Zm-1.7-1.2.3-.4-.4-.2-.3.3.4.3ZM90.3 42l-.2.5.3.1.3-.2-.4-.4Zm-2.7-.9.2-.5h-.4l.2.5Zm-2.9 1.5-.4.2.3.4.4-.2-.3-.4Zm-.9-1.4-.2-.5-.5.3.3.4.4-.2Zm1.7-1 .3.5.5-.3-.4-.5-.4.3Zm-1-1-.3-.4-.4.3.4.4.3-.3Zm5.8-5.8.3.4.2-.2v-.3l-.5.1Zm-.8-2 .5-.2-.1-.4h-.5l.1.6Zm-7 1.5-.2.5h.4l-.1-.5Zm5.3-6.9-1.1 2 .8.5 1.1-2-.8-.5Zm3.6-.4-3.2.2v1l3.3-.2v-1Zm-.6 3 1-2.3-.8-.4-1 2.2.8.4Zm-3.7.2h3.3v-1H87v1ZM62 48.5l5.5-14-.9-.3L61.1 48l.9.4Zm2.3 1.7-2.4-2.3-.7.8 2.4 2.2.7-.7ZM73 33.4l-9.5 16.9.9.5 9.5-16.9-.9-.5Zm-.4-1.5.3 1.9 1-.2-.3-2-1 .3Zm-5.3 3 6-2.7-.4-.9-6 2.6.4 1Zm-7.5 40.6 2.9-1.6-.5-.9-2.9 1.7.5.8Zm-.3 2 .6-2.3-1-.2-.6 2.3 1 .2Zm1 1.4-1-1.7-1 .5 1.1 1.7.9-.5Zm3.4-1.7-4 1.5.3 1 4-1.6-.3-1Zm1.5 2.8-.9-2.5-1 .3 1 2.5 1-.3Zm4.6.4-5-.7v1l4.8.7.2-1Zm4.7-4.9-5.1 5 .7.7 5.1-5-.7-.7Zm-4.9-7.7 4.9 8.3.8-.5-4.8-8.3-.9.5Zm-3.3.7 3.8-.5v-1l-3.9.5.1 1ZM66 71l1-3-1-.3-1 3 1 .3Zm-2.6.3h2l.1-1h-2.1v1Zm-.5 2.2 1-2.5-1-.3-1 2.5 1 .3ZM78 32.3h2.3v-1H78v1ZM76.8 37l1.7-4.9-1-.3-1.7 4.9 1 .3Zm-2 4.7 2-4.7-1-.4-1.9 4.8 1 .3ZM72 43l2.6-1-.4-1-2.5 1 .3 1ZM70.5 45l1.8-2.4-.8-.6-1.8 2.4.8.6Zm3.8 1.5-4-2.2-.4.8 3.9 2.3.5-.9Zm-.5 3.3.7-2.7-1-.3-.7 2.7 1 .3Zm-5 1 4.6-.7-.2-1-4.5.7.1 1Zm-.6 2.3 1-2.6-.9-.4-1 2.6 1 .4Zm4.2.6L68 52.5l-.3 1 4.5 1.2.3-1Zm2.2-1.2-2.5 1.2.4 1 2.5-1.3-.4-.9ZM76 54l-.6-1-1 .4.7 1.1.9-.5Zm-1.5 2.6 1.5-2-.8-.6-1.5 2 .8.6Zm.7 1.6-.7-2-1 .3.7 2 1-.3Zm-1.6 1.2 1.3-.6-.4-1-1.4.7.5 1Zm-1.4-.8.8.8.7-.8-.9-.7-.6.7Zm-2.4 2.3 3-2.3-.6-.8-3 2.3.6.8Zm0 1.7.2-2-1-.2-.2 2.1 1 .1Zm-1.5 1.2 1.3-.8-.6-.8-1.2.8.5.8Zm.8 0-.7-.8-.7.7.7.7.7-.6Zm3.3-1-3.8.8.2 1 3.8-.7-.2-1Zm1.5 4.8-1-4.3-.9.2 1 4.3 1-.2Zm.1-.6-.7.2.3 1 .8-.3-.4-1Zm.8-1.6-1 1.8.8.5 1-1.8-.8-.5Zm2.2.7-1.6-.8-.4.8 1.5.9.5-.9Zm1-1.4-1.6 1.5.7.7 1.5-1.5-.7-.7Zm1.2 2.6-.4-2.3-1 .1.4 2.4 1-.2ZM76.6 71l2.4-3.3-.8-.6-2.4 3.3.8.6Zm1.6 3.6-1.5-4-1 .3 1.6 4 .9-.3Zm.3-.3h-.7v1h.7v-1Zm.5-1.4-1 1.7 1 .5.9-1.8-.9-.4Zm2.2 1.5-1.4-1.6-.7.6 1.3 1.6.8-.6Zm5.2-3.6-5.9 3.5.5.8 6-3.4-.6-.9Zm1.7 1-1.1-1-.7.9 1.2 1 .6-.8Zm-1.8 2.5 1.9-1.7-.7-.7-1.8 1.7.6.7Zm1.7 6-1.5-6.5-1 .3 1.5 6.5 1-.2Zm.5.3-.7-.5-.6.8.7.5.6-.8Zm1.1-1.7L88 80.6l.7.7 1.7-1.7-.7-.8Zm-1.1 10.4 2-9.9-1-.2-2 9.9 1 .2Zm-9.3-1.3 8.7 1.7.2-1-8.7-1.7-.2 1Zm-.1 1.4.6-1.8-.9-.3-.7 1.7 1 .4Zm1.5.7-1.7-1.3-.6.8 1.7 1.3.6-.8ZM81 92l-.2-1.8-1 .1.2 1.8h1Zm-2.5 1.4 2.2-.9-.4-.9-2.1.9.3 1Zm.2 1 .1-1.4h-1v1.2l1 .1Zm3-1-3.5.4v1l3.7-.5-.1-1Zm.6 5v-4.6h-1v4.6h1Zm-3.1 1.5 2.8-1-.3-1-2.9 1 .4 1Zm-.8 1.7 1-2-.8-.4-1 2 .8.4Zm-3 1.2 2.8-1-.4-1-2.6 1 .3 1Zm2 2.3-1.6-3-1 .4 1.8 3 .8-.4Zm-3.4.9 3-.2v-1l-3 .2v1Zm0 .6.4-1-1-.3-.3 1 1 .3Zm4-.2-4.4-.5v1l4.2.5.2-1Zm.4-1.2-1 1.4 1 .6.8-1.4-.8-.6Zm3.9.4-3.4-.6-.2 1 3.4.6.2-1Zm3 2.4-2.8-2.3-.6.8 2.8 2.3.7-.8Zm3 .3-3.2-.4-.1 1 3.2.4.1-1Zm2.1-2-2.4 2 .6.9 2.4-2-.6-.9Zm1.9.7-1.3-.7-.5.9 1.3.7.5-1Zm-2.4 3 2.5-2.2-.7-.7-2.4 2.3.6.7Zm0 1.3.2-1.5-1-.2-.3 1.5 1 .2Zm-2 .6 1.5-.2-.1-1-1.5.2.1 1Zm-7.8-.1h7.7v-1h-7.7v1Zm.8.3-.3-1-1 .3.4 1 1-.3Zm-2.8 1.3 2.5-.7-.3-1-2.4.7.2 1Zm-.6 2.5 1-2.8-1-.3-1 2.8 1 .3Zm-7.7 7 7.5-6.7-.6-.8-7.6 6.7.7.7Zm2 .5-2-1.4-.6.9 2.2 1.3.5-.8Zm1.7-.1h-1.9v1h2v-1Zm5.8-3.6-6 3.7.5.8 6-3.7-.5-.8Zm4.7 2.6-4.2-2.6-.5.8 4.1 2.6.6-.8Zm-.5-.5-.3.7 1 .4.2-.8-.9-.3Zm-.7-1 .7 1.4 1-.5-.8-1.4-.9.4Zm3.4-3.9-3.3 3.2.7.8 3.3-3.3-.7-.7Zm9.6.8-9.2-1v1l9 1 .2-1Zm1.8-2.4-2.3 2.5.8.7 2.2-2.5-.7-.7Zm5.7.2-5.3-.3v1l5.2.3.1-1Zm2.7-1-3 1 .4 1 3-1-.4-1Zm3.4 1.6-3-1.6-.5 1 3 1.4.5-.8Zm5.4-2-5.8 2 .4.9 5.7-2-.3-1Zm2.6-2.7-2.8 2.7.7.8 2.8-2.8-.7-.7Zm.4-2.4-.5 2.6 1 .2.5-2.6-1-.2Zm-4.6.7h5.1v-1h-5.1v1Zm-.4-2.3-.1 1.8h1l.1-1.7-1-.1Zm4.6-4L113 107l.6.8 4.5-3.6-.7-.8Zm3-6-3.1 6.1.9.5 3.1-6.1-.9-.5ZM119 95l1.5 3 1-.5-1.6-3-.9.5Zm-6-2.7 6.3 2.9.4-1-6.3-2.8-.4 1Zm-1 2.4 1.6-2.6-.8-.5L111 94l.8.6Zm-4-.9 3.4 1 .3-.9-3.4-1-.3 1Zm2.2-3.7-2.5 3 .8.6 2.4-3-.7-.6Zm0-1.5-.1 1.8h1v-1.7h-1Zm-3-2.4 3.1 2.8.7-.7-3.2-2.9-.6.8Zm1.5-2.4-1.6 1.6.8.7 1.5-1.6-.7-.7Zm-1.7-1 1.7 1.7.7-.7-1.7-1.7-.7.6Zm.1-2.3-.2 1.8 1 .2.2-2h-1Zm-2.4-2 2.6 2.4.6-.7-2.5-2.5-.7.8Zm-.7-3.7.5 3.4 1-.2-.6-3.4-1 .2Zm-4-.5 4.3.9.2-1-4.3-.9-.2 1Zm-3-5.6 2.6 5.3 1-.4-2.8-5.4-.8.5Zm.6-5.7-.7 5.4 1 .1.7-5.4-1-.1ZM96 61l1.6 2.4.8-.6-1.6-2.4-.8.6Zm-3.6-1.2 3.8 1.3.3-.9-3.7-1.4-.4 1Zm-2.5.8 2.8-.8-.2-1-2.9.8.3 1Zm-1.6-.9 1.2.8.6-.8-1.3-.8-.5.8Zm2.8-2.6-2.8 1.8.5.8 2.8-1.7-.5-.9Zm.4-1-.6 1.2 1 .4.5-1.2-1-.4Zm-.8-.7.8 1.2.8-.6-.8-1.1-.8.5Zm2.8-3.7-2.8 3.1.8.7 2.7-3.1-.7-.7Zm2.9-8.6-3 8.8.9.3 3-8.8-1-.3ZM95 41.9l1.5 1.7.7-.7-1.5-1.6-.7.6Zm-1.8.5 2.2-.3-.1-1-2.2.3v1Zm-2-1.2 1.7 1.1.5-.8-1.7-1.2-.6.9Zm-.5 1 1-1.1-.7-.7-1 1.2.7.7Zm-3.2-.7 2.6 1 .4-1-2.7-1-.3 1ZM85 42.9l2.8-1.4-.4-1-2.9 1.5.5.9Zm-1.6-1.6 1 1.4.8-.5-1-1.4-.8.5Zm1.9-1.6-1.7 1 .5.8 1.7-1-.5-.8Zm-1.1-.3 1 1 .7-.6-1-1-.7.6Zm5.7-6.4-5.7 5.7.7.7 5.7-5.7-.7-.7Zm-.8-1.6.7 2.1 1-.3L90 31l-1 .3Zm-6.4 2 7-1.7-.3-1-7 1.7.3 1ZM80 32.1l2.3 1 .5-.8-2.4-1.1-.4.9Z" fill="#F6995C"/><g filter="url(#a)"><path d="m82 83.8-.1.1-.1-.2h-.1l-.4-.4a4 4 0 0 0-.4-.4v-.1l-.2-.1v-.1h-.1l-.2.2h-.1v-.1h-.1v.8H80V82.2h-.2a10.5 10.5 0 0 1-1.6-.1H78l-.5-.2a8 8 0 0 1-1.8-.9l-.3-.2-.2-.1v-.1H75v-.1a5 5 0 0 1-1-1.3 6 6 0 0 1-.4-2.5v-8.2c0-.3.2-.4.5-.5H78l.4.1.1.2v.1l.1.2v8l.2.8c0 .3.2.5.4.6h.1l.2.1h.1a2 2 0 0 0 1 0H81l.3-.4.2-.4v-.2l.1-.6v-8.1l.2-.2.2-.1h4.2l.3.1.2.4v9l-.2.4a565.7 565.7 0 0 1-.5 1.5l-.1.3-.4.5-.1.1-.1.1-.2.2-.2.2-.1.3-.1.2a3.3 3.3 0 0 1-.4.7l-.2.3-.1-.2v-.2l-.2.3-.1.1-.1.1v.3l-.1.2v.2l-.1.1v-.2l-.1-.3v-.4h-.1c0-.1 0-.1 0 0a29.8 29.8 0 0 0-.2-.2c0-.1-.1-.1-.2 0h-.1l-.1.3a7 7 0 0 1-.4 1l-.1.1-.1.1Zm19.9-2-.1.2h-.1v.1l-.1.2-.1.2-.2.2a19 19 0 0 0-.8 2l-.1.3-.1.3-.1.2-.1.1h-.1v.1l-.2.3v.1l.2.1s0 .2-.2.3v.1h-.1V86l-.1-.2-.1.1v.1l-.1.1-.1.2-.1.2H98.9v-.1h-.1v-.1l-.1-.2V86l-.2-.3-.2-.3-.2-.4-.1-.3-.2-.5-.1-.5a294 294 0 0 0-.2-.5l-.1-.5-.1-.1-.3-.4v.2l-.1-.1-.1-.2.1.2a96203132486 96203132486 0 0 0-.2.1V85h-.1l-.1-1.5c0-.6 0-1-.2-1.5l-.2-.3v-.1H96a24.4 24.4 0 0 0-1-1.8v-.2a17.4 17.4 0 0 1-1-1.6l-.2-.4a65.2 65.2 0 0 0-.1-.2V81.9l-.2.1c.1 0 .1 0 0 0l-.1.1v.6l-.1.2v.2l-.1.2H93v-.3a7.5 7.5 0 0 1-.2-.4h-.1l-.1-.2v.1c-.2.1-.2.2-.3.4v.2l-.4 1a8.4 8.4 0 0 1-.6 2.1l-.1.2h-.1v.7a23.8 23.8 0 0 1 .2 1.7c0 .2-.1.3-.3.2l-.2-.5v-.8a101.9 101.9 0 0 1 .1-1.4l-.1-.2-.1-.3-.1-.2-.2-.5a38.9 38.9 0 0 0-.8-2l-.1-.2v-.2l-.2-.3a44.7 44.7 0 0 1-.3-.2H89a.5.5 0 0 1-.3-.5V68.5l.3-.3h.2c.1 0 .3-.1.4 0h3.8l.1.1.1.2v4.1h.1v-.1l.1-.2.1-.2a21.6 21.6 0 0 0 1.3-2.4l.2-.2.3-.6.2-.3.2-.3.4-.2h4.7l.3.2v.5l-.1.2-.1.1-.2.3v.2l-1.3 2.1-.2.4a19.7 19.7 0 0 1-1.1 1.7l-.1.2-.1.2-.1.2-.2.3-.1.1.1.2v.1l.2.1v.2l.3.4.1.2.2.3.3.4.4.5c0 .3.2.5.3.8l.1.2.2.3 1 1.7.2.3.2.3.1.2.1.2.1.2v.1l.1.2Z" fill="#51829B"/></g><defs><filter id="a" x="53.7" y="50.1" width="68.2" height="60.9" filterUnits="userSpaceOnUse" color-interpolation-filters="sRGB"><feFlood flood-opacity="0" result="BackgroundImageFix"/><feColorMatrix in="SourceAlpha" values="0 0 0 0 0 0 0 0 0 0 0 0 0 0 0 0 0 0 127 0" result="hardAlpha"/><feOffset dy="2"/><feGaussianBlur stdDeviation="10"/><feComposite in2="hardAlpha" operator="out"/><feColorMatrix values="0 0 0 0 0.960784 0 0 0 0 0.929412 0 0 0 0 0.929412 0 0 0 0.4 0"/><feBlend in2="BackgroundImageFix" result="effect1_dropShadow_116_130274"/><feBlend in="SourceGraphic" in2="effect1_dropShadow_116_130274" result="shape"/></filter></defs></svg>