<svg width="180" height="150" fill="none" xmlns="http://www.w3.org/2000/svg"><path d="M70.2 49.4v-.5l-.6-.1.1.7.5-.1Zm3.3.2.4.2.2-.6h-.6v.4Zm-2.6 2.6-.5.1v.1l.5-.2Zm1 1.9h.5V54l-.5.2Zm0 2h-.6.5Zm.2 1.2.3.4.3-.2v-.3H72Zm-1 .8v.5h.2l.1-.1-.3-.4Zm-4.7-.3v-.5h-.1l-.2.1.3.4Zm-1 .7-.3.2.2.5.5-.3-.3-.4Zm-1.6-3 .5-.2-.2-.3-.4.1.1.5Zm-3.3 1.1v.5h.1v-.5Zm-5.4.7v-.5h-.5v.5h.5Zm0 1.7h-.5v.4h.4V59Zm1.9.3h.5V59H57v.4Zm-.1 2v.4h.4v-.4H57ZM55 61v-.5h-.5v.5h.5Zm-.1.8h-.5v.3l.2.1.3-.4Zm2.7 1.5-.2.4.2-.4Zm8.9 3.4.4-.2v-.2h-.2l-.2.4ZM68 70h.5v-.2l-.5.2Zm-.1 2.3h-.5v.2l.1.1.4-.3Zm3.2 3.8.4-.3-.4.3Zm1.5 2.2h.5v-.1l-.1-.2-.4.3Zm-.6 2.4-.5-.2v.4l.5-.2Zm.8 1.3h.5V81.8l-.5.3Zm-.8 4.3-.5-.1h.5Zm0 3.8.4.1h-.4ZM70.3 98l.3.3h.2V98l-.5-.1Zm-2 1.5-.2-.4-.5.4.5.4.3-.4Zm1.6 1.1h.5v-.3h-.2l-.3.3Zm.4 1.6-.5.1.1.3h.3l.1-.4Zm5.5 2-.1.5.1-.5Zm6.6 1.6v.5l.5.1v-.6h-.5Zm0-1.7.3-.5-.7-.3v.7h.5Zm7.7 3.4-.2.4h.1l.1-.4Zm3.6.7v.5H94l-.3-.5Zm2.3-1.3.3.4.2-.1v-.3H96Zm0-4.8-.4-.4-.2.1v.3h.5Zm5.4-3.5.2-.5h-.4l.2.5Zm4 1.4-.2.5.3.1.2-.2-.3-.4Zm.9-1 .2-.4-.3-.1-.3.2.4.4Zm6 3-.2.5h.4l-.2-.4Zm4-1.1.2.4h.2l-.4-.4Zm4.9-5 .3.4h.1V96l-.4-.1Zm.9-3h.5v-.3l-.3-.2-.2.4Zm-1-.6.3-.5h-.4l.1.5Zm-2 .6-.3.4.3.2.2-.1-.1-.5Zm-1.9-1.8-.4-.2-.1.4.2.2.3-.4Zm1-2.6.5.2v-.3l-.1-.2-.4.3Zm-2.4-2.7-.2-.4-.6.3.4.4.4-.3Zm2.8-1.6.2.4.3-.1V84h-.5Zm0-1.2h.5V82.6l-.5.3Zm-2.4-2.5-.3-.5-.5.4.4.4.4-.3Zm1.5-1 .2.4.3-.1v-.4l-.5.1Zm-.2-1.1.5-.1V78l-.5.3Zm-1.7-2.8.4-.3-.2-.3h-.3v.6Zm-2.7 0-.2.5h.3v-.4Zm-.9-.6h-.5v.3l.2.1.3-.4Zm0-1.1-.3-.4-.2.1v.2h.5Zm2.2-2.2.3.4.1-.1-.4-.3ZM117 67v-.5h-.3l-.1.2.4.3Zm2.2.3v.5h.4v-.4l-.4-.1Zm.3-1.4h.5v-.3l-.3-.2-.2.5Zm-1-.5-.4-.1v.4l.2.1.3-.4ZM120 58l-.4-.3-.1.1v.1l.5.1Zm2-3 .5.4.2-.3-.2-.3-.4.3Zm-.6-.9.4-.2-.1-.2h-.2v.4Zm-6.4-.8-.3.4.2.1.1-.5Zm-2.4-2.3.3-.3-.1-.2h-.2v.5Zm-5-.2-.3.4.1.1h.3v-.5Zm-2.5-2.7h-.5v.4l.5-.4Zm-.4-2.3h.5v-.6h-.5v.6Zm-1 .1-.1-.5h-.4v.4l.5.1Zm-.3 1.7v.5h.5v-.4l-.5-.1Zm-1.4 0-.5.2.1.4h.4v-.5Zm-.6-2.3.5-.1v-.3h-.3l-.2.4Zm-2.2-1-.3.4v.1l.3-.5Zm-3.7-2.8.3-.4-.2-.1h-.3l.2.5ZM94 42l-.4.4.2.2.3-.1-.1-.5Zm-1-1-.5-.2-.1.3.2.2.3-.4Zm.3-1.5.5.2v-.4l-.3-.2-.2.4Zm-.8-.4.2-.4-.2-.1h-.2l.2.5Zm-4.3 1.5L88 40l-.3.1v.4h.5Zm-.5 5.1.3.3h.1v-.2h-.4Zm-2 2.5v.5h.2l.1-.2-.4-.3ZM81 49.8l-.2-.5h-.2l-.1.3.5.2Zm-.6 1.3L80 51l-.2.4.3.2.3-.4Zm1.2 1 .2.4.7-.3-.6-.5-.3.3Zm-2.8 1.1v.5h.2l-.2-.5Zm-4.5-.6-.4.3.1.2h.2v-.5ZM73 50.8l-.5-.2v.5l.5-.3Zm45.6 52.3-.3-.4-.2.2v.3l.5-.1Zm3.5-3 .3.5.1-.1v-.1l-.4-.2Zm-1.4 9.5-.5.2v.1l.2.1.3-.4Zm3.1 2-.3.5.7.4.1-.8h-.5Zm1.1-6.5.5.1v-.2l-.5.1Zm-1-7h.5l-.1-.5h-.5v.5Zm-1 0v-.4h-.4l-.1.3.4.2ZM70.1 50l3.2.2.1-1-3.2-.2-.1 1Zm1.2 2.2-.7-2.9-1 .3.7 2.8 1-.2Zm1 1.8-1-2-1 .5 1.1 2 .9-.5Zm0 2.2v-2h-1v2h1Zm.2 1-.3-1.2-1 .3.3 1.2 1-.2Zm-1.2 1.4 1-.8-.6-.8-1 .8.6.8Zm-5-.2 4.7.3v-1l-4.7-.3v1Zm-.6.6 1-.7-.7-.8-.9.7.6.8Zm-2.4-3 1.7 2.8.8-.5-1.6-2.9-.9.5ZM60.7 57l3.3-1-.3-1-3.3 1 .3 1Zm-5.6.7 5.5-.7-.1-1-5.5.7.1 1Zm.5 1.2v-1.7h-1V59h1Zm1.4-.2-1.8-.3-.2 1 1.9.3.1-1Zm.4 2.5v-2h-1v2h1Zm-2.4.3 1.8.1v-1h-1.7v1Zm.5.4v-.8l-1-.1v.8h1Zm2.5 1-2.8-1.5-.5.8 2.8 1.5.5-.8Zm8.8 3.4-8.9-3.5-.3 1 8.8 3.4.4-1Zm1.7 3.4L67 66.6l-.9.4 1.5 3.3 1-.5Zm0 2.5v-2.2h-1v2.2h1Zm3 3.5L68.5 72l-.8.6 3.2 3.8.8-.6Zm1.6 2.2-1.5-2.2-.8.6 1.5 2.1.8-.5Zm-.5 2.8.6-2.4-1-.3-.6 2.4 1 .3Zm.7 1-.8-1.4-.9.5.9 1.3.8-.5Zm-.7 4.6.8-4.3-1-.2-.8 4.3 1 .2Zm0 3.7v-3.8h-1V90h1ZM70.8 98l1.7-7.8-1-.2-1.7 7.7 1 .3Zm-2 1.8 1.8-1.6-.6-.7-2 1.5.7.8Zm1.4.3-1.5-1-.6.7 1.5 1.1.6-.8Zm.6 1.9-.4-1.6-1 .3.4 1.5 1-.2Zm5.2 1.7-5.5-2-.3.9 5.5 2 .3-1Zm6.5 1.5-6.5-1.5-.3 1 6.6 1.5.2-1ZM82 104v1.8h1V104h-1Zm8.3 3-7.6-3.4-.4 1 7.6 3.3.4-.9Zm3.5.7-3.6-.7-.2 1 3.6.7.2-1Zm2-1.2-2.3 1.2.5 1 2.3-1.4-.5-.8Zm-.4-4.4.1 4.8h1V102h-1Zm5.8-4-5.6 3.6.6.8 5.5-3.5-.5-.8Zm4.3 1.5-3.9-1.5-.3 1 3.9 1.4.3-1Zm.4-.9-.9 1 .7.7 1-1-.8-.7Zm6.7 3-6-3-.5.8 6 3 .5-.9Zm3.6-1.3-4 1.2.3 1 4-1.3-.3-1Zm4.6-4.8-4.8 4.9.7.7 4.8-4.9-.7-.7Zm.8-3-1 3.3 1 .2 1-3.1-1-.3Zm-.7 0 1 .7.4-.9-.9-.6-.5.9Zm-1.6.8 2-.7-.3-1-2 .7.3 1Zm-2.4-2 2 1.9.6-.8-2-1.8-.6.8Zm.8-3-1 2.5 1 .4 1-2.6-1-.3Zm-2.3-2.3 2.4 2.8.8-.7-2.4-2.7-.8.6Zm3-2.4-2.8 1.7.5.8 2.7-1.6-.5-.9Zm-.3-.7V84h1V83h-1Zm-2.3-2.2 2.5 2.6.7-.7-2.4-2.6-.8.7Zm1.6-1.7-1.5 1 .6.8 1.4-1-.5-.8Zm-.4-.7.2 1.2 1-.2-.2-1.1-1 .1Zm-1.7-2.6 1.8 2.8.8-.5-1.7-2.8-.9.5Zm-2.1.4 2.6-.1v-1H113v1Zm-1.3-.8 1 .7.5-.8-1-.7-.5.8Zm-.2-1.6V75h1v-1.1h-1Zm2.3-2.4-2.1 2.1.7.7 2.1-2.1-.7-.7Zm2.7-4.7-2.8 4.8.9.5 2.7-4.8-.8-.5Zm2.6 0-2.1-.2-.2 1 2.2.3.1-1Zm-.2-1-.3 1.5 1 .2.3-1.4-1-.2Zm-.7.1 1 .5.4-.9-.9-.5-.5 1Zm1-7.8-1.2 7.3 1 .2 1.2-7.3-1-.2Zm2.2-3.1-2.1 3 .8.5 2-3-.7-.5Zm-.7-.4.7 1 .8-.6-.7-1-.8.6Zm-6-.6 6.3.8.2-1-6.4-.8-.2 1Zm-2.8-2.4 2.5 2.3.6-.8-2.4-2.2-.7.7Zm-4.5 0 4.8.1v-1l-4.8-.2v1Zm-3-3 2.6 2.8.7-.7-2.6-2.7-.7.7ZM104 46l.4 2.3 1-.2-.4-2.3-1 .2Zm-.5.5 1-.1v-1l-1.1.1.1 1Zm.2 1.3.2-1.7-1-.2-.2 1.7 1 .2Zm-1.9.5 1.4-.1v-1h-1.4v1Zm-1-2.8.5 2.4 1-.2-.6-2.4-1 .2Zm-2-.6 2.2 1 .4-1-2.2-1-.4 1ZM95 42l3.7 2.8.6-.7-3.7-2.9-.6.8Zm-.9.5 1.3-.4-.3-1-1.3.4.3 1Zm-1.5-1.2 1 1 .7-.6-1-1.1-.7.7Zm.2-1.9-.3 1.4 1 .3.3-1.4-1-.3Zm-.6.1.9.5.4-1-.8-.3-.5.8ZM88.4 41l4.3-1.5-.3-1-4.3 1.5.3 1Zm-.1 4.7.5-5.1-1-.1-.5 5 1 .2ZM86 48.4l2-2.5-.7-.6-2 2.5.7.6Zm-5 1.9 4.8-1.7-.3-1-4.8 1.7.3 1Zm-.2 1 .5-1.3-.9-.4-.5 1.3.9.4Zm1 .4-1.1-1-.7.8 1.2 1 .6-.8Zm-2.9 2 2.8-1.2-.4-1-2.8 1.3.4.9Zm-4.8-.6 4.6.6.1-1-4.5-.6-.2 1Zm-1.5-2 1.2 1.8.8-.6-1.2-1.8-.8.6Zm.3-1.6-.4 1.1 1 .3.3-1.1-1-.3Zm46 54 3.5-3-.6-.7-3.5 3 .7.7Zm2.2 6-2-6.6-1 .3 2 6.6 1-.3Zm3 1.7-3.2-2-.5.8 3.1 2 .6-.8Zm.3-6.2-1 6.6 1 .1 1-6.5-1-.2Zm-1-6.8 1 7 1-.2-1-7-1 .2Zm-.5.5h1v-1h-1v1Zm-.3 1.7.7-2-1-.4-.7 2 1 .4Z" fill="#F6995C"/><g filter="url(#a)"><path d="M59.2 72v.2l-.1.1H59v.1l-.1.2v.1h-.1v.1h-.1v-.2h-.1l-.1.1v.1l-.1.1v-.2h-.2l-.3.3a6 6 0 0 0-.6.5 1 1 0 0 1-.7.3l-.4-.1-.3-.3a.8.8 0 0 0-.4-.1 1 1 0 0 1-.4-.1L55 73a280 280 0 0 0-1-.6h-.7c.2 0 .3 0 .2-.1l-.4.1V74h5.1l.5.1.2.1v3.7l-.2.2a17.2 17.2 0 0 0-.2 1.2v-.8c0-.1 0-.1 0 0-.1.3-.2.6-.1.9a7.3 7.3 0 0 1-.1 1.4v-1a11.1 11.1 0 0 0-.1-1l-.1.2-.1.1h-.1v2.1l-.1 1V82h-.1l-.1-1v-2h-.1l-.1-.2v.5l-.1.5v.2c-.2 0-.2.2-.3.4l-.3.5-.1.1v.2h-.1a32.6 32.6 0 0 1-.2-2.5H56v.1h-.1l-.1.1-.2.1a5.9 5.9 0 0 0 0 1l-.1.3v.2l-.1-.7v-.6l-.1-.3H55l-.1-.1v.7a23.2 23.2 0 0 1-.2 2.3l-.1-.2-.1-.2a6.9 6.9 0 0 1-.7-1.4 3 3 0 0 0-.2-.5v-.3a46.7 46.7 0 0 0-.1-.8h-.1v.1l-.1.2v-.2l-.2-.2-.1-.2-.2-.3v.1l.1.3v3.7l-.1.2-.2.2-.2.2v.2l-.1.1-.2.3-.1.4-.3.6-.3.6-.2.3a222.2 222.2 0 0 0-.4.5V88l-.1.6h-.1a20.6 20.6 0 0 1-.2-3v-.2l-.2-.2V85l-.2-.4-.1-.4c0-.2 0-.3-.2-.5l-.1-.3v-.1h-.1c0-.2-.2-.3-.3-.4l-.3-.3v.6l-.1-.2-.2-.5h-.1l-.1-.1h-.2a.5.5 0 0 1-.2-.5V68.9l.1-.4.2-.1H59.1l.2.5V72ZM74 82v.2h-.2v.2l-.1.1v.2l-.4.6-.2.3-.1.2-.1.1-.1-.6v-.6h-.1l-.1.1-.2.1v.1h-.1l-.2-.2v-.2l-.1.3v.3l-.1-.1v-.4h-.1l-.2.2v.4a2.5 2.5 0 0 1-.2.6v.1V83.6l-.1-.3v-.2l-.1-.2H71l-.1.2-.1.1-.1.2h-.1V84.7c-.1.1-.1.2 0 .4l-.2.3v-.5a15.7 15.7 0 0 1-.1-1.6 16.5 16.5 0 0 0-.7-.6h-.1l-.1.5v.6h-.1v-.2l-.1-.2a16.5 16.5 0 0 0-.2-.1s-.1-.2 0-.4v-.4.2H69V82.4h-.1s-.1 0 0 0l-.2-.4v-.1l-.2-.1V81.5l-.1-.1-.2-.3a7 7 0 0 0-.3-.7l-.2-.5v-.2l-.3-.4V79l-.2-.3v-.2l-.1-.1v-.1l-.1-.2v-.1l-.2-.1-.1.2v.1l-.2.1-.1.1-.2-.2v-.2L66 78V82h-.1v.1l-.2.1-.1.2h-.1v.5a2.5 2.5 0 0 1-.2.5v.1h-.1v-.1l-.1-.1V83l-.1-.2v-.1l-.2.1-.1.1a21.3 21.3 0 0 0 0 2.6c0 .1-.1.2-.2.1 0 0-.1-.2 0-.4V85a521.8 521.8 0 0 1-.4-2.2v-.2H63.7v.1l-.4-.1-.2-.2-.3.1-.1.1h-.5a65.2 65.2 0 0 0-.6 0 13.9 13.9 0 0 1-.5-.3.5.5 0 0 1-.2-.4V68.9a.5.5 0 0 1 .3-.5h7.2a7.2 7.2 0 0 1 3.5 1.2v.1c.6.4 1 1 1.2 1.5.3.6.4 1.2.4 2 0 .4 0 .8-.2 1.2l-.1.5v.1l-.3.5a4 4 0 0 1-.3.5l-.1.1-.2.2v.1l-.2.1-.1.1v.9l.2 1v.2l.1.1c.2.2.3.5.4.9l.5.8a10 10 0 0 0 .6 1.1V82Zm-7.8-7.7h1.5l.4-.3.2-.4a1.1 1.1 0 0 0 0-.5v-.4c0-.2-.2-.3-.3-.4H66.4l-.2-.1H66v2h.2Zm5.6 3.6.1-1V77.1l-.1.1h-.1c0-.1 0-.2-.1-.1h-.1v.2h.1l.2.5Zm-2.6 5c.1-.1 0-.2 0-.2v.2Zm20.1-1.3.1.2v.5h-.1v.2h-.1v.2l-.1.1v.2l-.1-.1v-.2l-.2.2-.2.2a13.7 13.7 0 0 0-1 1.9l-.1.1-.1.1a440 440 0 0 0-.3 0v-.3H87l-.1-.3-.1-.2-.2-.4h-.1a7.5 7.5 0 0 0-.2.2v.1l.2.1s0 .2-.2.3h-.1v-.3a10.9 10.9 0 0 1-.1-.5l-.2-.3-.1-.2V83l-.1-.2-.1-.1-.1-.1-.3.1.3-.1-.3.2.2-.1.1-.1-.3.1-.1.3v.2-.4l-.1-.3a3.3 3.3 0 0 1-.2-.5l-.2-.1v-.1l-.2-.5a4.8 4.8 0 0 0-.3-.7v-.2H84v.1l-.1.1a3 3 0 0 1-.2.5 7.9 7.9 0 0 0-.6 1.2 7 7 0 0 1-.3.9 566.1 566.1 0 0 0-.6.9h-.1l-.2-.3v-.3l-.2-.5-.2-.6a42 42 0 0 0-.3-1.2v-.1L81 81V80.8H81v.4l-.1.5-.1-.3v-.7l-.1.1v.1l-.1.1-.1.1h-.1a56.4 56.4 0 0 0-.2 0l-.2-.3-.2-.2-.1-.3v.5l-.1.1a224.9 224.9 0 0 0-.2.5v.3l-.1.2a83.3 83.3 0 0 0-.4.4v.1a4.7 4.7 0 0 1-.3.7v.3l-.1.3v.1l-.2.5v.5l-.2.4-.1.3v.2l-.2.2v.2h-.2v.5l-.1.5h-.1v-.5l-.1-.5-.1-.1-.2-.2v-.1l-.1-.1-.2-.2-.2-.3a19 19 0 0 0-1-2.2l-.2-.2-.1-.1-.1.2-.1.2h-.2v-.2.2l-.1-.7a.5.5 0 0 1-.3-.3v-.4l.1-.3v-.2l.2-.1.6-2a30.4 30.4 0 0 0 .4-1.4l.1-.2a79.5 79.5 0 0 1 .2-.4l1-3a27.8 27.8 0 0 0 .7-2l.1-.4.4-.8.4-1 .2-.8c0-.2.2-.3.3-.5l.7-.2H84l.4.1.2.1.2.2a2 2 0 0 1 .2.5v.4l.3.4v.2l.1.3.1.3v.1l.1.1v.2l.3.4.3.9v.2l.3.6.2.7.2.6.2.7 1 2.8.2.6a13.2 13.2 0 0 1 .4 1.3l.5 1.2v.3ZM82 73v.1l-.2.3v.3l-.5 1.5a74.8 74.8 0 0 0-.4 1.3v.1H83v-.4l-.1-.2-.1-.2a10 10 0 0 1-.3-1l-.4-1.1v-.4l-.1-.1V73h-.1Zm21.3 8.9-.1.1v.2h-.2a4.2 4.2 0 0 0-.1.8l-.1.7a29.7 29.7 0 0 1-.2 1.7v.2h-.2v-.1l-.2-.5v-.4l-.2-1v-1l-.1.1v.2h-.1l-.1.1-.1-.1v-.2l-.1.1v.1h-.1l-.1.2-.1.6v.6h-.1V83.7l-.1-.2-.1-.5a4.4 4.4 0 0 1-.2-.4h-.1v-.2h-.1l-.1.1-.1.1h-.1v.2l-.1.1V82.6h-.2v-.2h-.5c0 .1-.1.1-.2 0l-.1-.2-.2-.1a3.2 3.2 0 0 1-.3-.5l-.1-.2h-.1l-.1-.2-.1-.1v-.2l-.2-.2-.4-.4a60.8 60.8 0 0 1-1-1.7l-.8-1.2a3.7 3.7 0 0 1-.4-.5v-.1V82h-.1c0 .2-.2.2-.2.3l-.1.1-.1.2-.1.2-.4.8-.2.4-.1.1v.1h-.1v.8l-.1.8-.1-.2v-1.4l-.2-.1-.1-.3h-.1v-.2a56.2 56.2 0 0 0-.1-.3l-.2-.5v-.2l-.1.4v.4h-.1v-.1l-.1-.1a254 254 0 0 0-.5-.4h-.1a83.3 83.3 0 0 0-.6.3v.7a23.3 23.3 0 0 1 .1 1.7c0 .2 0 .2-.2 0s-.3-.4-.3-.8l.1-1c.1-.3.2-.6.1-.8a65.2 65.2 0 0 0-.1.2l-.1.3v-.5l-.2-.6h-.1a.5.5 0 0 1-.2-.5V68.7c0-.2.1-.2.2-.3h3.9l.2.2.3.3.2.4v.1l.1.1.4.6.4.7.7 1.2.6.9.5.9.3.4V68.8l.1-.2.1-.1.4-.2H102.8l.2.2.1.2V81a4.1 4.1 0 0 1 0 .8Zm14.3-1.6h-.1l-.1.2-.1.1-.1.1-.3.2v.2a10 10 0 0 0-.3 1v.3l-.3.8v.2l-.1.2-.2.4a1.4 1.4 0 0 0-.2.1 5.6 5.6 0 0 0 0 .3h-.2v-.1h-.1l-.2.2v.2h-.2v.1h-.2v-.2l-.1-.2a19.9 19.9 0 0 0-.8-1.7h-.1v.7l.1.6c0 .2 0 .3-.2.3s-.2-.1-.2-.3v-.6l.1-.6v.2l-.2.2v.2h-.2v.2h-.1a4 4 0 0 0 0 .9l-.2-.4-.2.2v-.9l-.3-.3a423.5 423.5 0 0 0-.8-.3v-.3c-1.4 0-2.5-.2-3.5-.6a4.8 4.8 0 0 1-2.8-3.1 2.3 2.3 0 0 1-.2-.4v-.8l-.1-1v-.8a20 20 0 0 0 0-1.8 12.1 12.1 0 0 1 0-1.2l.4-1.2a4.9 4.9 0 0 1 .9-1.5c.6-.7 1.4-1.2 2.3-1.5 1-.3 2-.5 3.1-.5h.5c1.2 0 2.2.3 3.2.7a5 5 0 0 1 2.5 2.2l.2.4a3.8 3.8 0 0 1 .3 1.4v.7l-.2.2-.1.1h-.4l-.2.3-.2.2v.1l-.2.1-.1-.1s0-.1-.1 0h-.1l-.3.3-.4.1h-.2l-.1-.1-.4-.2h-.3l-.4-.2a1 1 0 0 1-.3-.1l-.2-.2a2.8 2.8 0 0 0-.5-.3v.2h-.1v-.2l-.2-.1-.1-.3-.2-.4c0-.2-.2-.3-.3-.5h-.1v-.1h-.5l-.2.2-.2.3v.2l-.2.1-.1-.3v-.5l-.2.2v.2h-.4l-.2-.2v-.1c-.1 0-.2 0-.2.2l-.2.4v.8l-.1.6v3.1l.1.2v.2l.6.4.9.2c.3 0 .6 0 .8-.2l.2-.1.2-.2.1-.3v-.1l.1-.2.1-.2.2-.2h.3a1.5 1.5 0 0 1 .5 0h4l.1.3v.8a4.7 4.7 0 0 1-.9 2.2Zm-4.7 4.8a33 33 0 0 1 0-.8v.8Zm.2.4s0 .1 0 0Zm-.2-.4v.2a1.2 1.2 0 0 0 0-.2Zm18.7-5.4a24.4 24.4 0 0 0 0 1.9v.5l-.2.1v.1l-.2.1v.1a8.3 8.3 0 0 0-.2.2l-.2.3-.2.2-.1.2-.2.2-.1.2a.8.8 0 0 1-.3.3h-.2l-.1.2h-.2a1.3 1.3 0 0 1-.2-.2l-.2.2v2.1l-.1.3c-.1 0-.2 0-.2-.2V85a10 10 0 0 0 0-1l-.1-.1a11.2 11.2 0 0 0-.4-.7l-.3-.5v-.2l-.1-.1v.2l-.1.3h-.1V82.8l-.1.2a785.3 785.3 0 0 0-1 1.8c.1-.2 0-.3 0-.4v.7h-.1c-.1 0-.1-.2 0-.4v-.4c-.1-.1-.1 0-.1 0v.4l-.1-.1v-.2l-.1-.1c0-.1-.1-.2-.2-.1l-.1.2-.3.2v.7a88 88 0 0 0 .1 1.3c0 .2 0 .2-.2.2s-.3-.1-.3-.3v-.6a74.8 74.8 0 0 0 .2-1.3l-.1-.1-.1-.2-.2-.5-.3-.6-.1-.1-.2-.1-.2-.1h-.2l-.3.3h-.1a26.8 26.8 0 0 0-.2 3v-.7a26.8 26.8 0 0 1 0-1.7c0-.3 0-.5-.2-.6l-.2-.4h-.1v-.1l-.2-.2-.2.1-.1.1v.1l-.1.3-.2 1v.5l-.1.4c0 .1 0 .1 0 0a1 1 0 0 1-.2-.5l.1-.6v-.5c0-.1 0-.2-.2-.1l-.4-.1h-.1l-.1-.1v-.1.5a14.5 14.5 0 0 1 0 1c0 .2 0 .2-.2 0a1 1 0 0 1-.1-.5v-1.2c0-.1 0-.1 0 0v.8V82.9l-.2-.6h-.1a.5.5 0 0 1-.3-.5V68.9l.1-.4.3-.1h10.8v.1l.2.3V72a2.8 2.8 0 0 0-.3.2 3.1 3.1 0 0 0-.2.2h-.8a1 1 0 0 0-.5.2h-.2l-.2.1-.2.1-.2.1h-.7l-.2.2h-.2l-.3.1H126.8l-.4-.2-.4-.2-.3-.2a4 4 0 0 0-.4-.1l-.5-.2v1l.1.3h5.2a1 1 0 0 1 .6 0l.1.2.1.2V76.8c0 .2-.2.3-.3.3l-.3.2h-.2a2 2 0 0 0-.3.2 1 1 0 0 1-.4.2 7.5 7.5 0 0 1-.4 0l-.2.1a33.3 33.3 0 0 0-.6.2h-.8l-.2-.2h-.3l-.4.1-.3-.1-.3-.3a8.4 8.4 0 0 0-.8-.3 2 2 0 0 0-.3 0v1l.1.2h6.3l.1.1.1.1.1.2V79.7Z" fill="#51829B"/></g><defs><filter id="a" x="28.1" y="50.1" width="123.5" height="60.4" filterUnits="userSpaceOnUse" color-interpolation-filters="sRGB"><feFlood flood-opacity="0" result="BackgroundImageFix"/><feColorMatrix in="SourceAlpha" values="0 0 0 0 0 0 0 0 0 0 0 0 0 0 0 0 0 0 127 0" result="hardAlpha"/><feOffset dy="2"/><feGaussianBlur stdDeviation="10"/><feComposite in2="hardAlpha" operator="out"/><feColorMatrix values="0 0 0 0 0.960784 0 0 0 0 0.929412 0 0 0 0 0.929412 0 0 0 0.4 0"/><feBlend in2="BackgroundImageFix" result="effect1_dropShadow_116_130300"/><feBlend in="SourceGraphic" in2="effect1_dropShadow_116_130300" result="shape"/></filter></defs></svg>