<svg width="180" height="150" fill="none" xmlns="http://www.w3.org/2000/svg"><path clip-rule="evenodd" d="m79.1 34 .7.1-.4 1 .5 1.4 1.3.3-.3-1.6 1.6.4.5-.3 1.2.8H86l2.8.9v.8l.5 1.1-1.4 1 .4.6 1.6-.4v.8l.8-.4 2.6 1.4 1.3-1 .6.1.3-.5-.7-.7.7-.5.9.6.2 1-1 .9-.2 1.2-1.2 1.2-1 .3.4 1.6 1.3-1.1 1.3-.4V46l1.2-.4-.2-1.4 2.2-.6.9.6 2.2-1.6 1.6-2 2.8.2.8-2.1 1.8-.7.3 1 1.4.3-.4 1.5.9.8v1.2l-1-1-1.3.2.2 2.1 1.8-.5 1.3.4 2.4 2.6-.1 2.3 1.3 3.5-.3 1.4-1.8 2.2.4 1.6 2.7 2.1-.3 2.4 1.2 1.9-.1 1h.8v2.4l-1 .7 1.4 2.2-.5.3.3.7 1.5.6.6 1.8-.3 2.5-.5 1.3-1.7.5-1-1.3-2.1-1.2-.3.6 1.3.8-3.2 1.2-.2.8-2 .3-.7 1-2.7 1.3-.8 1.2-1-.7-.8.6h-1l-1 1.1-.3 1.6-1.3-2.3-.5.7 1 2.3 2 1.6-.7 2 2.5 4.2 1-.3 2.8 3.1v.9l.9.2.4-.5 1.9 2.5-.6 2.7-1.5-.6-1.2 2.7-3.3 1.2-.8 1.4 1.8 2-.5 1.8 1.1.2-.2 2.2-2-1 .3-1-1.4-.4-.8.7-.6-.6h-1.5v.9h-4.3l-.2.8-1 .8h-3.5l-.4-1-2.8-.4v1.3l-2 1.7-2.1-3.2-4.7-.6-1.2-1-.9.3-.5-1-1.7-.5-1 1 1 .3-1.2 1-1.4-.6-.9.7-1-.2-.4-.4h-.8l-.9.5-1-1.4 1.1-2.9-.2-1 1.6-4.7 3.6-4.5L70 95l-.8-.9-1.7.6-1.6-1.4-.8.9-1.7-1.7.2-1.2-1.4-1.2 1.2-2.4-1.7-1.4-.3-1 .1-3.2h1l1-1.1-.2-1.5h-.7l-.3-.7.7-.7-1.3-1.2-.2-.8.6-.6-1.1-1v-1l.8.1.8-1.1 1-2.7-1.6-3.3.2-.8 1.3-.7 1.3.8 1.5-.5.5.5 1-1.1-.7-.5v-.6l2.2-1.2v-2.5l-1.7-.4.1-1.5 2-.1.4-2 1-1.3-.2-2 1-1.6-2-.4.5-2 1.3-1.2 4.5.1.6 1.6 1 .3 1-.2.4-1.3.8-2.1 1.7.6.5-.7-1.1-.7 1.3-.8v-1h-1.1l.7-1.3.1-1.6-.8-.7-1 .1-.5-1.9-.9.5-.9-1.6 1.1-2.6Z" stroke="#F6995C"/><g filter="url(#a)"><path d="m51.5 79.2-.1.2h-.1l-.1.2a1.5 1.5 0 0 1-.4.3l-.1.2h-.1v.1l-.2.2-.1.3a2.4 2.4 0 0 1-.1.4l-.1.2v.2l-.1.1-.2.2-.1.2v.6a6.3 6.3 0 0 1 .1 1.2l-.2.1c-.2 0-.3-.2-.3-.4l.1-.8.1-.7v-.1h-.1v-.2a2.4 2.4 0 0 0-.2-.3H49a98.7 98.7 0 0 1 0 1.6v.6c0 .1-.1.1-.1 0l-.1-.4V82h-.1v-.1l-.1-.1v-.2c-.1 0-.2.1-.2.3l.1.4v.6h-.1a7.9 7.9 0 0 1 0-1 12.6 12.6 0 0 0-.3.9v.1l-.2.1h-.1l-.1-.1v-.1l-.4-.4a2.5 2.5 0 0 1-.3-.4v-.2l-.1.2v.3l-.1-.1V81.9l-.2.2-.1.1-.2.4v.6h-.1v.1l-.1.2V82.2c-.1 0-.2 0-.2-.2l-.2-.1v-.1h-.2v.7h-.1v-.2l-.1-.6c-1.4 0-2.5-.3-3.5-.7a4.9 4.9 0 0 1-2.4-2.2l-.2-.4-.1-.2v-.3l-.2-.4-.2-.8v-4.1l.1-.8a5 5 0 0 1 .7-2l.2-.1v-.1l.1-.1.1-.1c.6-.7 1.3-1.2 2.2-1.6 1-.3 2-.5 3.2-.5h.7a2.5 2.5 0 0 1 .4 0h.5l.2.1h.2a6.7 6.7 0 0 1 1 .2 6.7 6.7 0 0 1 3.2 2 4.4 4.4 0 0 1 .6 1l.2.8v.6l-.1.1v.1H52v.1l-.1.1v-.1h-.2a478273070953.9 478273070953.9 0 0 1-.5.2h-.6l-.2-.1h-.6l-.2.1-.2.1-.1.1h-.2l-.2.2-.2.2h3.3l.2.2v2.5a6.5 6.5 0 0 1 0 1.7l-.3.8-.2.4-.2.3-.1.2Zm-6-1.4.9-.1.6-.5.2-.3v-.5h-.1v.2l-.2.1-.2.1h-.4v-.1l-.2-.2-.1-.2-.2-.3v-2.7h.1c.1-.2.3-.2.4-.2h2.2l-.2-.1-.2-.1a5 5 0 0 0-.5-.3l-.5-.4-.1-.1V72h-.1l-.2-.2-.1-.2-.1-.1-.2.1h-.1v.3l-.2.1V71.4h-.1v.3l-.1.4v-.2l-.2-.2V71.4l-.2.1-.1.1h-.2l-.1-.1v-.1h-.1l-.1.2v.2h-.3l-.1-.2h-.1l-.1.2-.2.6V76.8a1.4 1.4 0 0 0 .7.8 1.6 1.6 0 0 0 .6.2h.2Zm.8 5.4.1.2v.5-.4l-.1-.3Zm-.2 2.3c0 .2 0 .2 0 0a7 7 0 0 1-.1-1.3v-.7a35.5 35.5 0 0 0 .1 2Zm.2-.1c0 .1 0 0 0 0a8.2 8.2 0 0 0 .1-1.5v.8l-.1.7Zm19.4-6.6a26 26 0 0 0 0 2V81l-.2.2v.1h-.2v.2h-.1v.2H65v.1l-.3.2-.2.3-.1.2-.2.2-.1.2a.8.8 0 0 1-.3.2l-.2.2h-.3a1.3 1.3 0 0 1-.2-.1l-.1.1v.9l-.1.9v.4l-.1.3c-.1 0-.2 0-.1-.3v-.4a454.6 454.6 0 0 0-.1-1.9l-.1-.1a8.8 8.8 0 0 0-.4-.7L62 82v-.2l-.1-.1v.2l-.1.2v.1l-.1-.2V82l-.1.2-.1.3a3.3 3.3 0 0 1-.5.8l-.1.3a2.6 2.6 0 0 1 0 .5l-.1.2a65.2 65.2 0 0 1-.1-.3l-.1-.4a2.8 2.8 0 0 0 0 .6v.1c-.2 0-.2-.2-.2-.4v-.5.5-.1l-.1-.2-.1-.2H60l-.2.1-.2.3h-.1v.6a88 88 0 0 0 .2 1.4c0 .2-.2.2-.3.2l-.3-.3V85a74.8 74.8 0 0 0 .2-1.3l-.1-.2H59l-.2-.6-.3-.6V82h-.3l-.2-.1v-.1h-.2v.1l-.3.3h-.1a30.3 30.3 0 0 0-.2 3v-.7a29 29 0 0 1 .1-1.7c0-.3 0-.5-.2-.7l-.3-.3v-.1h-.1l-.2-.2-.2.1h-.1v.5l-.2 1a11.4 11.4 0 0 1-.2 1 1 1 0 0 1-.1-.6v-.7l.1-.4c0-.2 0-.2-.2-.1l-.5-.1-.1-.1-.1-.2v.6a12.7 12.7 0 0 1 0 1c0 .2 0 .2-.1 0a1 1 0 0 1-.2-.5V81.8v.8-.5l-.2-.6-.1-.1a.5.5 0 0 1-.2-.4V67.7l.3-.2H65l.4.1.1.1.1.3V71.1h-.1l-.1.2a3.5 3.5 0 0 0-.3.2h-.7a1 1 0 0 0-.6.2h-.2l-.2.1h-.2l-.2.2h-.7l-.2.2h-.2l-.3.1H61l-.4-.2-.3-.2-.4-.2a4 4 0 0 0-.4-.1l-.4-.2v1.3h5.2a1 1 0 0 1 .6 0l.2.2V76c0 .2-.1.2-.3.3l-.3.2h-.2l-.3.2a1 1 0 0 1-.4.2 7 7 0 0 1-.4 0l-.2.1h-.2l-.4.1H60.6l-.3-.2a1.6 1.6 0 0 0-.6-.3 4 4 0 0 0-.5-.2 2 2 0 0 0-.2 0v1.2H65.4v.1h.1v.1l.1.2v.8Zm14.7 2.3V81.4h-.2v.2l-.1.2-.3.6-.2.2c0 .1 0 .2-.2.3v.1h-.1v-1.2H79l-.2.2v.1h-.1l-.2-.3-.1-.1v.6h-.1V82l-.1-.4v.1l-.2.2-.1.4a2.5 2.5 0 0 1 0 .6h-.2v-.3a200 200 0 0 0-.3-.4l-.1.1-.2.2v.6l-.1.7v.4l-.1.3-.1-.2v-.3a15.7 15.7 0 0 1 0-1.6h-.1v-.1l-.2-.1-.1-.2-.2-.1-.1-.1H76v.5l-.1.5-.1-.1v-.2l-.1-.1c-.2-.1-.2-.2-.2-.4v-.4.2-.2l-.1-.1-.1-.1v-.3h-.1L75 81a83.3 83.3 0 0 0-.5-1.1l-.2-.5-.2-.4-.1-.2a2.8 2.8 0 0 0-.2-.5v-.1l-.2-.3v-.1l-.1-.1v-.1l-.1-.2-.1-.2-.2-.2v.2l-.1.2v.1l-.2.1c-.1 0-.2 0-.2-.2l-.1-.2c0-.2-.1-.2-.1-.1V81l-.1.2-.1.1h-.1v.2H72v.2l-.1.3a2.5 2.5 0 0 1-.1.6h-.2V82.3l-.1-.2v-.1l-.1-.1-.1.1-.2.1a21.3 21.3 0 0 0 0 2.6l-.1.1c-.1 0-.2-.2-.1-.4v-.4a633.8 633.8 0 0 1 0-1.9h-.1V82l-.1-.1-.1-.1v-.1l-.1-.2v.1H69.8l-.3-.2-.2.1-.2.1h-1a14 14 0 0 1-.5-.3.5.5 0 0 1-.2-.4V68a.5.5 0 0 1 .3-.5H75a7.2 7.2 0 0 1 3.6 1.3c.6.5 1 1 1.2 1.6.2.6.4 1.2.4 2 0 .4 0 .8-.2 1.2l-.1.5v.1l-.3.5a4 4 0 0 1-.3.5H79v.1l-.2.2-.1.1-.1.1-.1.1v.8l.2 1.1v.2l.1.1.4.8.5 1a10 10 0 0 0 .6 1V81.1Zm-7.7-7.8h1.5c.2 0 .3-.1.3-.2l.3-.5a1.1 1.1 0 0 0 0-.4v-.4c0-.2-.2-.3-.3-.4H72.9l-.2-.1h-.2v2h.2Zm5.6 3.7.1-1V76.3H78V76.6l.3.4Zm-2.6 5v-.3V82Zm21.2-1v.1a44.8 44.8 0 0 1-.3.3 8.3 8.3 0 0 0-.3 1.5v-1.1h-.1l-.1.1h-.2l-.4-.1V82l-.1-.1V81.7c0-.2-.1-.2-.2-.1l-.2.1-.1.2-.1.1h-.4v.1l-.2.3a2.2 2.2 0 0 1-.3.6l-.1.1v.6a3.4 3.4 0 0 1-.1.7l-.1-.2v-.7l-.1-.4-.2-.2a9.7 9.7 0 0 0-.3-.5l-.2-.3a2.2 2.2 0 0 0-.2-.3v-.1l-.1-.1-.1-.2v.1-.1l-.1-.1-.1-.1v-5.6.4-.5l-.2.2v.1a5.9 5.9 0 0 0-.4.6 19.5 19.5 0 0 0-.8 1.3l-.2.2-.1.1-.2.2a16.1 16.1 0 0 0 0 1.7 22.5 22.5 0 0 1-.2 1.6v-3.1H90l-.1.1-.1.2h-.2v.5c-.1 0-.2-.1-.1-.2v-.3l-.1-.1-.1-.1-.1.1v.1l-.1-.2v.1l-.2.1v.2H88.6l-.2-.3v-.3l-.1-.3h-.1l-.1-.2-.1-.2a1459.1 1459.1 0 0 0-.7-1l-.2-.3V76l-.2-.1v-.2a29.8 29.8 0 0 0-.2-.1v-.2 5.6c-.1 0-.1 0 0 0l-.2.2-.1.1v.4l-.2.5a3.6 3.6 0 0 1-.2.9h-.2l-.1-.3a13.8 13.8 0 0 1-.2-1h-.1l-.1.1a14.4 14.4 0 0 0-.2 1.6c-.1-.2-.2-.4-.1-.6v-1a29.8 29.8 0 0 0-.1-.2l-.1.6v.6h-.2a170 170 0 0 1 0-1.2h-.2v.5l-.1.5-.2-.1v-.9.1l-.1.1h-.1v.1l-.2.3v.3l-.1.1h-.1l-.1-.3v-.2l-.2-.3-.2-.3v.1h-.2l-.1-.1v.4l-.1.2V85l-.1.7c0 .1 0 .1 0 0V84.2a31 31 0 0 1-.1-1.7l-.1-1h-.1a.5.5 0 0 1-.3-.4V68c0-.1 0-.2.2-.3.1-.2.2-.2.4-.2H86l.4.4.2.3v.1l.1.1.1.2.4.5.3.6.7 1.2a13.8 13.8 0 0 1 1.1 1.8v.1l.2-.1v-.2l.2-.1a22.1 22.1 0 0 0 .7-1.2l.1-.3.8-1.2a23 23 0 0 1 .6-1l.2-.3.1-.3a2.5 2.5 0 0 1 .3-.3c0-.1.1-.2.3-.2l.3-.1H96.5l.1.1c.2 0 .2.2.3.4v13.1Zm16-.4.1.3v.4l-.1.1v.1l-.1.1v.2h-.1V82.2l-.1-.1v-.2l-.2.2-.2.2a14 14 0 0 0-1 1.9l-.1.1h-.1v.4l-.1.4-.1-.1v-.7a.7.7 0 0 1-.2-.2l-.1-.3-.1-.3-.2-.3h-.1l-.2.2.2.2s0 .2-.2.3l-.1-.1v-.3a11.4 11.4 0 0 1-.1-.5l-.2-.2-.1-.3v-.2l-.1-.1-.1-.1-.1-.1-.3.1.3-.1c-.2 0-.3.2-.3.2l.2-.1.1-.1-.3.1-.1.3v.1-.3l-.1-.4a3.3 3.3 0 0 1-.2-.4l-.2-.1V81l-.2-.4a4.9 4.9 0 0 0-.3-.7v-.2h-.1v.1l-.1.1-.1.2-.1.2a8 8 0 0 0-.6 1.3 6.7 6.7 0 0 1-.3.9l-.2.3-.2.4v.1H105.6l-.2-.2v-.3l-.2-.5-.2-.7a41.1 41.1 0 0 0-.3-1.1v-.2h-.1V80h-.1v.4l-.1.5-.1-.3V80l-.1.1-.1.2h-.1l-.1.1v.9h-.1l-.1-.4v-.5l-.2-.3-.2-.2-.1-.3v.5l-.1.1v.3l-.2.2v.3l-.1.2-.1.1-.2.2-.1.2a4.8 4.8 0 0 1-.3.7v.3l-.1.3v.1l-.2.5v.5l-.2.4-.1.3v.2l-.2.2v.1l-.2.1v.5l-.1.4v.1h-.1v-.5l-.1-.5v-.1h-.1l-.2-.3-.1-.1-.2-.3-.2-.2a18.9 18.9 0 0 0-1-2.2l-.2-.2-.1-.1-.1.1-.1.3-.2-.1V82v.2l-.1-.7-.2-.2H98v-.6l.1-.2v-.2l.2-.2.6-1.9a29.5 29.5 0 0 0 .4-1.4l.1-.2a119.3 119.3 0 0 0 .2-.4l1-3a24.6 24.6 0 0 0 .7-2l.1-.4.4-.8.4-1 .2-.8c0-.2.2-.3.3-.5l.7-.2h4.7l.2.2.2.2a2.1 2.1 0 0 1 .2.4v.4l.3.5v.2l.1.3.1.3v.1l.1.1v.1l.3.5.3.9v.2l.3.6.2.7.2.6.2.7 1 2.8.2.6a13.2 13.2 0 0 1 .4 1.3l.5 1.2v.2Zm-7.4-8.5v.1l-.2.4v.3l-.5 1.5v.2l-.1.1v.3l-.1.3v.1l-.1.2v.1h-.1 2.2V75.5l-.1-.2-.1-.2a10.1 10.1 0 0 1-.3-1l-.4-1.1v-.5h-.1a3.9 3.9 0 0 0 0-.2h-.1Zm21.3 9-.1.1v.1l-.1.1h-.1a4.2 4.2 0 0 0-.1.8l-.1.7a35.6 35.6 0 0 1-.4 2v-.2l-.2-.5v-.4l-.2-1v-1.1l-.1.2v.2h-.1l-.1.1a14.1 14.1 0 0 1-.2-.2v.1h-.1l-.1.1-.1.7v.6h-.1v-.7l-.1-.2-.1-.4a4 4 0 0 1-.2-.4l-.1-.1v-.1h-.1l-.1.1-.1.1h-.1v.2h-.1v-.2h-.2v-.2h-.5c0 .1-.1.1-.2 0l-.1-.2-.2-.2-.2-.2-.1-.2-.1-.2-.1-.1-.1-.1-.1-.2v-.1l-.2-.2-.4-.4a52 52 0 0 1-1-1.7l-.8-1.2a3.6 3.6 0 0 1-.4-.5V76v5.1l-.1.1-.2.2v.1l-.1.1-.1.1v.1l-.1.2-.4.8-.2.4-.1.1v.1h-.1v.8l-.1.8-.1-.2v-1.4l-.2-.1-.1-.3-.1-.1v-.1a5.6 5.6 0 0 1-.1-.3l-.2-.5v-.2l-.1.4v.4h-.1v-.1l-.1-.1-.2-.3-.1-.3h-.1l-.1.1-.1.1h-.1l-.1.2-.2.1h-.2v.7a24 24 0 0 1 .1 1.7c0 .1 0 .2-.2 0s-.3-.5-.3-.8l.1-1c.1-.3.2-.6.1-.8V82a5 5 0 0 1-.1-.1v.4l-.1.3V82l-.2-.5-.1-.1a.5.5 0 0 1-.2-.4V67.8l.2-.2h.1l.2-.1h3.6l.2.3.3.3.2.4.1.2c.2.1.3.3.4.6l.4.6v.1l.7 1.2a14.7 14.7 0 0 1 1.1 1.8l.3.4V68l.1-.2.1-.2.4-.1H126.4l.2.2.1.1v12.5a4.1 4.1 0 0 1 0 .8Zm14.6-11.9-1.1 2.3a21.4 21.4 0 0 0-.9 2 2 2 0 0 1-.3.5 4 4 0 0 1-.4.5l-.1.3v.1l-.1.2a4.7 4.7 0 0 1-.5.8v.2l-.1.1-.1.2-.3.6v4.2h-.1.1-.1a1.4 1.4 0 0 1-.2.2l-.2.3-.1.2h-.1v.2l-.1.2v.1c0 .1-.1.1-.2 0v-.1l-.1-.2-.2-.2-.1-.1-.1-.1v.1h-.1l-.1-.2v.1a3 3 0 0 1-.3.4v.2h-.2v.1a14.1 14.1 0 0 1-.1.5v.1l-.1.2v.3h-.1a24.2 24.2 0 0 0-.1 0l.1.3c0 .1 0 .2-.2.2l-.2-.2.1-.6v-.5H134.4l-.2-.2c0-.1 0-.1 0 0v.9s0 .1-.1 0a.8.8 0 0 1-.1-.6v-.6.2l-.1-.2v-.3l-.1-.1-.1-.1v.2h-.2l-.4-.2V82h-.1v-.2l-.2-.3a6 6 0 0 0-.1-.1.5.5 0 0 1-.2-.4v-4l-.2-.3v-.1a3 3 0 0 0-.2-.3l-.4-.7-.1-.2-.3-.4a12 12 0 0 0-.1-.4 24.9 24.9 0 0 1-1-2.1l-1.4-2.7a47.7 47.7 0 0 0-.4-.7l-.2-.5v-.1l-.1-.2-.1-.2v-.5h.2l.2-.1h4l.3.2.2.2.3.6a9.7 9.7 0 0 0 .5 1l.2.4.8 1.6v.1l.1.1v.1l.1.1h.1v-.1l.2-.3.3-.7a190.8 190.8 0 0 0 .7-1.2l.6-1.2.1-.3c0-.2.1-.2.2-.3l.3-.2.4-.1h4l.2.3V68.1l-.1.2-.1.2-.1.1-.1.3-.2.3Z" fill="#51829B"/></g><defs><filter id="a" x="18.7" y="49.3" width="143.3" height="59.1" filterUnits="userSpaceOnUse" color-interpolation-filters="sRGB"><feFlood flood-opacity="0" result="BackgroundImageFix"/><feColorMatrix in="SourceAlpha" values="0 0 0 0 0 0 0 0 0 0 0 0 0 0 0 0 0 0 127 0" result="hardAlpha"/><feOffset dy="2"/><feGaussianBlur stdDeviation="10"/><feComposite in2="hardAlpha" operator="out"/><feColorMatrix values="0 0 0 0 0.960784 0 0 0 0 0.929412 0 0 0 0 0.929412 0 0 0 0.4 0"/><feBlend in2="BackgroundImageFix" result="effect1_dropShadow_116_130292"/><feBlend in="SourceGraphic" in2="effect1_dropShadow_116_130292" result="shape"/></filter></defs></svg>