<svg width="180" height="150" fill="none" xmlns="http://www.w3.org/2000/svg"><path d="m67.5 39.5-.3.3.1.2h.2v-.5Zm-2.6-3 .3-.3-.4-.4-.3.4.4.3Zm4.3 3.1v.5h.4v-.4h-.4Zm1-3.4v-.5h-.4l-.2.4.5.1Zm4.2 1.1-.1.5h.3l.2-.2-.4-.3Zm2.7-3.7V33h-.3l-.1.2.4.3Zm9.7-1.6.4-.2-.1-.4-.4.1.1.5Zm1.5 2.6-.5.2.1.2h.2l.2-.4Zm6.5 2.2h.5v-.4H95l-.2.4Zm-.1 6.2.2.5.3-.1V43h-.5Zm-7.8 3-.2-.4-.5.2.2.5.5-.2Zm1.7 4.1.3.4.3-.3-.2-.3-.4.2Zm-1.8 1.7-.3-.3-.2.2v.3l.5-.2Zm1.9 5.3-.5.2v.2h.3l.2-.4Zm2.4 1 .3-.4-.2-.1-.1.5Zm4 3.9.5-.2v-.2l-.4.4Zm2.6 7.5-.5.2v.1l.2.1.3-.4Zm7 5.3-.4.4.2.2h.2v-.6Zm5.7-.3.4-.3-.1-.3h-.3v.6Zm.6 1 .4.3.3-.2-.2-.4-.5.3Zm-1.6 2-.4-.3-.3.3.4.4.3-.4Zm3 2.6-.3.4H112.4v-.4Zm5 .9.4-.4-.1-.1h-.2v.5Zm2.3 2.8-.4.3.2.1h.1l.1-.4Zm3.5.9.4-.3-.1-.2h-.2l-.1.5Zm3 3.9.5.1v-.4l-.5.3Zm-1 3.3-.4.3.6.6.3-.8-.5-.1Zm-3.4-3.9.4-.3-.2-.2h-.1l-.1.5Zm-3.8-.6-.5.2.1.2h.3v-.4Zm-.6-1.3.5-.2-.1-.1-.2-.1-.2.4Zm-1.3-.6.2-.4-.5-.2-.2.4.5.2Zm-2.7 6.8-.4-.1-.2.3.3.2.3-.4Zm4 3h.6v-.2l-.2-.1-.3.4Zm.1 3.6.2.5.3-.1v-.4h-.5Zm-3.4 1.4-.2-.4-.3.1v.3h.5Zm0 2.7.4.4.1-.2v-.2h-.5Zm-2.6 2.5-.3-.4h-.1v.2l.4.2Zm-.7 2.6-.3.4.6.5.2-.8-.5-.1Zm-2.7-2.5-.4-.3-.2.4.3.2.3-.3Zm1.1-2 .5.2v-.2h-.5Zm.2-2.7v-.5h-.5v.5h.5Zm2.4 0v.5h.7l-.3-.7-.4.2Zm-4.2-11 .5-.1-.2-.5-.5.2.2.5Zm-1.6.8-.3.4.2.1h.3l-.2-.5Zm-2.6-1.8h-.5v.3l.2.1.3-.4Zm0-2.4h.5v-.2l-.1-.1-.4.3Zm-1.2-1.7.4-.3-.3-.3-.3.2.2.4Zm-2.2 1-.3.3.2.2.3-.1-.2-.5Zm-6.3-6.5.4-.3-.4-.4-.3.3.3.4Zm-1.5 1.3-.4.4.4.3.3-.3-.3-.4Zm-10.3-9.5.4-.4-.2-.1H82v.5Zm-2-.4h-.5v.5h.4l.1-.5Zm-.2-2.1h.5v-.2l-.1-.1-.4.3Zm-4-4.6-.5.1v.2l.5-.3Zm-1-6.5h.5v-.3l-.3-.1-.2.4ZM66.2 53l.2-.5-.3-.1-.3.2.4.4Zm-4.1 4.4.1.5h.1l.1-.1-.3-.4Zm-3.8 1-.4.2.1.5.5-.2-.2-.5Zm-.2-.9-.4-.4-.2.2v.3l.6-.1Zm1.8-1.6.4.4.4-.3-.4-.4-.4.3Zm-.9-1 .4-.3-.2-.2-.4.1.2.5Zm-1.4.8-.3.4.2.1h.3l-.2-.5ZM55.3 54h-.5v.3l.2.1.3-.4Zm-.1-4h.5V50h-.5ZM54 46.4v-.5h-.7l.2.6.5-.1Zm2.5-.3v.5h.3l.1-.3-.4-.2Zm.6-2 .5.2V44l-.5.3Zm-1.8-2.8-.4-.4-.3.3.3.4.4-.3Zm1.2-1.1v-.5H56.2l.3.5Zm5.8-.5v.5h.3l.1-.2-.4-.3ZM91.1 106l-.2.5.2.1.3-.2-.3-.4Zm-1.8-.7.3-.5-.5-.2-.2.4.4.3Zm3.4-.6.3-.3-.3-.3-.3.2.3.4Zm2.7 2.4-.3.4.2.1h.2v-.5Zm4.7-.4v.5h.2l-.2-.5Zm3.2-1.5.2-.5h-.4l.2.5Zm1.1.6-.2.4.2.1h.2l-.2-.5Zm2-.7.4-.1v-.6l-.6.2.1.5Zm.4 2 .3.4.2-.2v-.2h-.5Zm-1.4 1.5-.4-.3-.1.2.5.1Zm-.8 2.7-.5-.2v.4l.5-.2Zm1.7 3.4.4.2.1-.2v-.2l-.5.2Zm-1.3 2.9v.5h.3l.2-.3-.5-.2Zm-4.3-.3-.4.2.1.3h.3v-.5Zm-1.6-2.7.4-.2-.2-.3H99v.5Zm-1.8.4-.3.4.1.1h.3l-.1-.5Zm-4.7-3.6.3-.4h-.2v.4Zm-3.5-1-.4.4h.1l.1.1.2-.5Zm-1.8-1.7-.4-.3-.2.4.3.2.3-.3ZM61.5 81l.2-.5-.6-.2v.6h.4Zm1 .3.5-.2V81h-.3l-.2.4Zm-1.7 3.4h-.5v.4l.4.1.1-.5Zm1.8.4h.5v-.4l-.4-.1-.1.5Zm.4 6.8.4.1v-.1H63Zm-1.2 4h-.5V96.1l.5-.2Zm1.8 2.9-.4.3.2.3.4-.1-.2-.5Zm2.3-.7.2.4h.4V98h-.6Zm-.1-1.3-.3-.4-.3.1v.4h.6Zm2-1 .3-.4-.3-.2-.3.1.2.5Zm1 1.1-.3.4.3.2.3-.2-.2-.4Zm1.2-.6.2.4.2-.1v-.3H70Zm.6-8h-.5.5Zm.5-5 .5.1v-.2l-.5.2Zm-1.2-4h.4v-.5h-.5v.6Zm-2 .2V79h-.2l.3.5Zm-5 3-.5.2.2.6.6-.3-.3-.4Zm5-43.3-2.7-3-.7.7 2.7 3 .7-.7Zm1.3 0-1.6-.2v1l1.6.1v-1Zm.4-3.1-.9 3.4 1 .2.9-3.4-1-.2Zm5 .7-4.4-1-.2.9 4.3 1.1.2-1Zm2.1-3.5L74 37l.8.6 2.7-3.7-.8-.6Zm10-1.8L77 33.1l.2 1 9.7-1.6-.2-1Zm2 2.9-1.5-2.6-.8.4 1.4 2.6.9-.4Zm6.3 2L88.4 34l-.3 1 6.6 2.2.3-1Zm.2 6.6.1-6.2h-1l-.1 6.2h1ZM87 46.5l7.9-3-.4-1-7.8 3.1.3 1Zm2 3.4-1.7-4-.9.4 1.7 4 1-.4Zm-1.8 2.3 1.7-1.7-.7-.7-1.7 1.7.7.7Zm2 4.7-1.9-5.2-1 .3 1.9 5.3 1-.4Zm2 .7-2.3-1-.4 1 2.4 1 .3-1Zm4.3 4-4.1-3.9-.7.7 4.1 4 .7-.8Zm2.7 7.7-2.6-7.5-1 .4 2.6 7.5 1-.4Zm6.7 5.1L98 69.1l-.6.8 7 5.3.5-.8Zm5.5-.4-5.8.3v1l5.8-.3v-1Zm1 1.2-.6-1-.8.5.6 1 .9-.5Zm-1.6 2.6 1.6-2-.7-.6-1.7 2 .8.6Zm3 2-3.1-2.7-.6.8 3 2.6.7-.8Zm4.7.7-5-.9-.1 1 5 .9.1-1Zm2.6 3-2.3-2.9-.8.7 2.3 2.8.8-.7Zm3.2.7-3.4-1-.3 1 3.5 1 .2-1Zm3.3 4-3-3.8-.8.6 3 3.9.8-.6Zm-1 3.8 1.1-3.3-1-.3-1 3.3 1 .3Zm-4.2-3.7 3.4 3.9.8-.7-3.4-3.8-.8.6ZM118 88l3.8.6.2-1-3.9-.6-.1 1Zm-1-1.6.6 1.3 1-.4-.6-1.3-1 .4Zm-1-.3 1.3.6.4-1-1.3-.5-.4.9Zm-2 6.5 2.7-6.8-1-.4-2.6 6.9.9.3Zm3.9 2.5-4-3-.7.7 4 3 .7-.7Zm.2 4v-3.6h-1v3.5h1Zm-3.7 1.8 3.4-1.4-.4-1-3.4 1.5.4.9Zm.3 2.2v-2.7h-1v2.7h1Zm-2.8 2.8 2.7-2.4-.7-.8-2.6 2.5.6.7Zm-.5 2.4.7-2.6-1-.3-.7 2.7 1 .2Zm-3.5-2.3 2.7 2.6.6-.8-2.6-2.5-.7.7Zm1-2.6-1 2 .8.5 1-2-.8-.5Zm0-2.4v2.7h1v-2.7h-1Zm3-.5h-2.4v1h2.4v-1ZM107.1 90l4 11 1-.4-4.1-11-1 .4Zm-1 1 1.6-.7-.4-.9-1.6.7.4 1Zm-3.1-1.8 2.6 1.8.5-.8-2.5-1.8-.6.8Zm-.2-2.8v2.4h1v-2.4h-1Zm-1.1-1.4 1.2 1.7.8-.6-1.2-1.7-.8.6Zm-1.6 1 2.2-.8-.4-1-2.2 1 .4.9Zm-6.8-6.4 6.3 6.4.7-.7L94 79l-.7.7Zm-.9 1.3 1.5-1.3-.6-.8-1.5 1.3.6.8Zm-11-9.6L91.9 81l.7-.7-10.2-9.6-.7.7Zm-1.7-.2 2 .4.2-1-2-.4-.2 1Zm-.6-2.5.2 2h1l-.2-2.1h-1Zm-4-4.3 4.1 4.5.8-.6-4-4.6-.8.7Zm-1-6.8 1 6.5 1-.1-1-6.6-1 .2ZM66 53.3l8.4 4.6.5-.8-8.5-4.7-.4 1Zm-3.6 4.4 4.2-4.5-.8-.7-4.1 4.5.7.7Zm-4 1.1 3.8-1-.3-1-3.7 1 .3 1Zm-.8-1.3.3 1 1-.3-.4-1-1 .3Zm2-2L57.7 57l.7.8 1.9-1.6-.7-.7Zm-1-.3 1 1 .7-.7-.9-1-.7.7Zm-.8.8 1.5-.7-.5-.9-1.4.7.4 1ZM55 54.5l2.3 1.5.5-.9-2.3-1.4-.5.8Zm-.3-4.4v4h1v-4h-1Zm-1.2-3.6 1.2 3.7 1-.3-1.2-3.7-1 .3Zm2.9-.9-2.5.3.2 1 2.4-.3-.1-1Zm.2-1.6-.6 2 1 .3.6-2-1-.3ZM55 41.6l1.8 2.8.8-.5-1.8-2.9-.8.6Zm1.3-1.8-1.3 1.1.7.8 1.2-1.2-.6-.7Zm6-.6-5.7.5v1l5.9-.5-.1-1Zm2.3-3-2.6 3.1.8.7 2.6-3.2-.8-.6Zm26.8 69.4-1.7-.8-.5 1 1.8.7.4-1Zm1-1.3-1.5 1.3.6.8 1.6-1.3-.6-.8Zm3.5 2.4-2.8-2.3-.7.7 2.8 2.4.7-.8Zm4.3-.5-4.7.4v1l4.8-.4-.1-1Zm3-1.5-3.2 1.5.4 1 3.2-1.6-.4-.9Zm1.5.6-1-.6-.5 1 1 .5.5-.9Zm1.6-.7-2 .7.4 1 2-.8-.4-.9Zm1 2.5-.4-2.1-1 .2.5 2 1-.1Zm-1.5 1.9 1.4-1.5-.7-.7-1.4 1.5.7.7Zm-.6 2.4.7-2.6-1-.3-.7 2.6 1 .3Zm1.6 3-1.6-3.4-1 .5 1.7 3.4 1-.4Zm-1.2 3.4 1.2-3-.9-.3-1.3 2.9 1 .4Zm-4.8 0 4.3.3v-1l-4.2-.3-.1 1Zm-2-3 1.6 2.7.9-.5-1.7-2.6-.8.5Zm-1.3.7 1.8-.4-.2-1-1.8.4.2 1Zm-5-3.7 4.6 3.6.6-.8-4.7-3.6-.6.8Zm-3.5-.9 3.6 1 .2-1-3.5-1-.3 1Zm-2-1.9 1.8 1.8.7-.7-1.7-1.8-.7.7Zm2-4-2 3.4.9.5 2-3.4-.9-.5ZM61.4 81.4l1 .4.3-1-1-.3-.3 1Zm0 3.4L62 81l-1-.1-.7 3.7 1 .2Zm1.3-.2-1.8-.4-.2 1 1.8.4.2-1Zm.8 7.3L63 85l-1 .1.4 6.8h1ZM62.2 96l1.2-4-1-.3-1.1 4 1 .3Zm1.9 2.4-2-2.8-.8.5 2 2.9.8-.6Zm1.7-1-2.3.8.3 1 2.3-.8-.3-1Zm-.5-.6.1 1.2 1-.1-.1-1.2h-1Zm2.2-1.6-2 1 .5 1 2-1-.5-1Zm1.7 1.2-1.1-1-.7.6 1.1 1.2.7-.8Zm.5-.7-1 .7.4.8 1.1-.6-.5-.9Zm.4-7.5-.6 8h1l.6-8h-1Zm.5-5-.5 5h1l.5-4.9h-1Zm-1.2-3.8 1.2 4 1-.3-1.3-4-1 .3ZM68 80l1.9-.1v-1l-2 .1.1 1Zm-4.8 3 5-3-.5-1-5 3.1.5.9ZM62 81.4l.3 1.3 1-.3-.4-1.3-1 .3Z" fill="#F6995C"/><g filter="url(#a)"><path d="M66.4 80.3v1.1l-.3.3-.1.2-.1.2v.1l-.2.1v-.1l-.1-.2-.2.2-.2.3-.1.2-.2.2V83.3l-.1.1h-.1a7 7 0 0 1 0-.4h-.1v-.2h-.1l-.1-.1h-.1l-.2-.1V82.8H64V82.5h-.1l-.1.1-.1.1v.5l-.1.5a226.4 226.4 0 0 0-.4 2.8v-.1l-.1-.1a17.2 17.2 0 0 0 0-.6L63 85V84a6 6 0 0 0 0-.7l-.1.4v.1l-.1-.5v-.6l-.2-.1v-.1l-.3-.3h-.1L62 82h-.2v.5c-.2 0-.2-.1-.2-.3V82s0-.1 0 0v.1-.2h-.1c-.3-.1-.4-.3-.4-.6a4 4 0 0 1 0-.8V68.1h.1v-.2H61.7l.2-.1H66c.2 0 .2.1.3.2v12.3ZM80.6 71V71.8l-.2.1v.1h-.1l-.2.3-.1.3-.2.3c0 .2 0 .3-.2.4a26.3 26.3 0 0 1-.6 1.3l-.3.3v.2h-.1V75l-.2-.2-.2-.2v-.2H78v-.1l-.2-.4-.4-.6a16.1 16.1 0 0 0-.5-.8l-.1-.2-.2-.2V81.5l-.3.2v.1h-.1v.2h-.5l-.2-.1h-.2l-.1.3s-.1.1-.2 0H75V82h-.1v.1h-.1l-.1.2v.2l-.1.4v.3a3.9 3.9 0 0 0-.2.3V83l-.1-.6v-.2c-.1 0-.2 0-.2-.2l-.2-.1h-.2v.1l-.3.2a11.6 11.6 0 0 0-.2.4l-.1.1H73v.7a22.2 22.2 0 0 1-.2 2.4v-2.5l-.1-.6v-.1l-.2-.3-.2-.3v-.2H72a.6.6 0 0 1-.3-.2l-.1-.2v-9.2l-.1-.1v.1l-.1.2v.1l-.2.3-.1.1-.1.2h-.2v.2l-.2.1v.2c0 .1 0 .2-.2.2v-.3l-.1-.2-.1-.1-.1-.2H70l-.1.3v.1l-.1-.4h-.1l-.1.2v.1h-.1v.4a35 35 0 0 1-.2.2H69v-.7l-.2-.2-.2-.2-.1-.1a32.6 32.6 0 0 1-.6-.7.5.5 0 0 1-.2-.5v-2.9a2 2 0 0 1 0-.5l.2-.2.3-.1h12l.1.1.2.2V71Zm-11.4 4.2c0 .1 0 .1 0 0l-.1-.6V74v.6l.1.6Zm.2 0a3.5 3.5 0 0 0 0-.5v.5Zm25.1 5.7.1.3v.4l-.2.1v.2a56.2 56.2 0 0 1-.3.3v-.1l-.1.2-.2.2a14.2 14.2 0 0 0-1 1.9l-.2.1v.4l-.1.4-.1-.2v-.6l-.2-.2-.1-.3-.1-.3-.3-.3-.3.2h.2v.2s0 .2-.2.3v-.4a12 12 0 0 1-.1-.5s-.2-.1-.2-.3l-.1-.2v-.2l-.2-.1v-.2h-.1l-.3.1.3-.1c-.2 0-.3.2-.3.2l.2-.1.1-.2-.3.2-.1.3v.1-.3l-.1-.4a3.3 3.3 0 0 1-.3-.4v-.1h-.1a29.8 29.8 0 0 0-.5-1.2V80h-.1l-.1.2-.1.2-.2.2a8 8 0 0 0-.5 1.2 7 7 0 0 1-.4 1l-.1.3-.2.4-.2.2h-.2v-.4a294 294 0 0 0-.8-2.5v-.2a29.8 29.8 0 0 0-.2-.3v.4l-.1.4c0 .1 0 0 0 0L86 81v-.7h-.1v.1a83.3 83.3 0 0 1-.4.8v.4l-.1-.4v-.6l-.2-.2-.2-.2-.1-.4v.5a56.2 56.2 0 0 1-.1.2v.2l-.2.3v.3l-.2.2c0 .2-.1.2-.2.2v.2l-.1.1a4.6 4.6 0 0 1-.3.7v.3a294 294 0 0 1-.5 1.7l-.1.4v.2l-.2.2v.1l-.3.1a653.3 653.3 0 0 1-.2.5v-.6h-.2l-.1-.3-.2-.1-.1-.3-.2-.2a18.9 18.9 0 0 0-1-2.2l-.2-.2-.1-.1-.2.1V82.5l-.2-.1v-.1.2l-.1-.7-.3-.2v-.8l.2-.2v-.2l.7-2a29.5 29.5 0 0 0 .4-1.3l.1-.2a119.3 119.3 0 0 0 .2-.5l1-3a27 27 0 0 0 .6-1.9l.2-.4.4-.8.3-1 .3-.9.3-.4.7-.2h4.7l.1.2.3.2a2 2 0 0 1 .1.4l.1.2v.2l.2.5.1.2.1.3.1.3v.2l.1.1.3.5.3.8v.2l.3.7.2.7.2.5.2.8 1 2.8.2.6a13.1 13.1 0 0 1 .4 1.2l.4 1.3.1.2Zm-7.4-8.5v.2l-.2.2v.3l-.5 1.6v.2l-.1.1a2.4 2.4 0 0 1-.2.5v.5H86h2.2V75.8l-.2-.2v-.2a10.2 10.2 0 0 1-.3-1l-.4-1.2v-.4h-.1v-.2H87Zm19.8 8.5v.6h-.1v.1l-.2.1-.2.2-.2.1v.1h-.3l-.1.1h-.1V82h-.2v.6l-.2.2v.1-.4l-.1-.4-.1.1-.1.1-.1.1-.3.2-.2.2v.1a17.8 17.8 0 0 0-.2 2l-.1-1v-1l-.2-.2v-.2l-.2-.1v-.2h-.1v1l-.1 1H103.2v-1l-.1-1h-.2v.1l-.2.2v.2h-.2v.9a8.1 8.1 0 0 1-.1 1.2h-.1v-1l-.1-.9v.6l-.2-.5v-.5l-.1-.2-.2-.2-.2-.2v.5h-.1v.1h-.2V82l-.1.2-.2.1-.2.2v.6c-.1.1-.2.1-.2 0v-.3l-.1-.4c-.1 0-.1 0 0 0h-.1l-.2-.2a2.4 2.4 0 0 0 0-.2v.1l-.1.2-.1.1v.1l-.1-.2v-.2l-.1.1-.1.2a17.4 17.4 0 0 0-.8 1.3l-.2.3h-.2v.4l-.1.2-.2-.3V84l-.2-.1v-.2l-.3-.3-.1-.2-.3-.4-.2-.3-.2-.2-.2-.2V82h-.2v-.1.8a36.1 36.1 0 0 1-.2 2v-2.9c-.2 0-.2-.1-.3-.2l-.2-.3V68.1h.1l.1-.2h.2l.2-.1h4.3v.1l.2.3v9.3l.1.2h5.8l.1.2v.1l.1.2v2.6Zm12-11.4-1.2 2.3a21.4 21.4 0 0 0-.8 2 2 2 0 0 1-.4.5 4.5 4.5 0 0 1-.4.5v.3l-.2.1v.1a5 5 0 0 1-.5 1l-.1.2v.1l-.1.1-.3.6v4.1l-.1.2.1-.2v.1a1.5 1.5 0 0 1-.3.2l-.2.2-.1.3h-.1v.2l-.1.2v.1c0 .1-.1.1-.2 0v-.2l-.1-.1-.1-.2-.2-.1V82l-.1.1h-.1v-.2l-.1.1-.1.2-.1.2-.2.2-.1.1v.2l-.1.2v.2l-.1.2v.2c0 .2 0 .2-.1.1l-.2-.2.1.2.1.3c0 .1 0 .2-.2.2-.1 0-.2-.1-.2-.3l.1-.5V83h-.3l-.1-.2c-.1-.1-.1-.1-.1 0v.9a.8.8 0 0 1-.2-.6v-.6.2-.3l-.1-.2-.1-.1-.1-.1v.1h-.2l-.3-.1v.1l-.1.2-.1-.2-.2-.3-.1-.1a.5.5 0 0 1-.2-.5v-3.9l-.2-.3V77l-.1-.2-.1-.1-.3-.7a3 3 0 0 1-.4-.7l-.1-.1-.1-.2a22.3 22.3 0 0 1-1-2.1l-1.4-2.8-.2-.3-.1-.3-.3-.5v-.1l-.1-.2-.1-.2V68h.2l.2-.1h4.1l.2.2.2.2.3.5a9.7 9.7 0 0 0 .5 1l.2.5.8 1.6v.1l.1.1v.1h.1v.1h.1V72l.2-.3.4-.7.3-.6.3-.7.6-1.2.1-.3.2-.2.3-.2.4-.1h4l.2.3V68.4l-.1.2-.1.2v.1l-.2.3-.2.3Z" fill="#51829B"/></g><defs><filter id="a" x="41.2" y="49.7" width="98.2" height="58.9" filterUnits="userSpaceOnUse" color-interpolation-filters="sRGB"><feFlood flood-opacity="0" result="BackgroundImageFix"/><feColorMatrix in="SourceAlpha" values="0 0 0 0 0 0 0 0 0 0 0 0 0 0 0 0 0 0 127 0" result="hardAlpha"/><feOffset dy="2"/><feGaussianBlur stdDeviation="10"/><feComposite in2="hardAlpha" operator="out"/><feColorMatrix values="0 0 0 0 0.960784 0 0 0 0 0.929412 0 0 0 0 0.929412 0 0 0 0.4 0"/><feBlend in2="BackgroundImageFix" result="effect1_dropShadow_116_130318"/><feBlend in="SourceGraphic" in2="effect1_dropShadow_116_130318" result="shape"/></filter></defs></svg>