<svg width="180" height="150" fill="none" xmlns="http://www.w3.org/2000/svg"><path d="m115.3 31 .4-.3-.5-.6-.3.7.4.2Zm6 7-.5.3.2.1h.1l.1-.4Zm-7.7-4-.4-.2-.2.3.2.3.4-.4Zm1.5 2h.5v-.2l-.1-.1-.4.3Zm-.5 4.7.4.3.1-.2h-.5Zm-2.7 4-.1.6h.3l.2-.2-.4-.3Zm-3.3-.6v-.5h-.3l-.2.2.5.3Zm-.5.9-.5-.3v.5l.5-.2Zm.8 1.7.2.5.5-.2-.3-.5-.4.2Zm-2.2 1-.2-.5h-.2v.3l.4.1Zm-.8 3-.5-.2v.2l.1.2.4-.3Zm1.7 2 .5.1v-.2l-.1-.2-.4.3Zm-.7 2.4-.5-.2-.2.6h.6v-.4Zm2 .2-.1.5h.4l.1-.2-.4-.3Zm1-2.2.1-.5h-.3l-.2.3.5.2Zm3.3.3v.5h.5v-.5h-.5Zm0-.7h.5v-.3l-.2-.1-.3.4Zm-3.6-2.5-.3-.3-.4.4.5.4.2-.5Zm1.3-1.4.3-.4-.4-.3-.3.3.4.4Zm1.6 1.2-.3.4.3.2.3-.2-.3-.4Zm2.2-1.7.2-.4-.3-.2-.2.2.3.4Zm7.6 4.2-.2.4.5.3.2-.6-.5-.1Zm1.4-4.5-.3-.5-.2.1v.2l.5.2Zm3.8-2 .4-.3-.3-.3-.3.2.2.4Zm1 1.3-.4.3.3.4.4-.3-.3-.4Zm5.2-3.7.3.4.9-.6-1-.3-.2.5Zm-2.9-.8h-.5l.1.4h.3l.1-.4Zm-.6-2.2-.4-.3v.4l.4-.1Zm1.5-3 .4.3.2-.5-.4-.2-.2.5Zm-1.2-.5.2-.5-.3-.1-.3.2.4.4Zm-2.3 2.3v.5h.2l.2-.1-.4-.4Zm-70.2 61v-.6h-.2v.1l.2.4Zm-3 2-.2-.5-.3.2.1.4.5-.2Zm5.8-2.7.1.5h.2l.1-.2-.4-.3Zm1.6-2.3-.3-.5v.1H62l.4.4Zm11.4-7.8v-.5h-.1l-.2.1.3.4Zm5 1v.4h.2l-.2-.5Zm6.3-2.4.4-.2-.2-.4-.4.1.2.5Zm1.1 2-.4.3.2.4.4-.2-.2-.4Zm3-1 .1.4.6-.2-.3-.5-.4.2Zm-.9-1.7-.4-.3-.2.2.2.3.4-.2Zm3.7-4.3.4.3.1-.1v-.2H92Zm.4-3.7-.3-.4-.2.1v.3h.5ZM95 78l.4-.3-.3-.4-.4.2.3.5Zm.8 1.5.3.4.4-.3-.2-.4-.5.3Zm-1.7 1.2-.3-.4-.4.3.2.3.5-.2ZM95 83l-.5.2.2.5.5-.3-.2-.4Zm5-3 .3.4.2-.2V80h-.5Zm.1-2.3h.5V77.4l-.5.3Zm-1-1.6-.3-.3-.2.3.2.2.4-.2Zm1.7-2.4.4-.2-.4-.8-.5.7.5.3Zm1.4 3-.4.2.2.5.5-.3-.3-.4Zm2-1.2.3.4.1-.2-.4-.2ZM107 71l.4.3h.1V71h-.5Zm.8-4.9.4.1v-.4l-.4.3Zm-1.3-1.4-.4-.2-.1.2.2.3.3-.3Zm1-1.7.3.3.1-.2v-.2l-.5.1Zm-.6-2.3-.3-.4-.3.2v.3l.6-.1Zm1.6-1.4.3.4.2-.1v-.2h-.5Zm.1-2.5v-.5h-.5v.5h.5Zm1.8 0v.5h.3l.2-.3-.5-.2Zm1.3-1.8v-.5h-.3l-.2.2.5.3Zm2.7.5h.5V55l-.4-.1-.1.5Zm-.1 4.3h-.5v.2l.5-.2Zm4.5 6.2.5.3.1-.3-.2-.3-.4.3Zm-2.8 4.6-.4-.3-.2.2.1.2.5-.1Zm.8 2.8.3.3.2-.2v-.3l-.5.2Zm-.8.8-.3.4.4.2.3-.3-.4-.3Zm-1.7-1 .3-.5-.4-.2-.3.4.4.3ZM113 75l-.4-.2-.1.2v.2l.5-.2Zm1.5 3.7.4.2.1-.2v-.2l-.5.2Zm-2.6 6.2-.4-.2-.1.3.1.2.4-.3Zm1.9 3.3.4.2.2-.2-.2-.3-.4.3Zm-2.2 4 .1.4h.2l.1-.2-.4-.3Zm-3 1-.1.5H108.8l-.1-.5Zm-1.8-.7.2-.4-.4-.2-.2.3.4.3Zm-1.2 1.9.2.4h.1l.1-.2-.4-.2Zm-3.3 1.2v.5h.1v-.5Zm-5 0V95H97l.1.5Zm-5.6 2-.2-.4h-.1l-.1.1.4.3Zm-2.2 3.1.2.5h.1v-.2l-.3-.3Zm-2.7 1.8-.4.3.3.3.3-.2-.2-.4Zm-2.5-2.6.3-.3-.2-.2h-.3l.2.5Zm-2.4.7-.2-.5h-.1l-.1.2.4.3Zm-2.1 2.8-.3.4.4.2.3-.3-.4-.3Zm-2.6-1.6.2-.4-.3-.2-.3.3.4.3Zm-4.3 4.5-.1.5h.3l.2-.2-.4-.3Zm-2.6-.9h-.5l-.1.4h.4l.2-.4Zm.4-2.4h.5v-.4l-.4-.1-.1.5Zm-3.6-1v-.5l-.8-.2.3.9.5-.2Zm1 3 .4.1V104.8l-.5.1Zm-2.3 4-.4-.2V109.1h.4Zm0 4.3.3.4.2-.2v-.3h-.5Zm-3.5 2.2v.5h.2v-.1l-.2-.4Zm-3.6-.1-.5.1.1.4h.4v-.5Zm-1.4-5.7-.2-.4-.3.2v.3l.5-.1Zm2.8-1.9.2.5.3-.2v-.3H60Zm-.5-2.8.5-.1-.2-.7-.6.4.3.4Zm-3 1.6-.4.2.2.6.5-.3-.2-.5Zm-4.8 7 .4.3.3-.4-.4-.3-.3.5Zm-3-1.7.2-.4-.5-.3-.2.5.4.2Zm-.5 7.5-.3.4.4.3.3-.4-.4-.3Zm-2.3-1.6-.5-.3-.1.4.3.3.3-.4Zm69-86.5 5.8 7 .8-.7-5.9-7-.8.7Zm-1 3 1.8-3-1-.5-1.6 3 .8.5Zm1.5 1.4-1.5-2-.8.7 1.5 1.9.8-.6Zm-.4 5 .5-4.7h-1l-.5 4.7h1Zm-2.8 4.4 2.7-4-.8-.6-2.7 4 .8.6Zm-3.8-.5 3.3.7.2-1-3.3-.7-.2 1Zm0 .6.5-.9-.9-.5-.5 1 1 .4Zm.8 1.3-.8-1.7-.9.4.8 1.7 1-.4Zm-2.4 1.6 2.2-1-.4-.8-2.2.9.4.9Zm-.5 2.6.8-3-1-.2-.8 3 1 .2Zm1.6 1.7-1.7-2.1-.8.6 1.7 2 .8-.5Zm-.6 2.8.7-2.4-1-.3-.7 2.4 1 .3Zm1.5-.4-2-.2v1l1.9.2.1-1Zm.6-1.9-1 2.2.8.5 1.1-2.3-.9-.4Zm3.8 0-3.3-.3v1l3.2.3v-1Zm-.6-.2v.7h1v-.7h-1Zm-3.3-2 3.5 2.4.6-.8-3.6-2.5-.5.9Zm1-2.3-1.1 1.5.7.7 1.3-1.5-.8-.7Zm2.4 1.2-1.6-1.2-.6.8 1.6 1.2.6-.8Zm1.6-1.7-2.2 1.6.6.9 2.2-1.7-.6-.8Zm8.2 4.2-7.7-4.2-.5.9 7.7 4.1.5-.8Zm.6-4.3-1.3 4.6 1 .2 1.2-4.5-1-.3Zm4-2.2-3.8 2 .5.8 3.8-2-.4-.8ZM129 47l-1-1.3-.8.6 1 1.3.8-.6Zm4.5-3.8-5.2 3.7.6.8L134 44l-.6-.8Zm-2.7 0 2.9.9.3-1-3-.8-.2 1Zm-1-2.5.6 2.2 1-.3-.6-2.2-1 .3Zm1.5-3.3-1.4 3 .9.4 1.4-3-.9-.4Zm-1 .1 1.2.6.5-.9-1.2-.6-.4 1Zm-1.6 2.3 2.2-2.4-.7-.7-2.2 2.4.7.7Zm-7.5-1.3 7 1.4.2-1-7-1.4-.2 1ZM57.8 99.9l-3 2 .6.8 3-2-.6-.8Zm2.9-.7-2.8.6.3 1 2.7-.6-.2-1ZM62 97l-1.6 2.3.8.6 1.6-2.4-.8-.5Zm11.5-7.9L62.1 97l.6.9L74 90l-.6-.9Zm5.4.8-5-.9-.2 1 5 1 .2-1Zm6-2.3L78.6 90l.4 1 6.3-2.3-.4-1Zm1.8 2.3-1.2-2-.8.4 1 2.1 1-.5Zm2.3-1.3-3 1.1.4 1 3-1.2-.4-1Zm-1.1-1 .8 1.7 1-.5-1-1.6-.8.4Zm3.8-4.9-3.8 4.4.8.6 3.7-4.3-.7-.7Zm.2-3.3-.4 3.6 1 .1.4-3.6-1-.1Zm2.8-2-2.6 1.6.6.9 2.5-1.6-.5-.9Zm1.6 1.7-.9-1.5-.9.5.9 1.5.9-.5Zm-2 2 1.8-1.3-.6-.8-1.7 1.2.5.9Zm1.1 1.6-.9-2.2-1 .3 1 2.3 1-.4Zm4.4-3.3-5 3 .4.9 5-3-.4-.9Zm-.2-1.8v2.2h1v-2.2h-1Zm-.8-1.4.9 1.6.9-.5-1-1.6-.8.5Zm1.5-2.9-1.5 2.4.8.6 1.6-2.4-.9-.6Zm2.4 3-1.5-3-.9.5 1.5 3 .9-.5ZM104 75l-2 1.2.5.9 2-1.2-.5-.9Zm2.6-4.2-2.8 4.4.8.5 2.8-4.4-.8-.5Zm.7-4.7-.8 4.9 1 .1.7-4.9-1-.1Zm-1.1-1.1 1.2 1.5.7-.7-1.2-1.4-.7.6Zm.8-2.2-.9 1.7.9.4.8-1.6-.8-.5Zm-.6-2 .5 2.3 1-.2-.5-2.3-1 .2Zm1.8-1.8-1.6 1.3.6.8 1.6-1.4-.6-.7Zm-.1-2.2-.1 2.5h1l.1-2.5h-1Zm2.3-.5h-1.8v1h1.9v-1Zm.8-1.6-1.2 1.8.9.5 1.2-1.7-.9-.6Zm3.3.3-2.8-.5-.1 1 2.7.5.2-1Zm.3 4.8v-4.3h-1v4.3h1Zm4.4 5.9-4.5-6.2-.8.6 4.5 6.2.8-.6Zm-2.8 5.1 2.9-4.5-.9-.6-2.8 4.6.8.5Zm.8 2.4-.7-2.8-1 .3.8 2.8 1-.3Zm-.8 1.3.7-.8-.7-.7-.8.9.8.6Zm-2.3-1 1.6 1.1.6-.8-1.7-1-.5.8Zm-.7 1.8 1.3-1.9-.8-.5-1.3 1.9.8.5Zm1.5 3.2-1.4-3.6-1 .3L114 79l1-.4Zm-2.5 6.6L115 79l-.9-.4-2.5 6.2 1 .4Zm1.8 2.8-1.8-3.2-.9.5 1.9 3.2.8-.5Zm-2.2 4.5 2.2-4-.8-.5-2.3 4 .9.5Zm-3.2 1.3 3-1-.4-1-3 1 .4 1Zm-2.2-.7 1.9.7.3-1-1.8-.6-.4.9Zm-.6 1.6 1.2-1.8-.8-.6-1.2 1.9.8.5Zm-3.5 1.4 3.3-1.2-.4-1-3.3 1.3.4 1Zm-5.3 0h5.1v-1h-5v1ZM92 98.2l5.5-2-.3-1-5.6 2 .4 1Zm-2 3 2.2-3.2-.8-.6-2.2 3.1.8.6Zm-2.9 1.8 2.7-1.7-.5-.9-2.7 1.7.5.9Zm-3-2.6 2.4 2.5.7-.7-2.5-2.5-.7.7Zm-2 .8 2.4-.7-.3-1-2.4.7.3 1Zm-1.8 2.6 2-2.8-.7-.6-2.1 2.8.8.6Zm-3.3-1.5 2.6 1.6.5-.8-2.6-1.6-.5.8Zm-3.6 4.4 4.2-4.5-.7-.6-4.2 4.4.7.7Zm-3.2-.7 2.7.9.3-1-2.7-.9-.3 1Zm0-3-.3 2.4 1 .2.4-2.4-1-.2Zm-3.2-.4 3.6 1 .3-1-3.6-1-.3 1Zm1.6 2.3-1-3-1 .4 1 2.9 1-.3Zm-2.2 4.5 2.2-4.2-1-.4-2.1 4.1.9.5Zm0 4V109h-1v4.2h1Zm-3.7 2.6 3.5-2.2-.5-.9L62 115l.6.9Zm-3.9 0h3.6v-1h-3.6v1Zm-1.8-6 1.3 5.6 1-.2-1.4-5.7-1 .2Zm2.9-2.5-2.7 1.9.5.8 2.7-1.8-.5-.9Zm-.7-2.3.5 2.8 1-.1-.5-2.9-1 .2Zm-2.2 2 3-1.7-.6-.8-2.9 1.6.5.9Zm-2.3-4.6 1.6 4.3 1-.3-1.7-4.4-.9.4Zm-2.5 10.7-3.1-1.7-.5.9 3 1.7.6-.9Zm-3.4 6.5 3.5-5.8-.8-.5-3.6 5.7.9.6Zm-3-1.5 2.3 1.6.6-.8-2.3-1.6-.6.8Zm2.6-6.5-2.8 5.8 1 .5 2.7-5.8-1-.5Z" fill="#F6995C"/><g filter="url(#a)"><path d="M63.4 85.1h-.3a9.3 9.3 0 0 1-.2-.4 113.2 113.2 0 0 1-.3-1.6v.1a945270154836 945270154836 0 0 1-.4.3v.8c.1.3 0 .5 0 .8L62 85a12.2 12.2 0 0 1 0-1.2v-.4l-.2-.1-.1.1v1.1l-.1.5-.2-.1.1-.7v-.6h-.3l-.2-.3v-.1.3c0 .2 0 .2-.1.1v-.5l-.1-.4-.3-.2c0 .1-.1 0-.2 0v-.1c-1.3 0-2.4-.3-3.4-.7a5 5 0 0 1-2.4-2.4 4.3 4.3 0 0 1-.4-1.4v-.5c0-.2.1-.3.3-.3h3.9a1.5 1.5 0 0 1 .7 0l.3.4.1.2.2.3c.2.4.5.5 1 .5H60.8l.3-.2.3-.6a3.2 3.2 0 0 0 .2-1V72.3h-.1l-.1.2a11.5 11.5 0 0 0-.6.8l-.2.3h-.1v-.5l-.1-.6-.2.2-.4.8a13.2 13.2 0 0 1-.8 1.4c0 .3-.3.5-.4.7l-.1.1-.2.2h-.1l-.1.3-.1.3v.2h-.2c-.1 0-.2 0-.2-.2l-.2-.3-.2-.2v-.2l-.2-.3a5.3 5.3 0 0 1-.3-.6l-.2-.4-.2-.4A25.6 25.6 0 0 1 56 73l-.1-.3a254 254 0 0 1-.3-.5l-.1-.2h-.1V68.5c0-.2 0-.2.2-.3l.4-.1h10.6l.3.2.1.4V77.9l-.1.6-.2.4v.3l-.2.3-.5.8-.3.2a5.4 5.4 0 0 1-.4.4v.1a2 2 0 0 0-.3.6 97.3 97.3 0 0 1-1.2 3.1c0 .2-.2.4-.3.4Zm19.1-3.8.1.3v.4h-.1v.1l-.1.1v.1a56.2 56.2 0 0 1-.3.4v-.2l-.1.2-.2.2a14.2 14.2 0 0 0-1 1.9l-.2.1a440 440 0 0 1-.3 0l-.1-.2-.1-.3-.1-.3-.3-.3a7.5 7.5 0 0 1-.3.2h.2v.2s0 .2-.2.3v-.4a11.9 11.9 0 0 1-.1-.5l-.2-.2-.1-.3-.1-.2v-.1l-.1-.1-.1-.1-.3.1.3-.1-.3.2.2-.1v-.1l-.2.1-.1.3v.1l-.1-.3v-.4a3.3 3.3 0 0 1-.3-.4l-.1-.1v-.1l-.1-.1-.1-.4a4.7 4.7 0 0 0-.3-.6V80.3h-.1v.1l-.1.1a2.9 2.9 0 0 1-.3.4 8 8 0 0 0-.5 1.3 7 7 0 0 1-.4.9l-.1.3-.2.4v.1h-.2c0 .1-.1 0-.2 0l-.1-.2v-.3l-.3-.5-.1-.7a40 40 0 0 0-.3-1.1V81h-.1v-.1l-.1-.2-.1.4v.5l-.1-.3-.1-.3.1-.1v-.3l-.1.1a83.3 83.3 0 0 1-.4.8v.4l-.1-.4V81l-.2-.3-.2-.2-.1-.3v.5l-.1.1-.1.3v.2l-.2.3v.2l-.1.1-.2.2-.1.2a4.6 4.6 0 0 1-.3.7v.3l-.1.3v.1l-.2.5-.1.5-.1.4-.1.3-.1.2v.2l-.2.1-.2.1v.9l-.1.1v-.5l-.1-.5-.1-.1-.2-.3H70v-.1l-.2-.3-.2-.2a19 19 0 0 0-1-2.2h-.1l-.1-.2-.1-.1-.2.1v.3l-.2-.1v-.1c0 .3-.1.3 0 .2l-.1-.7h-.1l-.2-.2v-.8l.2-.2v-.2l.7-1.9a29.4 29.4 0 0 0 .4-1.4v-.2l.2-.2V77l.1-.1 1-3a26.8 26.8 0 0 0 .6-2l.2-.4.4-.8.3-1 .3-.8c0-.2.1-.3.3-.5l.7-.2h4.7l.1.2.3.2a2 2 0 0 1 .1.4v.2l.1.1v.1l.2.5v.2l.2.3v.3l.1.1v.1l.1.1.3.5.3.9v.2l.3.6.2.7.2.6.2.7 1 2.8.2.6a13.1 13.1 0 0 1 .4 1.3l.4 1.2.1.2Zm-7.4-8.5v.1l-.2.4v.3l-.5 1.5a74.8 74.8 0 0 1-.4 1.3h2.2v-.1L76 76v-.2l-.1-.2a10.2 10.2 0 0 1-.3-1l-.4-1.1-.1-.5v-.2H75Zm21.2.5v.7l-.1.7c0 .2-.2.4-.3.5v.2a5.2 5.2 0 0 1-.7.8v.2a2.3 2.3 0 0 0-.4.3l-.1.4-.2.4-.2.4v.1l-.1.2-.1.1H94a17.5 17.5 0 0 0-.2.8V79l-.2-.3v-.2l-.2.2-.2.2v1.5c-.1.2-.2.1-.2 0a10.1 10.1 0 0 1 0-1.1v-.4a5.1 5.1 0 0 0-.3-.4l-.2-.2v2a20.3 20.3 0 0 1-.1 1.6v.8a82.2 82.2 0 0 1-.3.3V81.7L92 81a346.7 346.7 0 0 0-.2-2.5v-.2l-.2-.1v-.2h-.1v.1l-.4.3V78H91a17.5 17.5 0 0 0-.2 1v.2l-.3.9v.2a2.5 2.5 0 0 1-.2.4l-.1.1-.2-.1a2.3 2.3 0 0 0-.2-.3v-1a9.5 9.5 0 0 0-.1-.8l-.2-.1-.2-.3a3.3 3.3 0 0 0-.3-.4V81a3.3 3.3 0 0 1 0 .8l-.2.2-.2.2-.2.2v.1h-.2v1.9l-.1.1v.1H88v-.8a3.8 3.8 0 0 0-.2-.9l-.2.2-.1.1h-.1l-.1.2v.1l-.2-.1V83l-.2-.1-.1-.2-.2-.2v-.1h-.1l-.4.4c0 .2-.2.3-.3.3-.2 0-.3 0-.3-.2v-.4.1h-.1v.1l-.1.1v.1H85V82.6H85l-.2-.3v.2c0 .1 0 0-.1 0h-.1l-.2-.2h-.2v-.1H84l-.2-.1a.5.5 0 0 1-.2-.4V68.6l.1-.2.3-.2h7a11.5 11.5 0 0 1 2.2.4l.3.2a44.8 44.8 0 0 0 1.2.7l.6.6.1.1.1.2.1.2.1.1.4 1.2.1 1.2v.2Zm-7.5-1.4v1.9c.3-.3.7-.5 1-.6l1.3-.2a1 1 0 0 0-.3-.8V72h-.2l-.2-.1h-1.6Zm21.8 9.4.1.3v.4h-.1v.1l-.1.1V82.5h-.1v.2c0 .1 0 .2-.1.1V82.5l-.2.2-.2.2a12.4 12.4 0 0 0-1 1.9l-.2.1a44 44 0 0 0-.2.3V85a.7.7 0 0 1-.2-.2 785.3 785.3 0 0 1-.5-.9h-.1l-.2.2h.2v.2s0 .2-.2.3v-.4a7.6 7.6 0 0 1-.1-.5l-.2-.2a3.3 3.3 0 0 1-.2-.5v-.1l-.1-.1-.1-.1-.3.1.3-.1-.3.2.2-.1.1-.1-.3.1-.1.3v.1l-.1-.3v-.4a3.3 3.3 0 0 1-.3-.4l-.1-.1a2.8 2.8 0 0 1-.2-.6 4.9 4.9 0 0 0-.3-.7v-.2h-.1v.1l-.1.1-.1.2-.2.2a7.6 7.6 0 0 0-.5 1.3 7.8 7.8 0 0 1-.4.9l-.1.3-.2.4v.1h-.2c0 .1-.1 0-.2 0l-.1-.2a28.6 28.6 0 0 1-.7-2.6V81h-.1v-.1l-.1-.2-.1.4v.5l-.1-.3-.1-.3.1-.1v-.3l-.1.1-.2.2-.1.1a33 33 0 0 0-.2.5V81l-.2-.3-.2-.2-.1-.3v.5l-.1.1-.1.3v.2l-.2.3v.2l-.1.1-.2.2-.1.2a4.8 4.8 0 0 1-.3.7v.3l-.1.3v.1l-.2.5-.1.5-.1.4-.1.3-.1.2v.2l-.2.1-.2.1v.9l-.1.1v-.5l-.1-.5-.1-.1-.2-.3h-.1v-.1l-.2-.3-.2-.2a19.1 19.1 0 0 0-1-2.2h-.1l-.1-.2-.1-.1-.2.1v.3l-.2-.1v-.1c0 .3-.1.3 0 .2l-.1-.7h-.1l-.2-.2v-.8l.2-.2v-.2l.7-1.9a29.4 29.4 0 0 0 .4-1.4l.1-.2V77l.2-.1v-.1l1-3a26.8 26.8 0 0 0 .6-2l.2-.4.4-.8.3-1 .3-.8c0-.2.2-.3.3-.5l.7-.2h4.7l.1.2.3.2a2.1 2.1 0 0 1 .1.4l.1.2v.2l.2.5.1.2.1.3.1.3v.2l.1.1.3.5.3.9v.2l.3.6.2.7.2.6.2.7 1 2.8.2.6a13.8 13.8 0 0 1 .4 1.3l.4 1.2.1.2Zm-7.4-8.5v.1l-.2.4v.3l-.5 1.5v.2l-.1.1a2.7 2.7 0 0 1-.2.6 9.6 9.6 0 0 0-.1.4h2.2v-.1l-.1-.2v-.2l-.1-.2a9 9 0 0 1-.3-1l-.4-1.1-.1-.5v-.2h-.1Zm21.2 9v.1l-.1.1v.1h-.1a5 5 0 0 0-.1.8l-.1.7a25.3 25.3 0 0 1-.4 2v-.2l-.2-.5v-.4l-.2-1-.1-1.1v.4h-.1l-.1.1h-.1V82.7h-.1v.2h-.1l-.1.1h-.1a69.1 69.1 0 0 1-.2.8v-.4l-.1-.4a4.9 4.9 0 0 1-.3-.4v-.2h-.2v.1l-.2.1v.2s0 .1-.1 0l-.1-.2-.2-.2h-.4c-.1.1-.2.1-.2 0h-.1V82c-.1 0-.2 0-.2-.2a3.5 3.5 0 0 1-.4-.4v-.2l-.2-.1v-.1a8.3 8.3 0 0 0-.2-.3l-.1-.2-.4-.4a75.6 75.6 0 0 1-1-1.7l-.8-1.2-.3-.4v-.1l-.1-.1v5.1c-.1 0-.1 0 0 0h-.1v.1l-.2.2-.1.1v.1l-.1.1v.1l-.1.2-.4.8-.2.4-.1.1h-.1v.1a192.3 192.3 0 0 1-.3 0V84h-.1l-.2-.3v-.1a2.6 2.6 0 0 1-.1-.3v-.1l-.2-.5v-.1l-.1-.1v.8h-.1v-.1l-.1-.1-.2-.3-.2-.3-.1.1-.1.1a83.3 83.3 0 0 1-.6.3v.7a22.3 22.3 0 0 1 .1 1.7c0 .2 0 .2-.2 0s-.3-.4-.3-.8l.1-1 .1-.8v-.1a10.9 10.9 0 0 0-.1-.1v.4l-.1.3v-.6l-.2-.5-.1-.1a.5.5 0 0 1-.3-.4V68.5l.3-.2h.1l.2-.1h3.6l.2.3.3.3.2.4.1.2.4.6.4.6v.1l.7 1.2.6.9.5.9.3.4v-5.6h.1l.1-.2.3-.1H124.1l.2.2v.1l.1.2V81a3.8 3.8 0 0 1 0 .8Z" fill="#51829B"/></g><defs><filter id="a" x="34.1" y="50.2" width="110.4" height="58.9" filterUnits="userSpaceOnUse" color-interpolation-filters="sRGB"><feFlood flood-opacity="0" result="BackgroundImageFix"/><feColorMatrix in="SourceAlpha" values="0 0 0 0 0 0 0 0 0 0 0 0 0 0 0 0 0 0 127 0" result="hardAlpha"/><feOffset dy="2"/><feGaussianBlur stdDeviation="10"/><feComposite in2="hardAlpha" operator="out"/><feColorMatrix values="0 0 0 0 0.960784 0 0 0 0 0.929412 0 0 0 0 0.929412 0 0 0 0.4 0"/><feBlend in2="BackgroundImageFix" result="effect1_dropShadow_116_130120"/><feBlend in="SourceGraphic" in2="effect1_dropShadow_116_130120" result="shape"/></filter></defs></svg>