<svg width="180" height="150" fill="none" xmlns="http://www.w3.org/2000/svg"><path d="M70.2 43.8v-.4l-.6-.1v.6h.6Zm5.5.5v.5h.5v-.5h-.5Zm-5.2 1.1-.5.1v.2h.1l.4-.3Zm3 2.9h.5V48l-.2-.2-.3.4Zm.3 3.7h-.5v.1h.5Zm.7 3.8.3.4.3-.1v-.4l-.6.1Zm-6.1 3.9-.3-.5-.2.2v.3h.5Zm.3 2.7h-.5v.5h.5v-.5Zm1.8-.2h.5v-.5h-.5v.5Zm.6 3.4h-.5v.2l.1.2.4-.4Zm2.5 2.6.5-.2v-.1H74l-.4.3Zm2.6 7.2.4.4.2-.2v-.4l-.6.2Zm-3.7 3.1-.3-.3-.2.1v.3h.5Zm.2 2.6.5.2v-.2h-.5Zm-2.5 5.7v.5h.3l.2-.3-.5-.2Zm-3.3-.4.1-.5h-.4l-.1.4.4.1Zm-1.5 5.2-.4-.1.4.1Zm-.9 3.6L64 95v.2l.1.2.4-.3Zm3.7 3.7.4.3.3-.4-.3-.3-.4.4Zm-2.6 2.8-.4-.4-.6.7.8.1.2-.4Zm1.6.3-.1.5H67.4l-.2-.5Zm3.7-2 .2-.5-.2-.2-.3.2.3.4Zm2.9 1.8h.5v-.3l-.3-.2-.2.5Zm-.4 2H73v.5h.5v-.5Zm2.3.1v.5h.5v-.4l-.5-.1Zm.4-2.6.3-.4-.7-.4v.7h.4Zm2.7 1.5-.2.4.4.2.2-.3-.4-.3Zm3.1-4.2.1-.5h-.3l-.2.2.4.3Zm2.4.5v.4l.3.1.1-.3-.4-.2Zm2.3-3.4v-.5h-.3v.2l.3.3Zm1.6-.4.4-.4-.2-.2H88l.1.6Zm2.2 2.3-.3.4.6.7.2-1h-.5Zm.6-3.5v-.5h-.4v.4l.4.1Zm3.5.1v.5h.4v-.5h-.4Zm0-2.2.1-.5-.6-.1v.6h.5Zm3.2.6.3-.4h-.2l-.1.4Zm3 2-.4.3.3.2.2-.1-.2-.5Zm3-1.5.2.5.2-.2v-.3h-.5Zm-.1-2.5-.3-.4-.2.2v.3h.5Zm6.8-4.8.3.4.1-.1-.4-.3Zm2.3-4 .5.3v-.2h-.5Zm-.1-2.8-.5-.1v.1h.5Zm1.7-6.5.5.1.2-.6h-.6v.5Zm-2-.2-.5.2v.3h.4v-.5Zm-1-3.4-.5-.2v.4l.5-.2Zm1.1-3 .5.1v-.2h-.5Zm0-4.7h.4-.5Zm-2.8-11.5.5-.1v-.2l-.5.3Zm-7-9.3-.5.3.4-.3Zm-5-10.4.4-.2-.5-1-.4 1 .5.2Zm-2 4.4v.5h.3l.1-.3-.4-.2Zm-8.7.6v.5-.5Zm-5.5 0v-.6h-.2l-.1.2.3.3Zm-5.2 6-.3-.3-.1.1v.2h.4ZM49 40l-.1-.4h-.4v.5h.5Zm0 1.2h-.4v.2l.5-.2Zm2.6-1.7h.5V39l-.6.1.1.5Zm-.2 1.7H51v.2l.5-.2Zm.7 1.9.3.4.3-.3-.2-.3-.4.2Zm-1.3 1-.4.2.3.5.4-.3-.3-.4Zm14.5 11.2-.4-.3-.4.4.5.3.3-.4Zm2.4-2.6.3.3-.3-.3Zm-1 3.5-.3.4.4.3.3-.3-.4-.4Zm2-2 .3-.5-.3-.2-.3.3.4.3Zm2.4 1-.2.4H71.2l-.1-.4Zm1.3-.3.1.5 1-.2-.7-.6-.4.3Zm-3.6-3.4.3-.4-.4-.4-.3.4.4.4Zm-1 65.7-.3-.4-.4.3.3.4.4-.3ZM71 114l-.1-.5h-.2v.1l.3.4Zm-1.6 5-.4.4.2.2h.3l-.1-.6Zm6.8-1.2v.5h.2l.1-.2-.3-.3Zm3.1-2.8.4.4.3-.4-.3-.4-.4.4Zm-2-2.2.3-.4-.2-.2h-.2v.6ZM62.6 45.5l-.4-.3-.1.1v.3l.5-.1Zm1-1.1.4-.2-.4-.7-.5.6.4.3Zm-.5 4h-.5l.1.6.6-.2-.2-.5Zm2.2-.7.2.4.5-.2-.3-.5-.4.3Zm64.1-.2-.1-.5-.3.1v.3l.4.1Zm-.1 1h-.5v.4l.3.2.2-.5ZM131 47l.5-.2-.2-.5-.4.2.1.5Zm.6 1.4.2.5.4-.2-.1-.5-.5.2Zm-1.1.6-.2.5h.4l-.2-.5ZM70 44.3l5.6.5v-1l-5.5-.4v1Zm.9 1-.3-1.5-1 .1.3 1.6 1-.2Zm2.8 2.6-3-2.8-.7.7 3 2.9.7-.8Zm.5 4-.3-3.7-1 .1.3 3.8 1-.1Zm.7 3.8-.7-3.8-1 .2.7 3.8 1-.2Zm-6.3 4.4 6.1-3.9-.5-.8-6.2 3.8.6.9Zm.5 2.2-.3-2.7-1 .1.3 2.7h1Zm1.3-.6-1.9.2.1 1 1.8-.2v-1Zm1 3.8-.5-3.4-1 .2.6 3.4 1-.2Zm2.5 2.3-2.6-2.5-.7.7 2.5 2.5.8-.7Zm2.7 7.4L74.1 68l-1 .3 2.7 7.3 1-.4ZM72.8 79l3.8-3.1-.7-.8-3.7 3.2.6.7Zm.4 2.2-.2-2.6h-1l.2 2.6h1Zm-2.5 6 2.5-5.8-1-.4-2.5 5.7 1 .4Zm-3.8-.2 3.2.4.2-1L67 86l-.1 1Zm-1 4.9 1.5-5.2-1-.3-1.4 5.2 1 .3Zm-1 3.5 1-3.5-1-.3-.9 3.6 1 .2Zm3.7 3.2-3.7-3.7-.8.7 3.8 3.7.7-.7Zm-2.7 3.5 2.7-2.8-.7-.7-2.7 2.8.7.7Zm1.4-.5-1.6-.3-.3 1 1.7.3.2-1Zm3.3-2-3.7 2 .5 1 3.7-2.2-.5-.8Zm3.4 1.8-2.9-1.8-.5.8 2.9 1.9.5-.9Zm0 2.6.3-2-1-.2-.4 2 1 .2Zm1.8-.5-2.4-.1v1l2.3.1v-1Zm-.2-2.2-.4 2.6 1 .2.4-2.6-1-.2Zm3.5 1.1-2.7-1.4-.5.8 2.7 1.5.5-.9Zm2.4-4-3 4.2.7.6 3.1-4.2-.8-.6Zm3 .3L82 98l-.2 1 2.4.4.2-1Zm1.7-3.2L84 98.8l.8.5L87 96l-.8-.6Zm1.9-.6-1.6.4.3 1 1.5-.5-.2-1Zm2.7 2.5L88.6 95l-.8.7 2.3 2.4.7-.7Zm-.3-3.3-.6 3.6 1 .1.6-3.5-1-.2Zm4-.3H91v1h3.4v-1ZM94 92v2.2h1V92h-1Zm3.8.1-3.2-.6-.2 1 3.2.6.2-1Zm3 2-2.8-2-.6 1 3 1.8.5-.8Zm2.6-1.4-3 1.4.4.9 3-1.4-.4-1Zm-.3-2V93h1v-2.5h-1Zm7-5.3-6.8 4.8.6.9 6.8-4.9-.6-.8Zm2.2-3.8-2.4 4 .9.5 2.4-4-.9-.5Zm-.2-2.6.1 3 1-.1-.1-3-1 .1Zm1.7-6.6-1.7 6.5 1 .2 1.7-6.5-1-.2Zm-1.6.4 2 .2.2-1-2-.2-.2 1Zm-1.4-3.7 1 3.4 1-.3-1-3.4-1 .3Zm1.2-3.5-1.2 3.1 1 .4 1.1-3.1-1-.4Zm-.2-4.4.1 4.6h1v-4.6h-1Zm-2.7-11.4 2.8 11.6 1-.3-2.8-11.5-1 .2Zm-7-9 7.1 9.2.8-.6-7-9.3-.9.7Zm-5-10.6 5 10.5.9-.5-5-10.4-.9.4Zm-1 4.4 2-4.4-1-.4-2 4.4 1 .4Zm-9.2.9 8.7-.6v-1l-8.8.6v1Zm-5.5 0H87v-1h-5.5v1Zm-4.8 5.9 5.2-6.1-.7-.7-5.2 6.1.7.7Zm-.4 3 .5-3.3-1-.1-.5 3.2 1 .1ZM48.5 40v1.2l1-.1V40l-1 .1Zm3-1-2.6.5.2 1 2.6-.6-.2-1Zm.4 2.2.2-1.7-1-.1-.2 1.7h1Zm.6 1.6-.6-1.8-1 .3.7 1.8 1-.3Zm-1.4 1.6 1.3-1-.7-.8-1.2 1 .6.8Zm-2.4-3 1.7 2.8.8-.5-1.7-2.8-.8.5Zm17 14.2L68 53l-.7-.6-2.4 2.6.8.7Zm1.3 0-1.4-.8-.6.8 1.4 1 .6-1Zm1.4-2-2 2.2.7.7 2-2.1-.7-.7Zm2.9 1-2.3-1-.4.9 2.3 1 .4-.9Zm1-.3-1.3.3.2 1 1.3-.3-.2-1Zm-3.9-2.6 3.7 3.5.7-.7L69 51l-.7.7ZM68 53l1.1-1.2-.7-.7-1.1 1.3.8.6Zm.1 64.5 3.3-3-.7-.8-3.2 3 .6.8Zm1.8 1.3-1.7-2-.8.7 1.7 2 .8-.7Zm6.3-1.4-6.8 1.2.2 1 6.8-1.2-.2-1Zm2.9-2.7-3.1 2.8.6.7 3.2-2.7-.7-.8Zm-2.1-1.5 2 2.2.8-.7-2-2.2-.8.7Zm-5.8 1.4 6.3-1.3-.2-1-6.3 1.3.2 1ZM63 45.8l1-1-.9-.7-.9 1 .8.7Zm.6 2.4-.5-2.8-1 .2.5 2.8 1-.2Zm1.6-1-2.2.7.3 1 2.2-.8-.3-1ZM63 44.6l1.8 3.3.8-.5-1.7-3.2-1 .4Zm65.9 2.8-.2 1.1 1 .1.1-1-1-.2Zm2-1-1.7.6.3 1 1.7-.6-.3-1Zm1.2 1.8-.6-1.4-1 .3.6 1.5 1-.4Zm-1.4 1.3 1.1-.6-.4-1-1.1.7.4.9Zm-1.7-.4 1.3.4.4-1-1.3-.4-.4 1Z" fill="#F6995C"/><g filter="url(#a)"><path d="m68.6 81.2-.1.3h-.1l-.1.3-.1.2-.2.2a19.1 19.1 0 0 0-1 2.2v.3l-.1.2-.1.2h-.1l-.2.4.2.2-.2.3s0 .1 0 0h-.1v-.4l-.1-.3v.1h-.1v.1l-.1.2-.1.1-.1.2h-.1l-.1.1h-.1v-.2h-.1l-.1-.3v-.1l-.2-.2-.2-.4-.2-.3-.1-.3a10.2 10.2 0 0 1-.3-1V83l-.2-.3-.1-.4-.1-.2-.3-.3v.1h-.1l-.1-.2v.2c.1 0 .1 0 0-.2V82l-.1.7v1.8h-.1l-.1-1.6c0-.5 0-1-.2-1.4v-.1l-.2-.2V81h-.1a24.4 24.4 0 0 0-1-1.8V79a17.4 17.4 0 0 1-1-1.7l-.2-.3v-.2h-.1v4.3l-.2.2c.1-.1.1 0 0 0l-.1.1a235.7 235.7 0 0 1-.3 1v-.1a7.7 7.7 0 0 1-.2-.4l-.1-.1-.1-.1-.3.4v.2l-.4 1a8.4 8.4 0 0 1-.6 2.2l-.1.1h-.1v.8a23.7 23.7 0 0 1 .2 1.7c0 .2-.1.2-.3.1-.1 0-.2-.2-.2-.5v-.7a103.4 103.4 0 0 1 .1-1.4c0-.1 0-.1 0 0l-.1-.2a785.3 785.3 0 0 1-.2-.6l-.2-.4a39.3 39.3 0 0 0-.8-2l-.1-.3v-.1l-.2-.3v-.2H55.7l-.1-.1a.5.5 0 0 1-.3-.5V68l.3-.2h.2l.4-.1h3.8l.1.2.1.2v4.1-.1h.1v-.1l.1-.1.1-.3a21.4 21.4 0 0 0 1.3-2.3l.2-.3.3-.5.2-.4.2-.2.4-.2H68c.1 0 .2 0 .3.2v.4l-.1.3H68c0 .2-.1.2-.2.3v.3l-1.3 2-.2.5a19.7 19.7 0 0 1-1.4 2.2l-.2.3v.1h-.1v.2h.1v.1l.2.2v.2l.3.3.1.3.2.3.3.3.4.6a20.7 20.7 0 0 1 .6 1.2l1 1.8.2.3.2.3v.2l.2.2v.1l.2.1V81.3ZM81.4 79l-.2.3-.2.4-.4.4-.4.3v.8a14 14 0 0 1-.1 1.4v-.1a4.8 4.8 0 0 0-.1-1v-.8l-.3.4-.2.4a42.3 42.3 0 0 0-.8 2.1h-.3a7.9 7.9 0 0 1-.3-.5 168.6 168.6 0 0 1-.2-1 2.8 2.8 0 0 1-.4.4v.1l-.1.2h-.1l-.1-.2v-.2l-.2-.1a2.7 2.7 0 0 1-.2-.3 7.3 7.3 0 0 0 0 .4h-1.1V83.5h-.1V82.6l-.2-.7v.7-.3l-.2-.6c-1.4 0-2.5-.3-3.5-.7a5 5 0 0 1-2.5-2.3l-.1-.5-.1-.2-.1-.3v-.2l-.2-.8V72a5.2 5.2 0 0 1 1.3-2.7c1.2-1.3 3-2 5.4-2h1.4l.3.1.4.1.5.1h.1l.3.1.3.2c.8.3 1.6.8 2.2 1.5l.5.8A6.1 6.1 0 0 1 82 72v5.2c-.1.6-.3 1.2-.6 1.7Zm-6.9-1.4.3.3h1a1.3 1.3 0 0 0 .9-.8v-.3l.1-.6V72.3l-.2-.4-.3-.3h-.1l-.2-.1h-.1l-.3.1-.1.2a32.6 32.6 0 0 1-.3.3H75s-.1 0 0 0l-.2-.2-.2-.1-.1-.2-.2.1-.2.2-.1.5a800.2 800.2 0 0 1-.1.8v2.5l.2 1v.1a11 11 0 0 0 .4.7Zm22.3 3.6V81.4l-.2.1v.2l-.1.2-.3.5-.2.3-.2.3-.1.1V82h-.2l-.2.2c-.1.1-.1 0-.1 0L95 82l-.1-.1v.6h-.1v-.2l-.1-.4v.1l-.2.2a601.5 601.5 0 0 0-.3.7v-.2l-.1-.3v-.1h-.2v.2l-.1.1-.2.1a1464.9 1464.9 0 0 0-.3.8v-.8a16.5 16.5 0 0 1-.7-.6h-.2v.5l-.1.5-.1-.2v-.2a16.5 16.5 0 0 1-.2 0l-.1-.4v-.5V82v-.2l-.1-.2v.1l-.1-.1v-.3h-.1l-.1-.1V81h-.1l-.1-.2v-.2l-.2-.3a7 7 0 0 0-.3-.7l-.2-.5-.1-.1a2.8 2.8 0 0 0-.2-.6L90 78l-.1-.2-.1-.2-.1-.2-.2-.2v.2l-.1.2v.1H89l-.1-.3-.1-.2v4l-.1.2a53077403736.1 53077403736.1 0 0 0-.4.4l-.1.4a2.6 2.6 0 0 1-.1.6H88v-.2a74.8 74.8 0 0 1-.2-.5h-.1v.1h-.2a21.2 21.2 0 0 0 0 2.7c0 .1 0 .1-.1 0-.1 0-.2-.1-.1-.3v-.5A440.6 440.6 0 0 1 87 82v-.1l-.1-.2v.1H86.2l-.3-.2h-.2l-.2.2h-.4a65.2 65.2 0 0 1-.6 0 13.6 13.6 0 0 1-.5-.3.5.5 0 0 1-.2-.5V68.1a.5.5 0 0 1 .3-.5h7.1A7.2 7.2 0 0 1 95 69c.5.5 1 1 1.2 1.6.2.6.4 1.2.4 2 0 .4 0 .8-.2 1.2l-.1.5v.1l-.3.5a4 4 0 0 1-.3.5h-.1v.1l-.2.2h-.1l-.1.2H95v1l.2 1a83.3 83.3 0 0 0 .5 1.1l.5 1a9.7 9.7 0 0 0 .6 1v.2Zm-7.7-7.7h1.5c.1 0 .3-.1.3-.3l.3-.4a1.1 1.1 0 0 0 0-.4v-.5l-.3-.3H89.3l-.2-.2h-.2v2l.2.1Zm5.6 3.7.1-1v.3h-.2s-.1-.1-.1 0h-.1v.2l.3.5Zm-2.6 5v-.3V82.1Zm17.7-3.2a26.6 26.6 0 0 0 0 2V81.1l-.1.2h-.1l-.1.2-.1.2h-.1v.1h-.1c0 .2-.1.2-.2.3l-.2.3-.2.2-.1.2-.1.2a.8.8 0 0 1-.3.2h-.1l-.1.1-.1.1h-.2a1.3 1.3 0 0 1-.2-.1l-.2.1v2.2l-.1.3c-.2 0-.2 0-.2-.3v-1.4a9.6 9.6 0 0 0 0-.9l-.2-.1a8 8 0 0 0-.3-.7l-.3-.5v-.2l-.2-.2v.6h-.1V82l-.2.3v.2a3.4 3.4 0 0 1-.5.9h-.1v.3a2.6 2.6 0 0 1-.1.5v.2a9.3 9.3 0 0 1-.2.2V84c.1-.2 0-.3 0-.4h-.1a2.9 2.9 0 0 0 0 .6v.1l-.1-.4v-.5.4h-.1v-.2l-.1-.2h-.2l-.1.1-.3.3v.6a87.3 87.3 0 0 0 .1 1.4c0 .1 0 .2-.2.2s-.3-.1-.3-.3V85a74.2 74.2 0 0 0 .2-1.3l-.2-.2-.2-.6-.3-.6-.1-.2h-.2l-.2-.1V82h-.2l-.3.4h-.1a30.3 30.3 0 0 0-.2 3l-.1-.7a30.1 30.1 0 0 1 .2-1.8l-.3-.6-.3-.3v-.1l-.2-.3-.2.2h-.1v.2l-.1.3-.2 1a11.3 11.3 0 0 1-.2 1 1 1 0 0 1 0-.6v-1.2s0-.1-.2 0l-.5-.1a30.2 30.2 0 0 1-.2-.3v.5a13 13 0 0 1 0 1.1c0 .2 0 .2 0 0a1 1 0 0 1-.3-.5l.1-.7V82v.8l-.1-.1v-.4l-.1-.6-.2-.1a.5.5 0 0 1-.2-.5V68.1l.1-.3.3-.2h10.7l.2.2V71.2l-.2.2a3.3 3.3 0 0 0-.2.2h-.8a1 1 0 0 0-.5.1l-.2.1-.2.1h-.2l-.2.2h-.7l-.2.1-.3.1s-.1.1-.2 0H105l-.4-.1a646.7 646.7 0 0 1-1.1-.5l-.5-.2v1l.1.2h5.2a1 1 0 0 1 .6.1l.1.2.1.1V76.1c0 .2-.2.2-.3.3l-.3.1-.2.1-.4.2a1 1 0 0 1-.3.1 6.9 6.9 0 0 1-.4.1h-.2l-.2.2h-1.4c-.1-.1-.2-.1-.4 0h-.3l-.3-.2a1.6 1.6 0 0 0-.6-.4 4 4 0 0 0-.5-.1 2 2 0 0 0-.3 0v1l.1.2h6.3l.1.1.1.1.1.2V78.9Zm15.7 1.8.1.3v.4l-.1.1v.1l-.1.1a5.6 5.6 0 0 0-.2.5V82l-.2.2-.2.2a12.4 12.4 0 0 0-1 1.9l-.1.1h-.1v.4l-.1.4-.1-.2v-.6a.7.7 0 0 1-.2-.2l-.1-.3-.1-.3-.2-.3h-.1l-.2.2c.2 0 .2.1.2.2 0 0 0 .2-.2.3l-.1-.1v-.3a7.6 7.6 0 0 1-.1-.5l-.2-.3a3.3 3.3 0 0 1-.2-.4v-.1l-.1-.2h-.1l-.3.1.3-.1c-.2 0-.3.2-.3.2l.2-.1.1-.2-.3.2-.1.3v.1-.3l-.1-.4a3.3 3.3 0 0 1-.2-.4l-.2-.1a2.8 2.8 0 0 1-.2-.6 4.9 4.9 0 0 0-.3-.7v-.2h-.1l-.1.2a3 3 0 0 1-.2.4 7.6 7.6 0 0 0-.6 1.2 7.8 7.8 0 0 1-.3 1 56.6 56.6 0 0 0-.6.9h-.1l-.2-.4a28.6 28.6 0 0 1-.7-2.5v-.2h-.1v-.2l-.1-.1v.4l-.1.4c0 .1 0 0 0 0l-.1-.2V80h-.1v.1a8.3 8.3 0 0 0-.2.3h-.1a33 33 0 0 0-.2.5v-.6l-.2-.2-.2-.2-.1-.4v.6l-.1.1v.2l-.2.3v.3l-.1.2h-.1c0 .2-.1.2-.2.2v.2l-.1.1a4.8 4.8 0 0 1-.3.7v.3l-.1.3v.1l-.2.5v.5l-.2.3-.1.4v.2l-.2.2v.1l-.2.1v.5l-.1.4v.1h-.1V86l-.1-.5a5.5 5.5 0 0 1-.1-.2l-.2-.2-.1-.1-.2-.3-.2-.2-.3-.8a19.5 19.5 0 0 0-.9-1.6l-.1-.1-.1.1-.1.2v.1l-.2-.1V82v.2l-.1-.7-.2-.2h-.1v-.6l.1-.2v-.2l.2-.2.6-2a36.6 36.6 0 0 0 .4-1.3l.1-.2.1-.2v-.1l.1-.2 1-3a34.4 34.4 0 0 0 .8-2.3l.4-.8.4-1 .2-.9.3-.4.7-.2h4.7l.2.2.2.2a2.1 2.1 0 0 1 .2.4v.4l.3.5v.2l.1.3.1.3.1.2v.1l.3.5.3.8v.2l.3.7.2.7.2.5.2.8 1 2.8.2.6a13.8 13.8 0 0 1 .4 1.2l.5 1.3v.2Zm-7.4-8.5v.2l-.2.2v.3l-.5 1.6a9.6 9.6 0 0 0-.2.6v.4l-.1.2v.1h-.1 2.2V75.6l-.1-.2-.1-.2a9 9 0 0 1-.3-1l-.4-1.2v-.4h-.1v-.2h-.1Z" fill="#51829B"/></g><defs><filter id="a" x="35.4" y="49.4" width="110.3" height="61.1" filterUnits="userSpaceOnUse" color-interpolation-filters="sRGB"><feFlood flood-opacity="0" result="BackgroundImageFix"/><feColorMatrix in="SourceAlpha" values="0 0 0 0 0 0 0 0 0 0 0 0 0 0 0 0 0 0 127 0" result="hardAlpha"/><feOffset dy="2"/><feGaussianBlur stdDeviation="10"/><feComposite in2="hardAlpha" operator="out"/><feColorMatrix values="0 0 0 0 0.960784 0 0 0 0 0.929412 0 0 0 0 0.929412 0 0 0 0.4 0"/><feBlend in2="BackgroundImageFix" result="effect1_dropShadow_116_130144"/><feBlend in="SourceGraphic" in2="effect1_dropShadow_116_130144" result="shape"/></filter></defs></svg>