<svg width="180" height="150" fill="none" xmlns="http://www.w3.org/2000/svg"><path clip-rule="evenodd" d="M50.6 47h5.8l.3.6 9.3 4 7.2.5.1-1.3h4.4l4.1 3.7.8 2.7 4 2.5 1.1-2.4 3.3-.2 4.4 6.8 1.2 3.4 5.2 1.6-.5 1.6h-1l.2 4.5v3.7l.3 2.6 5.7 8.5h2l1.6 1.8 5.5-1.7L120 88l1-2.5.3-3.6 4-.8 1.6-1 2.1.4 1.4-.6 1 1.6-1.8 2.6-.6 6-1.4-.8-2.1 2.3-5.3.3.1 1.7-1.2.1 3 2.4v1l-3.5.1-1.4 2.6v2.2l-4.8-4-3.6-.6-4.3 1.8-6.5-2.5-4.7-1.3-3.9-2.8-3.8-.9-4.2-3-2.4-3.4 1.5-2.8-1.3-3.4-6.3-8.4-3.7-2 .6-1.9-3-3-.4-1.4-1.3-.3-4-6.4-.5-4.1-4.2-1.9v5l2.2 2.4 1.7 3.4 3.4 5.3 2 5.2.1 1.5 1.6.4 1.9 3-1.6 1.3-1-2-4.7-4 .2-3-2.8-3.4h-1.2l-4-3.5.5-.3 2 .5.8-2-1.4-1.8-2.5-1.9-3-8.8Z" stroke="#F6995C"/><g filter="url(#a)"><path d="M65 81v.2l-.1.1-.1.1a8.3 8.3 0 0 0-.3 1.5v-.5l-.1-.6-.2.1h-.1l-.4-.1V82l-.1-.1V81.7c0-.1-.1-.2-.3-.1l-.1.1-.1.2H63v.1h-.4v.1c-.2 0-.2.2-.3.3a2.3 2.3 0 0 1-.2.6l-.1.1v.6a3.4 3.4 0 0 1-.2.7V84l-.1-.4V83l-.2-.2a9.7 9.7 0 0 0-.4-.5L61 82a2.2 2.2 0 0 0-.2-.3l-.1-.1v-.1l-.1-.2a6.1 6.1 0 0 1-.2-.1v-.1l-.1-.4v-5.2.4-.5l-.1.2v.1a5.8 5.8 0 0 0-.5.6 19.2 19.2 0 0 0-.8 1.3l-.1.2-.2.1-.1.2a16 16 0 0 0-.1 1.7 22.7 22.7 0 0 1-.1 1.6v-2.1l-.1-1H58v.1l-.2.2h-.1v.3l-.1.2v-.5l-.1-.1h-.1v-.1l-.1.1v.1l-.1-.2-.1.1-.1.1v.2a1194654274531.2 1194654274531.2 0 0 1-.4 0l-.1-.3v-.3l-.1-.3h-.2v-.2l-.2-.2-.3-.5-.3-.5-.2-.3-.1-.2-.1-.1v-.2H55v-.1h-.1v-.2h-.1v5.6l-.1.2-.1.1v.2l-.1.2-.1.5a3.7 3.7 0 0 1-.3.9H54v-.3a13.3 13.3 0 0 1-.3-1l-.2.1a14.2 14.2 0 0 0-.1 1.6c-.2-.2-.2-.4-.2-.6l.1-.5V82l-.1-.1v-.1H53V83h-.2a150.2 150.2 0 0 1-.1-1.2h-.1l-.1.5v.5h-.1l-.1-.1v-.9l-.1.1v.1H52l-.1.1-.1.3v.3h-.1v.1h-.1l-.1-.3-.1-.2-.2-.3-.1-.3v.1H51l-.2-.1V82.3l-.1.1V85.8c0 .1 0 .2-.1 0V84.2a31 31 0 0 1 0-1.7l-.1-1h-.2a.5.5 0 0 1-.2-.4V68c0-.1 0-.2.2-.3l.4-.2h3.5c.1.1.3.2.3.4l.3.3v.1l.1.1.1.2.3.5.4.6.7 1.2a13.8 13.8 0 0 1 1 1.8l.2.1v-.1l.1-.2.1-.1.4-.6.4-.6.1-.3.7-1.2a22.6 22.6 0 0 1 .7-1l.1-.3.2-.3a2.5 2.5 0 0 1 .2-.3l.3-.2.4-.1h3.4l.1.1.2.4v13.1Zm13.7-2.2a26 26 0 0 0 0 2v.5l-.2.1-.2.2-.1.2v.1c-.2 0-.2.2-.3.2l-.2.3-.2.2v.2l-.2.2a.8.8 0 0 1-.3.2l-.2.2H76.5a1.3 1.3 0 0 1-.2-.1l-.2.1v2.2l-.1.3c-.2 0-.2 0-.2-.3v-.4a454.6 454.6 0 0 0 0-1.9l-.2-.1a8.8 8.8 0 0 0-.3-.7L75 82v-.2l-.2-.1v.5h-.1V82l-.2.2a785.3 785.3 0 0 0-.7 1.9v.2l-.1.1s0 .1 0 0V84l-.1-.4a2.8 2.8 0 0 0 0 .6c0 .1 0 .2-.1.1-.1 0-.1-.2 0-.4v-.5l-.1.2v.3l-.1-.1v-.2l-.1-.2H73l-.1.1-.3.3v.6a88 88 0 0 0 .1 1.4c0 .2 0 .2-.2.2s-.3-.1-.3-.3V85a74.8 74.8 0 0 0 .2-1.3l-.2-.2-.2-.6-.3-.6-.1-.2h-.2l-.2-.1v-.1H71v.1l-.3.3h-.1a30.3 30.3 0 0 0-.2 3v-.7a29 29 0 0 1 0-1.7c0-.3 0-.5-.2-.7L70 82v-.1l-.2-.2-.2.1h-.1v.2l-.1.3-.2 1a11.4 11.4 0 0 1-.2 1 1 1 0 0 1 0-.6v-1.1c0-.2 0-.2-.2-.1l-.5-.1v-.1H68V82v.6a12.7 12.7 0 0 1 0 1c0 .2 0 .2-.2 0a1 1 0 0 1-.2-.5l.1-.6v-.7.8-.5l-.2-.6-.2-.1a.5.5 0 0 1-.2-.4V68l.1-.3.3-.2H78l.3.1.2.1V71.1l-.2.2a3.3 3.3 0 0 0-.2.2h-.8a1 1 0 0 0-.5.2h-.2l-.2.1h-.2l-.2.2h-.7l-.2.2h-.3l-.2.1H74l-.4-.2-.4-.2-.3-.2a4 4 0 0 0-.4-.1l-.5-.2v1l.1.3h5.2a1 1 0 0 1 .6 0l.1.2.1.2V76c0 .2-.2.3-.3.3l-.3.2h-.2l-.4.2a1 1 0 0 1-.3.2 7.3 7.3 0 0 1-.4 0l-.2.1h-.2l-.4.1h-1c-.1-.1-.2 0-.4 0h-.3c-.1 0-.2 0-.3-.2a1.6 1.6 0 0 0-.6-.3 4 4 0 0 0-.5-.2 2 2 0 0 0-.3 0v1l.1.2h6.3l.1.1.1.1.1.2v.8Zm15.5 2.5-.1.1-.1.1v.3l-.1.2v.4a33.3 33.3 0 0 1-.4 1.2c0 .1-.1.1-.2 0v-.2l-.2-.2a7.8 7.8 0 0 1-.2-1.4c0 .2-.1.2-.2.3V82.4h-.1v.2h-.1v.1l-.1.2v.2l-.2.1-.1.2H92v.6l-.2.3v.4l-.1.1h-.1v-1.1h-.1v.2s0 .1 0 0l-.1-.2v-.3l-.2-.1-.2-.3-.1-.1v-.1l-.2-.1v-.1a10.8 10.8 0 0 1-.4-.9 16.3 16.3 0 0 0 0 .6h-.1v-.5a11.3 11.3 0 0 0-.2.1v.1l-.1.2v.1l-.1.1v.2l-.1.1v-.5h-.2v.9c0 .2 0 .2-.1.1l-.2-.3V82l-.1-.3h-.2v-.2a3.2 3.2 0 0 0-.3-.3l-.3-.4-.2-.4-.8-1.2v-.1l-.2-.3-.3-.3v-.1l-.2.2a5.2 5.2 0 0 1-.4.6l-.5.9-.5.8-.1.1-.1.2h-.1a16.5 16.5 0 0 0-.1.2l-.2.3v.2l-.3.3h-.4l-.3.2-.1.1h-.2V82l-.1-.4v.2l-.2.2h-.2v.4s-.1.1-.1 0V82.3h-.1l-.1.2v.3l-.2-.1v-.1l-.3-.3-.1-.2v-.2h-.1v-.1l-.2-.1h-.1l-.2.1-.1-.1H81v.1c-.2.2-.4.2-.5.2h-.2l-.2-.3v.1-.1H80v-.1.1l-.1.2v.1s-.1-.1 0-.2v-.2h-.2l-.2-.2v-.4l.1-.2.2-.2a1409.8 1409.8 0 0 1 .5-.8l1-1.5a7.5 7.5 0 0 1 .6-1 28.2 28.2 0 0 1 .8-1.3l.3-.5.5-.7.2-.4v-.1l-.2-.2v-.2l-.2-.1v-.2a333.3 333.3 0 0 1-.4-.5l-.1-.1-.2-.2-.4-.8a1409.8 1409.8 0 0 0-.5-.8l-1-1.6v-.2l-.2-.2-.2-.4a4.5 4.5 0 0 0-.3-.4l-.1-.5c0-.1.2-.3.4-.3H85l.2.3.2.2.2.3.1.2.2.3.2.5.3.4.1.2.2.4.1.1v-.1l.2-.1V70l.2-.2a12.4 12.4 0 0 1 .7-1.1v-.2h.1v-.1a83.3 83.3 0 0 1 .2-.3l.2-.2a1 1 0 0 1 .3-.3l.5-.1h4.1l.3.1c.1.2.2.3.1.5l-.1.3-.2.2-.5.8-1 1.7-.6 1-.5.7A12.2 12.2 0 0 0 90 74l-.1.3v.3l.2.1v.2l.2.2v.1l.2.3.2.3.2.2a13.6 13.6 0 0 1 1.1 1.8l1.1 1.7.4.5a16.2 16.2 0 0 0 .6 1v.4Zm-14.3.5.1-.2-.1.2Zm20.6-1.8v1.1l-.3.3v.2l-.2.3c0 .1 0 .2-.1.1l-.1-.1v-.2l-.1.1-.1.1v.1l-.3.3v.1l-.2.2v.2l-.1.1v.1h-.1a7 7 0 0 1-.1-.4l-.1-.1v-.1l-.2-.1-.2-.1v.2l-.1.1-.1-.1v-.2l-.1.1-.2.1v1a226.4 226.4 0 0 0-.4 2.8l-.1-.1V86a17.2 17.2 0 0 0-.1-.6v-1.7a6 6 0 0 0-.1-.6v.5c-.1-.3-.2-.4-.1-.6l-.1-.6-.1-.1-.1-.1-.3-.3-.2-.2h-.1v.3l-.1.2-.1-.2v-.4.1l-.1-.2h-.1c-.2-.1-.3-.3-.3-.6a4 4 0 0 1 0-.8V67.8l.1-.2h.2l.3-.1h4.2l.2.3.1.2v12Zm14.4-.6-.2.2-.2.2v.1h-.1l-.2.2-.1.1a19.4 19.4 0 0 0-.2.7v.3l-.1.4-.3.8v.4l-.3.4-.1.1a5.6 5.6 0 0 1-.1.3h-.1l-.1-.2v.1h-.1l-.1.2-.1.2h-.1l-.1.1h-.1v-.1l-.1-.2v-.1h-.1a17 17 0 0 0-.7-1.7h-.2l.1.7.1.6c0 .2 0 .3-.2.3s-.3-.1-.3-.3l.1-.6V82v.2l-.1.2-.1.2h-.1v.1l-.2.1a4.3 4.3 0 0 0 0 .9l-.1-.4-.2.1v-.7l-.1-.1-.3-.3-.2-.2a5 5 0 0 0-.4-.4h-.1v.2l-.1-.2c-1.3 0-2.5-.2-3.5-.6a4.8 4.8 0 0 1-2.8-3.2 2.3 2.3 0 0 1-.1-.3l-.1-.8V75l-.1-.8a27.2 27.2 0 0 1 .1-2.2l.3-1.2a5 5 0 0 1 3.2-3c1-.3 2-.5 3.2-.5h.5c1.1 0 2.2.3 3.1.7a5 5 0 0 1 2.6 2.2l.2.4a3.6 3.6 0 0 1 .3 1.4v.6l-.1.1-.1.2h-.1v.1h-.1v-.1h-.1l-.3.2-.2.2-.1.2h-.1l-.1.2-.2-.1c0-.1 0-.1 0 0h-.2l-.3.3h-.7a79.5 79.5 0 0 0-2-1v.2h-.1V73l-.1-.1-.1-.2-.2-.2-.2-.4-.2-.5h-.1v-.1h-.5c-.1 0-.2 0-.2.2l-.2.3-.1.2-.2.1V72l-.1-.4-.1.2-.1.1-.1.1h-.2l-.1-.1-.1-.2v-.1h-.1l-.2.2v.1l-.1.3-.1.5v4.2a9.1 9.1 0 0 1 .1.3l.6.4.8.1.8-.1a1.7 1.7 0 0 0 .4-.3l.2-.3V76.6l.2-.2.1-.2H111.1a1.5 1.5 0 0 1 .5 0H115.7l.1.3V77.2a4.7 4.7 0 0 1-1 2.2Zm-4.8 4.9v-.9.9Zm.2.4Zm-.2-.4v.2a1.6 1.6 0 0 0 0-.2Zm19.7-5.5-.2.3-.3.4-.4.4-.3.4v.7a14.5 14.5 0 0 1-.2 1.4v-1.2l-.1-.7-.3.4-.1.4a42 42 0 0 0-.5 1.4l-.1.4-.2.3-.2.1-.2-.2a7.8 7.8 0 0 1-.2-.4v-1.2l-.3.2s0 .2-.2.2v.1l-.1.1-.1.2v.1h-.2v-.2l-.1-.1-.2-.2a2.9 2.9 0 0 1-.2-.3 7 7 0 0 0 0 .4h-1l-.1.6v.7l-.1-.3v-.6l-.1-.6c0-.1 0-.1 0 0v.6h-.1v-.3l-.2-.6c-1.3 0-2.5-.3-3.4-.7a5 5 0 0 1-2.5-2.3 8 8 0 0 1-.2-.4V78l-.2-.3v-.2l-.2-.8V72h.1a5.2 5.2 0 0 1 1.2-2.7c1.2-1.3 3-2 5.4-2H124.8l.3.1h.4l.4.1c.1 0 .3 0 .5.2h.3c.2 0 .2.1.3.2.9.3 1.6.8 2.2 1.5l.5.8a6.1 6.1 0 0 1 .6 1.8v.8l.1.4V77.1l-.6 1.7Zm-7-1.4.3.3.5.1h.5a1.3 1.3 0 0 0 1-1V76l.1-.6V72.8a1.6 1.6 0 0 0 0-.4l-.1-.2-.2-.4-.3-.3-.2-.1h-.2l-.2.1-.2.2a16.3 16.3 0 0 0-.2.1v.2h-.4v-.2h-.2v-.1h-.1v-.2h-.1l-.2.1-.1.2-.2.5v3.3c0 .3 0 .6.2 1v.1a11 11 0 0 0 .4.7Z" fill="#51829B"/></g><defs><filter id="a" x="30.1" y="49.3" width="120.3" height="58.9" filterUnits="userSpaceOnUse" color-interpolation-filters="sRGB"><feFlood flood-opacity="0" result="BackgroundImageFix"/><feColorMatrix in="SourceAlpha" values="0 0 0 0 0 0 0 0 0 0 0 0 0 0 0 0 0 0 127 0" result="hardAlpha"/><feOffset dy="2"/><feGaussianBlur stdDeviation="10"/><feComposite in2="hardAlpha" operator="out"/><feColorMatrix values="0 0 0 0 0.960784 0 0 0 0 0.929412 0 0 0 0 0.929412 0 0 0 0.4 0"/><feBlend in2="BackgroundImageFix" result="effect1_dropShadow_116_130240"/><feBlend in="SourceGraphic" in2="effect1_dropShadow_116_130240" result="shape"/></filter></defs></svg>