<svg width="180" height="150" fill="none" xmlns="http://www.w3.org/2000/svg"><path clip-rule="evenodd" d="m68.8 51.5 1 2.2-2 .7.6 1.5 1-.7 1.2.7h1.2l1 2 1.1.1v-1.3l1.2-.6v-.8l1.2-3.1 1.4-2.1 5.8-2.1 3.8-3.6.9-2.4.6-.3-.2-1.2-1.8-2.1.5-.4 4.5 1.3.9 2.4 1.4.5 2.8 2.5.4 2.3 3.6.7 2.2-1.3 1.4 1.3 1.5-1.3 3.7 2.6-2.8 4 .7.4 1-.3 2 1.7-1.5.9-.5-.9h-2l-.5.8-4 .8-3.6 2-1.2 3.9-.2 1.6-2.7 3.3-.2.7 1 .8v1.4l3 4-.2.8-1.1.6.5.5h3.3l.7 2 3.7-.2 2.2-2.4.5.3-.3 6 4.2-.1 4 6.3-1.8 5.6.7 1.6-2.2 3.3 1.2 1.2-1.2 1.6.8 2 1.4-.2.2.9-2.6 4-.9 2.8-.7 1.5-1.9.3-4.2-2.6-.1-1.7-9.8-4.7L87 98l-2.3-3 .5-2.6L78 80.5l-3.2-7.8-3-5-3-3.3-3.7-2 .2-1 .6.1.2-1.3-1-1-.8-3 4.4-4.7Z" stroke="#F6995C"/><g filter="url(#a)"><path d="M75.7 73.3v.8l-.2.7c0 .2 0 .3-.2.5l-.1.2a5.2 5.2 0 0 1-.6.8l-.1.1a2.3 2.3 0 0 0-.3.3v.1l-.2.3-.1.4-.2.4v.2l-.2.1v.2h-.2a17.5 17.5 0 0 0 0 .7H73v-.3l-.2-.2-.1.2-.2.2v.8l-.1.7c0 .1-.1 0-.1 0a10.1 10.1 0 0 1 0-1.2V79a5.1 5.1 0 0 0-.3-.4l-.2-.2V78.7l-.1.7v1a20.3 20.3 0 0 1 0 1.5v.3l-.1.6a82.2 82.2 0 0 1-.2.3v-.7l-.1-.6V81a346.7 346.7 0 0 0-.2-2.6l-.1-.1-.1-.1-.1-.2-.4.3h-.1v-.1a17.5 17.5 0 0 0-.2.9l-.1.2-.2 1-.1.2a2.5 2.5 0 0 1-.2.3v.2l-.2-.1a2.3 2.3 0 0 0-.2-.3v-.1l-.1-.9a9.5 9.5 0 0 0 0-.8H69l-.1-.2-.3-.2-.1-.3-.2-.1V81a3.3 3.3 0 0 1 0 .7v.1l-.1.1-.2.2-.2.3h-.1v.1l-.1.6v.9l-.1.3v.2h-.1v-.2l-.1-.5a3.8 3.8 0 0 0-.1-1l-.2.3h-.1v.1h-.2v.2h-.2V83h-.1l-.1-.2-.2-.1-.1-.3h-.1v-.1l-.1.1-.3.4-.4.2-.2-.1v-.5l-.1.2h-.1v.2h-.1c0 .1 0 .1-.1 0v-.2h-.1l-.1-.1-.1-.2v.2H64l-.3-.2h-.1v-.1h-.1l-.2-.1a.5.5 0 0 1-.2-.5v-13l.1-.2.2-.2h7a11.5 11.5 0 0 1 2.2.3l.4.2a44.8 44.8 0 0 0 1.3.8l.5.5v.2l.2.1.1.2.1.2.4 1.1.1 1.3v.1ZM68.2 72v1.8l1-.5 1.3-.2a1 1 0 0 0-.3-.9L70 72h-1.6l-.2-.1Zm20.5 7.6a25.7 25.7 0 0 0 0 1.9v.4l-.1.2a83.3 83.3 0 0 1-.4.5H88l-.2.3-.2.3-.2.2-.1.2-.2.2a.8.8 0 0 1-.3.2l-.1.1-.1.1h-.2a1.3 1.3 0 0 1-.2-.2l-.2.2v2.2c0 .1 0 .2-.2.3l-.1-.3v-.5a556.4 556.4 0 0 0 0-1.8l-.2-.2a9.1 9.1 0 0 0-.3-.6l-.3-.6-.1-.1v-.2h-.1v.5h-.1v.1-.4l-.2.2-.1.3a3.3 3.3 0 0 1-.5.8v.4a2.6 2.6 0 0 1-.1.5v.2a65.2 65.2 0 0 0-.2-.4v-.4l-.1.1a2.8 2.8 0 0 0 0 .6s0 .1 0 0c-.1 0-.2-.2-.1-.3V84v.1l-.1.3v-.2L83 84s0-.1-.1 0l-.2.1-.2.3v.6a87.3 87.3 0 0 0 .1 1.4c0 .1-.1.2-.3.2l-.2-.3v-.7a74.2 74.2 0 0 0 .1-1.3v-.1l-.2-.1c0-.2 0-.4-.2-.5l-.3-.6a19.9 19.9 0 0 1 0-.2 4.1 4.1 0 0 0-.5-.2H81c0 .2-.2.3-.2.3h-.1v.1a30 30 0 0 0-.2 2.9l-.1-.7a28.8 28.8 0 0 1 .1-1.7c0-.2 0-.5-.2-.6l-.3-.4-.1-.1-.1-.2-.2.2h-.2v.4l-.2 1a11.9 11.9 0 0 1-.2 1 1 1 0 0 1-.1-.5v-.7c.1-.2.2-.4.1-.5 0-.1 0-.1-.2 0-.2 0-.3 0-.5-.2a30.2 30.2 0 0 1-.2-.2v.5a13 13 0 0 1 0 1.1c0 .1 0 .1-.1 0a1 1 0 0 1-.2-.5l.1-.7v-.6.8l-.1-.1v-.5l-.1-.6h-.2a.5.5 0 0 1-.2-.5V68.8l.1-.3.2-.2h10.8l.1.2.1.3v3a239319501456.6 239319501456.6 0 0 0-.4.4h-.8a1 1 0 0 0-.5.2l-.2.1h-.2l-.2.1-.2.1-.2.1h-.4v-.1h-.2c0 .1 0 .2-.2.2l-.2.1H84s-.2 0-.3-.2a646.7 646.7 0 0 1-1.1-.5l-.5-.1v1.2h5.3a1 1 0 0 1 .5.1l.2.1v.2a117.8 117.8 0 0 0 .1.5V76.8l-.3.3-.3.1h-.3l-.3.3a1 1 0 0 1-.3.1 6.7 6.7 0 0 1-.5.1H86a277.6 277.6 0 0 1-.9.2h-.4l-.2-.1h-.7l-.3-.1-.3-.2a8.4 8.4 0 0 0-.9-.4 2 2 0 0 0-.2 0v1.3h6.5v.1h.1v.2l.1.2v.7Zm14.8 2.2v.2l-.1.1-.1.1a11.4 11.4 0 0 1-.2.4l-.3.5a37.8 37.8 0 0 1-.4.7l-.1-.6v-.6h-.2l-.1.1v.1h-.2l-.2-.2v-.2l-.1.3v.4l-.1-.2v-.4h-.1v.1l-.1.1h-.1a53.6 53.6 0 0 1-.3.6V83l-.1-.2-.1.1-.1.1-.1.2-.1.1h-.1a136.5 136.5 0 0 1-.3.7v-.7l-.1-.1-.2-.2V83l-.2-.1-.2-.1-.1-.1-.1.5v.6h-.1v-.2l-.1-.2h-.1l-.2-.4v-.5.2V82.3h-.1l-.1-.3h-.1v-.2H98v-.2l-.2-.1v-.2l-.2-.3a7 7 0 0 0-.3-.7l-.2-.5v-.1l-.3-.5V79l-.2-.3v-.2h-.1v-.2l-.1-.1V78l-.2-.1-.1.2v.2H96l-.2.2-.2-.2V78l-.2-.2V82h-.1v.1l-.2.1v.1l-.1.1-.1.1v.4a2.5 2.5 0 0 1-.2.5v.1h-.1v-.1l-.1-.1V83l-.1-.1v-.2l-.2.2h-.1a21.3 21.3 0 0 0 0 2.7s0 .1-.2 0v-.8a517.9 517.9 0 0 1-.1-1.8l-.1-.1-.1-.2-.1-.1v-.2h-.1l-.1.1h-.5l-.2-.2h-.2l-.2.2h-.4l-.1-.1a65.2 65.2 0 0 1-.6 0 13.6 13.6 0 0 1-.4-.2.5.5 0 0 1-.3-.5V68.8a.5.5 0 0 1 .4-.5H98a7.2 7.2 0 0 1 3.3 1.1l.2.2h.1c.5.5.9 1 1.1 1.5.3.6.4 1.3.4 2l-.1 1.3-.2.5-.3.5a4 4 0 0 1-.4.7l-.2.2-.2.2h-.1v.9l.2 1.1v.1l.1.2.4.8.5.9a11.5 11.5 0 0 0 .6 1.2v.1Zm-7.8-7.7h1.6l.3-.3.2-.4a1.1 1.1 0 0 0 0-.4v-.5l-.3-.3-.2-.1H95.7V72h-.2v2l.2.1Zm5.7 3.7v-1.1V77l-.1.1h-.1l-.1-.1h-.1v.2l.1.1.3.5Zm-2.7 5v-.1c.1 0 0-.1 0-.2V82.8Zm14.4 1.1v.1h-.1v-.1h-.1l-.4-.5a4 4 0 0 0-.4-.4l-.1-.1-.1-.1a83.3 83.3 0 0 1-.2 0l-.1.1h-.2v-.1.4l-.1.4V83l-.1-.3v-.2h-.2a10.5 10.5 0 0 1-1.6-.2h-.2l-.5-.2a8 8 0 0 1-1.8-.8l-.3-.3h-.2l-.1-.2h-.1a5 5 0 0 1-.9-1.4 6 6 0 0 1-.4-2.4v-8.2c0-.3.1-.5.4-.5h4.3l.2.2V76.8l.2.8c.1.3.3.5.5.6v.1a56.2 56.2 0 0 0 .8.1h.7l.2-.2.3-.3.2-.3V76.7l.1-.6v-7.5l.1-.1.2-.2h4.3l.3.1.1.4v9l-.1.5v.4l-.3.6-.2.5-.2.2c0 .2-.2.4-.3.5l-.2.1v.1l-.2.2-.1.1-.1.1-.2.3v.3a3.2 3.2 0 0 1-.4.7l-.3.2v.1-.5l-.2.3-.2.2-.1.3v.4l-.1.2h-.1V82.6h-.1v-.1h-.1v-.1h-.1v-.1h-.2l-.2.1v.2a6.7 6.7 0 0 1-.4 1l-.1.1-.2.1Z" fill="#51829B"/></g><defs><filter id="a" x="43.1" y="50.2" width="94.8" height="58.5" filterUnits="userSpaceOnUse" color-interpolation-filters="sRGB"><feFlood flood-opacity="0" result="BackgroundImageFix"/><feColorMatrix in="SourceAlpha" values="0 0 0 0 0 0 0 0 0 0 0 0 0 0 0 0 0 0 127 0" result="hardAlpha"/><feOffset dy="2"/><feGaussianBlur stdDeviation="10"/><feComposite in2="hardAlpha" operator="out"/><feColorMatrix values="0 0 0 0 0.960784 0 0 0 0 0.929412 0 0 0 0 0.929412 0 0 0 0.4 0"/><feBlend in2="BackgroundImageFix" result="effect1_dropShadow_116_130266"/><feBlend in="SourceGraphic" in2="effect1_dropShadow_116_130266" result="shape"/></filter></defs></svg>