<svg width="180" height="150" fill="none" xmlns="http://www.w3.org/2000/svg"><path d="m54 65.6.2-.4-.2-.1h-.2l.2.5Zm.9.4-.2.5.4.1.2-.3-.4-.3Zm-3.5.5-.1-.5H51l.3.5ZM49.7 68l-.4-.3-.2.2v.3l.6-.2Zm.3 1.5.4.4.2-.2v-.3l-.6.1ZM48.7 71l-.3-.3h-.1v.2l.4.1Zm-.4 2.1-.2.5.6.2.1-.6h-.5Zm-1.5-.6.2-.5-.3-.1-.3.2.4.4Zm-.8 1-.4-.4-.3.3.3.4.4-.4Zm1 1.1.4.2.1-.3-.1-.2-.4.3Zm-1 3-.4-.1-.1.1v.2l.5-.2Zm1.3 4.2.3.4.3-.2-.1-.4-.5.2ZM45.4 83l-.3.4.3.3.3-.3-.3-.4Zm-.8-.9.3-.3-.2-.3-.4.2.3.4Zm-2.2 1v.6h.2l-.2-.5ZM40 83l.1-.5-.6-.1v.6h.5Zm0 4.3h-.5v.2l.1.1.4-.3Zm2 2.4h.4v-.2l-.5.2Zm0 1.6h-.5v.3h.2l.3-.3Zm1 .8h.4v-.2l-.1-.2-.4.4Zm.3 3.9h-.5v.5h.5v-.5Zm1.3-.1v.5h.4V96l-.4-.2Zm1.8-4.4-.2-.5-.2.1v.2l.4.2Zm1.5-.8.3-.5-.3-.1-.2.1.2.5Zm1.8.8-.2.5.5.3.2-.7h-.5Zm.7-4-.2-.4-.2.2v.2h.4Zm2.3-1.4.4-.2-.2-.6-.5.4.3.4Zm.3 1-.4.2.1.5.5-.1-.2-.5Zm1.2-.3v-.5H54l.2.5Zm2.9.5.4-.2v-.3H57v.5Zm1.4 3.4-.4.2v.3h.3l.1-.5Zm2.2.6.5-.2-.1-.2h-.3v.4Zm.7 1.6-.5.2.1.2h.3v-.4Zm2.4.1v.5h.8l-.3-.7-.5.2Zm-.8-1.7-.1-.5-.6.2.3.5.4-.2Zm1.5-.4.1.5h.1l.1-.1-.3-.4Zm1-1 .2-.6h-.3l-.2.1.4.4Zm6.3 1 .3-.5H72l-.2.4Zm1.5.7h.5v-.3l-.2-.1-.3.4Zm0 1.3h-.6v.2l.1.2.4-.4Zm1.3 1.7-.4.3.2.2h.2v-.5Zm2.6 0 .5-.2-.1-.4h-.4v.5Zm1.3 5.1-.5.2v.2l.3.1.2-.5Zm1.8.7-.2.4h.1l.1-.4Zm1.8.2.4-.3-.1-.2h-.2l-.1.5Zm.9 1.4-.5.3.2.1.3-.4Zm2.3 1.6-.3.4.2.2.3-.1-.2-.5Zm4-2 .1-.4h-.2l.2.5Zm2.1.3.4-.3v-.2h-.3v.5Zm.5.8-.4.3.1.2h.3v-.5Zm3.5.1v.5h.8l-.4-.7-.4.2Zm-.7-1.4-.3-.3-.2.2v.3l.5-.2Zm1.3-1.6.1-.4-.3-.2-.2.3.4.3Zm2.4 1 .3-.4h-.1l-.2.4Zm1.9 1.3-.3.4.3.2.3-.2-.3-.4Zm1.3-1v-.5h-.2l-.1.1.3.4Zm2.5.3.3-.5h-.2v.5Zm1.2.7-.2.5H105.4v-.5Zm2.5-.2.1.4h.2l.1-.1-.4-.3Zm2.2-2.3V99h-.3l-.1.2.4.3Zm3.7-.3v.5h.5v-.4h-.5Zm.6-4.3h.5v-.2l-.2-.2-.3.4Zm-1.1-1-.3-.3-.5.4.5.4.3-.4Zm2-1.7v-.4h-.2l.3.4Zm2.4-.6.3-.3-.2-.2h-.2v.5Zm4 3.5-.4.4.3.2.3-.1-.2-.5Zm1.1-.5v-.5h-.2l.2.5Zm1.8 0 .4-.3-.2-.2h-.2v.5Zm.8 1-.5.3.2.2h.3v-.5Zm1 0v.5h.3l.2-.2-.4-.3Zm2-2.7h.5l-.3-1.1-.6.8.4.3Zm1.2 4.8.2.5.4-.2-.1-.4-.5.1Zm-1.3.5-.2-.4h-.2v.3l.4.1Zm-.3 1.4-.5-.1v.2l.2.2.3-.3Zm1.2 1.2h.5v-.2l-.1-.1-.4.3Zm0 1.3h-.4v.5h.5v-.5Zm1 0v.6h.5v-.5h-.5Zm0-1.2-.2-.5-.3.1v.4h.5Zm2.1-.8.2.5.3-.1v-.3l-.5-.1Zm.7-4 .5.1V96h-.5Zm-.9-7.4h.5v-.3h-.1l-.4.3Zm-1.8-1.9-.3-.4-.5.4.5.4.3-.4Zm1-.7.4-.3-.3-.3-.4.2.3.4Zm4.1 4.5-.3.3.5.6.3-.7-.5-.2Zm.4-.9-.2-.4h-.2v.2l.4.2Zm1-.3.1.4 1.4-.5-1.4-.4-.2.5Zm-1.7-.5-.4.3v.2h.3V89Zm-1.4-2h-.5v.1l.5-.2Zm-.2-1.3.4-.1v-.2h-.1l-.3.3Zm-5.3-4.1.3-.4-.6-.5-.2.8h.5Zm-.3 2-.1.4.5.1v-.5h-.4Zm-2-.5.1-.5h-.4l-.2.4.5.1Zm-.4 1.7.1.5.3-.1.1-.3-.5-.1Zm-2.4.5h-.5v.6l.6-.1-.1-.5Zm-.1-9-.4-.3-.1.2v.2h.5Zm2.6-2.4.3.3h.1v-.2l-.4-.1Zm.4-1.6v-.5h-.4v.3l.4.2Zm1.2 0v.6h.3l.2-.3-.5-.2Zm1-1.7.5.2.2-.2-.2-.3-.4.3Zm-1.8-3.2-.5-.1V67.5l.5-.2Zm.4-1.8.3-.4-.6-.3-.1.6.4.1Zm1.3.7-.2.4.3.2.3-.3-.4-.3Zm.6-.6.3.4.3-.2-.1-.3-.5.1Zm-.6-1.3v-.5h-.7l.3.7.4-.2Zm1.4 0 .5-.2-.2-.4h-.4v.5Zm1.6 6.1-.5.2.1.1.4-.3Zm1.1 1.5-.3.3.3-.3ZM136 74l-.3.4.1.1.2-.5Zm3.2.8-.1.5 1 .3-.4-1-.5.2Zm-2.3-5.4.5-.2-.5.2Zm-1.6-2.2.5-.3h-.1l-.2-.1-.2.4Zm-3-1.3-.3.4.2.1.2-.5Zm-1.3-1.6-.4-.2-.1.3.1.2.4-.3Zm.7-2 .4.1V62.2l-.4.2Zm-.4-1.4-.3-.4-.3.2.1.4.5-.2Zm1-.7.3.4.3-.2-.2-.4-.4.2Zm-2.6-5.5-.3-.4-.3.3.1.3.5-.2Zm1-.8.2.4.3-.2-.1-.3-.5.1Zm-.3-1 .5-.1-.1-.5-.5.1.1.5Zm-2.7.4-.5.2.2.4h.4l-.1-.6Zm-.7-1.5.5-.2-.1-.2h-.2l-.2.4Zm-1.6-.5-.3-.4-.7.6.8.3.2-.5Zm2-1.7.3.4V50l-.4-.3Zm.9-1.7.4.3.2-.4-.3-.2-.3.3Zm-2.3-2 .4-.4-.5-.4-.3.6.4.2Zm-1.4 2.8.3.3.1-.1-.4-.2Zm-4.2 3.4-.3-.4-.1.1v.2l.4.1Zm-1 3.7-.5-.1h.4Zm-.8 3.9.2.4h.2v-.3l-.4-.1Zm-1.2.6-.4.3.2.3.4-.1-.2-.5Zm-.7-1 .4-.3-.2-.3-.4.1.2.5Zm-1.5.5-.1-.5h-.3v.4h.4Zm-.4 2.1v.5h.4l.1-.4-.5-.1Zm-2.4.3v-.5h-.1l.1.5Zm-2.6 1-.4.4.2.3.4-.1-.2-.5Zm-1-1.4.4-.3-.4.3Zm-.9-1-.1-.5-.7.2.4.5.4-.3Zm1.5-.6.2.5.4-.2-.1-.4h-.5Zm-.2-1.1.4-.1-.1-.7-.6.4.3.4Zm-2.3 1.2.3.5-.3-.5Zm-1.9 1-.2-.4-.4.2.2.4.4-.2Zm.6 1.5-.4.2.1.4.5-.1-.2-.5Zm2.3-.6.5-.1-.1-.5h-.5l.1.6Zm.2 1-.4.1v.2l.4-.3Zm1 1 .3-.3v-.1l-.4.3Zm1 1.3.3.4.3-.3-.2-.3-.4.2Zm-3.4 3-.4.3.3.3.4-.3-.3-.4ZM105 67l.4-.4-.2-.2h-.3l.1.6Zm-2.2.4v-.4h-.1l.1.4Zm-3.3 1.2v.5h.2l-.2-.5Zm-1.3-.2-.4.3.1.2h.3v-.5Zm-.5-1h-.5V67.8l.5-.2Zm.4-1.6h.5v-.2l-.2-.2-.3.4Zm-1.2-1 .3-.3-.1-.2H97v.6Zm-.8.1-.4.4.2.1h.2V65Zm-1.3-1.3-.5-.1v.2l.1.2.4-.3Zm.2-1.2.5.1.1-.3-.3-.2-.3.4Zm-1.3-.8-.5.3.2.1.3-.4Zm-.8-1.1h-.5v.2l.5-.2Zm-.4-1.6.5-.1-.2-.7-.6.4.3.4Zm-1.2.8-.3-.4-.3.2.1.4.5-.2Zm.4 1.3h.5V61l-.5.1Zm0 1h-.6v.4l.3.1.2-.4Zm1.7.8.5-.1v-.3h-.3l-.2.4Zm.7 2.6.2.4.4-.1-.1-.4h-.5ZM89 67.7l-.2-.4-.4.1v.4h.6Zm.2 1.3v.5h.5V69h-.5Zm-2.4.5-.1-.5h-.4v.4h.5Zm-.3 1.2v.5h.4v-.4h-.4Zm-1 0v-.5h-.2l.2.5Zm-1 .3-.3.5h.4l-.2-.5Zm-1.5-.7-.5.1.1.2h.2l.2-.3Zm-.6-2 .5-.2-.2-.7-.6.5.3.3ZM80 70.1l-.3-.4-.1.1v.2l.4.1Zm-.6 2.2.1.5h.3l.1-.4h-.5Zm-1 .2-.4.3.2.3h.4l-.1-.6Zm-1-1.9.5-.2-.2-.3h-.3v.5ZM76 71l-.2.4h.2V71Zm-2.7-1.3.2-.5h-.1l-.1.5Zm-3.8-.6-.3.4H69.4V69Zm-1.1-1 .3-.3-.2-.2h-.2v.6Zm-1.2.3-.2.5H67.2l-.1-.5Zm-1.6-.5.2-.5H65.4l.1.5Zm-1.4.3-.3.4.2.1h.2L64 68Zm-1.2-.9.3-.4-.2-.1h-.3l.2.5Zm-1 .4-.5-.1-.2.9 1-.3-.3-.5Zm.5-2.3-.3-.3H62v.2h.4Zm1.7-2 .5-.2-.3-.9-.5.7.3.3Zm1.2 3.3-.5.2.2.4.4-.1-.1-.5Zm2.2-.7.2.5.4-.1v-.4h-.6Zm-.4-4.4-.5-.1v.2h.5Zm.3-1h.5l.2-.5h-.6v.4Zm-2.3-.3v-.5H64.8l.3.5Zm-6.4 5v.6h.2l.1-.1-.3-.4Zm-3.2-.2v-.5h-.2l-.2.2.4.3Zm18.8 1.4-.3-.5-.4.2.2.4.5-.1Zm6.7-3.6v-.5h-.2v.1l.2.4Zm-6 5.7-.4.2.1.3h.3v-.5Zm1.7 0v.6h.3l.1-.3-.4-.2Zm1-2.6-.2-.4h-.2v.2l.4.2Zm3.2-1.5v-.5h-.2l.2.5Zm3 0v.4h.3l.2-.2-.5-.3Zm.8-1.4.5.2.4-.7h-.8v.5Zm-31 3 1 .5.4-1-1-.3-.3.9Zm-2.1 1 2.5-.9-.3-1-2.5.9.3 1ZM50 68.4l1.8-1.7-.7-.7-1.8 1.7.7.7Zm.5 1-.4-1.5-1 .3.4 1.5 1-.3Zm-1.4 1.8 1.3-1.3-.7-.7-1.3 1.3.7.7Zm-.3 1.8.4-2-1-.3L48 73l1 .2Zm-2.2-.3 1.5.7.4-1L47 72l-.4 1Zm-.3.9.9-1-.8-.7-.8 1 .7.7Zm1 .5-1-1.2-.7.7 1 1.2.8-.7Zm-.8 3.5 1-3-1-.3-1 3 1 .3Zm1.3 3.8-1.3-4.1-1 .3 1.3 4.1 1-.3Zm-2 2 1.8-1.4-.6-.8-1.9 1.3.6.8Zm-1.6-1 .9.9.7-.7-.9-1-.7.8Zm-1.6 1.1 2.2-1-.5-1-2.1 1.1.4 1Zm-2.6-.2 2.3.3.2-1-2.4-.3-.1 1Zm.5 3.8v-4.3h-1v4.3h1Zm1.8 2.1-2-2.4-.7.6 2 2.4.7-.6Zm.2 1.9v-1.6h-1v1.6h1Zm.8.4-1-.8-.6.8 1 .8.6-.8Zm.5 4.2-.4-3.8h-1l.4 3.9h1Zm.8-.5h-1.4v1h1.5v-1Zm1.3-4.1-1.7 4.4.9.4 1.8-4.4-1-.4Zm1.8-1-1.5.7.4 1 1.6-.9-.5-.9Zm2.2.8-1.7-.9-.5.9 1.8.9.4-1Zm0-3.6-.7 4 1 .1.7-4-1-.1Zm2.5-1.8L50.2 87l.5.9 2.2-1.5-.5-.8Zm1.1 1.3-.4-1-1 .2.5 1.1 1-.3Zm.5-.6-1.1.3.3 1 1.1-.4-.3-1Zm3.1.4-2.9-.5-.1 1 2.9.5.1-1Zm1.9 3.7L57.5 87l-.9.4 1.5 3.4.9-.4Zm1.8.3-2.1-.5-.3 1 2.2.5.2-1Zm1 1.9-.6-1.6-1 .4.7 1.6 1-.4Zm2-.2-2.4-.1v1l2.4.1v-1Zm-1.2-1 .7 1.7 1-.4-.8-1.7-1 .4Zm1.7-1-1.4.3.3 1 1.4-.4-.3-1Zm1-1-1.2 1 .7.8L66 90l-.7-.8Zm6.6.8-6.2-1-.2 1 6.3 1 .1-1Zm1.7.9-1.5-.8-.5.9 1.5.8.5-1Zm.1 1.8.1-1.3-1-.1v1.3h1Zm1.3 1.3-1.4-1.7-.8.7 1.4 1.6.8-.6Zm2.2-.3-2.6.1v1h2.6v-1Zm1.7 5.6-1.2-5.2-1 .2 1.3 5.3 1-.3Zm1.6.3-1.9-.6-.3 1 1.8.5.4-.9Zm1.7.2-1.8-.2-.2 1 1.8.2.2-1Zm1.2 1.6-.9-1.4-.8.5.8 1.5.9-.6Zm2.1 1.5-2.3-1.6-.5.8L85 104l.5-.8Zm3.7-2-4.2 2 .5.9 4-2-.3-.9Zm2.3.2-2-.2-.2 1 2 .2.2-1Zm.8 1-.5-.8-.8.6.5.8.8-.6Zm3.1 0L92 102v1l3.5.1v-1Zm-1.1-.8.6 1.4 1-.4-.7-1.4-1 .4Zm1.3-2-1.2 1.5.7.6 1.3-1.6-.8-.6Zm3 .7-2.5-1-.3 1 2.4 1 .4-1Zm2 1.4-2-1.3-.5.8 1.9 1.3.5-.8Zm.7-1-1.3 1 .6.8 1.3-1-.6-.8Zm2.9.2-2.6-.3v1l2.5.3v-1Zm1.4.8-1.2-.8-.5.9 1.2.8.5-.9Zm2.2-.3-2.5.2v1l2.6-.3-.1-1Zm1.8-2.1-2.1 2.2.7.7 2.1-2.3-.7-.6Zm4.1-.5-3.8.3v1l3.9-.3-.1-1Zm0-3.9-.5 4.3 1 .2.6-4.3-1-.2Zm-.8-.4 1 .9.7-.8-1.1-.9-.6.8Zm2-2.5-2 1.7.6.8 2-1.8-.6-.7Zm2.6-.7-2.4.6.3 1 2.3-.7-.2-1Zm4.4 3.6-4-3.5-.6.7 4 3.5.6-.7Zm.6-.7-1.1.6.4.9 1.1-.6-.4-.9Zm2 0h-1.8v1h1.8v-1Zm1.2 1.2-.8-1-.8.6.8 1 .8-.6Zm.7-.2h-1.2v1h1.2v-1Zm1.5-2.5-2 2.7.9.6 1.9-2.7-.8-.6Zm2.1 5-1.2-4.8-1 .3 1.2 4.7 1-.2Zm-1.6 1 1.3-.4-.4-1-1.3.6.4.9Zm0 1 .3-1.3-1-.2-.3 1.4 1 .2Zm1 .9-1.1-1.3-.7.7 1.1 1.3.8-.7Zm.3 1.6-.1-1.3h-1v1.4l1-.1Zm.4-.4h-.9v1h.8l.1-1Zm-.5-.8v1.3h1v-1.3h-1Zm2.5-1.3-2.2.8.4 1 2.1-.8-.3-1Zm.3-3.5-.6 4h1l.6-3.9-1-.1Zm-.9-7.4.9 7.5 1-.1-.9-7.5-1 .1Zm-1.6-1.5 1.8 1.8.7-.7-1.8-1.8-.7.7Zm1-1.5-1 .7.6.9 1-.8-.6-.8Zm4.8 4.6-4.1-4.5-.8.7 4.2 4.4.7-.6Zm-.4-.8-.4.9.9.4.4-.8-1-.5Zm1.2-.6-1 .4.4 1 1-.5-.4-.9Zm-1.6.5 1.6.5.3-1-1.7-.5-.2 1Zm-1.7-2.3 1.4 2.1.8-.5-1.4-2.2-.8.6Zm-.3-1.4.2 1.2 1-.2-.3-1.2-1 .2Zm-5-3.8 5.1 4 .7-.7-5.3-4.1-.6.8Zm.4 1.6.3-2-1-.1-.3 2 1 .1Zm-2.6 0 2 .4.2-1-2-.4-.2 1Zm.2 1.3.4-1.6-1-.3-.4 1.7 1 .2Zm-2.8.9 2.4-.5-.2-1-2.4.5.2 1Zm-.7-9.4v8.9h1v-9h-1Zm2.7-2.9-2.6 2.5.7.7 2.6-2.5-.7-.7Zm.3-1.4-.4 1.7 1 .2.4-1.6-1-.3Zm1.8-.2-1.3-.1v1h1.2v-1Zm.5-1.6-1 1.8.9.5 1-1.8-.9-.5Zm-1.8-2.7 1.8 3.2.9-.5-1.9-3.2-.8.5Zm.4-2-.5 1.7 1 .2.4-1.7-1-.3Zm2 .2-1.3-.6-.5.9 1.3.6.5-.9Zm0-.4-.6.5.7.7.5-.5-.7-.7Zm-.7-.8.5 1.3 1-.3-.6-1.4-1 .4Zm1.7-.8-1.3.1v1h1.4v-1Zm2.2 6.6-1.6-6.2-1 .3 1.6 6.2 1-.3Zm1 1.2-1.1-1.4-.8.6 1.2 1.5.7-.7Zm3.6 2.2-3.7-2.3-.5.9 3.7 2.2.5-.8Zm3.1.7-3.2-.8-.3 1 3.3.8.2-1Zm-2.8-4.7 2.3 5.4.9-.4-2.3-5.4-1 .4Zm-1.6-2 1.6 2.1.8-.6-1.5-2.2-.9.6Zm-2.7-1.2 3 1.3.3-1-3-1.2-.3.9Zm-1.6-1.8 1.4 1.7.8-.7-1.4-1.6-.8.6Zm.6-2.5-.6 2 1 .3.5-2-1-.3Zm-.4-1 .4 1.3 1-.3-.4-1.3-1 .3Zm1.2-1.3-1 .7.6.8 1-.7-.6-.8ZM129 55l2.6 5.5 1-.4-2.7-5.5-.9.4Zm1-1.3-.8.7.6.8 1-.8-.7-.7Zm-.3-.6.2 1 1-.2-.2-1-1 .2Zm-2.1.8 2.7-.4-.2-1-2.7.5.2 1Zm-1.2-1.8.6 1.5 1-.4-.7-1.5-1 .4Zm-1.4-.2 1.7.5.3-1-1.7-.5-.3 1Zm1.8-2.5-2 1.6.7.8 2-1.7-.7-.7Zm.9-1.6-1 1.7.9.5 1-1.7-1-.5Zm-2.2-1.4 2.3 2 .6-.7-2.2-2-.7.7ZM125 49l1.5-2.8-.9-.4-1.5 2.7 1 .5Zm-4.3 3.6 4.2-3.5-.6-.7-4.2 3.4.6.8Zm-.9 3.4 1-3.7-.9-.2-1 3.7 1 .2ZM119 60l.8-4-1-.1-.7 3.9 1 .2Zm-1.4 1 1.2-.7-.5-.8-1.2.6.5.9Zm-1.3-1.2.7 1 .8-.6-.7-1-.8.6Zm-1 .7 1.5-.5-.3-1-1.4.5.3 1Zm0 1.7.4-2.1-1-.2-.4 2.1 1 .2Zm-2.8.7 2.4-.3-.1-1-2.4.3v1Zm-2.5 1 2.6-1-.4-1-2.6 1.1.4 1Zm-1.6-1.6 1 1.5.8-.6-1-1.5-.8.6Zm-.9-1 .9 1 .8-.6-.9-1-.8.5Zm1.7-1.4-1.4.6.3.9 1.5-.5-.4-1Zm-.5-.5.2 1.1 1-.2-.3-1.1-1 .2Zm-1.5 1.6 2.2-1.3-.5-.8-2.2 1.2.5.9Zm-2 1 2-1-.5-.9-2 1 .5.9Zm.9.8-.6-1.5-1 .4.7 1.5.9-.4Zm1.7-1-2.3.7.3 1 2.2-.6-.2-1Zm.8 1.5-.2-1-1 .2.3 1 1-.2Zm.8.7-.9-1-.7.8.9.9.7-.7Zm1 1.5-1-1.4-.8.5 1 1.4.9-.5Zm-3.4 3.5 3.4-2.9-.7-.7-3.4 2.9.7.7Zm-2.1-1.5 1.4 1.5.7-.7-1.4-1.5-.7.7Zm-1.7.6 2.1-.4-.2-1-2.2.5.3 1Zm-3.3 1.2L103 68l-.3-1-3.4 1.2.4 1Zm-1.5-.2 1.2.2.2-1-1.3-.2-.1 1Zm-1-1.2.6 1 .9-.5-.5-1-1 .5Zm.4-2-.4 1.7 1 .2.4-1.7-1-.2Zm-1-.5 1.1 1 .7-.8-1.2-1-.6.8Zm-.5.2h.9l-.1-1H96l.1 1ZM94.5 64l1.3 1.4.7-.7-1.3-1.4-.7.7Zm.2-1.6-.3 1.2 1 .2.2-1.2-1-.2Zm-1.2-.3 1.4.9.5-.9-1.4-.8-.5.8Zm-1-1.3.8 1.2.9-.6-.8-1.1-.8.5Zm-.4-1.7.4 1.6 1-.3L93 59l-1 .2Zm-.4 1.1 1.2-.8-.6-.8-1.2.8.6.8Zm.6.8-.4-1.4-1 .4.5 1.3 1-.3Zm0 1.2v-1l-1-.1v1l1 .1Zm1.4.3-1.8-.8-.4 1 1.8.7.4-1Zm1 2.9-.7-2.6-1 .2.7 2.6 1-.2Zm-5.5 2.8 5.2-2.3-.4-.9-5.2 2.3.4.9Zm.5.8-.2-1.3-1 .1.2 1.3 1-.1Zm-2.8 1 2.4-.5-.2-1-2.4.5.2 1Zm0 .8.4-1.2-1-.2-.3 1.2 1 .2Zm-1.4.4h1v-1h-1v1Zm-.9.3 1-.3-.3-1-1 .4.3 1Zm-1.8-.8 1.4.8.5-.9-1.4-.8-.5.9Zm-.8-2.3.5 2 1-.3-.6-2-1 .3Zm-1.6 2.2 2.3-2-.6-.7-2.4 2 .7.7Zm-.5 2 .6-2.3-1-.2-.5 2.2 1 .2Zm-1.3.5 1-.2-.3-1-1 .2.3 1ZM77 71l1 1.9.9-.5-1-2-.9.6Zm-1 .4 1.5-.2-.1-1-1.5.2v1ZM73 70l2.7 1.3.5-.9-2.8-1.3-.5 1Zm-3.6-.5 3.7.6.1-1-3.7-.6-.1 1Zm-1.4-1 1.1.9.7-.8-1.2-1-.6.9Zm-.8.3 1.2-.2-.2-1-1.2.3.2 1Zm-1.8-.5 1.5.5.3-1-1.5-.5-.3 1Zm-1.2.3 1.4-.3-.2-1-1.4.3.2 1Zm-1.6-1 1.2.9.6-.8-1.2-.9-.6.8Zm-.5.5 1-.4-.4-1-1 .4.4 1Zm-.2-3-.5 2.4 1 .2.5-2.3-1-.2Zm1.9-2.2L62 65l.7.7 1.7-2-.7-.7Zm2 3.6L64.6 63l-1 .3 1.2 3.4 1-.3Zm1.6-1L65 66l.3 1 2.3-.7-.3-1Zm-.8-3.9L67 66l1-.1-.4-4.4-1 .1Zm.3-1.3-.3 1.1 1 .3.3-1.1-1-.3Zm-1.9.4 2.4.2v-1l-2.3-.2v1Zm-6 5 6.4-5.1-.6-.8-6.4 5.1.6.8Zm-3.5-.2 3.2.3v-1l-3.1-.3-.1 1Zm-.2.8.6-1-.8-.6-.7 1 .9.6Zm19.2.5 6.7-3.5-.5-.9-6.7 3.5.5.9Zm1 1.5-.8-2.1-1 .3.9 2.2 1-.4Zm1.2-.2H75v1h1.5v-1Zm.6-2.4-1.1 2.7 1 .4 1-2.7-1-.4Zm3.4-1.8-3.2 1.6.4.9 3.2-1.6-.4-.9Zm3.2 0h-3v1h3v-1Zm.4-1.2-.8 1.4.9.5.8-1.4-.9-.5Zm-3.4.6 3.8.2v-1l-3.7-.2v1Z" fill="#F6995C"/><g filter="url(#a)"><path d="M63.6 81.3v.2l-.1.1h-.1v.2l-.2.2-.3.6-.1.3-.2.2v.1l-.1.1v-.6l-.1-.6h-.1l-.2.1-.1.1h-.1l-.1-.2-.1-.2v.3l-.1.3-.1-.1V82h-.1l-.1.2h-.1v.5a2.5 2.5 0 0 1-.1.5v.1l-.1-.1V83l-.1-.3v-.2l-.1-.2-.1.1v.1l-.2.2-.1.1-.1.7v1c0 .1 0 .2-.2.3v-.5a15.7 15.7 0 0 1-.1-1.5v-.1h-.1l-.1-.2-.2-.1-.1-.2h-.2l-.1-.1-.1.5v.6L59 83l-.1-.2h-.1c-.1-.2-.2-.3-.1-.5V82 82.2l-.1-.1V81.8h-.1l-.1-.3v-.1h-.1l-.1-.2-.1-.2-.1-.2-.1-.3a7 7 0 0 0-.4-.7c0-.2 0-.3-.2-.5v-.2l-.2-.4v-.1l-.1-.1-.2-.3V78l-.1-.1v-.1l-.1-.1v-.2l-.2-.1v.2l-.1.1-.1.2H56l-.1-.1-.1-.3-.1-.1v4l-.1.1-.1.1-.2.1v.1l-.1.1v.1H55v.4a2.5 2.5 0 0 1-.2.5v.1h-.1v-.2l-.1-.2v-.1l-.1-.2h-.2l-.1.1a21.3 21.3 0 0 0 0 2.7h-.1c-.2 0-.2-.2-.2-.3v-.5a517.9 517.9 0 0 1 0-1.8v-.1h-.1v-.2h-.1V82h-.1v-.1h-.1l-.1.1H53l-.3-.2h-.2l-.2.2h-.3l-.2-.1a65.2 65.2 0 0 1-.5 0 13.6 13.6 0 0 1-.5-.3.5.5 0 0 1-.2-.4V68.3a.5.5 0 0 1 .3-.5H58a7.2 7.2 0 0 1 3.6 1.3c.5.4.9 1 1.1 1.5.3.6.4 1.3.4 2l-.1 1.3-.2.5c0 .2-.2.4-.3.5a4 4 0 0 1-.3.5v.1h-.1l-.2.2v.1l-.2.1v1l.1 1 .1.2v.1l.5.9.4.9a9.8 9.8 0 0 0 .6 1v.1l.1.2Zm-7.8-7.7h1.6l.3-.3.2-.4a1.1 1.1 0 0 0 .1-.5V72l-.3-.4h-1.4a200 200 0 0 1-.6-.1v2h.1Zm5.7 3.7v-1.1V76.6l-.1.1-.2-.1H61v.1l.1.1v.1l.3.5Zm-2.7 5 .1-.1V82 82.3Zm14.4 1.1v.1H73v-.1H73l-.4-.5a4 4 0 0 0-.4-.4v-.1l-.2-.1a83.3 83.3 0 0 1-.2 0l-.1.1h-.1l-.1-.1v.8h-.1v-1.2h-.2a10.5 10.5 0 0 1-1.6-.1h-.3l-.5-.2a8 8 0 0 1-1.8-.8l-.3-.3-.2-.1-.1-.1v-.1a5 5 0 0 1-1-1.3 6 6 0 0 1-.4-2.5v-8.2c0-.3.2-.4.5-.5h3.9l.4.1.1.2v7.6l.1.7c0 .3 0 .6.2.8 0 .3.2.5.4.6h.1a56.2 56.2 0 0 0 .8.2h.5l.1-.1h.2l.3-.4.2-.4v-.2l.1-.6V68l.1-.1.3-.2h4.2l.3.1.1.4v9.4l-.2.4-.1.7-.3.4-.2.3c0 .2-.2.3-.3.5l-.1.1-.1.1-.2.2h-.1l-.1.2-.1.3-.1.2a3.3 3.3 0 0 1-.4.8l-.2.2s-.1.1-.1 0v-.4l-.2.3-.1.1-.1.1-.1.3v.4l-.1.2v-.2l-.1-.4v-.4h-.1c-.1-.1-.1-.1 0 0l-.1-.2h-.1c-.1-.1-.2-.1-.2 0H74l-.1.3a7 7 0 0 1-.4 1l-.1.1-.2.1Zm18.6-3.9-.3.4-.2.2-.2.2-.2.1v.2l-.1.1c0 .2-.2.3-.3.4v.1l-.2.1v.1h-.1v.7a27.2 27.2 0 0 1-.2 2v-1a24.6 24.6 0 0 0-.1-1.8h-.1l-.1.2v.2l-.2.1v.1h-.1l-.3.8-.1.5a3.2 3.2 0 0 1-.1.2V82h-.1l-.1.3-.1.3a3.6 3.6 0 0 1-.6.8l-.2.2-.1.1-.2.1c-.1 0-.2 0-.3-.2a1.7 1.7 0 0 1-.3-.3l-.3-.4c0-.2-.2-.3-.3-.5v-.2l-.2-.2-.2-.1v.2h-.1l-.1-.3c-1.5 0-2.7-.2-3.6-.6a5.3 5.3 0 0 1-2.4-2l-.1-.3-.1-.2-.1-.3a13.8 13.8 0 0 0-.1-.7v-.3l.2-.2H83.1a3 3 0 0 1 .7 0h.3l.2.2.3.2a2.7 2.7 0 0 0 .6.3h.7a5 5 0 0 0 .8 0l.2-.1h.1c.3-.1.4-.3.4-.4l-.1-.3-.2-.1H87a4.6 4.6 0 0 0-.4 0H85.9l-.2.2h-.2l-.4.2h-.4l-.2-.1a352.4 352.4 0 0 1-.9-.6l-.5-.5-.1-.1h-.2v.1l-.3.2-.2.2a65.2 65.2 0 0 1-.3 0l-.1-.2-.1-.4-.1-.3a7 7 0 0 1-.6-.5H81v-.1a4 4 0 0 1-.9-1V74a79.5 79.5 0 0 1-.4-1 5.7 5.7 0 0 1 0-1.9l.1-.2.1-.3v-.1l.2-.2c.4-.8 1-1.5 2-2s2.1-.7 3.5-.8h.1c1.1 0 2 .2 2.9.5a6 6 0 0 1 2 1.2c.6.5 1 1 1.2 1.5v.3l.1.2.1.3v.2c0 .2 0 .3-.2.3l-.1.1h-.1l-.2.1c-.2 0-.2.1-.3.2h-.6a1 1 0 0 0-.4 0H89.5l-.2-.1h-.8a4 4 0 0 1-.4.1H88l-.2.1-.2.1h-.3a.8.8 0 0 1-.3-.3 2 2 0 0 0-.3-.4l-.1-.1h-.7l-.1-.2h-.2v-.1h-.2l-.2.1H84.9v.1l-.1.2v.1c0 .2 0 .3.3.4l.1.1.4.1.9.2h.6l.4.1H87.8l.2.1c2 .4 3.4 1 4 2.1l.2.4v.2l.2.4v.4l.1.3v.4c0 .5 0 1-.2 1.4l-.4.8-.1.1Zm14 0a4 4 0 0 1-.6.6l-.1.2h-.1l-.1.1-.1.2v.1l-.3.4v.1h-.1l-.1.1v.1h-.1v.7a25.7 25.7 0 0 1-.3 2v-1a23.5 23.5 0 0 0 0-1.8h-.2v.2l-.1.2-.1.1v.1h-.1l-.4.8-.1.5v.1c0 .1 0 .1 0 0l-.1-.6v-.6l-.2.3v.3a3.4 3.4 0 0 1-.6.8h-.1l-.1.2-.2.1-.2.1s-.2 0-.2-.2a1.8 1.8 0 0 1-.4-.3l-.3-.4-.2-.5-.1-.2-.1-.2h-.1l-.1-.1-.1.2h-.1v-.3h-.1c-1.4 0-2.6-.2-3.6-.6a5.3 5.3 0 0 1-2.3-2l-.2-.3v-.2l-.2-.3a13.3 13.3 0 0 0-.1-.7v-.3l.2-.2H97a3 3 0 0 1 .7 0h.3l.2.2.3.2a2.7 2.7 0 0 0 .6.3h.7a5 5 0 0 0 .9 0l.2-.1c.3-.1.4-.3.4-.4l-.1-.3-.1-.1h-.3a4.7 4.7 0 0 0-.4 0h-.4a29.8 29.8 0 0 1-1 .4h-.3l-.3-.1-.2-.2a3.5 3.5 0 0 1-.7-.4l-.4-.5-.2-.1h-.1a16.5 16.5 0 0 1-.6.5H95.9l-.1-.2-.1-.4-.1-.3-.2-.1-.1-.2h-.1l-.2-.2-.1-.1a4 4 0 0 1-.8-1L94 74l-.1-.1-.3-.9a5.7 5.7 0 0 1 0-1.9l.2-.2v-.3l.1-.1.1-.2c.4-.8 1.1-1.5 2-2 1-.5 2.2-.7 3.5-.8h.2c1 0 2 .2 2.8.5a6 6 0 0 1 2 1.2c.6.5 1 1 1.2 1.5l.1.3v.2l.1.3v.2l-.1.3-.2.1h-.1l-.1.1h-.1l-.3.2H103.4l-.1-.1h-.8a4 4 0 0 1-.4.1h-.2l-.1.1-.3.1h-.3a.8.8 0 0 1-.3-.3 1.9 1.9 0 0 0-.3-.4l-.1-.1h-.7l-.1-.2h-.1l-.1-.1h-.2l-.1.1H98.9l-.1.1v.2l-.1.1c0 .2.1.3.3.4l.2.1.4.1.8.2h.6l.5.1h.2l.2.1c2 .4 3.4 1 4 2.1l.2.4v.1l.1.1.1.4.1.4v.7c0 .5 0 1-.2 1.4 0 .3-.2.6-.3.8l-.2.1Zm7.3.7v1.1c0 .2-.2.3-.3.4l-.1.2-.1.2v.1s-.1.1-.2 0V82h-.2v.1l-.1.1-.2.3-.1.2-.2.1a5.6 5.6 0 0 0 0 .4h-.1v.1h-.1a5 5 0 0 1 0-.5h-.1v-.1a5.5 5.5 0 0 1-.3-.2h-.2v.2l-.1.1v-.4h-.1v.2h-.2a77.6 77.6 0 0 0-.5 3.8v-.2l-.1-.3a7.6 7.6 0 0 1-.1-1v-1a6 6 0 0 0 0-.6v.4l-.1.1v-.5l-.2-.7-.2-.2-.2-.3h-.1l-.1-.1h-.2v.4c-.2 0-.2 0-.2-.2v-.4.1-.2h-.1c-.3 0-.4-.3-.4-.5a3.8 3.8 0 0 1 0-.8V68l.1-.1v-.1l.2-.1h4.5c.2 0 .2.1.3.2v.2c0 .2.1.3 0 .4v11.6Zm16 .7.2.2v.4l-.2.1v.2h-.1V82.2l-.1.2-.1-.1V82l-.2.2-.2.3a14 14 0 0 0-1 1.8l-.1.2h-.1v.4l-.1.4V85l-.1-.3v-.4a.7.7 0 0 1-.2-.2l-.1-.3-.1-.2c0-.2-.1-.3-.2-.3h-.1c-.2 0-.2.1-.2.2l.2.1-.2.4v-.2l-.1-.2a11.3 11.3 0 0 1 0-.5l-.3-.3v-.2l-.2-.2v-.2l-.1-.1h-.3.2V82l-.3.2h.2l.1-.2-.2.2h-.1v-.1.3l-.1.2v-.3l-.1-.4a3.3 3.3 0 0 1-.2-.4l-.2-.2v-.1l-.2-.5a4.9 4.9 0 0 0-.2-.6V80l-.1-.2h-.1v.1l-.1.2a3 3 0 0 1-.2.4 8 8 0 0 0-.6 1.2 6.7 6.7 0 0 1-.3 1l-.2.3-.2.3v.1l-.2.1h-.1l-.2-.3V83l-.2-.5-.2-.6a41.1 41.1 0 0 0-.3-1.2v-.2l-.1-.1v-.1h-.1c0-.1 0-.1 0 0v.4l-.1.4v-.2l-.2-.4h.2l-.1-.3h-.1v.1l-.1.1-.1.1-.1.5v.5h-.1V81l-.1-.5-.2-.2-.1-.3-.2-.3V80.3l-.2.3v.2l-.2.4v.1l-.1.1-.2.2v.1l-.1.2a4.8 4.8 0 0 1-.2.7l-.1.2v.3h-.1v.2l-.1.4-.2.5v.4l-.2.4v.1l-.1.2-.2.2h-.1v.5l-.1.5c-.1 0-.1.1-.1 0v-1h-.2v-.1l-.2-.2V85h-.1c0-.2-.1-.2-.2-.3l-.1-.3a19.5 19.5 0 0 0-1-2.2h-.1l-.2-.2-.1-.1-.1.2v.2h-.1c-.1.1-.1 0-.2 0v-.2.2-.7h-.1a.5.5 0 0 1-.3-.2V81l.1-.2v-.3l.2-.1.7-2a27.1 27.1 0 0 0 .4-1.3V76.7l.1-.1v-.2l.2-.1 1-3a24.5 24.5 0 0 0 .6-2l.1-.3.4-.9.4-1 .3-.8c0-.1 0-.3.2-.4.2-.2.4-.3.7-.3h4.3l.4.1.2.1.2.3a2.1 2.1 0 0 1 .2.4v.4l.3.4v.2l.1.3.1.3v.1l.1.1v.2l.3.5.3.8v.2c.2.2.3.4.3.7l.2.6.2.6.2.8 1 2.7.2.6a13.2 13.2 0 0 1 .4 1.3l.5 1.3v.2Zm-7.4-8.5v.1l-.1.3-.1.3-.5 1.6V75l-.1.2-.1.3v.2l-.1.1v.1l-.1.1H122.9l-.1-.2v-.2l-.1-.2v-.1a10 10 0 0 1-.4-1.1L122 73l-.2-.4v-.1a4 4 0 0 0 0-.2h-.1Z" fill="#51829B"/></g><defs><filter id="a" x="30.7" y="49.5" width="118.6" height="59.1" filterUnits="userSpaceOnUse" color-interpolation-filters="sRGB"><feFlood flood-opacity="0" result="BackgroundImageFix"/><feColorMatrix in="SourceAlpha" values="0 0 0 0 0 0 0 0 0 0 0 0 0 0 0 0 0 0 127 0" result="hardAlpha"/><feOffset dy="2"/><feGaussianBlur stdDeviation="10"/><feComposite in2="hardAlpha" operator="out"/><feColorMatrix values="0 0 0 0 0.960784 0 0 0 0 0.929412 0 0 0 0 0.929412 0 0 0 0.4 0"/><feBlend in2="BackgroundImageFix" result="effect1_dropShadow_116_130188"/><feBlend in="SourceGraphic" in2="effect1_dropShadow_116_130188" result="shape"/></filter></defs></svg>