<svg width="180" height="150" fill="none" xmlns="http://www.w3.org/2000/svg"><path d="m52.7 64.3.4.3.1-.1v-.1l-.5-.1Zm.9-3-.2-.5h-.2l-.1.3.5.2Zm-2.7 5.4-.4-.3V66.7h.4Zm-.2 3.5.5.2v-.2h-.5Zm-1.9 4.6.3.4.1-.1V75l-.4-.2Zm-2.4 2-.3-.5-.2.1v.2l.5.1Zm-2.6 12.6h-.5v.5h.5v-.5Zm5.4.7-.1.5h.6V90h-.5Zm-.1-1.6h.5v-.3l-.3-.1-.2.4Zm-2.2-1.3-.5-.2-.2.4.4.2.3-.4Zm1.5-2.7.4-.4-.5-.5-.3.6.4.3Zm2.3 2.3.4-.3-.4.3Zm2.5 2.8-.4.3.4.5.4-.5-.4-.3Zm1.9-2.5v-.5h-.3l-.1.2.4.3Zm9.9-1v-.4.5Zm6.4 1.2.4-.3v-.2h-.3v.5Zm2 3-.4.3v.2h.2l.2-.4Zm8.5 3.5.4-.2v-.2H82l-.2.4Zm.7 1.4-.5.2.1.1h.1l.3-.3Zm5.8 3.8-.3.4.3.1h.2l-.2-.5Zm2.2-1 .2.4h.2V98h-.4Zm.3-2.3h.5v-.2l-.5.2Zm-.7-1.6-.2-.4-.4.2.2.4.4-.2Zm1.7-1 .2.5h.2v-.3l-.4-.1Zm.3-.9v-.5h-.3l-.1.4.4.1Zm2-.2.1.5h.2v-.1l-.2-.4Zm6.4-4.7-.1-.5h-.2l.3.5Zm17.7-5.4.2-.5H118.2l.1.5Zm3.4 1.2-.1.4h.2v-.4Zm6-1.1.1.4h.5v-.5h-.6Zm-.2-2h.5l-.1-.6-.5.1v.5Zm-4.5.7-.5-.1-.2.7.8-.1-.1-.5Zm1.9-8 .5.1v-.3l-.3-.2-.2.4Zm-2-1.3-.4.2v.2h.2l.2-.4Zm-2-4.5.5-.2v-.2h-.4v.4Zm-5-.7.1-.5h-.2l-.2.1.3.4Zm-4.3 3.7-.1.5h.2l.3-.1-.4-.4Zm-2.2-.8-.4.3v.2h.3l.1-.5Zm-2-3.3.5-.3-.4.3Zm-2.7-4 .4-.3-.1-.1h-.2l-.1.4Zm-4.3-1-.3.4h.1l.2-.4Zm-4.9-3 .3-.5-.4-.2-.3.3.4.3ZM94 59.8v.5h.3l.2-.2-.5-.3Zm-2.1 0-.5-.2-.2.6h.7V60Zm1.3-4 .5.1v-.3l-.2-.2-.3.4ZM90.6 54l.3-.4-.3.4ZM86.8 52l.3-.5h-.2v.5Zm-7.1-.9v-.5h-.2l-.1.1.3.4Zm-8.3 6.4.1.5h.1l-.2-.5Zm-3 .8-.2-.5-.4.1v.4h.5Zm-.1 1.8v.5h.5V60h-.5Zm-1.4 0-.5.2.1.3h.4V60Zm-1.7-4.2.5-.2-.2-.3h-.3v.5Zm-4.6.1v-.5h-.2l-.2.2.4.3Zm-3.2 3.7.2.5h.1l.1-.2-.4-.3Zm-6 33.7-.3-.4-.3.3.2.3.5-.2Zm5.5-4.6v-.5h-.1l-.2.1.3.4Zm-1.8 10.1-.4.3.2.4.4-.2-.2-.5Zm3.5-1.4.2.5.5-.3-.3-.5-.4.3Zm-1.8-2.6v-.5h-1l.6.8.4-.3Zm1.7.1.4-.3-.2-.2h-.2v.5Zm1.5 1.8-.4.3.2.3.4-.1-.2-.5Zm2.2-.9.2.5.2-.2-.4-.3Zm.9-1.1.2-.5-.4-.1-.2.3.4.3Zm.9.4-.2.5h.4L64 95Zm1.6-.7.2.4.2-.1v-.3h-.4Zm.2-1.6.1-.5-.5-.1v.5h.4Zm2.7.4v.5h.4l.1-.4h-.5Zm.3-1.3.5.1.1-.4-.4-.1-.2.4Zm-2.3-1-.4.3.2.1.2-.4Zm-1.6-2.2.4-.3-.1-.2h-.3v.5Zm-3.7-.2V88h-.6v.6h.6Zm.2 1.6v.4h.6V90h-.6ZM60 90l-.4.3.1.2h.3V90Zm-.7-1 .4-.3-.2-.2h-.2v.5Zm69.5-29.3v.5h.4l.1-.4-.5-.1Zm-4.6 0v-.5h-.4v.4h.4Zm5.3-2.2.3-.4-.6-.3-.2.6.5.1ZM132 59l-.3.5.6.3.2-.7h-.5Zm.4-1.7.3-.4-.6-.4-.2.7.5.1Zm5.9 3.8h.5v-.3l-.2-.2-.3.5Zm-.3 4.8.1.5.4-.1v-.4h-.5Zm-3.6.8v-.4h-.2l.2.4Zm-2.5 2-.3.4.4.2.3-.2-.4-.4Zm-3.1-2.4-.4.3v.1l.4-.4Zm-2.3-3 .4-.3-.1-.1-.3.4Zm-2.3-1.5h-.5v.3l.2.1.3-.4Zm-15.5-2.4.3-.4-.2-.1h-.3l.2.5Zm3.7 2-.2.5h.2v-.4Zm-6.2-1.1-.1-.5-.5.2.1.5.5-.2Zm.5 1.4-.4.1v.2h.2l.2-.3Zm6.4 3.9-.2.4.2.2.2-.1-.2-.5Zm6.4-2.2.2.4.4-.1-.1-.4h-.5Zm-.5-2 .5-.2-.1-.3h-.4v.5Zm-65.7 3 .9-3-1-.2-.8 3 1 .3ZM51.3 67l1.8-2.4-.8-.6-1.8 2.4.8.6Zm0 3.2.1-3.4h-1l-.2 3.4h1Zm-2 4.8 1.9-4.6-1-.4-1.8 4.6.9.4ZM46.7 77l2.4-2-.6-.7-2.4 2 .6.7Zm-2.4 12.4 2.6-12.7-1-.2-2.6 12.7 1 .2Zm5 0-5.4-.6-.1 1 5.3.7.1-1Zm-.7-1v1.6h1v-1.6h-1Zm-2-.9 2.2 1.3.5-.8-2.2-1.3-.5.8Zm1.4-3.4L46.4 87l.9.5 1.5-2.8-.8-.5Zm3 2.3L48.9 84l-.7.7 2.2 2.4.8-.7Zm2.6 2.8L51 86.5l-.8.7 2.5 2.7.8-.6Zm1-2.5-1.8 2.5.8.6 1.9-2.5-.8-.6ZM65 85.7l-10 .9.1 1 10-1-.1-1Zm6.5 1-6.4-1-.2 1 6.4 1 .2-1Zm2.3 3.4-2-3.1-.8.5 2 3.1.8-.5Zm8.3 3.2L73.6 90l-.4 1 8.5 3.3.4-.9Zm1 1.6-.8-1.3-.9.4.7 1.4 1-.5Zm5.6 3.6-5.8-3.8-.6.9 5.8 3.8.6-.9Zm1.7-1-2.2 1 .4 1 2.2-1-.4-1Zm0-1.9-.3 2.3 1 .1.3-2.2-1-.2Zm-.6-1.3.7 1.6.9-.4-.7-1.6-1 .4Zm1.8-1.6-1.6 1 .5.8 1.6-.9-.5-.9Zm.2-.6-.4.9 1 .3.3-.9-1-.3Zm2.4-.6-2 .2v1l2.1-.2v-1Zm6.1-4.6L94 91.6l.6.8 6.3-4.7-.6-.8Zm17.9-5.5-17.7 5.4.2 1 17.8-5.5-.3-1Zm3.7 1.2-3.4-1.2-.4 1 3.5 1.1.3-.9Zm5.8-1.1-6 1 .1 1 6-1-.1-1ZM127 80l.2 2 1-.2-.2-2-1 .2Zm-4 1 4.5-.6-.1-1-4.5.7.2 1Zm1.4-8.5-1.9 8 1 .2 1.9-8-1-.2Zm-1.7-.8 1.9 1.3.5-.8-1.9-1.3-.5.8Zm-2.2-4.7 2 4.5.9-.4-2-4.5-.9.4Zm-4.6-.4 5 .7.1-1-5-.7-.1 1Zm-4 3.6 4.4-3.7-.7-.8-4.3 3.7.7.8Zm-2.7-.7 2.3.8.3-1-2.2-.7-.3 1ZM107 66l2 3.4.8-.5-2-3.4-.8.5Zm-2.8-3.9 2.8 4 .9-.6-2.8-4-.9.6Zm-4-.8 4.3 1 .3-1-4.3-1-.3 1Zm-5-3.1 4.9 3 .5-.8-4.8-3-.5.8Zm-.8 2 1.5-2.2-.8-.6-1.6 2.3.9.5Zm-2.6.2h2.1v-1h-2l-.1 1Zm.8-4.7-1.3 4 1 .3 1.3-4-1-.3Zm-2.3-1.2 2.5 1.8.6-.8-2.5-1.8-.6.8Zm-3.7-2.2 3.8 2.2.5-.8-3.8-2.3-.5.9Zm-7-.8 7.2.9v-1l-7-.9-.2 1Zm-8 6.3 8.4-6.4-.6-.8L71 57l.6.8Zm-3.2.9 3.1-.8-.2-1-3.1.8.2 1Zm.4 1.3v-1.8h-1V60h1Zm-2 .5h1.5v-1h-1.5v1Zm-2-4.6 1.6 4.3 1-.4-1.7-4.2-1 .3Zm-4.2.5 4.6-.1v-1l-4.6.1v1Zm-2.8 3.5 3.2-3.7-.8-.6-3.1 3.7.7.6Zm-4 1.8 3.8-1.6-.4-1-3.8 1.7.4 1Zm-2 32 5.4-4.6-.6-.8-5.5 4.6.7.8Zm3.7 4.9L52 93l-.9.5 3.7 5.6.8-.5Zm2.9-1.6-3.5 1.4.4.9 3.5-1.4-.4-1Zm-2-2 1.8 2.7.8-.6-1.8-2.6-.8.6Zm2.1-.6-1.6-.1-.1 1 1.6.1.1-1Zm1.9 2-1.5-1.8-.8.6 1.5 1.8.8-.6Zm1.6-1-2.2.8.4 1 2.2-1-.4-.8Zm.7-1-1 1.1.9.6.9-1.1-.8-.6Zm1.5.2-1-.4-.3 1 .9.4.4-1Zm1.2-.7-1.6.8.4.9 1.6-.8-.4-.9Zm0-1.2-.3 1.6 1 .1.2-1.6-1-.1Zm3.2 0-2.7-.4-.2 1 2.7.4.2-1Zm-.2-.9-.4 1.3 1 .2.3-1.3-1-.2Zm-2.1-.5 2.3 1 .4-.8-2.3-1-.4.8ZM64.5 89l1.6 2.2.8-.6-1.6-2.2-.8.6Zm-3.4 0 3.8.2v-1l-3.7-.2v1Zm.8 1-.2-1.6-1 .2.2 1.5 1-.1Zm-2 .5h1.5v-1H60v1Zm-1-1.2.7 1 .8-.6-.7-1-.8.6Zm-2-.1 2.3.3.1-1-2.3-.3-.1 1Zm72-30h-4.7v1h4.6v-1Zm.1-1.8-.6 2.1 1 .3.6-2.1-1-.3Zm3.2 1.1-2.4-1.4-.5.9 2.3 1.4.6-.9Zm-.4-1.4-.4 1.7 1 .2.4-1.6-1-.3Zm6.7 3.4-6-3.7-.5.9 6 3.7.5-.9Zm-.1 5.3.3-4.8h-1l-.3 4.8h1Zm-4 1.3 3.6-.8-.2-1-3.6.9.2 1Zm-2.2 1.9 2.4-2-.6-.8-2.5 2 .7.8Zm-3.8-2.4 3.2 2.4.5-.8-3.1-2.4-.6.8Zm-2.4-3.1 2.3 3 .8-.6-2.3-3-.8.6Zm-2.2-1.4 2.3 1.5.6-.8-2.4-1.5-.5.8Zm0-2.5-.2 2 1 .1.1-2h-1Zm-15.4.1 3.7 2 .4-.8-3.7-2-.4.8Zm-2.1 1 2.5-1-.4-.9-2.5 1 .4.9Zm.8.7-.5-1.4-1 .4.6 1.3.9-.3Zm6.2 3.7-6.4-4-.5.9 6.4 4 .5-1Zm6-2.3-6.4 2.2.3 1 6.4-2.3-.4-.9Zm-1-1.4.6 2 1-.2-.5-2-1 .2Zm-6 .5 6.6-.1v-1h-6.6v1Z" fill="#F6995C"/><g filter="url(#a)"><path d="m41.9 79.8-.3.4-.3.2-.1.1-.1.1-.2.2v.2l-.3.4-.2.2v.1h-.1v.7a27.2 27.2 0 0 1-.2 2v-1a24.6 24.6 0 0 0-.1-1.8h-.1v-.1.1l-.1.2-.1.1-.1.2-.1.1-.3.8-.2.4v.2-.6l-.1-.6-.1.3-.1.2a3.6 3.6 0 0 1-.6.9l-.2.1-.1.2h-.3l-.2-.1a1.7 1.7 0 0 1-.3-.3l-.3-.5-.3-.4v-.2l-.2-.2-.1-.1H36v.1l-.1.1v-.1l-.1-.2c-1.5 0-2.7-.3-3.6-.7a5.3 5.3 0 0 1-2.4-1.9l-.1-.3-.1-.2-.1-.3a13.2 13.2 0 0 0-.2-.7l.1-.3.2-.2h.1l.2-.1H33a3 3 0 0 1 .8 0l.2.1.3.2.3.2a2.7 2.7 0 0 0 .5.2l.7.1a5.1 5.1 0 0 0 .9 0l.2-.1h.1c.2-.2.3-.3.3-.5v-.2l-.2-.2H37a4.4 4.4 0 0 0-.4.1H36a29.8 29.8 0 0 0-1 .4h-.3l-.2-.2-.2-.1a3.5 3.5 0 0 1-.7-.5l-.5-.4-.1-.2h-.2v.1a298953838174.4 298953838174.4 0 0 1-.7.5l-.2-.1v-.2l-.2-.3V76l-.2-.2-.2-.1v-.1l-.2-.2H31a4.1 4.1 0 0 1-.9-1v-.2L30 74l-.2-.8a5.7 5.7 0 0 1 0-2l.1-.2V71l.2-.2v-.2c.5-.8 1.2-1.4 2.1-2 1-.4 2-.7 3.4-.7h.2c1.1 0 2 .2 2.9.5a6 6 0 0 1 2 1.2c.6.5 1 1 1.2 1.5v.2l.1.3v.8h-.2v.1H41.4a29.8 29.8 0 0 0-.6.3h-.4a1 1 0 0 0-.3 0h-.6l-.2-.1a56.2 56.2 0 0 0-.2-.1H39a565.7 565.7 0 0 0-1.6.3.8.8 0 0 1-.3-.2 2 2 0 0 0-.3-.4l-.2-.2H36l-.2-.1h-.1v-.1h-.4v.1H35l-.1.1V72.3c0 .1 0 .3.3.4h.1l.4.2.9.2h.6l.4.1h.4c2.1.4 3.5 1.1 4 2.2h.1l.2.4v.2l.2.3v1.2c0 .5 0 1-.2 1.4 0 .3-.2.5-.3.7l-.1.2Zm7.3.7v1.1l-.3.3v.2l-.2.3-.1.1-.1-.1v-.2l-.1.1-.1.1v.1l-.3.3v.1l-.2.2v.2l-.1.1v.1h-.1a7 7 0 0 1-.1-.4l-.1-.1v-.1l-.2-.1-.2-.1v.2l-.1.1-.1-.1v-.2l-.2.1v.1l-.1.5v.5a226.4 226.4 0 0 0-.5 2.8v-.2a17.2 17.2 0 0 0-.1-.6v-1.7a6 6 0 0 0-.1-.6v.5l-.2-.6V83l-.1-.1-.1-.1-.3-.3-.2-.2h-.1v.3l-.1.2c-.1 0-.2-.1-.1-.2V82v.1l-.1-.2h-.1c-.2-.1-.4-.3-.4-.6a4 4 0 0 1 0-.8V68.3h.1l.1-.2h.2l.2-.1H49c.1 0 .2.1.2.3l.1.2v12Zm14.8 1v.2l-.1.1v.1h-.2a4.4 4.4 0 0 0 0 .8l-.2.7a29.7 29.7 0 0 1-.2 1.7v.2h-.1l-.1-.1-.1-.5v-.4l-.2-1-.1-1.1v.4h-.2v.1h-.1V82.5h-.1v.2h-.1l-.2.1a150.2 150.2 0 0 1-.2.8v-.4l-.2-.4a4.4 4.4 0 0 1-.2-.4v-.1l-.1-.1h-.1v.1l-.2.1v.2h-.2v-.2h-.1l-.1-.2H60c0 .1 0 .1-.1 0h-.1v-.2l-.3-.2a3.2 3.2 0 0 1-.3-.4V81L59 81v-.1l-.2-.2v-.1l-.2-.2-.3-.4a58.7 58.7 0 0 1-1-1.7l-.8-1.2-.3-.4-.1-.1v-.1 5.1H56v.1l-.3.2v.2l-.2.1V82.5l-.5.8-.2.4v.1h-.1v.1l-.1.8v.8h-.1V84.5l-.1-.7-.1-.1-.2-.3v-.2L54 83V83l-.3-.5v-.2.4l-.1.4V83l-.2-.1-.1-.3-.2-.3-.2.1v.1a83.3 83.3 0 0 0-.7.3v.7a23.5 23.5 0 0 1 .2 1.7c0 .1-.1.2-.3 0l-.2-.8v-1c.2-.3.2-.6.2-.8v-.1a65.2 65.2 0 0 0-.2.3v.3h-.1v-.6l-.1-.5-.2-.1a.5.5 0 0 1-.2-.4V68.3l.2-.2h.2l.2-.1h3.5l.3.3.2.3.2.4h.1v.2c.2.1.4.3.5.6l.3.6v.1l.8 1.2.5.9.6.9.2.4h.1v-5.6h.1V68h.1l.3-.1H63.6l.3.2v.1l.1.2V80.8a4 4 0 0 1 0 .8Zm14.6-1.8-.1.2-.2.2a1.5 1.5 0 0 1-.3.3 152.3 152.3 0 0 0-.3.3l-.1.2-.2.3a2.4 2.4 0 0 1-.1.4v.2l-.2.2v.1l-.2.2-.1.2v.6a6.3 6.3 0 0 1 .2 1.2l-.3.1c-.2 0-.3-.2-.3-.4l.1-.8.1-.7v-.1l-.1-.2a2.4 2.4 0 0 0-.2-.3H76a111.6 111.6 0 0 1 0 1.6v.6c0 .1 0 .1-.1 0l-.1-.4V82.5h-.1v-.2l-.1-.2c-.1 0-.2.1-.1.3v1a7.8 7.8 0 0 1-.1-1 12.5 12.5 0 0 0-.3.9v.1l-.1.1h-.2l-.1-.1v-.1l-.4-.4a2.5 2.5 0 0 1-.3-.4v-.2l-.1.2v.3-.1l-.1-.1v-.2l-.2.2v.1c-.2.1-.2.3-.3.4v.6l-.2.1v.2V82.7s-.2 0-.2-.2l-.2-.1v-.1h-.2v.7h-.1v-.8h-.1c-1.3 0-2.5-.3-3.5-.7a4.9 4.9 0 0 1-2.4-2.2l-.2-.4v-.2a224.9 224.9 0 0 1-.4-1.5V72.3a5 5 0 0 1 .8-2v-.1l.1-.1.1-.1.1-.1c.6-.7 1.3-1.2 2.3-1.6.9-.3 2-.5 3.1-.5h.7a2.4 2.4 0 0 1 .4 0H74.1l.2.1h.1a6.7 6.7 0 0 1 1 .2 6.7 6.7 0 0 1 3.2 2 4.4 4.4 0 0 1 .6 1l.3.8v.5l-.1.1v.1h-.1v.1l-.1.1v.1H79v-.1H78.7l-.4.2H78l-.3-.1h-.5l-.3.1-.1.1-.2.1h-.2l-.2.2-.2.2h3.4v.2l.2.3v2.2a6.5 6.5 0 0 1-.1 1.7l-.3.8-.2.4a254 254 0 0 0-.3.5Zm-6-1.4.9-.1c.3-.1.5-.3.6-.5l.2-.3V77l-.2.2-.1.1-.1.1h-.5v-.1l-.2-.2v-.2l-.3-.3v-2.7h.1c.1-.2.3-.2.4-.2h2.2l-.2-.1-.2-.1a5 5 0 0 0-.5-.3l-.5-.4-.1-.1v-.1H74l-.1-.2-.2-.2-.1-.1-.1.1a56.2 56.2 0 0 0-.2.3l-.1.1c-.1 0-.2 0-.1-.2v-.4H73v.7h-.1v-.2l-.1-.2v-.1l-.1-.2-.1.1-.2.1h-.2v-.2H72c0 .1-.1.2 0 .2l-.2.2h-.2l-.1-.2-.2.2-.2.6V77.3a1.4 1.4 0 0 0 .7.8 1.6 1.6 0 0 0 .7.2h.1Zm.8 5.4.1.2v.5-.7Zm-.2 2.3c0 .2 0 .2 0 0a7 7 0 0 1-.1-1.3V84a35.2 35.2 0 0 0 .1 2Zm.2-.1c0 .1 0 0 0 0a8.2 8.2 0 0 0 .1-1.5v.8c.1.3 0 .5-.1.7ZM94.8 81l.1.3v.4h-.1v.1l-.1.1V82.3h-.1v.2l-.1.1V82.3l-.2.2-.2.2a14 14 0 0 0-1 1.9l-.2.1-.1.4v.4l-.1-.1v-.7l-.2-.2-.1-.3-.1-.3-.3-.3h-.1l-.2.2h.2v.2s0 .2-.2.3V84a12 12 0 0 1-.1-.5l-.2-.2a3.3 3.3 0 0 1-.2-.5v-.1l-.1-.1-.1-.1-.3.1.3-.1c-.3 0-.3.2-.3.2l.2-.1.1-.1-.3.1-.1.3v.1l-.1-.3v-.4a3.3 3.3 0 0 1-.3-.4l-.1-.1a19.9 19.9 0 0 0-.2-.6 4.7 4.7 0 0 0-.3-.6V80.1h-.1v.1l-.1.1a3 3 0 0 1-.3.4 8 8 0 0 0-.5 1.3 7 7 0 0 1-.4.9l-.1.3-.2.4v.1h-.4l-.1-.2a228.6 228.6 0 0 0-.7-2.6v-.2h-.1v-.1l-.1-.2-.1.4v.5l-.1-.3-.1-.3.1-.1v-.3l-.1.1a83.3 83.3 0 0 1-.4.8v.4l-.1-.4v-.5l-.2-.3-.2-.2-.1-.3v.4a56.2 56.2 0 0 1-.3.7l-.1.3v.2l-.1.1-.2.2-.1.2a4.6 4.6 0 0 1-.3.7v.3l-.1.3v.1l-.2.5-.1.5-.1.4-.1.3-.1.2v.2l-.2.1-.2.1v.9l-.1.1v-.5l-.1-.5a30.2 30.2 0 0 0-.2-.2l-.1-.2h-.1v-.1l-.2-.3-.2-.2a18.8 18.8 0 0 0-1.2-2.4l-.1-.1-.2.1v.3l-.2-.1v-.1.2l-.1-.7H80a.5.5 0 0 1-.2-.3V81l.2-.2v-.2l.7-1.9a29.5 29.5 0 0 0 .4-1.4l.1-.2v-.2l.2-.1v-.1l1-3a27 27 0 0 0 .6-2l.2-.4.4-.8.3-1 .3-.8c0-.2.2-.3.3-.5l.7-.2H90l.1.2.3.2a2 2 0 0 1 .1.4l.1.2v.2l.2.5.1.2.1.3.1.3v.2l.1.1.3.5.3.9v.2l.3.6.2.7.2.6.2.7 1 2.8.2.6a13.1 13.1 0 0 1 .4 1.3l.4 1.2.1.2Zm-7.4-8.5v.1l-.2.4v.3l-.5 1.5v.2l-.1.1a2.4 2.4 0 0 1-.2.6 124.6 124.6 0 0 1-.1.4h2.2v-.1l-.1-.2v-.2l-.1-.2a10.2 10.2 0 0 1-.3-1l-.4-1.1-.1-.5v-.2h-.1Zm21.3.5-.1.7-.1.7-.2.5-.1.1v.1a5.4 5.4 0 0 1-.6.8l-.2.2a2.2 2.2 0 0 0-.3.3l-.1.4a64 64 0 0 0-.3.8l-.1.1-.1.2-.1.1h-.1v.4l-.1.3-.1.1v-.1l-.1-.3-.1-.2-.2.2-.2.2v1.5c-.1.1-.2.1-.2 0v-1.5a7.4 7.4 0 0 0-.3-.4l-.1-.2-.1.2v1.8a20.8 20.8 0 0 1-.1 1.6v.8l-.1.6v.5h-.1a2.5 2.5 0 0 1-.1-.8V81.5l-.1-.8V80l-.1-.8v-1h-.2v-.2l-.2-.2v.1l-.4.3v-.2h-.1a11 11 0 0 0-.1.7v.2l-.2.3-.2.9v.2a2.8 2.8 0 0 1-.2.4l-.1.1-.2-.1a2.7 2.7 0 0 0-.2-.3v-1a9.7 9.7 0 0 0-.1-.8l-.2-.1-.2-.3-.2-.2-.1-.2v3.1a3.3 3.3 0 0 1 0 .8l-.2.2-.2.2-.2.2v.1h-.1a90.2 90.2 0 0 0-.3 1.9v-.6a4 4 0 0 0-.2-.9l-.2.2-.1.1h-.1l-.1.2v.1l-.2-.1v-.4l-.2-.1-.1-.2-.2-.2v-.1h-.1l-.3.4c-.1.2-.3.2-.4.3-.2 0-.3 0-.2-.2v-.4l-.2.1v.1l-.1.1v.1h-.2V82.4a16.5 16.5 0 0 0-.2 0V82l-.1.2h-.2l-.2-.2h-.2V82h-.1l-.1-.1a.5.5 0 0 1-.3-.4V68.4l.1-.2.3-.2h7a11.4 11.4 0 0 1 2.2.4c.2 0 .3.1.3.2a7.4 7.4 0 0 0 .1 0 5.4 5.4 0 0 1 1.1.7h.1a9 9 0 0 1 .7.9l.1.2.1.1c.2.4.4.8.4 1.2l.2 1.2v.2Zm-7.6-1.4v1.9c.3-.3.7-.5 1.1-.6l1.2-.2a1 1 0 0 0-.2-.8l-.1-.1h-.1l-.3-.1h-.2a111 111 0 0 0-1.1 0H101Zm21.4 7.6-.2.3-.2.4-.4.4-.4.4v.7a14.5 14.5 0 0 1-.1 1.4l-.1-.1V81c-.2.1-.2.2-.3.4l-.2.4a42 42 0 0 0-.8 2.1l-.1.1s-.2 0-.2-.2a7.8 7.8 0 0 1-.3-.4v-1.2l-.2.2-.2.2-.1.1v.1l-.2.2v.1h-.1l-.1-.2v-.1l-.2-.2a2.9 2.9 0 0 1-.2-.3 7 7 0 0 0 0 .4h-1.1v.6l-.1.7v-.3l-.1-.6v-.6c0-.1 0-.1-.1 0v.6l-.1-.3-.1-.6c-1.4 0-2.5-.3-3.5-.7a5 5 0 0 1-2.5-2.3 8 8 0 0 1-.1-.4l-.1-.3-.1-.3-.1-.2-.1-.8V72.5a5.2 5.2 0 0 1 1.3-2.7c1.2-1.3 3-2 5.4-2h1l.4.1h.3l.4.1c.2 0 .4 0 .5.2h.4l.3.2c.8.3 1.5.8 2.2 1.5l.5.8a6.1 6.1 0 0 1 .6 1.8v5.1c-.1.6-.3 1.2-.6 1.7Zm-6.9-1.4.3.3.5.1h.5a1.3 1.3 0 0 0 .9-1v-.1l.1-.7V73.3a1.6 1.6 0 0 0 0-.4v-.2l-.2-.4-.3-.3h-.1l-.2-.1h-.1l-.3.1-.1.2a16.3 16.3 0 0 0-.2.1l-.1.2H116v-.2h-.2v-.1h-.1l-.1-.2h-.1l-.1.1-.2.2-.1.5-.1.5v2.8l.2 1v.1a11 11 0 0 0 .4.7Zm22.3 3.7v.1l-.1.2a11.4 11.4 0 0 0-.2.4l-.4.6a37.8 37.8 0 0 0-.4.6V83l-.1-.6h-.2l-.1.2-.1.1-.2-.3-.1-.1v.3l-.1.3v-.2l-.1-.4v.1l-.2.2h-.1a53.6 53.6 0 0 0-.3.5v-.4h-.2v.2l-.2.1v.2h-.1a136.5 136.5 0 0 0-.3.7V83a2.8 2.8 0 0 1-.3-.2l-.1-.2-.2-.1-.1-.1h-.2v.5l-.1.5-.1-.1V83l-.1-.1h-.1l-.1-.4v-.4.2l-.1-.2v-.1l-.1-.1-.1-.3-.1-.1-.1-.1v-.1l-.1-.2v-.1l-.2-.3a7 7 0 0 0-.3-.8 97.6 97.6 0 0 1-.5-1v-.1l-.1-.1-.1-.3v-.1l-.1-.1v-.1l-.1-.2-.1-.2-.2-.2v.2l-.1.2-.1.1-.2.1-.1-.2-.1-.2c0-.2-.1-.2-.1-.1v3.9l-.1.2a1.4 1.4 0 0 0-.1.1h-.1l-.1.2-.2.2v.3a2.6 2.6 0 0 1-.2.6h-.1V83l-.1-.1V82.6l-.1-.1-.1.1-.2.1a20.3 20.3 0 0 0 0 2.6l-.1.1c-.1 0-.2-.2-.1-.4v-.4a188.6 188.6 0 0 1-.3-2.2v-.1h-.1V82v.1H127.3l-.3-.2-.2.1-.2.1h-.5a16.3 16.3 0 0 0-.2 0h-.3a13.3 13.3 0 0 1-.5-.3.5.5 0 0 1-.2-.4V68.2l.3-.2h7.1a7.2 7.2 0 0 1 3.6 1.3c.5.5 1 1 1.2 1.6.2.6.4 1.2.4 2 0 .4 0 .8-.2 1.2 0 .3 0 .4-.2.5v.1l-.2.5a4.1 4.1 0 0 1-.5.6l-.1.2h-.1v.1l-.2.1v.9l.1 1.1a8.3 8.3 0 0 0 .2.3l.4.8.5 1a8.7 8.7 0 0 0 .6 1V81.6Zm-7.8-7.8h1.6l.3-.2.2-.5.1-.2V72.3l-.3-.4h-1.4a200 200 0 0 0-.6-.2v2.1h.1Zm5.7 3.7.1-1v.1l-.1.2h-.4v.1h.1v.2l.3.4Zm-2.6 5v-.3V82.6Zm17.7-3.2a26.6 26.6 0 0 0 0 2V81.5l-.1.2-.1.1h-.1v.2h-.1l-.1.2-.1.1-.2.2-.2.3-.2.2-.1.2a1.7 1.7 0 0 1-.2.2.8.8 0 0 1-.2.2h-.1l-.1.2H148.7a1.4 1.4 0 0 1-.2-.1l-.2.1v2.2l-.1.3c-.2 0-.2 0-.2-.3v-.4a169.7 169.7 0 0 0 0-1.9l-.2-.1a8 8 0 0 0-.3-.7l-.3-.5v-.2l-.2-.1v.5h-.1V82.5l-.2.2a785.3 785.3 0 0 0-.7 1.9v.2a10.9 10.9 0 0 1-.2.2v-.5c.1-.2 0-.3 0-.4h-.1a2.9 2.9 0 0 0 0 .6v.1c-.1 0-.2-.2-.1-.4v-.5.5l-.1-.1V84l-.1-.2h-.2l-.1.1-.3.3v.6a88 88 0 0 0 .1 1.4c0 .2-.1.2-.2.2-.2 0-.3-.1-.3-.3v-.6a74.8 74.8 0 0 0 .2-1.3l-.2-.2-.2-.6-.3-.6-.1-.2h-.2a33.3 33.3 0 0 0-.3-.2h-.1v.1l-.3.3h-.1a35 35 0 0 0-.2 3l-.1-.7a30 30 0 0 1 .2-1.7c0-.3-.1-.5-.3-.7l-.3-.3v-.1l-.2-.2-.2.1h-.1v.2l-.1.3-.2 1a7.7 7.7 0 0 1-.1.8v.2a1 1 0 0 1-.2-.6l.1-.7V83c0-.2 0-.2-.2-.1l-.5-.1a5.5 5.5 0 0 0-.2-.3v.6a12 12 0 0 1 0 1c0 .2 0 .2 0 0a1 1 0 0 1-.3-.5l.1-.6v-.7.8l-.1-.1v-.4l-.1-.6-.2-.1a.5.5 0 0 1-.2-.4v-13l.1-.3.3-.2H150.2l.3.1.2.1V71.6l-.2.2a3.9 3.9 0 0 0-.2.2h-.8a1 1 0 0 0-.5.2h-.2l-.2.1h-.2l-.2.2h-.7l-.2.2h-.3l-.2.1H146.2l-.4-.2-.4-.2-.3-.2a4 4 0 0 0-.4-.1l-.5-.2v1l.1.3h5.2a1 1 0 0 1 .6 0l.1.2.1.2V76.5l-.3.3-.3.2h-.2l-.4.2a1 1 0 0 1-.3.2 7 7 0 0 1-.4 0l-.2.1h-.2l-.4.1h-1c-.1-.1-.2-.1-.4 0h-.3l-.3-.2a1.6 1.6 0 0 0-.6-.3 4 4 0 0 0-.5-.2 2 2 0 0 0-.3 0v1l.1.2h6.3l.1.1.1.1.1.2v.8Z" fill="#51829B"/></g><defs><filter id="a" x="9.3" y="49.8" width="161.6" height="59.1" filterUnits="userSpaceOnUse" color-interpolation-filters="sRGB"><feFlood flood-opacity="0" result="BackgroundImageFix"/><feColorMatrix in="SourceAlpha" values="0 0 0 0 0 0 0 0 0 0 0 0 0 0 0 0 0 0 127 0" result="hardAlpha"/><feOffset dy="2"/><feGaussianBlur stdDeviation="10"/><feComposite in2="hardAlpha" operator="out"/><feColorMatrix values="0 0 0 0 0.960784 0 0 0 0 0.929412 0 0 0 0 0.929412 0 0 0 0.4 0"/><feBlend in2="BackgroundImageFix" result="effect1_dropShadow_116_130162"/><feBlend in="SourceGraphic" in2="effect1_dropShadow_116_130162" result="shape"/></filter></defs></svg>