<svg width="180" height="150" fill="none" xmlns="http://www.w3.org/2000/svg"><path d="M51.4 47.3v-.5h-.2l.2.5ZM48 49.2l-.2-.5-.4.2.1.5.5-.2Zm6.4-1.9v.5h.5v-.4h-.5Zm.1-1.8-.2-.4-.2.1v.3h.4Zm3.1-1.5.3-.4-.2-.2-.3.2.2.4Zm2.6 2-.3.4h.2V46Zm4.9.5v.5-.5Zm3.9-.7.1-.4H69v.4Zm8 2.2-.2.5H77.1l-.2-.5Zm3.8-1 .2-.5H80.7v.5Zm3.4 1.2-.2.5h.4l-.2-.5Zm1.5-.8V47h-.3l.3.5Zm3.3 1-.2.4h.2v-.5Zm2.7-.4.1-.5h-.2v.5Zm2.8 1h.5v-.4l-.3-.1-.2.4Zm-.3 1.6h-.4l-.1.3.3.2.2-.5Zm4.7 2-.2.5h.1l.1-.4Zm7.8.6v.5h.5v-.5h-.5Zm0-1.5.2-.5-.6-.2v.7h.5Zm4 1.2.4-.3v-.2h-.2l-.2.5Zm1.2 1.8-.4.2v.2h.3v-.4Zm6 1v.5h.4l-.3-.5Zm2.3-1.6v-.5h-.1l-.2.1.3.4Zm2 .3h.5v-.5h-.4v.5Zm.2 4 .3.3.2-.1v-.3h-.5Zm-6.3 5.2.1.4h.1l-.2-.4Zm-6.9 2.7-.2-.5h-.1v.2l.3.3Zm-1.2 2-.4-.4-.2.3.2.3.4-.3Zm.7.9.3.4.4-.3-.3-.4-.4.3Zm-2 1.2-.3-.4h-.1v.1l.3.3Zm-5.6 8.8-.5-.3v.5l.5-.2Zm1.6 4.3-.4.2v.1l.2.1.2-.4Zm2.5 1.3.3.4.7-.5-.8-.4-.2.5Zm-3.6 2.5-.3-.4h-.1v.2l.4.2Zm-2.8 5.6-.4-.2-.2.2.2.2.4-.2Zm.5 1 .1.5h.7l-.3-.7-.5.2Zm-3.2.4v-.5h-.2v.1l.2.4Zm-2.5 1.8-.3-.4-.1.2.4.2Zm-3 5.3-.3.5.4.2.3-.4-.5-.3Zm-2.3-1 .2-.4-.3-.1-.2.1.3.5Zm-1.4 1v.5h.1l.1-.1-.2-.4Zm-4.8-.2v-.5.5Zm-6.3 0v-.5h-.2l-.2.1.4.4Zm-1.5 1.9v.5h.3l.1-.2-.4-.3Zm-2.3 0v-.5h-.1l.1.5Zm-1.4.4-.2-.5h-.2l-.1.3.5.2Zm-1 2.4.2.5h.2l.1-.3-.4-.2Zm-1.9.6-.3.4.2.2h.3l-.2-.6Zm-3.1-2.6-.5.2v.1l.2.1.3-.4Zm-1.3-3.5.5-.2v-.1h-.1l-.4.3Zm-3.6-3.8.4-.3-.2-.2h-.2v.5Zm-3 .1-.4.2.1.3h.4v-.5Zm-.6-2.3-.5-.2v.4l.5-.2Zm1-2-.3-.3v.1l.4.2Zm2.5-3 .4.2.2-.2-.1-.3-.5.2Zm-1.2-2.7-.5-.1V86.9l.5-.2ZM59 84l-.4-.3-.1.1v.1l.5.1Zm1.4-1.7.3.3.3-.3-.3-.3-.3.3Zm-1.1-1.1h-.5v.2l.1.1.4-.3Zm-.4-1.8h.5v-.1l-.5.1Zm-.5-1.9-.1-.5-.6.1.2.6.5-.2Zm2-.3.1.5h.3l.1-.3-.5-.2Zm.6-2.4.5.2v-.2H61Zm-.2-1.7-.2-.4-.3.2v.3l.5-.1Zm1-.8.4.4.2-.1v-.3h-.5Zm-.1-5.5-.4-.4-.1.2v.2h.5Zm1.4-1.8-.2-.5h-.1v.1l.3.4Zm1.5-.8.2.5.2-.1v-.1l-.4-.3Zm1.1-2.1.5.2.2-.4-.4-.3-.3.5ZM64 61h-.5v.3l.3.1.2-.4Zm0-2.3h.5v-.5H64v.5Zm-3.4 0v-.6h-.2l-.1.1.3.4Zm-1.5 1-.1.5.2.1.2-.1-.3-.4Zm-2.6-1 .2-.4H56l.3.5ZM54.6 60l-.4.3.3.4.4-.3-.3-.4Zm-.9-1.4-.3-.4-.3.3.2.3.4-.2Zm1-.9.3.4.3-.3-.3-.4-.4.3ZM54 57l.4-.3-.2-.3-.4.2.2.4Zm-4.3 2.4h-.5v.9l.7-.4-.2-.5Zm-.2-2.2-.4-.3V57.1h.4Zm1-1.7.5.2.2-.3-.2-.3-.4.4ZM49.4 54H49V54.4l.4-.3Zm-.2-2.2h.5v-.2l-.5.2Zm76 24.6.5.3.1-.4-.2-.3-.4.4Zm-3-2.8.3-.4-.3-.3-.4.3.4.4Zm1.1 6.4-.1.5h.4l.1-.3-.4-.2Zm-6.5-2-.4-.3-.7.6 1 .2v-.4Zm10.3-6.3.2-.4-.6-.3-.1.7h.5Zm4 2.2.5.2.2-.4-.4-.3-.3.5Zm-4.5.3-.5-.1v.4l.4.2.1-.5Zm3.8 1.3-.2.4.4.2.2-.4-.4-.2ZM114.4 81l.5.1.1-.5-.5-.1v.5Zm-2.4-.5.1-.5h-.4l-.2.3.5.2Zm1.4 5.2-.3.4.6.4.2-.7-.5-.1Zm-2.8-1.8-.4-.2-.2.4.3.2.3-.4Zm1.3 13 .3-.3-.5-.5-.3.7.5.2Zm1.5 1.6h.5v-.2l-.2-.1-.3.3Zm-2.2 0-.4-.2-.1.2.1.3.4-.3Zm1.5 2.2.1.5.7-.2-.4-.6-.4.3Zm-2 .6-.2-.4-.6.2.4.5.4-.3Zm.7 1.2-.5.2.3.4.4-.2-.2-.4Zm3.7-1.7.2-.4-.2-.1h-.2l.2.5Zm1.7.7-.2.5.4.2.2-.4-.4-.3Zm1-1.6.3-.4-.4-.2-.3.4.5.2Zm1.5.6.5.1.1-.4-.4-.1-.2.4Zm-.3 1.5-.5-.1v.5h.4l.1-.4Zm2 .6-.1.5h.2l.2-.1-.3-.4Zm2.3-2 .2-.4h-.3l-.2.1.3.4Zm2.3.8-.2.4.4.1.2-.3-.4-.2Zm3.2-5.4.4.2.3-.5-.6-.2-.1.5Zm-1.7-.7.2-.5-.3-.1-.3.3.4.3Zm-3 4.4.2.4h.1l.1-.2-.4-.2Zm-2.5.7-.2.5H121.7l-.1-.5Zm-2.1-.7-.5.2.1.2h.2l.2-.4Zm-.6-1.3.4-.2V98h-.4v.5Zm-1.3-.3v-.4H117.3l.3.4Zm-2.4 1.6v.5h.2l-.2-.5Zm-1.9.1h-.5v.6h.6v-.6ZM51.1 47l-3.3 1.8.4.9 3.4-1.9-.5-.8Zm3.3 0h-3v1h3v-1Zm-.4-1.4-.1 1.8h1l.1-1.7h-1Zm3.4-2-3 1.6.4.9 3-1.6-.4-.8Zm3 2L58 43.7l-.6.8 2.6 2 .6-.8Zm4.8.5-5-.5v1l4.8.5.2-1Zm3.7-.6L65 46l.2 1 3.9-.7-.2-1Zm8.2 2.1-8-2.1-.3 1 8 2.1.3-1Zm3.6-1-3.9 1 .3 1 3.8-1-.2-1Zm3.7 1.2L81 46.5l-.4 1 3.4 1.2.4-1Zm1-.7-1.4.7.4 1 1.5-.8-.5-1Zm3.7.8-3.3-.8-.3 1 3.3.8.3-1Zm2.5-.3-2.7.3.1 1 2.7-.3v-1Zm3 1-2.8-1-.3 1 2.9 1 .3-1Zm.1 2.2L95 49l-1-.1-.2 1.6 1 .2Zm4.4 1.5-4.7-2-.4.9 4.7 2 .4-.9Zm7.6.5-7.7-.5-.1 1 7.7.5.1-1Zm-.4-1-.1 1.5h1v-1.5h-1Zm4.6.7-4-1.2-.3 1 4 1.2.3-1Zm1.4 2-1.2-1.8-.8.5 1.2 1.8.8-.5Zm5.8.8-6.1-1-.2 1 6 1 .3-1Zm1.8-1.5-2.2 1.6.6.8 2.2-1.6-.6-.8Zm2.4.2-2-.3-.1 1 2 .3v-1Zm.6 4.4-.2-4-1 .1.2 4h1Zm-6.5 5.7 6.3-5.3-.7-.7-6.3 5.2.7.8Zm-7 2.7 6.8-2.7-.3-.9-6.9 2.7.4 1Zm-1 1.8 1.2-2-.8-.5-1.2 2 .8.5Zm.7.4-.7-1-.8.6.7 1 .8-.6Zm-2.2 2 2-1.3-.5-.9-2 1.3.5.8Zm-5.4 8.6 5.6-8.8-.9-.6-5.6 8.8.9.6Zm1.7 3.8-1.7-4.3-.9.4 1.7 4.3.9-.4Zm2.2 1L103 83l-.5 1 2.5 1.2.4-.9Zm-3.5 3.4 3.6-2.5-.6-.8-3.6 2.5.6.8Zm-2.7 5.4 2.8-5.6-.9-.4-2.7 5.6.8.4Zm.6.6-.6-1-.8.4.5 1 .9-.4Zm-3.6 1.1 3.2-.4-.1-1-3.2.4v1Zm-2.3 1.7 2.5-1.7-.6-.9-2.5 1.8.6.8Zm-3 5.2 3.1-5.3-.8-.5-3.1 5.3.9.5Zm-2.8-.8 2.2 1 .4-1-2.2-1-.4 1Zm-1 .9 1.4-1-.5-.8-1.4 1 .5.8Zm-5 0H87v-1H82v1Zm-6.3-.1h6.3v-1h-6.3v1Zm-1 1.7 1.4-2-.8-.6-1.5 2 .8.6Zm-2.8.2h2.3v-1H72v1Zm-1.3.4 1.4-.4-.2-1-1.5.4.3 1ZM70 106l1-2.5-1-.3-1 2.5 1 .3Zm-2.2 1 1.9-.7-.3-1-2 .7.4 1Zm-3.6-2.8 3.1 2.6.7-.7-3.2-2.7-.6.8Zm-1.5-3.8 1.3 3.6 1-.3-1.3-3.6-1 .3ZM59.4 97l3.6 3.7.7-.7-3.6-3.7-.7.7Zm-2.6.2h3v-1h-3v1Zm-1.2-2.6.7 2.3 1-.3-.7-2.3-1 .3Zm1.2-2.4-1.2 2 1 .5 1-2-.8-.5Zm2.4-3.2-2.4 3.1.8.7 2.4-3.2-.8-.6ZM58 87l1.3 2.6.9-.4-1.2-2.6-1 .4Zm.6-3-.6 2.7 1 .2.5-2.7-1-.2Zm1.5-2-1.4 1.8.7.6 1.4-1.7-.7-.6Zm-1.1-.4 1.1 1.2.7-.7-1-1.2-.8.7Zm-.5-2 .4 1.8 1-.2-.4-1.8-1 .2Zm-.5-1.8.6 1.9 1-.3-.7-2-1 .4Zm2.5-1-2.1.3.1 1 2.1-.3-.1-1Zm.2-2-.6 2.4 1 .3.5-2.4-1-.3Zm-.2-1.5.1 1.7 1-.1-.2-1.7h-1Zm1.2-1.3-1 .8.5.8 1-.8-.5-.8Zm-.4-5.1.2 5.5h1l-.2-5.6h-1Zm1.5-2.2-1.4 1.8.8.7 1.4-1.8-.8-.7Zm1.7-.8-1.5.7.4 1 1.5-.8-.4-1Zm.9-2L64.1 64l1 .5 1-2.2-.8-.5Zm-1.6-.3 1.8 1 .5-.9-1.9-1-.4 1Zm-.3-2.8v2.4h1v-2.3h-1Zm-2.9.5h3.4v-1h-3.4v1Zm-1.2 1 1.5-1-.6-.9-1.5 1.2.6.8Zm-3-.9 2.6 1 .3-1-2.6-.9-.4 1Zm-1.4 1.1 1.8-1.1-.6-.9-1.7 1.2.5.8Zm-1.6-1.6.9 1.5.8-.6-.8-1.4-.9.5Zm1-1.4-.9.8.7.7.9-.8-.7-.7Zm-.7-.2.6.8.8-.6-.6-.8-.8.6ZM50 59.8l4.4-2.5-.5-.8-4.3 2.4.4.9Zm-.8-2.7.1 2.3 1-.1L50 57l-1 .1Zm1-2-1 1.7.9.5 1-1.7-.8-.5Zm-1.1-.8 1.2 1.4.8-.7-1.3-1.3-.7.6Zm-.4-2.5.3 2.3 1-.2-.3-2.2-1 .1Zm-1-2.4 1 2.6 1-.4-1.1-2.6-1 .4ZM125.4 76l-3.1-2.8-.7.8 3 2.8.8-.8Zm-1.9 4.2 2-3.5-1-.5-1.8 3.5.8.5Zm-7-1.7 6.5 2 .2-1-6.5-2-.3 1Zm5.1-5.3-5.4 4.5.7.7 5.4-4.4-.7-.8Zm5-1 4.1 2.1.5-.9-4-2.1-.6.9Zm.3 2 .5-2.4-1-.1-.5 2.4 1 .2Zm3.4.8-3.7-1.3-.3 1 3.7 1.2.3-1Zm.2-1.3-.8 1.5 1 .5.7-1.6-.9-.4Zm-16 6.9-2.5-.5-.2 1 2.4.5.2-1Zm-.7 5.3 1-4.7-1-.2-1 4.7 1 .2Zm-3.6-1.5 2.8 1.8.6-.8-2.8-1.8-.6.8Zm1.2-4-1.3 3.4.9.4 1.4-3.4-1-.4Zm0 17L113 99l.7-.7-1.5-1.6-.7.7Zm.2 1.4.6-1.5-.9-.4-.6 1.5.9.4Zm1.4 1.7-1.4-2.2-.9.6 1.5 2.2.8-.6Zm-2.3 1.4 2-.6-.3-1-2 .7.3 1Zm1 .4-.7-1.1-.8.5.6 1.1.9-.5Zm3-1.8-3.6 1.6.4 1 3.7-1.7-.4-1Zm2.2.7-1.7-.7-.4.9 1.7.7.4-1Zm.4-1.4-1 1.6.8.5 1-1.6-.8-.5Zm2.1.4-1.4-.6-.4.9 1.4.6.4-1Zm0 2 .3-1.5-1-.2-.3 1.5 1 .2Zm1.7 0-2-.6-.3 1 2 .6.3-1Zm1.8-1.8-2.3 2 .6.7 2.4-2-.7-.7Zm2.7.6-2.2-.7-.3 1 2.2.6.3-1Zm2.6-5.2-3.2 5.4.9.5 3.2-5.4-.9-.5Zm-1.4 0 1.7.7.3-.9-1.6-.7-.4 1Zm-2.4 4.3 3-4.4-.8-.6-3 4.4.8.5Zm-2.8 1 2.6-.9-.3-1-2.5.9.2 1Zm-2.4-.8 2.1.7.4-1-2.2-.7-.3 1Zm-.9-1.6.6 1.3 1-.4-.7-1.3-.9.4Zm-1 0 1.4.3.1-1-1.3-.2-.1 1Zm-2 1.5 2.4-1.5-.5-.9-2.4 1.6.6.8Zm-2 .2 1.8-.1v-1l-2 .1.2 1Zm-.5-1.8v1.3h1v-1.2h-1Z" fill="#F6995C"/><g filter="url(#a)"><path d="M70.4 80a4.3 4.3 0 0 1-.5.7l-.2.1-.2.1a119.3 119.3 0 0 0-.4.8l-.2.2h-.1v.8a27.2 27.2 0 0 1-.2 2v-1a24.6 24.6 0 0 0-.1-1.8v-.1h-.1v.1l-.1.2v.1l-.2.1v.1H68v.1l-.3.7-.1.5a3.2 3.2 0 0 1-.1.2V82.6h-.1l-.1.3-.1.3a3.6 3.6 0 0 1-.6.8v.1l-.2.1-.1.2H66l-.3-.1a1.7 1.7 0 0 1-.3-.4l-.3-.4c0-.2-.2-.3-.3-.5v-.2l-.2-.2h-.2v.1h-.1l-.1-.2c-1.5 0-2.7-.3-3.6-.7a5.3 5.3 0 0 1-2.4-2l-.1-.3-.1-.2-.1-.3a13.8 13.8 0 0 0-.1-.6V78l.2-.2H61.7a3 3 0 0 1 .7 0h.3l.2.2.3.2a2.7 2.7 0 0 0 .6.3h.7a5.1 5.1 0 0 0 .8 0h.2l.1-.1c.3-.1.4-.2.4-.4l-.1-.3h-.2c0-.1-.1-.1-.2 0a4.4 4.4 0 0 0-.4 0h-.8l-.2.2-.4.1h-.4l-.2-.1-.2-.1a3.5 3.5 0 0 1-.7-.5l-.5-.5H61.4a16.5 16.5 0 0 0-.6.4h-.2l-.1-.2-.1-.4-.1-.3-.2-.1-.2-.2-.2-.2h-.1v-.1a4 4 0 0 1-.9-1v-.2a119.3 119.3 0 0 1-.4-1 5.7 5.7 0 0 1 0-1.9l.1-.2a224.9 224.9 0 0 1 .3-.6c.4-.8 1-1.5 2-2 1-.4 2.1-.7 3.5-.7h.1c1.1 0 2 .1 2.9.4a6 6 0 0 1 2 1.2c.6.5 1 1 1.2 1.5v.3l.1.2.1.3v.3s0 .2-.2.2l-.1.1h-.1l-.2.1-.3.2-.3.1H69a1 1 0 0 0-.4 0H68.1l-.2-.2H67a4 4 0 0 1-.4.1l-.1.1h-.2l-.2.1h-.3a.8.8 0 0 1-.3-.2 2 2 0 0 0-.3-.5H65c-.2 0-.4 0-.6-.2h-.1l-.2-.1h-.7v.1l-.1.2v.1c0 .2 0 .4.3.4l.1.1.4.1.9.2h.5v.1h.6l.2.1h.2c2 .4 3.4 1.1 4 2.1l.2.4v.2l.2.4v.4l.1.3v.4c0 .5 0 1-.2 1.4l-.4.8-.1.2Zm14.8-6.7v.8l-.2.7-.2.5-.1.2a5.2 5.2 0 0 1-.6.8l-.1.1a2.3 2.3 0 0 0-.3.3v.1l-.2.3-.2.4-.1.4v.2l-.2.1v.2h-.2a16.3 16.3 0 0 0-.1.7c-.1.1-.1 0-.1 0l-.1-.3v-.2h-.2v.2l-.3.2v1.5c-.1.1-.1 0-.2 0a10 10 0 0 1 0-1.2V79a5.1 5.1 0 0 0-.3-.4l-.1-.2V78.7l-.1.7v1a20.3 20.3 0 0 1 0 1.5v.3l-.1.6a87.5 87.5 0 0 1-.3.3V81.8a2141.3 2141.3 0 0 1-.2-3.4h-.1l-.1-.2-.1-.2h-.1l-.3.3c0 .1-.1.1-.1 0v-.1a16.3 16.3 0 0 0-.3.9v.2l-.3 1v.2a2.6 2.6 0 0 1-.2.3v.2l-.3-.1a2.4 2.4 0 0 0-.2-.4v-.9a9.5 9.5 0 0 0 0-.8h-.1l-.2-.2-.2-.2-.2-.3V78h-.1V81a3.3 3.3 0 0 1 0 .7v.1l-.1.1-.3.2-.1.3h-.1l-.1.1v1.1l-.1.4v.5s0 .1-.1 0v-.2l-.2-.5a3.8 3.8 0 0 0 0-1l-.3.3-.1.1h-.1v.1l-.1.1H76a141.4 141.4 0 0 1-.1-.4l-.2-.2v-.1l-.3-.3h-.2l-.2.4-.4.2-.2-.1v-.5l-.1.2h-.1v.2H74c0 .1-.1.1-.1 0l-.1-.2a16.5 16.5 0 0 1-.1-.1l-.1-.2v.1l-.1.1h-.2l-.2-.2h-.1l-.1-.1-.2-.1a.5.5 0 0 1-.2-.5V68.5l.3-.2h7a11.4 11.4 0 0 1 2.2.3l.4.2a945270154835.8 945270154835.8 0 0 0 1.1.7l.1.1.5.5.1.2.2.1v.2l.2.2.4 1.1V73.3ZM77.7 72v1.8l1-.5L80 73a1 1 0 0 0-.2-.9h-.1l-.1-.1h-1.6l-.2-.1Zm21.8 9.4v.3c.1 0 .1.1 0 .2v.2l-.1.1v.1l-.1.1v.2l-.1.2s0 .1 0 0H99v-.2l-.2.2-.2.2a14 14 0 0 0-1 1.8l-.1.2h-.1v.4l-.1.4v-.2l-.1-.3V85l-.2-.2-.1-.3-.1-.3-.2-.3h-.1l-.2.2h.1l.1.2-.2.3v-.1l-.1-.3a11.4 11.4 0 0 1 0-.5c-.2 0-.2-.2-.3-.3v-.2l-.2-.2v-.2h-.1v-.2c-.1 0-.2 0-.3.2l.2-.2-.3.2h.2l.1-.2-.2.2h-.1s0-.1 0 0v.3l-.1.1V83l-.1-.4a3.3 3.3 0 0 1-.2-.4l-.2-.2v-.1l-.2-.4a4.8 4.8 0 0 0-.2-.7v-.1l-.1-.1H94l-.1.2-.1.2-.1.2a8 8 0 0 0-.6 1.2 7 7 0 0 1-.3 1l-.2.3-.2.4-.2.1h-.1l-.2-.3v-.3l-.2-.5-.2-.6a42.3 42.3 0 0 0-.3-1.1V81l-.1-.2v-.1H91v.4l-.1.4v-.2l-.2-.4h.2l-.1-.3h-.1v.1a83.3 83.3 0 0 0-.3.7v.5h-.1v-.5l-.1-.5-.2-.2-.1-.2-.2-.4v.7l-.2.2v.2l-.2.4v.1l-.1.2-.2.1v.1l-.1.2a4.6 4.6 0 0 1-.2.7l-.1.3v.2l-.1.1-.1.6-.2.4v.4l-.2.4v.1l-.1.2-.2.2-.1.1v.4l-.1.5-.1.1V86h-.2l-.2-.3-.1-.2-.2-.2-.1-.2a19 19 0 0 0-1-2.2h-.1v-.1l-.2-.2h-.1v-.1l-.1.2v.2l-.1.1-.2-.1v-.1.1-.6h-.1l-.2-.2-.1-.1v-.5l.1-.2.1-.3.8-2a30.4 30.4 0 0 0 .4-1.4v-.3a119.3 119.3 0 0 1 .3-.4l1-3a27.8 27.8 0 0 0 .6-2l.1-.3.4-.9.4-1 .3-.8c0-.1 0-.3.2-.4.2-.2.4-.2.7-.2h4.7l.2.1.2.3a2 2 0 0 1 .2.4V69.4l.1.1.2.4v.2l.1.3.1.4.1.2v.1l.3.5.3.8.1.2.2.7.2.7.2.5.2.8 1 2.8.2.6a13.2 13.2 0 0 1 .4 1.2l.5 1.3v.2ZM92 73v.1l-.1.3-.1.3-.5 1.6V75.5a2.4 2.4 0 0 1-.2.5v.2l-.1.1v.1l-.1.1H93.2l-.1-.2v-.2L93 76v-.2a10.1 10.1 0 0 1-.4-1.1l-.3-1-.2-.5v-.3H92Zm13.8 7.9v1.1l-.2.3-.1.2-.1.2v.1l-.2.1v-.2H104.8v.2l-.2.2-.1.2-.2.1a5.6 5.6 0 0 1-.2.5 12 12 0 0 1-.2-.6l-.1-.1-.1-.1h-.2v.2h-.1v.1-.2l-.1-.1h-.1v.1l-.2.1a77.6 77.6 0 0 1 0 1l-.1 1.1a7.6 7.6 0 0 1-.2 1.6h-.2v-.5l-.1-.2V84.5a5.9 5.9 0 0 0-.1-.7v.5l-.1-.5-.1-.6-.1-.1V83l-.4-.3v-.1h-.1l-.2-.2v.4l-.1.2v-.6c-.1 0-.1-.1-.1 0 0 0 0 .1 0 0v-.1h-.2c-.2-.2-.3-.3-.3-.6a4.1 4.1 0 0 1 0-.8V68.5l.2-.1h.1l.1-.1h4.4l.3.2v12.3Zm14.8 1v.2l-.1.1-.1.1a4.2 4.2 0 0 0-.1.8l-.1.7a35.6 35.6 0 0 1-.3 1.7v.2h-.1v-.2l-.2-.4v-.5l-.2-1-.1-1v.4h-.2v.1h-.1a14.1 14.1 0 0 1-.1-.3v.1l-.1.1-.1.1h-.1V84.3h-.1l-.1-.5v-.4l-.1-.5a4 4 0 0 1-.3-.3v-.2h-.2l-.2.2v.2h-.1l-.1-.2-.2-.2h-.1v-.1h-.2l-.1.1H116.5v-.2l-.2-.2-.2-.2-.2-.3v-.1l-.2-.1a1.5 1.5 0 0 0-.1-.3l-.1-.1-.1-.2-.4-.5a52 52 0 0 1-1-1.6l-.8-1.2a3.6 3.6 0 0 1-.4-.6c0-.1 0 0 0 0v5.1h-.1v.1l-.2.2h-.1v.2l-.1.1v.1l-.1.1-.4.8-.2.4-.1.2h-.1v.1l-.1.8v.7h-.1V84.8l-.1-.7h-.1l-.2-.3V83.5h-.1v-.2l-.2-.6-.1-.2v.8h-.1l-.1-.2-.2-.3-.2-.2-.1.1h-.1l-.2.1v.2h-.2l-.2.1v.7a24 24 0 0 1 .1 1.6c0 .2 0 .2-.2 0-.2-.1-.3-.4-.3-.7l.1-1 .1-.8v-.1a5 5 0 0 1-.1-.2v.4l-.1.4v-.6l-.2-.6h-.1a.5.5 0 0 1-.3-.5V68.6l.3-.2.1-.1H112.2l.2.2.3.4.2.3v.1l.1.2.4.5.4.7v.1l.7 1.1a14.7 14.7 0 0 1 1.1 1.8l.3.4V68.6l.1-.1h.1v-.1l.3-.1H120.3l.2.1.1.2V81a4.1 4.1 0 0 1 0 .8Z" fill="#51829B"/></g><defs><filter id="a" x="37.8" y="50.1" width="102.8" height="59.1" filterUnits="userSpaceOnUse" color-interpolation-filters="sRGB"><feFlood flood-opacity="0" result="BackgroundImageFix"/><feColorMatrix in="SourceAlpha" values="0 0 0 0 0 0 0 0 0 0 0 0 0 0 0 0 0 0 127 0" result="hardAlpha"/><feOffset dy="2"/><feGaussianBlur stdDeviation="10"/><feComposite in2="hardAlpha" operator="out"/><feColorMatrix values="0 0 0 0 0.960784 0 0 0 0 0.929412 0 0 0 0 0.929412 0 0 0 0.4 0"/><feBlend in2="BackgroundImageFix" result="effect1_dropShadow_116_130344"/><feBlend in="SourceGraphic" in2="effect1_dropShadow_116_130344" result="shape"/></filter></defs></svg>