<svg width="190" height="150" fill="none" xmlns="http://www.w3.org/2000/svg"><path clip-rule="evenodd" d="m73.8 52.2 3.8.8-.3 1.9h4.3l3-1.3-1.3-1 2.6-2.2.8.8.5 1 3.5-1.4 1.8 1h3.3l2-1.9 1.5.4 2 1.6h2.2l2-2.1-4.3-1.2 3.6-3.6 3.5 1.3-.6 1.7 2.4.6 2 1.3 3.3-.6 5.5 3.2 2 3 2.7.6.5 2-3.6 5.3.4 3.2-.9 1.2.4.7 3.7-.8 4.1 2.2v2l4 2.4h2.7l1-2.7 2.5-1.9 2 2.2L140 79l.3 1.6 2 .7-.5 2.1-2-.4-1 .6-1.8-2.6-2.4.2L133 84l.2 3h1.7l.7 1-1.4 1.8 1.3 2.2-1.4 1.1-1-.3-1.9-4.3-3.8 1-1.7 1.5-1.5.2-2.2-1.4-1.1-5.1h-3.2l-.4 1.7.6 3.7-2.4 4.1-2 2-1.4 2.4v3.3l1 1.7-1.8 1-1.8-.8.7-1.1-1.2-2.9-2-.5-.1-.7 2.5-1.4-1.6-1.3-3.2-.6-3.8-4.7.6-5.8-1.2-.5-2.6 1.8.6 1-2.6 3.3h-2l-.5.5 1.5 2.9-6.9 6.8-3.2-1.6-2.1-.3-3.1 2-3.1-.6-1.5 1.8h-1.5L69.6 94l-2-.5-.3-.7 1.2-3.3-1-4.3-5.4-.4-4.3 1-1 2 .8 1.8-3.9 2.7-2-.5-1.1 1-1-.3.7-1.4-.7-1.5 3.3-2.4-.4-2 2.2-5.2.3-1.9 6.4-4.4-.1-4.7 5.8-3.3 7.9-7.5-.2-1.6-3.6-.4 2.6-4Z" stroke="#F6995C"/><g filter="url(#a)"><path d="M32.9 76.8a4.2 4.2 0 0 1-.6.6l-.1.1h-.1v.2l-.2.1v.2l-.3.4-.2.2-.1.1v.7a27.2 27.2 0 0 1-.2 2v-1a24.6 24.6 0 0 0-.1-1.8h-.1v-.1.1l-.1.2-.1.1-.1.2-.1.1-.3.7-.2.5v.2-.6l-.1-.7-.1.3a785.3 785.3 0 0 1-.8 1.2v.1l-.2.2h-.3l-.2-.1a1.7 1.7 0 0 1-.3-.4l-.3-.4-.3-.5v-.2l-.2-.1v-.1H27v.1l-.1.1v-.1l-.1-.2c-1.5 0-2.7-.3-3.6-.7a5.3 5.3 0 0 1-2.4-2l-.1-.2-.1-.2-.1-.4a13.3 13.3 0 0 0-.2-.6l.1-.4a59956544613.8 59956544613.8 0 0 1 .5-.2H24a3 3 0 0 1 .8 0l.2.1c.1 0 .2 0 .3.2l.3.2a2.7 2.7 0 0 0 .5.2h.7a5 5 0 0 0 .9 0h.2l.1-.1c.2-.1.3-.2.3-.4v-.3h-.2c0-.1-.1-.1-.2 0a4.6 4.6 0 0 0-.4 0H27a29.8 29.8 0 0 1-1 .3h-.3l-.2-.1-.2-.1a3.5 3.5 0 0 1-.7-.5l-.5-.5H24a16.5 16.5 0 0 1-.6.5h-.1l-.2-.1v-.2l-.2-.3V73l-.2-.1-.2-.2-.2-.2H22v-.1a4 4 0 0 1-.9-1v-.1L21 71l-.2-.8a5.7 5.7 0 0 1 0-2l.1-.2V68l.2-.2v-.2c.5-.8 1.2-1.5 2.1-2 1-.4 2-.7 3.4-.7h.2c1.1 0 2 .1 2.9.5a6 6 0 0 1 2 1.2c.6.4 1 1 1.2 1.5v.2l.1.2V69.3h-.2v.1H32.4a29.8 29.8 0 0 1-.6.3h-.4a1 1 0 0 0-.3 0h-.6l-.2-.2a56.2 56.2 0 0 1-.2 0H30a565.7 565.7 0 0 1-1.6.3.8.8 0 0 1-.3-.2 2 2 0 0 0-.3-.5h-.2L27 69l-.2-.1-.1-.1H26l-.1.1h-.1V69.3c0 .2 0 .4.3.5h.1l.4.2.9.1.5.1h.6v.1H29c2.1.4 3.5 1.1 4 2.2h.1l.2.4v.1l.2.4v1.2c0 .4 0 .9-.2 1.3 0 .4-.2.6-.3.8l-.1.2Zm17.6-11.3v.3l-.1.3-.1.7a7.4 7.4 0 0 1-.2 1.4l-.5 3.4v.5a492.1 492.1 0 0 1-.7 4.2 38.6 38.6 0 0 1-.2 1v.2a37.6 37.6 0 0 0-.2 1v.1l-.1.1-.2.1v.4l-.2.2v.1l-.1.2v.2l-.2.1-.2.4-.3.2v.1c-.2.1-.2.2-.3.4a2.7 2.7 0 0 1-.2.4H46.4v-.2a6.2 6.2 0 0 1-.4-.8v-.1h-.1v.7a101 101 0 0 1 .1 3.3c0 .2 0 .2-.2.1s-.2-.4-.3-.8v-1.3l.2-1.3v-.8l-.1-.2a6.5 6.5 0 0 1-.4-1H45v.2h-.2v.4h-.1v-.3l-.1-.2-.2-.1V79l-.1-.1a424620349494.7 424620349494.7 0 0 0-.5-.6v-.4h-.1v-.2l-.1-.1-.2-.4a11 11 0 0 1-.3-.8V76l-.4-.6-.2-.6v-.2l-.1-.1v-.2h-.1v.2l-.2.3-.2.5-.2.3a4 4 0 0 1-.1.4l-.2.3a7 7 0 0 1-.3 1 8.4 8.4 0 0 1-.6 1.3l-.2.2a464.4 464.4 0 0 1-.4 1.3l-.2.4a476 476 0 0 1-.3.9v.1l-.1.1v.1h-.1v.7a7 7 0 0 1 0 1.2c0 .1 0 .2-.2.1-.2 0-.3-.2-.3-.4 0-.3 0-.5.2-.8V81.7a3 3 0 0 0-.3-.4v-.1l-.2-.1V81h-.1v-.1h-.1v-.1l-.4-.6-.1-.6v-.1l-.2-.1a83.3 83.3 0 0 0-.2-.3l-.1-.1-.2.3.1.5v.6a5.6 5.6 0 0 1 0 .3L37 80V79.1H37V79h-.3v-.1h-.1l-.2-.2-.2-.2v-.6l-.1-.2v-.5L36 77l-.1-.6-.2-.8a36.3 36.3 0 0 1-.4-3v-.4l-.6-4v-.6l-.2-.8-.2-1v-.4l.1-.3.3-.1h3.9c.2 0 .4 0 .5.2V65.5l.1.3v.5l.1.5v.4l.2 1.3a20.6 20.6 0 0 1 .2 1.3l.1 1.3.1-.1a224.9 224.9 0 0 0 .2-.6v-.1l.5-1.4.2-.6.2-.1.4-.1h.2a19.7 19.7 0 0 0 1.8 0c.2 0 .4 0 .5.2l.2.4.8 2.3v.1-.7l.1-.3v-.3l.1-.5a138.8 138.8 0 0 1 .3-2.5l.1-1a12 12 0 0 1 .2-.6l.1-.1.4-.1H50.1c.1 0 .2 0 .3.2V65.5Zm-8 9Zm14.7 3v1.1l-.3.3v.2l-.2.2v.1l-.1.1-.1-.1v-.2h-.1l-.1.2-.3.3v.2l-.2.2a56.2 56.2 0 0 1-.3.2V80h-.1v-.1l-.2-.1v-.1H55v.2l-.1.1-.1-.1v-.2l-.1.1-.2.1v1a241.2 241.2 0 0 0-.4 2.8l-.1-.1v-.1a16.5 16.5 0 0 0-.1-.6V81.2a6 6 0 0 0-.1-.7v.5c-.1-.2-.2-.4-.1-.5l-.1-.6-.1-.1-.1-.1-.3-.3v-.1h-.2l-.1-.1v.3l-.1.2-.1-.3v-.3s0-.1 0 0v.1l-.1-.2h-.1c-.2-.2-.3-.3-.3-.6a4 4 0 0 1 0-.8V65.2l.1-.1h.2l.1-.1h4.4l.2.2.1.3v12Zm14.3-9.3v.7l-.1.1-.1.1-.1.1-.2.3s0 .2-.2.3l-.1.3-.2.4a26 26 0 0 1-.7 1.3l-.2.3v.1l-.1.1-.1-.1-.1-.2-.2-.2v-.2l-.1-.1-.2-.4-.4-.6a16.2 16.2 0 0 0-.5-.8l-.2-.2-.1-.2V78.7h-.1l-.2.2v.1h-.1l-.1.2h-.4c0-.1 0 0 0 0h-.1l-.2-.1h-.1l-.1.3h-.3l-.1-.2v.1h-.2v.2l-.1.2v.4l-.1.3a4 4 0 0 0-.1.3l-.1-.5v-.6l-.1-.2-.2-.2-.1-.1H64.4v.1l-.2.2a11.8 11.8 0 0 0-.3.4 16.5 16.5 0 0 1-.1.2v.6a22.2 22.2 0 0 1-.2 2.4l-.1-.6a46.6 46.6 0 0 1 .1-1.9l-.1-.6v-.1h-.1l-.2-.3-.1-.3-.1-.2h-.2a.6.6 0 0 1-.3-.2v-.2l-.1-.3v-9h-.1V69.7l-.1.1-.1.3-.1.1a1.5 1.5 0 0 1-.3.3l-.2.2h-.1v.2l-.1.2v-.3l-.1-.2-.2-.1v-.2H61l-.1-.1-.1.2v.2l-.1.1v-.4h-.1l-.1.2-.1.1h-.1v.4a35 35 0 0 1-.2.2H60v-.7h-.1l-.1-.2-.2-.2-.2-.1a30.6 30.6 0 0 1-.5-.7.5.5 0 0 1-.2-.5v-2.9a2 2 0 0 1 0-.5l.2-.2.3-.1h12v.1c.2 0 .2.2.2.2v2.9ZM60 72.4c0 .1 0 0 0 0l-.2-.6.1-.6v1.2Zm.1 0a3.5 3.5 0 0 0 .1-.5v.5ZM85 77.7v.4a1.3 1.3 0 0 1 0 .6h-.1l-.1.2h-.1l-.1.4-.2.4c0 .2-.2.2-.3 0v-.2l-.2-.2v.2a124.6 124.6 0 0 1-.5-.1v-.2l-.1.3a14.4 14.4 0 0 0 0 1.5h-.1a310.5 310.5 0 0 1-.4-1.3 4.3 4.3 0 0 1-.3.3l-.1.2-.1.1a56.2 56.2 0 0 1-.4-.5l-.2-.1h-.4v.1-.2s0-.1-.1 0v.2l-.1.1v-.4H80.7v.3l-.1.3-.1.1a136.7 136.7 0 0 1-.4.4 3.9 3.9 0 0 1-.4.5l-.2.2-.2-.1H79l-.1.1h-.1a21.5 21.5 0 0 1 0-1.9h-.2l-.2.3-.1.3a2.1 2.1 0 0 0-.2.3l-.2.2v.9a9.7 9.7 0 0 1-.1 1.5 5.8 5.8 0 0 1-.1 1 2 2 0 0 1 0 .6h-.1l-.1-.2V83.7a51.5 51.5 0 0 0-.3-2.9v.1l-.1.1-.1.1-.1.1a132.7 132.7 0 0 0-.3 2.3l-.1-.8v-1.6l-.1-.1a1.8 1.8 0 0 1-.2-.4l-.2-.3-.2-.3-.4-.5v-.1l-.1-.2h-.1v1.1h-.4v-1h-.1v.1c-.2.3-.2.6-.2 1 .1.2 0 .5 0 .8v.2a7.2 7.2 0 0 1-.1.4v.5l-.3.2c-.1 0-.2 0-.2-.2v-.8l.1-1V80h-.1l-.2-.2-.2-.1s0-.1 0 0v.4a11.6 11.6 0 0 1 0 1.1c0 .1 0 .1-.1 0a.7.7 0 0 1-.2-.5v-1.3.9L73 80a3.5 3.5 0 0 0-.1-.5 32.4 32.4 0 0 1 0-.6h-.1a.5.5 0 0 1-.3-.2v-.2l-.1-.3v-3.1l.2-.3.3-.2.3-.3.3-.4.8-.8.9-1 .7-.7.7-.7.6-.6.6-.6.2-.2v-.1h.1l.1-.2.1-.1H77.7l-.4.1H77l-.2.1a10.2 10.2 0 0 1-1.2.3H75l-.1.1-.1-.1-.1-.1v.5l-.1.3v.4h-.1v-.1l-.1-.2h-.1l-.1-.2-.1-.1-.1-.1h-.2v-.2H73.5l-.2-.1-.1-.2-.2-.1v-.1L73 69h-.1v-.1h-.1v-.2l-.1-.2v-3c0-.2 0-.3.2-.4l.3-.1h11.1c.3 0 .4.2.4.4V68.2a1.3 1.3 0 0 1-.2.8l-.1.2-.2.2-.5.5-.2.2-1.5 1.6A254.2 254.2 0 0 0 81 73l-.5.5-.2.3-.2.2-.4.4v.1l-.4.3h5c.2 0 .4 0 .6.2l.1.1v.2l.1.4v2ZM74.2 80v.5l.1.8a17.3 17.3 0 0 0 0-1.4c0-.1 0 0 0 0Zm24-3.6a25.7 25.7 0 0 0 0 2v.5a83.3 83.3 0 0 1-.5.5l-.3.3-.2.3-.1.2-.2.2-.1.2a.8.8 0 0 1-.3.2l-.2.1v.1H96a1.3 1.3 0 0 1-.2-.1l-.1.1v.9l-.1.8v.5l-.1.3c-.1 0-.2-.1-.1-.3v-.4a556.4 556.4 0 0 0-.1-1.9l-.1-.1a9.1 9.1 0 0 0-.4-.7l-.3-.5v-.2l-.1-.2v.3l-.1.2v.1l-.1-.2v-.2l-.1.3-.1.2a3.3 3.3 0 0 1-.5.9l-.1.3a2.6 2.6 0 0 1 0 .5l-.1.2a65.2 65.2 0 0 0-.1-.3l-.1-.4a2.8 2.8 0 0 0 0 .6v.1c-.2-.1-.2-.2-.2-.4v-.5.4l-.1-.2-.1-.2s0-.1-.1 0l-.2.1-.2.3H92v.6a87.3 87.3 0 0 0 .2 1.4c0 .1-.1.2-.3.2l-.3-.3v-.6a74.2 74.2 0 0 0 .2-1.3l-.1-.2-.1-.1-.2-.5-.3-.6a19.9 19.9 0 0 1 0-.2 4.1 4.1 0 0 0-.5-.1v-.1h-.2l-.3.4H90a30 30 0 0 0-.2 2.9v-.6a28.8 28.8 0 0 1 .1-1.8c0-.2 0-.4-.2-.6l-.3-.3v-.1h-.1l-.2-.3c0 .1 0 .2-.2.2H89v.5l-.2 1a11.9 11.9 0 0 1-.2 1 1 1 0 0 1-.1-.6v-.7l.1-.5s0-.1-.2 0l-.5-.1a30.2 30.2 0 0 1-.3-.3v.5a13 13 0 0 1 .1 1.1c0 .1 0 .1-.1 0a1 1 0 0 1-.2-.5V79.3v.8-.5L87 79l-.1-.1a.5.5 0 0 1-.2-.5V65.2l.3-.2H98l.1.2.1.3V68.6a239319501456.6 239319501456.6 0 0 0-.5.4h-.7a1 1 0 0 0-.6.1l-.2.1-.2.1h-.2l-.2.2H95l-.1-.1h-.1l-.2.2-.2.1H93.5l-.4-.1a646.7 646.7 0 0 1-1-.5l-.5-.2V70h5.2a1 1 0 0 1 .6.1l.2.2v.1a117.8 117.8 0 0 0 0 .5V73.5l-.3.3-.3.1-.2.1-.3.2a1 1 0 0 1-.4.1 6.7 6.7 0 0 1-.4.1h-.2a277.6 277.6 0 0 1-.9.2h-.5l-.2-.1h-1c0-.2-.1-.2-.2-.3a8.4 8.4 0 0 0-.9-.3 2 2 0 0 0-.2 0V75H98v.1h.1v.1l.1.2V76.3Zm14.8 2.2V78.8l-.2.1v.2l-.1.2-.3.5-.2.3c0 .1 0 .2-.2.3l-.1.1v-1.2h-.2l-.2.2h-.1l-.2-.2-.1-.1v.6h-.1v-.2l-.1-.4v.1l-.2.2-.1.4a2.4 2.4 0 0 1 0 .6h-.1l-.1-.1V80l-.1-.3v-.1h-.2v.2l-.1.1-.2.1v.7l-.1.7v.3l-.1.3-.1-.1v-.4a16 16 0 0 1 0-1.5 5.5 5.5 0 0 0-.3-.3l-.1-.1-.2-.1-.1-.1h-.2v.5l-.1.5-.1-.2V80h-.1c-.2-.1-.2-.3-.2-.4V79 79.4v-.2l-.1-.2v.1l-.1-.1v-.3h-.1l-.1-.1v-.2h-.1l-.1-.2V78l-.2-.3a7 7 0 0 0-.3-.7l-.2-.5-.1-.1-.2-.5v-.2l-.2-.3-.1-.2-.1-.2V75l-.1-.1-.2-.2v.2l-.1.2v.1h-.2l-.2-.1-.1-.2-.1-.2v4l-.1.2h-.1l-.1.2-.2.1v.1l-.1.4a2.5 2.5 0 0 1-.1.6h-.2V79.8l-.1-.2v-.1l-.1-.1h-.1v.1h-.2a21.8 21.8 0 0 0 0 2.7s0 .1-.1 0c-.1 0-.2-.1-.1-.3v-2.3a5.5 5.5 0 0 0-.2-.1v-.1l-.1-.1v-.2h-.7c0-.1-.1-.2-.3-.2h-.2c0 .1 0 .2-.2.2h-.4a32.6 32.6 0 0 0-.3 0h-.3a13 13 0 0 1-.5-.3.5.5 0 0 1-.2-.5V65.5l.1-.3.2-.2h7.1a7.2 7.2 0 0 1 3.6 1.3c.6.5 1 1 1.2 1.6.3.5.4 1.2.4 2 0 .4 0 .8-.2 1.2l-.1.5v.1l-.3.5a4 4 0 0 1-.3.5h-.1v.1l-.2.2h-.1l-.1.2h-.1v1l.2 1v.1l.1.2.4.8.5.9a9.8 9.8 0 0 0 .6 1.1v.2Zm-7.7-7.7h1.5c.2 0 .3-.1.3-.3l.3-.4a1 1 0 0 0 0-.4v-.5l-.3-.3-.2-.1h-1.2a200 200 0 0 1-.6-.1v2l.2.1Zm5.6 3.7.1-1.1v.4h-.2s0-.1-.1 0h-.1v.2l.3.5Zm-2.6 5V79.2 79.5Zm17.4-1.4v.6h-.1v.1l-.2.1-.2.2-.2.1v.1h-.3l-.1.1h-.1v-.2h-.2v.6l-.2.2v.1l-.1-.4v-.4l-.1.1-.1.1-.1.1-.3.2a41.9 41.9 0 0 0-.3.3 17.8 17.8 0 0 0-.1 2V82l-.1-1v-1l-.2-.1a11.4 11.4 0 0 1-.2-.3v-.2h-.1v1l-.1 1H122v-1l-.1-1h-.2v.1l-.2.2-.1.2v.1l-.1.8a8.4 8.4 0 0 1-.1 1.2h-.1v-1l-.1-.9v.5l-.1.1v-1a1.4 1.4 0 0 1-.2-.2h-.1v-.2h-.2V79v.2l-.1.3h-.1v.1h-.2v-.5l-.1.2-.2.1-.2.2v.4a5.6 5.6 0 0 0-.1.2s0 .1-.1 0l-.1-.3v-.4h-.1l-.2-.2a2.9 2.9 0 0 0 0-.2l-.1.1v.2l-.1.1v.1h-.1a20 20 0 0 1-.1-.3l-.1.2a16.8 16.8 0 0 0-.8 1.3l-.2.3h-.2a5.6 5.6 0 0 0-.1.6h-.1l-.1-.3v-.3l-.2-.1v-.2h-.1l-.2-.3-.1-.2-.3-.4a6.2 6.2 0 0 0-.6-.7l-.1-.1-.1-.1v.8a37 37 0 0 1-.2 2v-1.5l-.1-1.4-.2-.2-.2-.3V65.3l.1-.1.1-.1h.2V65H119.5v.1l.2.3v9.3l.1.2h5.8l.1.2v.1l.1.2V78Zm15.2 0 .1.3v.4l-.1.1v.1l-.1.1v.1l-.1.2v.2l-.1-.2v-.1l-.2.2-.2.2a14 14 0 0 0-1 1.9l-.1.1h-.1v.4l-.1.4-.1-.2v-.6a.7.7 0 0 1-.2-.2 785.3 785.3 0 0 1-.5-1v.1l-.2.2.2.2-.2.3-.1-.1v-.3a11.3 11.3 0 0 1-.1-.5l-.2-.3-.1-.2v-.2l-.1-.1-.1-.2h-.1l-.3.1.3-.1v-.1l-.3.3.2-.1.1-.2-.3.2-.1.3v.1-.3l-.1-.4a3.3 3.3 0 0 1-.2-.4l-.2-.1s0-.1 0 0v-.2l-.2-.4a4.9 4.9 0 0 0-.3-.7v-.2h-.1l-.1.2-.1.2-.1.2a8 8 0 0 0-.6 1.2 6.7 6.7 0 0 1-.3 1l-.2.3-.2.4-.2.2-.1-.1-.2-.3v-.2l-.2-.6-.2-.6a41.1 41.1 0 0 0-.3-1.1v-.2h-.1V77.4h-.1v.4l-.1.4-.1-.2v-.7h-.1v.1l-.1.2h-.1l-.1.1v.9h-.1l-.1-.4v-.6l-.2-.2-.2-.2-.1-.4v.6l-.1.1v.2l-.2.3v.3l-.1.2h-.1l-.2.2v.2l-.1.1a4.8 4.8 0 0 1-.3.7v.3l-.1.3v.1l-.2.5v.5l-.2.3-.1.4v.2l-.2.2v.1l-.2.1v.5l-.1.4v.1h-.1v-.5l-.1-.5v-.1h-.1l-.2-.3-.1-.1-.2-.3-.2-.2a19.5 19.5 0 0 0-1-2.2v-.1l-.2-.1-.1-.1v-.1l-.1.2-.1.2v.1l-.2-.1v-.1.2l-.1-.7a.5.5 0 0 1-.3-.3v-.5l.1-.2v-.2l.2-.2.6-2a27.1 27.1 0 0 0 .4-1.3l.1-.2.1-.2v-.1l.1-.2 1-3a24.5 24.5 0 0 0 .7-1.9l.1-.4.4-.8.4-1 .2-.9.3-.4c.2-.2.4-.2.7-.2h4.7l.2.2.2.2a2.1 2.1 0 0 1 .2.4v.4l.3.5v.2l.1.3.1.3.1.2v.1l.3.5.3.8v.2c.2.2.3.5.3.7l.2.7.2.5.2.8 1 2.8.2.6a13.2 13.2 0 0 1 .4 1.2l.5 1.3v.2Zm-7.4-8.5v.2l-.2.2v.3l-.5 1.6v.2l-.1.1v.3l-.1.2v.2l-.1.2v.1h-.1 2.2V73l-.1-.2-.1-.2a10 10 0 0 1-.3-1.1l-.4-1v-.5h-.1v-.2h-.1Zm21.3 9h-.1v.2h-.1l-.1.1a4.2 4.2 0 0 0-.1.8l-.1.7a35.6 35.6 0 0 1-.2 1.7v.1l-.1.1h-.1V82l-.2-.4v-.4l-.2-1.1v-1l-.1.2v.2h-.1l-.1.1-.1-.2v-.2l-.1.2-.1.1-.1.1-.1.7v.6h-.1v-.7l-.1-.2-.1-.5a4 4 0 0 1-.2-.3l-.1-.1V79h-.1l-.1.1-.1.1h-.1v.2h-.1v-.2h-.2V79h-.1l-.2-.1-.2.1h-.2l-.1-.2-.2-.2-.2-.2-.1-.2-.1-.2-.1-.1a1.5 1.5 0 0 0-.2-.3v-.1l-.2-.2-.4-.4a52 52 0 0 1-1-1.7l-.8-1.2-.3-.4v-.1l-.1-.1c0-.1 0 0 0 0v5.1h-.1v.1l-.2.2v.1h-.1l-.1.2v.1l-.1.1-.4.8-.2.4-.1.2-.1.1v.8l-.1.8v-.1l-.1-.2V81l-.2-.1-.1-.3-.1-.1v-.2a5.6 5.6 0 0 1-.1-.2l-.2-.6v-.2l-.1.4v.5h-.1V80l-.1-.2a37.8 37.8 0 0 1-.4-.5l-.1.1h-.1l-.1.2h-.1l-.2.2h-.2v.7a24 24 0 0 1 .1 1.7c0 .1 0 .1-.2 0-.2-.2-.3-.5-.3-.8l.1-1 .1-.8v-.1a4.7 4.7 0 0 1-.1-.2v.4l-.1.4v-.6l-.2-.5-.1-.1a.5.5 0 0 1-.2-.5V65.3c0-.1 0-.2.2-.2l.1-.1H146.3l.2.2.3.4.2.4.1.2.4.5.4.7v.1l.7 1.2a14.7 14.7 0 0 1 1.1 1.7l.3.4v-5.5l.2-.1V65l.4-.1H154.4s.2 0 .2.2l.1.1v12.5a4.1 4.1 0 0 1 0 .7ZM170 72v.7a13.8 13.8 0 0 1-.3 2.1 5.8 5.8 0 0 1-.5 1.3l-.2.5-.2.3-.3.2-.2.2-.2.2a1.2 1.2 0 0 0-.3.4v.1l-.3.3-.2.2-.3.2-.1.2-.1.1v.2h-.1a18 18 0 0 0-.1 1.6v1.6h-.1V82.2l-.3-.9v-1.6l-.1-.7h-.2l-.1-.1-.1.1v.1l-.2.1c-.1.2-.3.4-.3.7l-.2.3-.1.5-.3.5-.1.1-.2.1H164l-.2.2h-.2c0-.1-.1-.1-.1 0l-.1-.1-.2-.2-.2-.1-.1-.1v.4l-.1.1v1.8a18.1 18.1 0 0 1-.2 1.5v-1.4a41.4 41.4 0 0 1-.3-2.3l-.2.3-.2.2v.4a34.5 34.5 0 0 1-.4 2.2v-1a10.5 10.5 0 0 0-.2-1v1a11.7 11.7 0 0 1-.1 1v-.2l-.2-.5v-.5a176 176 0 0 0-.2-1.4h-.1l-.1-.3-.1-.1a18.3 18.3 0 0 1-.6-1.5l-.3-.6v.1l-.1.2-.1-.1v-.2h-.1v.2l-.2.1-.1.1-.2.3a6.7 6.7 0 0 1-.1.7v.2c0 .1 0 .2-.1.1l-.2-.2.1.2.1.3h-.2s-.2-.1-.2-.3l.1-.5V80v.6s0 .1 0 0c-.1-.1-.2-.3-.1-.4v-.5l-.1-.2h-.1l-.1-.1-.1.1v.9c0 .1 0 .1-.1 0-.1 0-.2-.2-.1-.4a1.3 1.3 0 0 0 0-.7v.2h-.1v-.2l-.2-.2-.1-.1a.5.5 0 0 1-.2-.5v-3.7l-.6-1.2v-.9c0-.2.2-.3.6-.3v-7.1a.5.5 0 0 1 .5-.2h6.7a6.9 6.9 0 0 1 4 1.6 4.7 4.7 0 0 1 1 1.3c.3.5.5 1 .6 1.6a3 3 0 0 1 .1.4V72Zm-8-3.2-.3-.3.2.2v6a5 5 0 0 1-.3 2.2c-.2.4-.5.7-.9.7a2 2 0 0 1-1.1-.3c-.5-.2-.9-.6-1.3-1a11 11 0 0 1-1.1-1.4c-.3-.4-.6-.9-.7-1.3l-.2-1c.1-.3.4-.5.8-.4.4 0 1 .2 1.8.6.8.4 1.8 1.1 3 2l.2.2h1.4l.5-.2.3-.1.1-.2.3-.5v-.4l.1-.1v-1l.1-.6v-1.6l-.1-.4c0-.1 0-.2-.2-.3v-.2h-.1l-.1-.2-.3-.1h-.3l-.4.1h-.3l-.2.1h-.2l-.2-.1a9.6 9.6 0 0 0-.5-.4Z" fill="#51829B"/></g><defs><filter id="a" x=".3" y="46.8" width="189.7" height="60.3" filterUnits="userSpaceOnUse" color-interpolation-filters="sRGB"><feFlood flood-opacity="0" result="BackgroundImageFix"/><feColorMatrix in="SourceAlpha" values="0 0 0 0 0 0 0 0 0 0 0 0 0 0 0 0 0 0 127 0" result="hardAlpha"/><feOffset dy="2"/><feGaussianBlur stdDeviation="10"/><feComposite in2="hardAlpha" operator="out"/><feColorMatrix values="0 0 0 0 0.960784 0 0 0 0 0.929412 0 0 0 0 0.929412 0 0 0 0.4 0"/><feBlend in2="BackgroundImageFix" result="effect1_dropShadow_116_130326"/><feBlend in="SourceGraphic" in2="effect1_dropShadow_116_130326" result="shape"/></filter></defs></svg>